solid Exported from Blender-2.82 (sub 7)
facet normal -1.000000 0.000000 0.000000
outer loop
vertex 0.945480 -1.000000 1.000000
vertex 0.945479 -0.000000 -0.000000
vertex 0.945480 -1.306563 0.541196
endloop
endfacet
facet normal -1.000000 0.000000 0.000000
outer loop
vertex 0.945479 1.306563 -0.541196
vertex 0.945479 -0.000000 -0.000000
vertex 0.945479 1.414213 -0.000000
endloop
endfacet
facet normal -1.000000 0.000000 0.000000
outer loop
vertex 0.945480 -1.306563 0.541196
vertex 0.945479 -0.000000 -0.000000
vertex 0.945479 -1.414213 -0.000000
endloop
endfacet
facet normal -1.000000 0.000000 0.000000
outer loop
vertex 0.945479 1.414213 -0.000000
vertex 0.945479 -0.000000 -0.000000
vertex 0.945480 1.306563 0.541196
endloop
endfacet
facet normal -1.000000 0.000000 0.000000
outer loop
vertex 0.945479 -1.414213 -0.000000
vertex 0.945479 -0.000000 -0.000000
vertex 0.945479 -1.306563 -0.541196
endloop
endfacet
facet normal 1.000000 0.000000 -0.000000
outer loop
vertex 0.945480 1.000000 1.000000
vertex 0.945479 -0.000000 -0.000000
vertex 0.945480 1.306563 0.541196
endloop
endfacet
facet normal 1.000000 0.000000 -0.000000
outer loop
vertex 0.945479 -1.000000 -1.000000
vertex 0.945479 -0.000000 -0.000000
vertex 0.945479 -1.306563 -0.541196
endloop
endfacet
facet normal -1.000000 -0.000000 0.000000
outer loop
vertex 0.945480 1.000000 1.000000
vertex 0.945479 -0.000000 -0.000000
vertex 0.945480 0.541196 1.306563
endloop
endfacet
facet normal -1.000000 0.000000 0.000000
outer loop
vertex 0.945479 -1.000000 -1.000000
vertex 0.945479 -0.000000 -0.000000
vertex 0.945479 -0.541196 -1.306563
endloop
endfacet
facet normal -1.000000 0.000000 0.000000
outer loop
vertex 0.945480 0.541196 1.306563
vertex 0.945479 -0.000000 -0.000000
vertex 0.945480 -0.000000 1.414213
endloop
endfacet
facet normal -1.000000 0.000000 0.000000
outer loop
vertex 0.945479 -0.541196 -1.306563
vertex 0.945479 -0.000000 -0.000000
vertex 0.945479 -0.000000 -1.414213
endloop
endfacet
facet normal -1.000000 0.000000 0.000000
outer loop
vertex 0.945480 -0.000000 1.414213
vertex 0.945479 -0.000000 -0.000000
vertex 0.945480 -0.541196 1.306563
endloop
endfacet
facet normal -1.000000 0.000000 0.000000
outer loop
vertex 0.945479 -0.000000 -1.414213
vertex 0.945479 -0.000000 -0.000000
vertex 0.945479 0.541196 -1.306563
endloop
endfacet
facet normal 1.000000 -0.000000 -0.000000
outer loop
vertex 0.945480 -1.000000 1.000000
vertex 0.945479 -0.000000 -0.000000
vertex 0.945480 -0.541196 1.306563
endloop
endfacet
facet normal -1.000000 0.000000 0.000000
outer loop
vertex 0.945479 1.000000 -1.000000
vertex 0.945479 -0.000000 -0.000000
vertex 0.945479 1.306563 -0.541196
endloop
endfacet
facet normal 1.000000 0.000000 -0.000000
outer loop
vertex 0.945479 1.000000 -1.000000
vertex 0.945479 -0.000000 -0.000000
vertex 0.945479 0.541196 -1.306563
endloop
endfacet
facet normal 1.000000 -0.000000 -0.000000
outer loop
vertex -0.945480 -1.000000 1.000000
vertex -0.945480 -1.306563 0.541196
vertex -0.945480 -0.000000 0.000000
endloop
endfacet
facet normal 1.000000 0.000000 -0.000000
outer loop
vertex -0.945480 1.306563 -0.541196
vertex -0.945480 1.414213 0.000000
vertex -0.945480 -0.000000 0.000000
endloop
endfacet
facet normal 1.000000 0.000000 -0.000000
outer loop
vertex -0.945480 -1.306563 0.541196
vertex -0.945480 -1.414213 0.000000
vertex -0.945480 -0.000000 0.000000
endloop
endfacet
facet normal 1.000000 0.000000 -0.000000
outer loop
vertex -0.945480 1.414213 0.000000
vertex -0.945480 1.306563 0.541196
vertex -0.945480 -0.000000 0.000000
endloop
endfacet
facet normal 1.000000 0.000000 -0.000000
outer loop
vertex -0.945480 -1.414213 0.000000
vertex -0.945480 -1.306563 -0.541196
vertex -0.945480 -0.000000 0.000000
endloop
endfacet
facet normal -1.000000 -0.000000 0.000000
outer loop
vertex -0.945480 1.000000 1.000000
vertex -0.945480 1.306563 0.541196
vertex -0.945480 -0.000000 0.000000
endloop
endfacet
facet normal -1.000000 0.000000 0.000000
outer loop
vertex -0.945480 -1.000000 -1.000000
vertex -0.945480 -1.306563 -0.541196
vertex -0.945480 -0.000000 0.000000
endloop
endfacet
facet normal 1.000000 0.000000 -0.000000
outer loop
vertex -0.945480 1.000000 1.000000
vertex -0.945479 0.541196 1.306563
vertex -0.945480 -0.000000 0.000000
endloop
endfacet
facet normal 1.000000 0.000000 -0.000000
outer loop
vertex -0.945480 -1.000000 -1.000000
vertex -0.945480 -0.541196 -1.306563
vertex -0.945480 -0.000000 0.000000
endloop
endfacet
facet normal 1.000000 0.000000 -0.000000
outer loop
vertex -0.945479 0.541196 1.306563
vertex -0.945479 -0.000000 1.414213
vertex -0.945480 -0.000000 0.000000
endloop
endfacet
facet normal 1.000000 0.000000 -0.000000
outer loop
vertex -0.945480 -0.541196 -1.306563
vertex -0.945480 -0.000000 -1.414213
vertex -0.945480 -0.000000 0.000000
endloop
endfacet
facet normal 1.000000 0.000000 -0.000000
outer loop
vertex -0.945479 -0.000000 1.414213
vertex -0.945479 -0.541196 1.306563
vertex -0.945480 -0.000000 0.000000
endloop
endfacet
facet normal 1.000000 -0.000000 -0.000000
outer loop
vertex -0.945480 -0.000000 -1.414213
vertex -0.945480 0.541196 -1.306563
vertex -0.945480 -0.000000 0.000000
endloop
endfacet
facet normal -1.000000 0.000000 0.000000
outer loop
vertex -0.945480 -1.000000 1.000000
vertex -0.945479 -0.541196 1.306563
vertex -0.945480 -0.000000 0.000000
endloop
endfacet
facet normal 1.000000 0.000000 -0.000000
outer loop
vertex -0.945480 1.000000 -1.000000
vertex -0.945480 1.306563 -0.541196
vertex -0.945480 -0.000000 0.000000
endloop
endfacet
facet normal -1.000000 0.000000 0.000000
outer loop
vertex -0.945480 1.000000 -1.000000
vertex -0.945480 0.541196 -1.306563
vertex -0.945480 -0.000000 0.000000
endloop
endfacet
facet normal 0.000000 -0.831470 0.555570
outer loop
vertex 0.945479 1.000000 -1.000000
vertex 0.945479 1.306563 -0.541196
vertex -0.945480 1.306563 -0.541196
endloop
endfacet
facet normal 0.000000 -0.831470 0.555570
outer loop
vertex 0.945479 1.000000 -1.000000
vertex -0.945480 1.306563 -0.541196
vertex -0.945480 1.000000 -1.000000
endloop
endfacet
facet normal -0.000000 0.555570 -0.831470
outer loop
vertex 0.945479 1.000000 -1.000000
vertex 0.945479 0.541196 -1.306563
vertex -0.945480 0.541196 -1.306563
endloop
endfacet
facet normal 0.000000 0.555570 -0.831470
outer loop
vertex 0.945479 1.000000 -1.000000
vertex -0.945480 0.541196 -1.306563
vertex -0.945480 1.000000 -1.000000
endloop
endfacet
facet normal -0.000000 0.831470 -0.555570
outer loop
vertex 0.945480 -1.000000 1.000000
vertex 0.945480 -1.306563 0.541196
vertex -0.945480 -1.306563 0.541196
endloop
endfacet
facet normal -0.000000 0.831470 -0.555570
outer loop
vertex 0.945480 -1.000000 1.000000
vertex -0.945480 -1.306563 0.541196
vertex -0.945480 -1.000000 1.000000
endloop
endfacet
facet normal 0.000000 -0.980786 0.195089
outer loop
vertex 0.945479 1.306563 -0.541196
vertex 0.945479 1.414213 -0.000000
vertex -0.945480 1.414213 0.000000
endloop
endfacet
facet normal 0.000000 -0.980785 0.195090
outer loop
vertex 0.945479 1.306563 -0.541196
vertex -0.945480 1.414213 0.000000
vertex -0.945480 1.306563 -0.541196
endloop
endfacet
facet normal -0.000000 0.980786 -0.195089
outer loop
vertex 0.945480 -1.306563 0.541196
vertex 0.945479 -1.414213 -0.000000
vertex -0.945480 -1.414213 0.000000
endloop
endfacet
facet normal -0.000000 0.980785 -0.195089
outer loop
vertex 0.945480 -1.306563 0.541196
vertex -0.945480 -1.414213 0.000000
vertex -0.945480 -1.306563 0.541196
endloop
endfacet
facet normal -0.000000 -0.980785 -0.195089
outer loop
vertex 0.945479 1.414213 -0.000000
vertex 0.945480 1.306563 0.541196
vertex -0.945480 1.306563 0.541196
endloop
endfacet
facet normal -0.000000 -0.980786 -0.195089
outer loop
vertex 0.945479 1.414213 -0.000000
vertex -0.945480 1.306563 0.541196
vertex -0.945480 1.414213 0.000000
endloop
endfacet
facet normal 0.000000 0.980785 0.195089
outer loop
vertex 0.945479 -1.414213 -0.000000
vertex 0.945479 -1.306563 -0.541196
vertex -0.945480 -1.306563 -0.541196
endloop
endfacet
facet normal 0.000000 0.980786 0.195089
outer loop
vertex 0.945479 -1.414213 -0.000000
vertex -0.945480 -1.306563 -0.541196
vertex -0.945480 -1.414213 0.000000
endloop
endfacet
facet normal 0.000000 0.831470 0.555570
outer loop
vertex 0.945480 1.000000 1.000000
vertex 0.945480 1.306563 0.541196
vertex -0.945480 1.306563 0.541196
endloop
endfacet
facet normal 0.000000 0.831470 0.555570
outer loop
vertex 0.945480 1.000000 1.000000
vertex -0.945480 1.306563 0.541196
vertex -0.945480 1.000000 1.000000
endloop
endfacet
facet normal 0.000000 -0.831470 -0.555570
outer loop
vertex 0.945479 -1.000000 -1.000000
vertex 0.945479 -1.306563 -0.541196
vertex -0.945480 -1.306563 -0.541196
endloop
endfacet
facet normal -0.000000 -0.831470 -0.555570
outer loop
vertex 0.945479 -1.000000 -1.000000
vertex -0.945480 -1.306563 -0.541196
vertex -0.945480 -1.000000 -1.000000
endloop
endfacet
facet normal -0.000000 -0.555570 -0.831470
outer loop
vertex 0.945480 1.000000 1.000000
vertex 0.945480 0.541196 1.306563
vertex -0.945479 0.541196 1.306563
endloop
endfacet
facet normal -0.000000 -0.555570 -0.831470
outer loop
vertex 0.945480 1.000000 1.000000
vertex -0.945479 0.541196 1.306563
vertex -0.945480 1.000000 1.000000
endloop
endfacet
facet normal 0.000000 0.555570 0.831470
outer loop
vertex 0.945479 -1.000000 -1.000000
vertex 0.945479 -0.541196 -1.306563
vertex -0.945480 -0.541196 -1.306563
endloop
endfacet
facet normal 0.000000 0.555570 0.831470
outer loop
vertex 0.945479 -1.000000 -1.000000
vertex -0.945480 -0.541196 -1.306563
vertex -0.945480 -1.000000 -1.000000
endloop
endfacet
facet normal -0.000000 -0.195089 -0.980786
outer loop
vertex 0.945480 0.541196 1.306563
vertex 0.945480 -0.000000 1.414213
vertex -0.945479 -0.000000 1.414213
endloop
endfacet
facet normal 0.000000 -0.195089 -0.980786
outer loop
vertex 0.945480 0.541196 1.306563
vertex -0.945479 -0.000000 1.414213
vertex -0.945479 0.541196 1.306563
endloop
endfacet
facet normal 0.000000 0.195089 0.980786
outer loop
vertex 0.945479 -0.541196 -1.306563
vertex 0.945479 -0.000000 -1.414213
vertex -0.945480 -0.000000 -1.414213
endloop
endfacet
facet normal 0.000000 0.195089 0.980786
outer loop
vertex 0.945479 -0.541196 -1.306563
vertex -0.945480 -0.000000 -1.414213
vertex -0.945480 -0.541196 -1.306563
endloop
endfacet
facet normal -0.000000 0.195089 -0.980786
outer loop
vertex 0.945480 -0.000000 1.414213
vertex 0.945480 -0.541196 1.306563
vertex -0.945479 -0.541196 1.306563
endloop
endfacet
facet normal 0.000000 0.195089 -0.980786
outer loop
vertex 0.945480 -0.000000 1.414213
vertex -0.945479 -0.541196 1.306563
vertex -0.945479 -0.000000 1.414213
endloop
endfacet
facet normal 0.000000 -0.195089 0.980786
outer loop
vertex 0.945479 -0.000000 -1.414213
vertex 0.945479 0.541196 -1.306563
vertex -0.945480 0.541196 -1.306563
endloop
endfacet
facet normal 0.000000 -0.195089 0.980786
outer loop
vertex 0.945479 -0.000000 -1.414213
vertex -0.945480 0.541196 -1.306563
vertex -0.945480 -0.000000 -1.414213
endloop
endfacet
facet normal 0.000000 -0.555570 0.831470
outer loop
vertex 0.945480 -1.000000 1.000000
vertex 0.945480 -0.541196 1.306563
vertex -0.945479 -0.541196 1.306563
endloop
endfacet
facet normal 0.000000 -0.555570 0.831470
outer loop
vertex 0.945480 -1.000000 1.000000
vertex -0.945479 -0.541196 1.306563
vertex -0.945480 -1.000000 1.000000
endloop
endfacet
endsolid Exported from Blender-2.82 (sub 7)
