solid Exported from Blender-2.82 (sub 7)
facet normal 1.000000 -0.000011 -0.000001
outer loop
vertex -1.992273 -1.003357 0.084188
vertex -1.992270 -0.720135 -0.197039
vertex -1.992270 -0.742732 0.061298
endloop
endfacet
facet normal -1.000000 -0.000003 0.000012
outer loop
vertex 1.974307 0.426964 -0.917601
vertex 1.974310 0.065525 -0.741966
vertex 1.974310 0.314031 -0.675363
endloop
endfacet
facet normal 0.000005 -0.965940 0.258765
outer loop
vertex 1.478485 1.005188 -0.091616
vertex 1.974307 0.914573 -0.429880
vertex 1.974307 1.005189 -0.091622
endloop
endfacet
facet normal -0.000011 -0.087648 -0.996152
outer loop
vertex 1.478721 -0.084028 1.000674
vertex 1.974307 0.261837 0.970236
vertex 1.974543 -0.084027 1.000668
endloop
endfacet
facet normal 0.000001 -0.996018 -0.089148
outer loop
vertex 1.478463 0.974493 0.251324
vertex 1.974307 1.005189 -0.091622
vertex 1.974285 0.974494 0.251318
endloop
endfacet
facet normal -0.000012 0.256571 -0.966525
outer loop
vertex 1.478485 -0.425124 0.910127
vertex 1.974543 -0.084027 1.000668
vertex 1.974307 -0.425123 0.910121
endloop
endfacet
facet normal -0.000003 -0.909486 -0.415735
outer loop
vertex 1.478485 0.826710 0.574623
vertex 1.974285 0.974494 0.251318
vertex 1.974307 0.826711 0.574617
endloop
endfacet
facet normal -0.000011 0.573665 -0.819090
outer loop
vertex 1.478485 -0.711918 0.709266
vertex 1.974307 -0.425123 0.910121
vertex 1.974307 -0.711917 0.709260
endloop
endfacet
facet normal -0.000007 -0.707187 -0.707027
outer loop
vertex 1.478485 0.579144 0.822245
vertex 1.974307 0.826711 0.574617
vertex 1.974307 0.579145 0.822239
endloop
endfacet
facet normal -0.000008 0.819213 -0.573490
outer loop
vertex 1.478485 -0.912734 0.422406
vertex 1.974307 -0.711917 0.709260
vertex 1.974307 -0.912733 0.422401
endloop
endfacet
facet normal -0.000005 0.965941 -0.258763
outer loop
vertex 1.478485 -1.003349 0.084148
vertex 1.974307 -0.912733 0.422401
vertex 1.974307 -1.003348 0.084142
endloop
endfacet
facet normal -0.000001 0.996197 0.087135
outer loop
vertex 1.478485 -0.972835 -0.264710
vertex 1.974307 -1.003348 0.084142
vertex 1.974307 -0.972834 -0.264716
endloop
endfacet
facet normal 0.000003 0.906344 0.422541
outer loop
vertex 1.478485 -0.824872 -0.582091
vertex 1.974307 -0.972834 -0.264716
vertex 1.974307 -0.824871 -0.582096
endloop
endfacet
facet normal 0.000007 0.707188 0.707026
outer loop
vertex 1.478485 -0.577306 -0.829713
vertex 1.974307 -0.824871 -0.582096
vertex 1.974307 -0.577305 -0.829719
endloop
endfacet
facet normal 0.000010 0.422696 0.906272
outer loop
vertex 1.478485 -0.259997 -0.977710
vertex 1.974307 -0.577305 -0.829719
vertex 1.974307 -0.259996 -0.977715
endloop
endfacet
facet normal 0.000011 0.087177 0.996193
outer loop
vertex 1.478485 0.088782 -1.008231
vertex 1.974307 -0.259996 -0.977715
vertex 1.974307 0.088783 -1.008237
endloop
endfacet
facet normal 0.000012 -0.258875 0.965911
outer loop
vertex 1.478485 0.426963 -0.917595
vertex 1.974307 0.088783 -1.008237
vertex 1.974307 0.426964 -0.917601
endloop
endfacet
facet normal 0.000010 -0.573664 0.819091
outer loop
vertex 1.478485 0.713757 -0.716734
vertex 1.974307 0.426964 -0.917601
vertex 1.974307 0.713758 -0.716740
endloop
endfacet
facet normal 0.000009 -0.819214 0.573488
outer loop
vertex 1.478485 0.914572 -0.429874
vertex 1.974307 0.713758 -0.716740
vertex 1.974307 0.914573 -0.429880
endloop
endfacet
facet normal -0.000010 -0.422699 -0.906270
outer loop
vertex 1.478485 0.261836 0.970242
vertex 1.974307 0.579145 0.822239
vertex 1.974307 0.261837 0.970236
endloop
endfacet
facet normal -0.000010 -0.422698 -0.906270
outer loop
vertex -0.504805 0.261832 0.970265
vertex -0.008983 0.579141 0.822262
vertex -0.008983 0.261833 0.970259
endloop
endfacet
facet normal 0.000008 -0.819214 0.573488
outer loop
vertex -0.504805 0.914568 -0.429851
vertex -0.008983 0.713754 -0.716717
vertex -0.008983 0.914569 -0.429857
endloop
endfacet
facet normal 0.000011 -0.573664 0.819091
outer loop
vertex -0.504805 0.713753 -0.716711
vertex -0.008983 0.426960 -0.917578
vertex -0.008983 0.713754 -0.716717
endloop
endfacet
facet normal 0.000012 -0.258875 0.965911
outer loop
vertex -0.504805 0.426959 -0.917572
vertex -0.008983 0.088778 -1.008214
vertex -0.008983 0.426960 -0.917578
endloop
endfacet
facet normal 0.000012 0.087176 0.996193
outer loop
vertex -0.504805 0.088777 -1.008208
vertex -0.008983 -0.260000 -0.977693
vertex -0.008983 0.088778 -1.008214
endloop
endfacet
facet normal 0.000010 0.422696 0.906271
outer loop
vertex -0.504805 -0.260001 -0.977687
vertex -0.008983 -0.577309 -0.829696
vertex -0.008983 -0.260000 -0.977693
endloop
endfacet
facet normal 0.000007 0.707188 0.707026
outer loop
vertex -0.504805 -0.577310 -0.829690
vertex -0.008983 -0.824875 -0.582074
vertex -0.008983 -0.577309 -0.829696
endloop
endfacet
facet normal 0.000003 0.906344 0.422540
outer loop
vertex -0.504805 -0.824876 -0.582068
vertex -0.008983 -0.972838 -0.264693
vertex -0.008983 -0.824875 -0.582074
endloop
endfacet
facet normal -0.000001 0.996196 0.087136
outer loop
vertex -0.504805 -0.972839 -0.264687
vertex -0.008983 -1.003353 0.084165
vertex -0.008983 -0.972838 -0.264693
endloop
endfacet
facet normal -0.000005 0.965941 -0.258764
outer loop
vertex -0.504805 -1.003353 0.084171
vertex -0.008983 -0.912737 0.422423
vertex -0.008983 -1.003353 0.084165
endloop
endfacet
facet normal -0.000008 0.819213 -0.573489
outer loop
vertex -0.504805 -0.912738 0.422429
vertex -0.008983 -0.711922 0.709283
vertex -0.008983 -0.912737 0.422423
endloop
endfacet
facet normal -0.000007 -0.707186 -0.707028
outer loop
vertex -0.504805 0.579140 0.822268
vertex -0.008983 0.826707 0.574640
vertex -0.008983 0.579141 0.822262
endloop
endfacet
facet normal -0.000010 0.573665 -0.819090
outer loop
vertex -0.504805 -0.711923 0.709289
vertex -0.008983 -0.425128 0.910144
vertex -0.008983 -0.711922 0.709283
endloop
endfacet
facet normal -0.000002 -0.909486 -0.415734
outer loop
vertex -0.504805 0.826706 0.574646
vertex -0.009005 0.974490 0.251341
vertex -0.008983 0.826707 0.574640
endloop
endfacet
facet normal -0.000012 0.256572 -0.966525
outer loop
vertex -0.504805 -0.425129 0.910150
vertex -0.008746 -0.084031 1.000691
vertex -0.008983 -0.425128 0.910144
endloop
endfacet
facet normal 0.000001 -0.996018 -0.089148
outer loop
vertex -0.504827 0.974489 0.251347
vertex -0.008983 1.005185 -0.091599
vertex -0.009005 0.974490 0.251341
endloop
endfacet
facet normal -0.000012 -0.087649 -0.996151
outer loop
vertex -0.504569 -0.084032 1.000697
vertex -0.008983 0.261833 0.970259
vertex -0.008746 -0.084031 1.000691
endloop
endfacet
facet normal 0.000005 -0.965940 0.258766
outer loop
vertex -0.504805 1.005183 -0.091593
vertex -0.008983 0.914569 -0.429857
vertex -0.008983 1.005185 -0.091599
endloop
endfacet
facet normal -0.000009 -0.422698 -0.906270
outer loop
vertex 0.486840 0.261834 0.970254
vertex 0.982662 0.579143 0.822251
vertex 0.982662 0.261835 0.970248
endloop
endfacet
facet normal 0.000008 -0.819214 0.573488
outer loop
vertex 0.486840 0.914570 -0.429863
vertex 0.982662 0.713756 -0.716728
vertex 0.982662 0.914571 -0.429869
endloop
endfacet
facet normal 0.000011 -0.573664 0.819091
outer loop
vertex 0.486840 0.713755 -0.716722
vertex 0.982662 0.426962 -0.917589
vertex 0.982662 0.713756 -0.716728
endloop
endfacet
facet normal 0.000012 -0.258874 0.965911
outer loop
vertex 0.486840 0.426961 -0.917584
vertex 0.982662 0.088780 -1.008225
vertex 0.982662 0.426962 -0.917589
endloop
endfacet
facet normal 0.000011 0.087176 0.996193
outer loop
vertex 0.486840 0.088779 -1.008220
vertex 0.982662 -0.259998 -0.977704
vertex 0.982662 0.088780 -1.008225
endloop
endfacet
facet normal 0.000010 0.422696 0.906271
outer loop
vertex 0.486840 -0.259999 -0.977698
vertex 0.982662 -0.577307 -0.829707
vertex 0.982662 -0.259998 -0.977704
endloop
endfacet
facet normal 0.000007 0.707188 0.707026
outer loop
vertex 0.486840 -0.577308 -0.829702
vertex 0.982662 -0.824873 -0.582085
vertex 0.982662 -0.577307 -0.829707
endloop
endfacet
facet normal 0.000003 0.906344 0.422540
outer loop
vertex 0.486840 -0.824874 -0.582079
vertex 0.982662 -0.972836 -0.264705
vertex 0.982662 -0.824873 -0.582085
endloop
endfacet
facet normal -0.000001 0.996196 0.087135
outer loop
vertex 0.486840 -0.972837 -0.264699
vertex 0.982662 -1.003350 0.084154
vertex 0.982662 -0.972836 -0.264705
endloop
endfacet
facet normal -0.000005 0.965941 -0.258763
outer loop
vertex 0.486840 -1.003351 0.084159
vertex 0.982662 -0.912735 0.422412
vertex 0.982662 -1.003350 0.084154
endloop
endfacet
facet normal -0.000008 0.819213 -0.573489
outer loop
vertex 0.486840 -0.912736 0.422418
vertex 0.982662 -0.711919 0.709271
vertex 0.982662 -0.912735 0.422412
endloop
endfacet
facet normal -0.000007 -0.707187 -0.707027
outer loop
vertex 0.486840 0.579142 0.822256
vertex 0.982662 0.826709 0.574629
vertex 0.982662 0.579143 0.822251
endloop
endfacet
facet normal -0.000011 0.573665 -0.819090
outer loop
vertex 0.486840 -0.711920 0.709277
vertex 0.982662 -0.425126 0.910133
vertex 0.982662 -0.711919 0.709271
endloop
endfacet
facet normal -0.000003 -0.909486 -0.415735
outer loop
vertex 0.486840 0.826708 0.574634
vertex 0.982640 0.974492 0.251330
vertex 0.982662 0.826709 0.574629
endloop
endfacet
facet normal -0.000011 0.256571 -0.966525
outer loop
vertex 0.486840 -0.425127 0.910139
vertex 0.982899 -0.084029 1.000679
vertex 0.982662 -0.425126 0.910133
endloop
endfacet
facet normal 0.000001 -0.996018 -0.089148
outer loop
vertex 0.486817 0.974491 0.251335
vertex 0.982662 1.005187 -0.091610
vertex 0.982640 0.974492 0.251330
endloop
endfacet
facet normal -0.000012 -0.087648 -0.996152
outer loop
vertex 0.487076 -0.084030 1.000685
vertex 0.982662 0.261835 0.970248
vertex 0.982899 -0.084029 1.000679
endloop
endfacet
facet normal 0.000005 -0.965940 0.258766
outer loop
vertex 0.486840 1.005186 -0.091605
vertex 0.982662 0.914571 -0.429869
vertex 0.982662 1.005187 -0.091610
endloop
endfacet
facet normal 0.000005 -0.965940 0.258765
outer loop
vertex -1.496450 1.005181 -0.091582
vertex -1.000628 0.914567 -0.429846
vertex -1.000628 1.005182 -0.091587
endloop
endfacet
facet normal -0.000012 -0.087648 -0.996152
outer loop
vertex -1.496214 -0.084034 1.000708
vertex -1.000628 0.261831 0.970271
vertex -1.000392 -0.084033 1.000702
endloop
endfacet
facet normal 0.000001 -0.996018 -0.089148
outer loop
vertex -1.496472 0.974487 0.251358
vertex -1.000628 1.005182 -0.091587
vertex -1.000650 0.974488 0.251352
endloop
endfacet
facet normal -0.000012 0.256571 -0.966525
outer loop
vertex -1.496450 -0.425131 0.910162
vertex -1.000392 -0.084033 1.000702
vertex -1.000628 -0.425130 0.910156
endloop
endfacet
facet normal -0.000003 -0.909486 -0.415735
outer loop
vertex -1.496450 0.826704 0.574657
vertex -1.000650 0.974488 0.251352
vertex -1.000628 0.826705 0.574652
endloop
endfacet
facet normal -0.000011 0.573665 -0.819090
outer loop
vertex -1.496450 -0.711925 0.709300
vertex -1.000628 -0.425130 0.910156
vertex -1.000628 -0.711924 0.709294
endloop
endfacet
facet normal -0.000007 -0.707187 -0.707027
outer loop
vertex -1.496450 0.579138 0.822279
vertex -1.000628 0.826705 0.574652
vertex -1.000628 0.579139 0.822273
endloop
endfacet
facet normal -0.000008 0.819213 -0.573489
outer loop
vertex -1.496450 -0.912740 0.422441
vertex -1.000628 -0.711924 0.709294
vertex -1.000628 -0.912739 0.422435
endloop
endfacet
facet normal -0.000005 0.965941 -0.258764
outer loop
vertex -1.496450 -1.003356 0.084182
vertex -1.000628 -0.912739 0.422435
vertex -1.000628 -1.003355 0.084176
endloop
endfacet
facet normal -0.000001 0.996196 0.087136
outer loop
vertex -1.496450 -0.972841 -0.264676
vertex -1.000628 -1.003355 0.084176
vertex -1.000628 -0.972840 -0.264682
endloop
endfacet
facet normal 0.000003 0.906344 0.422541
outer loop
vertex -1.496450 -0.824878 -0.582056
vertex -1.000628 -0.972840 -0.264682
vertex -1.000628 -0.824877 -0.582062
endloop
endfacet
facet normal 0.000007 0.707188 0.707026
outer loop
vertex -1.496450 -0.577312 -0.829679
vertex -1.000628 -0.824877 -0.582062
vertex -1.000628 -0.577311 -0.829685
endloop
endfacet
facet normal 0.000010 0.422696 0.906272
outer loop
vertex -1.496450 -0.260003 -0.977675
vertex -1.000628 -0.577311 -0.829685
vertex -1.000628 -0.260002 -0.977681
endloop
endfacet
facet normal 0.000012 0.087176 0.996193
outer loop
vertex -1.496450 0.088775 -1.008197
vertex -1.000628 -0.260002 -0.977681
vertex -1.000628 0.088776 -1.008203
endloop
endfacet
facet normal 0.000012 -0.258875 0.965911
outer loop
vertex -1.496450 0.426956 -0.917561
vertex -1.000628 0.088776 -1.008203
vertex -1.000628 0.426957 -0.917566
endloop
endfacet
facet normal 0.000010 -0.573664 0.819091
outer loop
vertex -1.496450 0.713750 -0.716700
vertex -1.000628 0.426957 -0.917566
vertex -1.000628 0.713751 -0.716705
endloop
endfacet
facet normal 0.000008 -0.819214 0.573488
outer loop
vertex -1.496450 0.914566 -0.429840
vertex -1.000628 0.713751 -0.716705
vertex -1.000628 0.914567 -0.429846
endloop
endfacet
facet normal -0.000009 -0.422698 -0.906270
outer loop
vertex -1.496450 0.261829 0.970276
vertex -1.000628 0.579139 0.822273
vertex -1.000628 0.261831 0.970271
endloop
endfacet
facet normal -0.000010 -0.422698 -0.906270
outer loop
vertex 0.982662 0.261835 0.970248
vertex 1.478485 0.579144 0.822245
vertex 1.478485 0.261836 0.970242
endloop
endfacet
facet normal 0.000008 -0.819214 0.573488
outer loop
vertex 0.982662 0.914571 -0.429869
vertex 1.478485 0.713757 -0.716734
vertex 1.478485 0.914572 -0.429874
endloop
endfacet
facet normal 0.000010 -0.573664 0.819091
outer loop
vertex 0.982662 0.713756 -0.716728
vertex 1.478485 0.426963 -0.917595
vertex 1.478485 0.713757 -0.716734
endloop
endfacet
facet normal 0.000012 -0.258875 0.965911
outer loop
vertex 0.982662 0.426962 -0.917589
vertex 1.478485 0.088782 -1.008231
vertex 1.478485 0.426963 -0.917595
endloop
endfacet
facet normal 0.000011 0.087177 0.996193
outer loop
vertex 0.982662 0.088780 -1.008225
vertex 1.478485 -0.259997 -0.977710
vertex 1.478485 0.088782 -1.008231
endloop
endfacet
facet normal 0.000010 0.422696 0.906272
outer loop
vertex 0.982662 -0.259998 -0.977704
vertex 1.478485 -0.577306 -0.829713
vertex 1.478485 -0.259997 -0.977710
endloop
endfacet
facet normal 0.000007 0.707188 0.707026
outer loop
vertex 0.982662 -0.577307 -0.829707
vertex 1.478485 -0.824872 -0.582091
vertex 1.478485 -0.577306 -0.829713
endloop
endfacet
facet normal 0.000003 0.906344 0.422541
outer loop
vertex 0.982662 -0.824873 -0.582085
vertex 1.478485 -0.972835 -0.264710
vertex 1.478485 -0.824872 -0.582091
endloop
endfacet
facet normal -0.000001 0.996196 0.087135
outer loop
vertex 0.982662 -0.972836 -0.264705
vertex 1.478485 -1.003349 0.084148
vertex 1.478485 -0.972835 -0.264710
endloop
endfacet
facet normal -0.000005 0.965941 -0.258763
outer loop
vertex 0.982662 -1.003350 0.084154
vertex 1.478485 -0.912734 0.422406
vertex 1.478485 -1.003349 0.084148
endloop
endfacet
facet normal -0.000008 0.819213 -0.573490
outer loop
vertex 0.982662 -0.912735 0.422412
vertex 1.478485 -0.711918 0.709266
vertex 1.478485 -0.912734 0.422406
endloop
endfacet
facet normal -0.000007 -0.707186 -0.707027
outer loop
vertex 0.982662 0.579143 0.822251
vertex 1.478485 0.826710 0.574623
vertex 1.478485 0.579144 0.822245
endloop
endfacet
facet normal -0.000011 0.573665 -0.819090
outer loop
vertex 0.982662 -0.711919 0.709271
vertex 1.478485 -0.425124 0.910127
vertex 1.478485 -0.711918 0.709266
endloop
endfacet
facet normal -0.000003 -0.909486 -0.415735
outer loop
vertex 0.982662 0.826709 0.574629
vertex 1.478463 0.974493 0.251324
vertex 1.478485 0.826710 0.574623
endloop
endfacet
facet normal -0.000012 0.256571 -0.966525
outer loop
vertex 0.982662 -0.425126 0.910133
vertex 1.478721 -0.084028 1.000674
vertex 1.478485 -0.425124 0.910127
endloop
endfacet
facet normal 0.000001 -0.996018 -0.089148
outer loop
vertex 0.982640 0.974492 0.251330
vertex 1.478485 1.005188 -0.091616
vertex 1.478463 0.974493 0.251324
endloop
endfacet
facet normal -0.000011 -0.087648 -0.996152
outer loop
vertex 0.982899 -0.084029 1.000679
vertex 1.478485 0.261836 0.970242
vertex 1.478721 -0.084028 1.000674
endloop
endfacet
facet normal 0.000005 -0.965940 0.258766
outer loop
vertex 0.982662 1.005187 -0.091610
vertex 1.478485 0.914572 -0.429874
vertex 1.478485 1.005188 -0.091616
endloop
endfacet
facet normal 0.000005 -0.965940 0.258766
outer loop
vertex -0.008983 1.005185 -0.091599
vertex 0.486840 0.914570 -0.429863
vertex 0.486840 1.005186 -0.091605
endloop
endfacet
facet normal -0.000011 -0.087649 -0.996151
outer loop
vertex -0.008746 -0.084031 1.000691
vertex 0.486840 0.261834 0.970254
vertex 0.487076 -0.084030 1.000685
endloop
endfacet
facet normal 0.000001 -0.996018 -0.089148
outer loop
vertex -0.009005 0.974490 0.251341
vertex 0.486840 1.005186 -0.091605
vertex 0.486817 0.974491 0.251335
endloop
endfacet
facet normal -0.000011 0.256571 -0.966525
outer loop
vertex -0.008983 -0.425128 0.910144
vertex 0.487076 -0.084030 1.000685
vertex 0.486840 -0.425127 0.910139
endloop
endfacet
facet normal -0.000003 -0.909486 -0.415735
outer loop
vertex -0.008983 0.826707 0.574640
vertex 0.486817 0.974491 0.251335
vertex 0.486840 0.826708 0.574634
endloop
endfacet
facet normal -0.000011 0.573665 -0.819090
outer loop
vertex -0.008983 -0.711922 0.709283
vertex 0.486840 -0.425127 0.910139
vertex 0.486840 -0.711920 0.709277
endloop
endfacet
facet normal -0.000007 -0.707186 -0.707027
outer loop
vertex -0.008983 0.579141 0.822262
vertex 0.486840 0.826708 0.574634
vertex 0.486840 0.579142 0.822256
endloop
endfacet
facet normal -0.000008 0.819213 -0.573490
outer loop
vertex -0.008983 -0.912737 0.422423
vertex 0.486840 -0.711920 0.709277
vertex 0.486840 -0.912736 0.422418
endloop
endfacet
facet normal -0.000005 0.965941 -0.258763
outer loop
vertex -0.008983 -1.003353 0.084165
vertex 0.486840 -0.912736 0.422418
vertex 0.486840 -1.003351 0.084159
endloop
endfacet
facet normal -0.000001 0.996196 0.087136
outer loop
vertex -0.008983 -0.972838 -0.264693
vertex 0.486840 -1.003351 0.084159
vertex 0.486840 -0.972837 -0.264699
endloop
endfacet
facet normal 0.000003 0.906344 0.422541
outer loop
vertex -0.008983 -0.824875 -0.582074
vertex 0.486840 -0.972837 -0.264699
vertex 0.486840 -0.824874 -0.582079
endloop
endfacet
facet normal 0.000007 0.707188 0.707026
outer loop
vertex -0.008983 -0.577309 -0.829696
vertex 0.486840 -0.824874 -0.582079
vertex 0.486840 -0.577308 -0.829702
endloop
endfacet
facet normal 0.000010 0.422696 0.906271
outer loop
vertex -0.008983 -0.260000 -0.977693
vertex 0.486840 -0.577308 -0.829702
vertex 0.486840 -0.259999 -0.977698
endloop
endfacet
facet normal 0.000011 0.087176 0.996193
outer loop
vertex -0.008983 0.088778 -1.008214
vertex 0.486840 -0.259999 -0.977698
vertex 0.486840 0.088779 -1.008220
endloop
endfacet
facet normal 0.000011 -0.258875 0.965911
outer loop
vertex -0.008983 0.426960 -0.917578
vertex 0.486840 0.088779 -1.008220
vertex 0.486840 0.426961 -0.917584
endloop
endfacet
facet normal 0.000011 -0.573664 0.819091
outer loop
vertex -0.008983 0.713754 -0.716717
vertex 0.486840 0.426961 -0.917584
vertex 0.486840 0.713755 -0.716722
endloop
endfacet
facet normal 0.000008 -0.819214 0.573488
outer loop
vertex -0.008983 0.914569 -0.429857
vertex 0.486840 0.713755 -0.716722
vertex 0.486840 0.914570 -0.429863
endloop
endfacet
facet normal -0.000009 -0.422698 -0.906270
outer loop
vertex -0.008983 0.261833 0.970259
vertex 0.486840 0.579142 0.822256
vertex 0.486840 0.261834 0.970254
endloop
endfacet
facet normal 0.000005 -0.965940 0.258766
outer loop
vertex -1.000628 1.005182 -0.091587
vertex -0.504805 0.914568 -0.429851
vertex -0.504805 1.005183 -0.091593
endloop
endfacet
facet normal -0.000011 -0.087648 -0.996152
outer loop
vertex -1.000392 -0.084033 1.000702
vertex -0.504805 0.261832 0.970265
vertex -0.504569 -0.084032 1.000697
endloop
endfacet
facet normal 0.000001 -0.996018 -0.089148
outer loop
vertex -1.000650 0.974488 0.251352
vertex -0.504805 1.005183 -0.091593
vertex -0.504827 0.974489 0.251347
endloop
endfacet
facet normal -0.000012 0.256571 -0.966525
outer loop
vertex -1.000628 -0.425130 0.910156
vertex -0.504569 -0.084032 1.000697
vertex -0.504805 -0.425129 0.910150
endloop
endfacet
facet normal -0.000003 -0.909486 -0.415735
outer loop
vertex -1.000628 0.826705 0.574652
vertex -0.504827 0.974489 0.251347
vertex -0.504805 0.826706 0.574646
endloop
endfacet
facet normal -0.000011 0.573665 -0.819090
outer loop
vertex -1.000628 -0.711924 0.709294
vertex -0.504805 -0.425129 0.910150
vertex -0.504805 -0.711923 0.709289
endloop
endfacet
facet normal -0.000007 -0.707186 -0.707027
outer loop
vertex -1.000628 0.579139 0.822273
vertex -0.504805 0.826706 0.574646
vertex -0.504805 0.579140 0.822268
endloop
endfacet
facet normal -0.000008 0.819213 -0.573490
outer loop
vertex -1.000628 -0.912739 0.422435
vertex -0.504805 -0.711923 0.709289
vertex -0.504805 -0.912738 0.422429
endloop
endfacet
facet normal -0.000005 0.965941 -0.258763
outer loop
vertex -1.000628 -1.003355 0.084176
vertex -0.504805 -0.912738 0.422429
vertex -0.504805 -1.003353 0.084171
endloop
endfacet
facet normal -0.000001 0.996196 0.087135
outer loop
vertex -1.000628 -0.972840 -0.264682
vertex -0.504805 -1.003353 0.084171
vertex -0.504805 -0.972839 -0.264687
endloop
endfacet
facet normal 0.000003 0.906344 0.422541
outer loop
vertex -1.000628 -0.824877 -0.582062
vertex -0.504805 -0.972839 -0.264687
vertex -0.504805 -0.824876 -0.582068
endloop
endfacet
facet normal 0.000007 0.707188 0.707026
outer loop
vertex -1.000628 -0.577311 -0.829685
vertex -0.504805 -0.824876 -0.582068
vertex -0.504805 -0.577310 -0.829690
endloop
endfacet
facet normal 0.000010 0.422696 0.906271
outer loop
vertex -1.000628 -0.260002 -0.977681
vertex -0.504805 -0.577310 -0.829690
vertex -0.504805 -0.260001 -0.977687
endloop
endfacet
facet normal 0.000012 0.087177 0.996193
outer loop
vertex -1.000628 0.088776 -1.008203
vertex -0.504805 -0.260001 -0.977687
vertex -0.504805 0.088777 -1.008208
endloop
endfacet
facet normal 0.000012 -0.258875 0.965911
outer loop
vertex -1.000628 0.426957 -0.917566
vertex -0.504805 0.088777 -1.008208
vertex -0.504805 0.426959 -0.917572
endloop
endfacet
facet normal 0.000011 -0.573664 0.819091
outer loop
vertex -1.000628 0.713751 -0.716705
vertex -0.504805 0.426959 -0.917572
vertex -0.504805 0.713753 -0.716711
endloop
endfacet
facet normal 0.000008 -0.819214 0.573488
outer loop
vertex -1.000628 0.914567 -0.429846
vertex -0.504805 0.713753 -0.716711
vertex -0.504805 0.914568 -0.429851
endloop
endfacet
facet normal -0.000010 -0.422698 -0.906270
outer loop
vertex -1.000628 0.261831 0.970271
vertex -0.504805 0.579140 0.822268
vertex -0.504805 0.261832 0.970265
endloop
endfacet
facet normal -0.000009 -0.422698 -0.906271
outer loop
vertex -1.992273 0.261828 0.970282
vertex -1.496450 0.579138 0.822279
vertex -1.496450 0.261829 0.970276
endloop
endfacet
facet normal 0.000008 -0.819214 0.573488
outer loop
vertex -1.992273 0.914565 -0.429834
vertex -1.496450 0.713750 -0.716700
vertex -1.496450 0.914566 -0.429840
endloop
endfacet
facet normal 0.000011 -0.573664 0.819091
outer loop
vertex -1.992273 0.713749 -0.716694
vertex -1.496450 0.426956 -0.917561
vertex -1.496450 0.713750 -0.716700
endloop
endfacet
facet normal 0.000012 -0.258875 0.965911
outer loop
vertex -1.992273 0.426955 -0.917555
vertex -1.496450 0.088775 -1.008197
vertex -1.496450 0.426956 -0.917561
endloop
endfacet
facet normal 0.000011 0.087176 0.996193
outer loop
vertex -1.992273 0.088774 -1.008191
vertex -1.496450 -0.260003 -0.977675
vertex -1.496450 0.088775 -1.008197
endloop
endfacet
facet normal 0.000010 0.422696 0.906271
outer loop
vertex -1.992273 -0.260004 -0.977670
vertex -1.496450 -0.577312 -0.829679
vertex -1.496450 -0.260003 -0.977675
endloop
endfacet
facet normal 0.000007 0.707188 0.707025
outer loop
vertex -1.992273 -0.577313 -0.829673
vertex -1.496450 -0.824878 -0.582056
vertex -1.496450 -0.577312 -0.829679
endloop
endfacet
facet normal 0.000003 0.906344 0.422541
outer loop
vertex -1.992273 -0.824879 -0.582051
vertex -1.496450 -0.972841 -0.264676
vertex -1.496450 -0.824878 -0.582056
endloop
endfacet
facet normal -0.000001 0.996196 0.087136
outer loop
vertex -1.992273 -0.972843 -0.264670
vertex -1.496450 -1.003356 0.084182
vertex -1.496450 -0.972841 -0.264676
endloop
endfacet
facet normal -0.000005 0.965941 -0.258763
outer loop
vertex -1.992273 -1.003357 0.084188
vertex -1.496450 -0.912740 0.422441
vertex -1.496450 -1.003356 0.084182
endloop
endfacet
facet normal -0.000009 0.819213 -0.573489
outer loop
vertex -1.992273 -0.912742 0.422446
vertex -1.496450 -0.711925 0.709300
vertex -1.496450 -0.912740 0.422441
endloop
endfacet
facet normal -0.000007 -0.707187 -0.707027
outer loop
vertex -1.992273 0.579137 0.822285
vertex -1.496450 0.826704 0.574657
vertex -1.496450 0.579138 0.822279
endloop
endfacet
facet normal -0.000011 0.573665 -0.819090
outer loop
vertex -1.992273 -0.711926 0.709306
vertex -1.496450 -0.425131 0.910162
vertex -1.496450 -0.711925 0.709300
endloop
endfacet
facet normal -0.000003 -0.909486 -0.415735
outer loop
vertex -1.992273 0.826703 0.574663
vertex -1.496472 0.974487 0.251358
vertex -1.496450 0.826704 0.574657
endloop
endfacet
facet normal -0.000012 0.256571 -0.966525
outer loop
vertex -1.992273 -0.425132 0.910167
vertex -1.496214 -0.084034 1.000708
vertex -1.496450 -0.425131 0.910162
endloop
endfacet
facet normal 0.000001 -0.996018 -0.089148
outer loop
vertex -1.992295 0.974486 0.251364
vertex -1.496450 1.005181 -0.091582
vertex -1.496472 0.974487 0.251358
endloop
endfacet
facet normal -0.000011 -0.087649 -0.996152
outer loop
vertex -1.992037 -0.084035 1.000714
vertex -1.496450 0.261829 0.970276
vertex -1.496214 -0.084034 1.000708
endloop
endfacet
facet normal 0.000005 -0.965940 0.258765
outer loop
vertex -1.992273 1.005180 -0.091576
vertex -1.496450 0.914566 -0.429840
vertex -1.496450 1.005181 -0.091582
endloop
endfacet
facet normal -1.000000 0.000011 -0.000007
outer loop
vertex 1.974307 -0.912733 0.422401
vertex 1.974310 -0.522856 0.520108
vertex 1.974310 -0.670422 0.309314
endloop
endfacet
facet normal -1.000000 -0.000006 0.000010
outer loop
vertex 1.974307 0.713758 -0.716740
vertex 1.974310 0.314031 -0.675363
vertex 1.974310 0.524777 -0.527764
endloop
endfacet
facet normal -1.000000 0.000011 -0.000003
outer loop
vertex 1.974307 -1.003348 0.084142
vertex 1.974310 -0.670422 0.309314
vertex 1.974310 -0.737009 0.060750
endloop
endfacet
facet normal -1.000000 -0.000011 0.000007
outer loop
vertex 1.974307 0.914573 -0.429880
vertex 1.974310 0.524777 -0.527764
vertex 1.974310 0.672343 -0.316970
endloop
endfacet
facet normal -1.000000 0.000012 0.000001
outer loop
vertex 1.974307 -0.972834 -0.264716
vertex 1.974310 -0.737009 0.060750
vertex 1.974310 -0.714586 -0.195602
endloop
endfacet
facet normal -1.000000 -0.000011 0.000003
outer loop
vertex 1.974307 1.005189 -0.091622
vertex 1.974310 0.672343 -0.316970
vertex 1.974310 0.738930 -0.068407
endloop
endfacet
facet normal -1.000000 0.000012 0.000005
outer loop
vertex 1.974307 -0.824871 -0.582096
vertex 1.974310 -0.714586 -0.195602
vertex 1.974310 -0.605858 -0.428824
endloop
endfacet
facet normal -1.000000 -0.000017 -0.000067
outer loop
vertex 1.974285 0.974494 0.251318
vertex 1.974310 0.738930 -0.068407
vertex 1.974294 0.716375 0.183597
endloop
endfacet
facet normal -1.000000 0.000009 0.000009
outer loop
vertex 1.974307 -0.577305 -0.829719
vertex 1.974310 -0.605858 -0.428824
vertex 1.974310 -0.423938 -0.610785
endloop
endfacet
facet normal -1.000000 -0.000668 0.000167
outer loop
vertex 1.974543 -0.084027 1.000668
vertex 1.974310 0.192691 0.711882
vertex 1.974484 -0.061461 0.734244
endloop
endfacet
facet normal -1.000000 -0.000049 0.000047
outer loop
vertex 1.974307 0.826711 0.574617
vertex 1.974294 0.716375 0.183597
vertex 1.974310 0.607779 0.421168
endloop
endfacet
facet normal -1.000000 0.000004 0.000011
outer loop
vertex 1.974307 -0.259996 -0.977715
vertex 1.974310 -0.423938 -0.610785
vertex 1.974310 -0.190770 -0.719538
endloop
endfacet
facet normal -1.000000 0.000620 0.000275
outer loop
vertex 1.974307 -0.425123 0.910121
vertex 1.974484 -0.061461 0.734244
vertex 1.974310 -0.312110 0.667707
endloop
endfacet
facet normal -1.000000 -0.000009 -0.000009
outer loop
vertex 1.974307 0.579145 0.822239
vertex 1.974310 0.607779 0.421168
vertex 1.974310 0.425859 0.603128
endloop
endfacet
facet normal -1.000000 0.000001 0.000013
outer loop
vertex 1.974307 0.088783 -1.008237
vertex 1.974310 -0.190770 -0.719538
vertex 1.974310 0.065525 -0.741966
endloop
endfacet
facet normal -1.000000 -0.000006 -0.000011
outer loop
vertex 1.974307 0.261837 0.970236
vertex 1.974310 0.425859 0.603128
vertex 1.974310 0.192691 0.711882
endloop
endfacet
facet normal -1.000000 0.000007 -0.000010
outer loop
vertex 1.974307 -0.711917 0.709260
vertex 1.974310 -0.312110 0.667707
vertex 1.974310 -0.522856 0.520108
endloop
endfacet
facet normal -1.000000 -0.000002 0.000013
outer loop
vertex 1.974310 0.314031 -0.675363
vertex 1.974314 -0.106716 -0.406063
vertex 1.974314 0.176911 -0.381243
endloop
endfacet
facet normal -1.000000 0.000012 -0.000006
outer loop
vertex 1.974310 -0.737009 0.060750
vertex 1.974314 -0.293301 0.290442
vertex 1.974314 -0.413625 0.032348
endloop
endfacet
facet normal -1.000000 -0.000010 0.000009
outer loop
vertex 1.974310 0.672343 -0.316970
vertex 1.974314 0.176911 -0.381243
vertex 1.974314 0.378231 -0.179877
endloop
endfacet
facet normal -1.000000 -0.000001 -0.000033
outer loop
vertex 1.974310 0.738930 -0.068407
vertex 1.974314 0.378231 -0.179877
vertex 1.974305 0.402971 0.101371
endloop
endfacet
facet normal -1.000000 0.000014 0.000003
outer loop
vertex 1.974310 -0.605858 -0.428824
vertex 1.974314 -0.413625 0.032348
vertex 1.974314 -0.339936 -0.242723
endloop
endfacet
facet normal -1.000000 -0.000370 -0.000057
outer loop
vertex 1.974310 0.192691 0.711882
vertex 1.974314 0.239742 0.337088
vertex 1.974412 -0.034063 0.410756
endloop
endfacet
facet normal -1.000000 0.000008 0.000011
outer loop
vertex 1.974310 -0.190770 -0.719538
vertex 1.974314 -0.339936 -0.242723
vertex 1.974314 -0.106716 -0.406063
endloop
endfacet
facet normal -1.000000 0.000372 0.000008
outer loop
vertex 1.974310 -0.312110 0.667707
vertex 1.974412 -0.034063 0.410756
vertex 1.974314 -0.293301 0.290442
endloop
endfacet
facet normal -1.000000 -0.000040 0.000012
outer loop
vertex 1.974310 0.425859 0.603128
vertex 1.974305 0.402971 0.101371
vertex 1.974314 0.239742 0.337088
endloop
endfacet
facet normal 1.000000 0.000011 -0.000003
outer loop
vertex -1.992273 0.914565 -0.429834
vertex -1.992270 0.744634 -0.068859
vertex -1.992270 0.677531 -0.319347
endloop
endfacet
facet normal 1.000000 -0.000011 -0.000005
outer loop
vertex -1.992273 -0.972843 -0.264670
vertex -1.992270 -0.610565 -0.432066
vertex -1.992270 -0.720135 -0.197039
endloop
endfacet
facet normal 1.000000 0.000005 0.000011
outer loop
vertex -1.992273 0.579137 0.822285
vertex -1.992270 0.194166 0.717470
vertex -1.992270 0.429139 0.607875
endloop
endfacet
facet normal 1.000000 0.000016 0.000065
outer loop
vertex -1.992273 1.005180 -0.091576
vertex -1.992286 0.721904 0.185095
vertex -1.992270 0.744634 -0.068859
endloop
endfacet
facet normal 1.000000 -0.000009 -0.000009
outer loop
vertex -1.992273 -0.824879 -0.582051
vertex -1.992270 -0.427237 -0.615436
vertex -1.992270 -0.610565 -0.432066
endloop
endfacet
facet normal 1.000000 0.000668 -0.000167
outer loop
vertex -1.992273 0.261828 0.970282
vertex -1.992095 -0.061954 0.740005
vertex -1.992270 0.194166 0.717470
endloop
endfacet
facet normal 1.000000 0.000048 -0.000046
outer loop
vertex -1.992295 0.974486 0.251364
vertex -1.992270 0.612468 0.424505
vertex -1.992286 0.721904 0.185095
endloop
endfacet
facet normal 1.000000 -0.000005 -0.000011
outer loop
vertex -1.992273 -0.577313 -0.829673
vertex -1.992270 -0.192263 -0.725031
vertex -1.992270 -0.427237 -0.615436
endloop
endfacet
facet normal 1.000000 -0.000617 -0.000275
outer loop
vertex -1.992037 -0.084035 1.000714
vertex -1.992270 -0.314543 0.672953
vertex -1.992095 -0.061954 0.740005
endloop
endfacet
facet normal 1.000000 0.000009 0.000009
outer loop
vertex -1.992273 0.826703 0.574663
vertex -1.992270 0.429139 0.607875
vertex -1.992270 0.612468 0.424505
endloop
endfacet
facet normal 1.000000 -0.000001 -0.000012
outer loop
vertex -1.992273 -0.260004 -0.977670
vertex -1.992270 0.066015 -0.747633
vertex -1.992270 -0.192263 -0.725031
endloop
endfacet
facet normal 1.000000 -0.000006 0.000010
outer loop
vertex -1.992273 -0.425132 0.910167
vertex -1.992270 -0.526920 0.524211
vertex -1.992270 -0.314543 0.672953
endloop
endfacet
facet normal 1.000000 0.000004 -0.000012
outer loop
vertex -1.992273 0.088774 -1.008191
vertex -1.992270 0.316446 -0.680515
vertex -1.992270 0.066015 -0.747633
endloop
endfacet
facet normal 1.000000 -0.000011 0.000007
outer loop
vertex -1.992273 -0.711926 0.709306
vertex -1.992270 -0.675629 0.311786
vertex -1.992270 -0.526920 0.524211
endloop
endfacet
facet normal 1.000000 0.000008 -0.000010
outer loop
vertex -1.992273 0.426955 -0.917555
vertex -1.992270 0.528823 -0.531772
vertex -1.992270 0.316446 -0.680515
endloop
endfacet
facet normal 1.000000 -0.000012 0.000003
outer loop
vertex -1.992273 -0.912742 0.422446
vertex -1.992270 -0.742732 0.061298
vertex -1.992270 -0.675629 0.311786
endloop
endfacet
facet normal 1.000000 0.000011 -0.000007
outer loop
vertex -1.992273 0.713749 -0.716694
vertex -1.992270 0.677531 -0.319347
vertex -1.992270 0.528823 -0.531772
endloop
endfacet
facet normal 1.000000 0.000001 0.000022
outer loop
vertex -1.992266 0.310123 -0.313079
vertex -1.992276 0.423193 0.106724
vertex -1.992273 0.000912 -0.003694
endloop
endfacet
facet normal 1.000000 -0.000010 -0.000001
outer loop
vertex -1.992270 -0.742732 0.061298
vertex -1.992266 -0.357110 -0.254690
vertex -1.992266 -0.395212 0.180915
endloop
endfacet
facet normal 1.000000 0.000009 0.000020
outer loop
vertex -1.992270 0.677531 -0.319347
vertex -1.992276 0.423193 0.106724
vertex -1.992266 0.310123 -0.313079
endloop
endfacet
facet normal 1.000000 0.000303 -0.000198
outer loop
vertex -1.992270 0.429139 0.607875
vertex -1.992164 -0.035840 0.431683
vertex -1.992266 0.251748 0.354306
endloop
endfacet
facet normal 1.000000 0.000038 -0.000013
outer loop
vertex -1.992286 0.721904 0.185095
vertex -1.992266 0.251748 0.354306
vertex -1.992276 0.423193 0.106724
endloop
endfacet
facet normal 1.000000 -0.000007 -0.000008
outer loop
vertex -1.992270 -0.427237 -0.615436
vertex -1.992266 -0.112150 -0.426252
vertex -1.992266 -0.357110 -0.254690
endloop
endfacet
facet normal 1.000000 -0.000327 0.000061
outer loop
vertex -1.992270 -0.314543 0.672953
vertex -1.992266 -0.395212 0.180915
vertex -1.992164 -0.035840 0.431683
endloop
endfacet
facet normal 1.000000 0.000003 -0.000009
outer loop
vertex -1.992270 0.066015 -0.747633
vertex -1.992266 0.310123 -0.313079
vertex -1.992266 -0.112150 -0.426252
endloop
endfacet
facet normal 1.000000 0.000295 -0.000225
outer loop
vertex -1.992266 0.251748 0.354306
vertex -1.992164 -0.035840 0.431683
vertex -1.992273 0.000912 -0.003694
endloop
endfacet
facet normal 1.000000 0.000015 -0.000028
outer loop
vertex -1.992276 0.423193 0.106724
vertex -1.992266 0.251748 0.354306
vertex -1.992273 0.000912 -0.003694
endloop
endfacet
facet normal 1.000000 0.000009 0.000013
outer loop
vertex -1.992266 -0.357110 -0.254690
vertex -1.992266 -0.112150 -0.426252
vertex -1.992273 0.000912 -0.003694
endloop
endfacet
facet normal 1.000000 -0.000105 -0.000259
outer loop
vertex -1.992164 -0.035840 0.431683
vertex -1.992266 -0.395212 0.180915
vertex -1.992273 0.000912 -0.003694
endloop
endfacet
facet normal 1.000000 -0.000004 0.000017
outer loop
vertex -1.992266 -0.112150 -0.426252
vertex -1.992266 0.310123 -0.313079
vertex -1.992273 0.000912 -0.003694
endloop
endfacet
facet normal 1.000000 0.000017 0.000002
outer loop
vertex -1.992266 -0.395212 0.180915
vertex -1.992266 -0.357110 -0.254690
vertex -1.992273 0.000912 -0.003694
endloop
endfacet
facet normal -1.000000 -0.000012 0.000031
outer loop
vertex 1.974314 0.239742 0.337088
vertex 1.974305 0.402971 0.101371
vertex 1.974307 0.000920 -0.003740
endloop
endfacet
facet normal -1.000000 0.000249 0.000273
outer loop
vertex 1.974314 -0.293301 0.290442
vertex 1.974412 -0.034063 0.410756
vertex 1.974307 0.000920 -0.003740
endloop
endfacet
facet normal -1.000000 -0.000010 -0.000015
outer loop
vertex 1.974314 -0.106716 -0.406063
vertex 1.974314 -0.339936 -0.242723
vertex 1.974307 0.000920 -0.003740
endloop
endfacet
facet normal -1.000000 -0.000294 0.000228
outer loop
vertex 1.974412 -0.034063 0.410756
vertex 1.974314 0.239742 0.337088
vertex 1.974307 0.000920 -0.003740
endloop
endfacet
facet normal -1.000000 -0.000019 -0.000005
outer loop
vertex 1.974314 -0.339936 -0.242723
vertex 1.974314 -0.413625 0.032348
vertex 1.974307 0.000920 -0.003740
endloop
endfacet
facet normal -1.000000 0.000003 -0.000033
outer loop
vertex 1.974305 0.402971 0.101371
vertex 1.974314 0.378231 -0.179877
vertex 1.974307 0.000920 -0.003740
endloop
endfacet
facet normal -1.000000 0.000013 -0.000013
outer loop
vertex 1.974314 0.378231 -0.179877
vertex 1.974314 0.176911 -0.381243
vertex 1.974307 0.000920 -0.003740
endloop
endfacet
facet normal -1.000000 -0.000018 0.000008
outer loop
vertex 1.974314 -0.413625 0.032348
vertex 1.974314 -0.293301 0.290442
vertex 1.974307 0.000920 -0.003740
endloop
endfacet
facet normal -1.000000 0.000001 -0.000019
outer loop
vertex 1.974314 0.176911 -0.381243
vertex 1.974314 -0.106716 -0.406063
vertex 1.974307 0.000920 -0.003740
endloop
endfacet
facet normal 1.000000 -0.000013 -0.000001
outer loop
vertex -1.992273 -1.003357 0.084188
vertex -1.992273 -0.972843 -0.264670
vertex -1.992270 -0.720135 -0.197039
endloop
endfacet
facet normal -1.000000 -0.000004 0.000012
outer loop
vertex 1.974307 0.426964 -0.917601
vertex 1.974307 0.088783 -1.008237
vertex 1.974310 0.065525 -0.741966
endloop
endfacet
facet normal 0.000005 -0.965940 0.258766
outer loop
vertex 1.478485 1.005188 -0.091616
vertex 1.478485 0.914572 -0.429874
vertex 1.974307 0.914573 -0.429880
endloop
endfacet
facet normal -0.000011 -0.087648 -0.996152
outer loop
vertex 1.478721 -0.084028 1.000674
vertex 1.478485 0.261836 0.970242
vertex 1.974307 0.261837 0.970236
endloop
endfacet
facet normal 0.000001 -0.996018 -0.089148
outer loop
vertex 1.478463 0.974493 0.251324
vertex 1.478485 1.005188 -0.091616
vertex 1.974307 1.005189 -0.091622
endloop
endfacet
facet normal -0.000012 0.256571 -0.966525
outer loop
vertex 1.478485 -0.425124 0.910127
vertex 1.478721 -0.084028 1.000674
vertex 1.974543 -0.084027 1.000668
endloop
endfacet
facet normal -0.000003 -0.909486 -0.415734
outer loop
vertex 1.478485 0.826710 0.574623
vertex 1.478463 0.974493 0.251324
vertex 1.974285 0.974494 0.251318
endloop
endfacet
facet normal -0.000011 0.573665 -0.819090
outer loop
vertex 1.478485 -0.711918 0.709266
vertex 1.478485 -0.425124 0.910127
vertex 1.974307 -0.425123 0.910121
endloop
endfacet
facet normal -0.000007 -0.707186 -0.707027
outer loop
vertex 1.478485 0.579144 0.822245
vertex 1.478485 0.826710 0.574623
vertex 1.974307 0.826711 0.574617
endloop
endfacet
facet normal -0.000008 0.819213 -0.573490
outer loop
vertex 1.478485 -0.912734 0.422406
vertex 1.478485 -0.711918 0.709266
vertex 1.974307 -0.711917 0.709260
endloop
endfacet
facet normal -0.000005 0.965941 -0.258763
outer loop
vertex 1.478485 -1.003349 0.084148
vertex 1.478485 -0.912734 0.422406
vertex 1.974307 -0.912733 0.422401
endloop
endfacet
facet normal -0.000001 0.996196 0.087136
outer loop
vertex 1.478485 -0.972835 -0.264710
vertex 1.478485 -1.003349 0.084148
vertex 1.974307 -1.003348 0.084142
endloop
endfacet
facet normal 0.000003 0.906344 0.422540
outer loop
vertex 1.478485 -0.824872 -0.582091
vertex 1.478485 -0.972835 -0.264710
vertex 1.974307 -0.972834 -0.264716
endloop
endfacet
facet normal 0.000007 0.707188 0.707026
outer loop
vertex 1.478485 -0.577306 -0.829713
vertex 1.478485 -0.824872 -0.582091
vertex 1.974307 -0.824871 -0.582096
endloop
endfacet
facet normal 0.000009 0.422696 0.906272
outer loop
vertex 1.478485 -0.259997 -0.977710
vertex 1.478485 -0.577306 -0.829713
vertex 1.974307 -0.577305 -0.829719
endloop
endfacet
facet normal 0.000011 0.087177 0.996193
outer loop
vertex 1.478485 0.088782 -1.008231
vertex 1.478485 -0.259997 -0.977710
vertex 1.974307 -0.259996 -0.977715
endloop
endfacet
facet normal 0.000012 -0.258875 0.965911
outer loop
vertex 1.478485 0.426963 -0.917595
vertex 1.478485 0.088782 -1.008231
vertex 1.974307 0.088783 -1.008237
endloop
endfacet
facet normal 0.000011 -0.573664 0.819091
outer loop
vertex 1.478485 0.713757 -0.716734
vertex 1.478485 0.426963 -0.917595
vertex 1.974307 0.426964 -0.917601
endloop
endfacet
facet normal 0.000008 -0.819214 0.573488
outer loop
vertex 1.478485 0.914572 -0.429874
vertex 1.478485 0.713757 -0.716734
vertex 1.974307 0.713758 -0.716740
endloop
endfacet
facet normal -0.000009 -0.422698 -0.906271
outer loop
vertex 1.478485 0.261836 0.970242
vertex 1.478485 0.579144 0.822245
vertex 1.974307 0.579145 0.822239
endloop
endfacet
facet normal -0.000010 -0.422699 -0.906270
outer loop
vertex -0.504805 0.261832 0.970265
vertex -0.504805 0.579140 0.822268
vertex -0.008983 0.579141 0.822262
endloop
endfacet
facet normal 0.000008 -0.819214 0.573488
outer loop
vertex -0.504805 0.914568 -0.429851
vertex -0.504805 0.713753 -0.716711
vertex -0.008983 0.713754 -0.716717
endloop
endfacet
facet normal 0.000011 -0.573664 0.819091
outer loop
vertex -0.504805 0.713753 -0.716711
vertex -0.504805 0.426959 -0.917572
vertex -0.008983 0.426960 -0.917578
endloop
endfacet
facet normal 0.000012 -0.258875 0.965911
outer loop
vertex -0.504805 0.426959 -0.917572
vertex -0.504805 0.088777 -1.008208
vertex -0.008983 0.088778 -1.008214
endloop
endfacet
facet normal 0.000011 0.087177 0.996193
outer loop
vertex -0.504805 0.088777 -1.008208
vertex -0.504805 -0.260001 -0.977687
vertex -0.008983 -0.260000 -0.977693
endloop
endfacet
facet normal 0.000010 0.422696 0.906271
outer loop
vertex -0.504805 -0.260001 -0.977687
vertex -0.504805 -0.577310 -0.829690
vertex -0.008983 -0.577309 -0.829696
endloop
endfacet
facet normal 0.000007 0.707188 0.707026
outer loop
vertex -0.504805 -0.577310 -0.829690
vertex -0.504805 -0.824876 -0.582068
vertex -0.008983 -0.824875 -0.582074
endloop
endfacet
facet normal 0.000003 0.906344 0.422541
outer loop
vertex -0.504805 -0.824876 -0.582068
vertex -0.504805 -0.972839 -0.264687
vertex -0.008983 -0.972838 -0.264693
endloop
endfacet
facet normal -0.000001 0.996196 0.087136
outer loop
vertex -0.504805 -0.972839 -0.264687
vertex -0.504805 -1.003353 0.084171
vertex -0.008983 -1.003353 0.084165
endloop
endfacet
facet normal -0.000005 0.965941 -0.258763
outer loop
vertex -0.504805 -1.003353 0.084171
vertex -0.504805 -0.912738 0.422429
vertex -0.008983 -0.912737 0.422423
endloop
endfacet
facet normal -0.000008 0.819213 -0.573490
outer loop
vertex -0.504805 -0.912738 0.422429
vertex -0.504805 -0.711923 0.709289
vertex -0.008983 -0.711922 0.709283
endloop
endfacet
facet normal -0.000006 -0.707187 -0.707027
outer loop
vertex -0.504805 0.579140 0.822268
vertex -0.504805 0.826706 0.574646
vertex -0.008983 0.826707 0.574640
endloop
endfacet
facet normal -0.000011 0.573665 -0.819090
outer loop
vertex -0.504805 -0.711923 0.709289
vertex -0.504805 -0.425129 0.910150
vertex -0.008983 -0.425128 0.910144
endloop
endfacet
facet normal -0.000003 -0.909486 -0.415735
outer loop
vertex -0.504805 0.826706 0.574646
vertex -0.504827 0.974489 0.251347
vertex -0.009005 0.974490 0.251341
endloop
endfacet
facet normal -0.000011 0.256571 -0.966525
outer loop
vertex -0.504805 -0.425129 0.910150
vertex -0.504569 -0.084032 1.000697
vertex -0.008746 -0.084031 1.000691
endloop
endfacet
facet normal 0.000001 -0.996018 -0.089147
outer loop
vertex -0.504827 0.974489 0.251347
vertex -0.504805 1.005183 -0.091593
vertex -0.008983 1.005185 -0.091599
endloop
endfacet
facet normal -0.000011 -0.087648 -0.996152
outer loop
vertex -0.504569 -0.084032 1.000697
vertex -0.504805 0.261832 0.970265
vertex -0.008983 0.261833 0.970259
endloop
endfacet
facet normal 0.000005 -0.965940 0.258765
outer loop
vertex -0.504805 1.005183 -0.091593
vertex -0.504805 0.914568 -0.429851
vertex -0.008983 0.914569 -0.429857
endloop
endfacet
facet normal -0.000010 -0.422698 -0.906270
outer loop
vertex 0.486840 0.261834 0.970254
vertex 0.486840 0.579142 0.822256
vertex 0.982662 0.579143 0.822251
endloop
endfacet
facet normal 0.000008 -0.819214 0.573488
outer loop
vertex 0.486840 0.914570 -0.429863
vertex 0.486840 0.713755 -0.716722
vertex 0.982662 0.713756 -0.716728
endloop
endfacet
facet normal 0.000011 -0.573664 0.819091
outer loop
vertex 0.486840 0.713755 -0.716722
vertex 0.486840 0.426961 -0.917584
vertex 0.982662 0.426962 -0.917589
endloop
endfacet
facet normal 0.000012 -0.258875 0.965911
outer loop
vertex 0.486840 0.426961 -0.917584
vertex 0.486840 0.088779 -1.008220
vertex 0.982662 0.088780 -1.008225
endloop
endfacet
facet normal 0.000011 0.087176 0.996193
outer loop
vertex 0.486840 0.088779 -1.008220
vertex 0.486840 -0.259999 -0.977698
vertex 0.982662 -0.259998 -0.977704
endloop
endfacet
facet normal 0.000009 0.422696 0.906271
outer loop
vertex 0.486840 -0.259999 -0.977698
vertex 0.486840 -0.577308 -0.829702
vertex 0.982662 -0.577307 -0.829707
endloop
endfacet
facet normal 0.000007 0.707188 0.707026
outer loop
vertex 0.486840 -0.577308 -0.829702
vertex 0.486840 -0.824874 -0.582079
vertex 0.982662 -0.824873 -0.582085
endloop
endfacet
facet normal 0.000003 0.906344 0.422540
outer loop
vertex 0.486840 -0.824874 -0.582079
vertex 0.486840 -0.972837 -0.264699
vertex 0.982662 -0.972836 -0.264705
endloop
endfacet
facet normal -0.000001 0.996197 0.087135
outer loop
vertex 0.486840 -0.972837 -0.264699
vertex 0.486840 -1.003351 0.084159
vertex 0.982662 -1.003350 0.084154
endloop
endfacet
facet normal -0.000005 0.965941 -0.258763
outer loop
vertex 0.486840 -1.003351 0.084159
vertex 0.486840 -0.912736 0.422418
vertex 0.982662 -0.912735 0.422412
endloop
endfacet
facet normal -0.000008 0.819213 -0.573490
outer loop
vertex 0.486840 -0.912736 0.422418
vertex 0.486840 -0.711920 0.709277
vertex 0.982662 -0.711919 0.709271
endloop
endfacet
facet normal -0.000007 -0.707186 -0.707027
outer loop
vertex 0.486840 0.579142 0.822256
vertex 0.486840 0.826708 0.574634
vertex 0.982662 0.826709 0.574629
endloop
endfacet
facet normal -0.000011 0.573665 -0.819090
outer loop
vertex 0.486840 -0.711920 0.709277
vertex 0.486840 -0.425127 0.910139
vertex 0.982662 -0.425126 0.910133
endloop
endfacet
facet normal -0.000003 -0.909486 -0.415734
outer loop
vertex 0.486840 0.826708 0.574634
vertex 0.486817 0.974491 0.251335
vertex 0.982640 0.974492 0.251330
endloop
endfacet
facet normal -0.000012 0.256571 -0.966525
outer loop
vertex 0.486840 -0.425127 0.910139
vertex 0.487076 -0.084030 1.000685
vertex 0.982899 -0.084029 1.000679
endloop
endfacet
facet normal 0.000001 -0.996018 -0.089148
outer loop
vertex 0.486817 0.974491 0.251335
vertex 0.486840 1.005186 -0.091605
vertex 0.982662 1.005187 -0.091610
endloop
endfacet
facet normal -0.000011 -0.087649 -0.996152
outer loop
vertex 0.487076 -0.084030 1.000685
vertex 0.486840 0.261834 0.970254
vertex 0.982662 0.261835 0.970248
endloop
endfacet
facet normal 0.000005 -0.965940 0.258766
outer loop
vertex 0.486840 1.005186 -0.091605
vertex 0.486840 0.914570 -0.429863
vertex 0.982662 0.914571 -0.429869
endloop
endfacet
facet normal 0.000005 -0.965940 0.258766
outer loop
vertex -1.496450 1.005181 -0.091582
vertex -1.496450 0.914566 -0.429840
vertex -1.000628 0.914567 -0.429846
endloop
endfacet
facet normal -0.000011 -0.087649 -0.996151
outer loop
vertex -1.496214 -0.084034 1.000708
vertex -1.496450 0.261829 0.970276
vertex -1.000628 0.261831 0.970271
endloop
endfacet
facet normal 0.000001 -0.996018 -0.089148
outer loop
vertex -1.496472 0.974487 0.251358
vertex -1.496450 1.005181 -0.091582
vertex -1.000628 1.005182 -0.091587
endloop
endfacet
facet normal -0.000012 0.256571 -0.966525
outer loop
vertex -1.496450 -0.425131 0.910162
vertex -1.496214 -0.084034 1.000708
vertex -1.000392 -0.084033 1.000702
endloop
endfacet
facet normal -0.000003 -0.909486 -0.415735
outer loop
vertex -1.496450 0.826704 0.574657
vertex -1.496472 0.974487 0.251358
vertex -1.000650 0.974488 0.251352
endloop
endfacet
facet normal -0.000011 0.573665 -0.819090
outer loop
vertex -1.496450 -0.711925 0.709300
vertex -1.496450 -0.425131 0.910162
vertex -1.000628 -0.425130 0.910156
endloop
endfacet
facet normal -0.000007 -0.707187 -0.707027
outer loop
vertex -1.496450 0.579138 0.822279
vertex -1.496450 0.826704 0.574657
vertex -1.000628 0.826705 0.574652
endloop
endfacet
facet normal -0.000008 0.819213 -0.573490
outer loop
vertex -1.496450 -0.912740 0.422441
vertex -1.496450 -0.711925 0.709300
vertex -1.000628 -0.711924 0.709294
endloop
endfacet
facet normal -0.000005 0.965941 -0.258763
outer loop
vertex -1.496450 -1.003356 0.084182
vertex -1.496450 -0.912740 0.422441
vertex -1.000628 -0.912739 0.422435
endloop
endfacet
facet normal -0.000001 0.996196 0.087136
outer loop
vertex -1.496450 -0.972841 -0.264676
vertex -1.496450 -1.003356 0.084182
vertex -1.000628 -1.003355 0.084176
endloop
endfacet
facet normal 0.000003 0.906344 0.422541
outer loop
vertex -1.496450 -0.824878 -0.582056
vertex -1.496450 -0.972841 -0.264676
vertex -1.000628 -0.972840 -0.264682
endloop
endfacet
facet normal 0.000007 0.707188 0.707026
outer loop
vertex -1.496450 -0.577312 -0.829679
vertex -1.496450 -0.824878 -0.582056
vertex -1.000628 -0.824877 -0.582062
endloop
endfacet
facet normal 0.000010 0.422696 0.906271
outer loop
vertex -1.496450 -0.260003 -0.977675
vertex -1.496450 -0.577312 -0.829679
vertex -1.000628 -0.577311 -0.829685
endloop
endfacet
facet normal 0.000011 0.087176 0.996193
outer loop
vertex -1.496450 0.088775 -1.008197
vertex -1.496450 -0.260003 -0.977675
vertex -1.000628 -0.260002 -0.977681
endloop
endfacet
facet normal 0.000012 -0.258875 0.965911
outer loop
vertex -1.496450 0.426956 -0.917561
vertex -1.496450 0.088775 -1.008197
vertex -1.000628 0.088776 -1.008203
endloop
endfacet
facet normal 0.000011 -0.573664 0.819091
outer loop
vertex -1.496450 0.713750 -0.716700
vertex -1.496450 0.426956 -0.917561
vertex -1.000628 0.426957 -0.917566
endloop
endfacet
facet normal 0.000008 -0.819214 0.573488
outer loop
vertex -1.496450 0.914566 -0.429840
vertex -1.496450 0.713750 -0.716700
vertex -1.000628 0.713751 -0.716705
endloop
endfacet
facet normal -0.000010 -0.422698 -0.906271
outer loop
vertex -1.496450 0.261829 0.970276
vertex -1.496450 0.579138 0.822279
vertex -1.000628 0.579139 0.822273
endloop
endfacet
facet normal -0.000010 -0.422699 -0.906270
outer loop
vertex 0.982662 0.261835 0.970248
vertex 0.982662 0.579143 0.822251
vertex 1.478485 0.579144 0.822245
endloop
endfacet
facet normal 0.000008 -0.819214 0.573488
outer loop
vertex 0.982662 0.914571 -0.429869
vertex 0.982662 0.713756 -0.716728
vertex 1.478485 0.713757 -0.716734
endloop
endfacet
facet normal 0.000010 -0.573664 0.819091
outer loop
vertex 0.982662 0.713756 -0.716728
vertex 0.982662 0.426962 -0.917589
vertex 1.478485 0.426963 -0.917595
endloop
endfacet
facet normal 0.000012 -0.258874 0.965911
outer loop
vertex 0.982662 0.426962 -0.917589
vertex 0.982662 0.088780 -1.008225
vertex 1.478485 0.088782 -1.008231
endloop
endfacet
facet normal 0.000011 0.087176 0.996193
outer loop
vertex 0.982662 0.088780 -1.008225
vertex 0.982662 -0.259998 -0.977704
vertex 1.478485 -0.259997 -0.977710
endloop
endfacet
facet normal 0.000010 0.422696 0.906271
outer loop
vertex 0.982662 -0.259998 -0.977704
vertex 0.982662 -0.577307 -0.829707
vertex 1.478485 -0.577306 -0.829713
endloop
endfacet
facet normal 0.000007 0.707188 0.707026
outer loop
vertex 0.982662 -0.577307 -0.829707
vertex 0.982662 -0.824873 -0.582085
vertex 1.478485 -0.824872 -0.582091
endloop
endfacet
facet normal 0.000003 0.906344 0.422540
outer loop
vertex 0.982662 -0.824873 -0.582085
vertex 0.982662 -0.972836 -0.264705
vertex 1.478485 -0.972835 -0.264710
endloop
endfacet
facet normal -0.000001 0.996196 0.087135
outer loop
vertex 0.982662 -0.972836 -0.264705
vertex 0.982662 -1.003350 0.084154
vertex 1.478485 -1.003349 0.084148
endloop
endfacet
facet normal -0.000005 0.965941 -0.258763
outer loop
vertex 0.982662 -1.003350 0.084154
vertex 0.982662 -0.912735 0.422412
vertex 1.478485 -0.912734 0.422406
endloop
endfacet
facet normal -0.000009 0.819213 -0.573490
outer loop
vertex 0.982662 -0.912735 0.422412
vertex 0.982662 -0.711919 0.709271
vertex 1.478485 -0.711918 0.709266
endloop
endfacet
facet normal -0.000007 -0.707187 -0.707027
outer loop
vertex 0.982662 0.579143 0.822251
vertex 0.982662 0.826709 0.574629
vertex 1.478485 0.826710 0.574623
endloop
endfacet
facet normal -0.000011 0.573665 -0.819090
outer loop
vertex 0.982662 -0.711919 0.709271
vertex 0.982662 -0.425126 0.910133
vertex 1.478485 -0.425124 0.910127
endloop
endfacet
facet normal -0.000003 -0.909486 -0.415735
outer loop
vertex 0.982662 0.826709 0.574629
vertex 0.982640 0.974492 0.251330
vertex 1.478463 0.974493 0.251324
endloop
endfacet
facet normal -0.000012 0.256571 -0.966525
outer loop
vertex 0.982662 -0.425126 0.910133
vertex 0.982899 -0.084029 1.000679
vertex 1.478721 -0.084028 1.000674
endloop
endfacet
facet normal 0.000001 -0.996018 -0.089148
outer loop
vertex 0.982640 0.974492 0.251330
vertex 0.982662 1.005187 -0.091610
vertex 1.478485 1.005188 -0.091616
endloop
endfacet
facet normal -0.000011 -0.087648 -0.996152
outer loop
vertex 0.982899 -0.084029 1.000679
vertex 0.982662 0.261835 0.970248
vertex 1.478485 0.261836 0.970242
endloop
endfacet
facet normal 0.000005 -0.965940 0.258766
outer loop
vertex 0.982662 1.005187 -0.091610
vertex 0.982662 0.914571 -0.429869
vertex 1.478485 0.914572 -0.429874
endloop
endfacet
facet normal 0.000005 -0.965940 0.258766
outer loop
vertex -0.008983 1.005185 -0.091599
vertex -0.008983 0.914569 -0.429857
vertex 0.486840 0.914570 -0.429863
endloop
endfacet
facet normal -0.000011 -0.087649 -0.996151
outer loop
vertex -0.008746 -0.084031 1.000691
vertex -0.008983 0.261833 0.970259
vertex 0.486840 0.261834 0.970254
endloop
endfacet
facet normal 0.000001 -0.996018 -0.089147
outer loop
vertex -0.009005 0.974490 0.251341
vertex -0.008983 1.005185 -0.091599
vertex 0.486840 1.005186 -0.091605
endloop
endfacet
facet normal -0.000012 0.256572 -0.966525
outer loop
vertex -0.008983 -0.425128 0.910144
vertex -0.008746 -0.084031 1.000691
vertex 0.487076 -0.084030 1.000685
endloop
endfacet
facet normal -0.000003 -0.909486 -0.415735
outer loop
vertex -0.008983 0.826707 0.574640
vertex -0.009005 0.974490 0.251341
vertex 0.486817 0.974491 0.251335
endloop
endfacet
facet normal -0.000010 0.573664 -0.819090
outer loop
vertex -0.008983 -0.711922 0.709283
vertex -0.008983 -0.425128 0.910144
vertex 0.486840 -0.425127 0.910139
endloop
endfacet
facet normal -0.000007 -0.707186 -0.707028
outer loop
vertex -0.008983 0.579141 0.822262
vertex -0.008983 0.826707 0.574640
vertex 0.486840 0.826708 0.574634
endloop
endfacet
facet normal -0.000008 0.819213 -0.573490
outer loop
vertex -0.008983 -0.912737 0.422423
vertex -0.008983 -0.711922 0.709283
vertex 0.486840 -0.711920 0.709277
endloop
endfacet
facet normal -0.000005 0.965941 -0.258764
outer loop
vertex -0.008983 -1.003353 0.084165
vertex -0.008983 -0.912737 0.422423
vertex 0.486840 -0.912736 0.422418
endloop
endfacet
facet normal -0.000001 0.996196 0.087136
outer loop
vertex -0.008983 -0.972838 -0.264693
vertex -0.008983 -1.003353 0.084165
vertex 0.486840 -1.003351 0.084159
endloop
endfacet
facet normal 0.000003 0.906344 0.422540
outer loop
vertex -0.008983 -0.824875 -0.582074
vertex -0.008983 -0.972838 -0.264693
vertex 0.486840 -0.972837 -0.264699
endloop
endfacet
facet normal 0.000007 0.707188 0.707026
outer loop
vertex -0.008983 -0.577309 -0.829696
vertex -0.008983 -0.824875 -0.582074
vertex 0.486840 -0.824874 -0.582079
endloop
endfacet
facet normal 0.000009 0.422696 0.906271
outer loop
vertex -0.008983 -0.260000 -0.977693
vertex -0.008983 -0.577309 -0.829696
vertex 0.486840 -0.577308 -0.829702
endloop
endfacet
facet normal 0.000011 0.087177 0.996193
outer loop
vertex -0.008983 0.088778 -1.008214
vertex -0.008983 -0.260000 -0.977693
vertex 0.486840 -0.259999 -0.977698
endloop
endfacet
facet normal 0.000012 -0.258875 0.965911
outer loop
vertex -0.008983 0.426960 -0.917578
vertex -0.008983 0.088778 -1.008214
vertex 0.486840 0.088779 -1.008220
endloop
endfacet
facet normal 0.000011 -0.573664 0.819091
outer loop
vertex -0.008983 0.713754 -0.716717
vertex -0.008983 0.426960 -0.917578
vertex 0.486840 0.426961 -0.917584
endloop
endfacet
facet normal 0.000008 -0.819214 0.573488
outer loop
vertex -0.008983 0.914569 -0.429857
vertex -0.008983 0.713754 -0.716717
vertex 0.486840 0.713755 -0.716722
endloop
endfacet
facet normal -0.000009 -0.422698 -0.906270
outer loop
vertex -0.008983 0.261833 0.970259
vertex -0.008983 0.579141 0.822262
vertex 0.486840 0.579142 0.822256
endloop
endfacet
facet normal 0.000005 -0.965940 0.258765
outer loop
vertex -1.000628 1.005182 -0.091587
vertex -1.000628 0.914567 -0.429846
vertex -0.504805 0.914568 -0.429851
endloop
endfacet
facet normal -0.000011 -0.087648 -0.996152
outer loop
vertex -1.000392 -0.084033 1.000702
vertex -1.000628 0.261831 0.970271
vertex -0.504805 0.261832 0.970265
endloop
endfacet
facet normal 0.000001 -0.996018 -0.089148
outer loop
vertex -1.000650 0.974488 0.251352
vertex -1.000628 1.005182 -0.091587
vertex -0.504805 1.005183 -0.091593
endloop
endfacet
facet normal -0.000011 0.256571 -0.966525
outer loop
vertex -1.000628 -0.425130 0.910156
vertex -1.000392 -0.084033 1.000702
vertex -0.504569 -0.084032 1.000697
endloop
endfacet
facet normal -0.000003 -0.909486 -0.415734
outer loop
vertex -1.000628 0.826705 0.574652
vertex -1.000650 0.974488 0.251352
vertex -0.504827 0.974489 0.251347
endloop
endfacet
facet normal -0.000011 0.573665 -0.819090
outer loop
vertex -1.000628 -0.711924 0.709294
vertex -1.000628 -0.425130 0.910156
vertex -0.504805 -0.425129 0.910150
endloop
endfacet
facet normal -0.000007 -0.707187 -0.707027
outer loop
vertex -1.000628 0.579139 0.822273
vertex -1.000628 0.826705 0.574652
vertex -0.504805 0.826706 0.574646
endloop
endfacet
facet normal -0.000008 0.819213 -0.573489
outer loop
vertex -1.000628 -0.912739 0.422435
vertex -1.000628 -0.711924 0.709294
vertex -0.504805 -0.711923 0.709289
endloop
endfacet
facet normal -0.000005 0.965941 -0.258764
outer loop
vertex -1.000628 -1.003355 0.084176
vertex -1.000628 -0.912739 0.422435
vertex -0.504805 -0.912738 0.422429
endloop
endfacet
facet normal -0.000001 0.996196 0.087136
outer loop
vertex -1.000628 -0.972840 -0.264682
vertex -1.000628 -1.003355 0.084176
vertex -0.504805 -1.003353 0.084171
endloop
endfacet
facet normal 0.000003 0.906344 0.422541
outer loop
vertex -1.000628 -0.824877 -0.582062
vertex -1.000628 -0.972840 -0.264682
vertex -0.504805 -0.972839 -0.264687
endloop
endfacet
facet normal 0.000007 0.707188 0.707025
outer loop
vertex -1.000628 -0.577311 -0.829685
vertex -1.000628 -0.824877 -0.582062
vertex -0.504805 -0.824876 -0.582068
endloop
endfacet
facet normal 0.000009 0.422696 0.906272
outer loop
vertex -1.000628 -0.260002 -0.977681
vertex -1.000628 -0.577311 -0.829685
vertex -0.504805 -0.577310 -0.829690
endloop
endfacet
facet normal 0.000011 0.087177 0.996193
outer loop
vertex -1.000628 0.088776 -1.008203
vertex -1.000628 -0.260002 -0.977681
vertex -0.504805 -0.260001 -0.977687
endloop
endfacet
facet normal 0.000012 -0.258875 0.965911
outer loop
vertex -1.000628 0.426957 -0.917566
vertex -1.000628 0.088776 -1.008203
vertex -0.504805 0.088777 -1.008208
endloop
endfacet
facet normal 0.000011 -0.573664 0.819091
outer loop
vertex -1.000628 0.713751 -0.716705
vertex -1.000628 0.426957 -0.917566
vertex -0.504805 0.426959 -0.917572
endloop
endfacet
facet normal 0.000008 -0.819214 0.573488
outer loop
vertex -1.000628 0.914567 -0.429846
vertex -1.000628 0.713751 -0.716705
vertex -0.504805 0.713753 -0.716711
endloop
endfacet
facet normal -0.000010 -0.422698 -0.906270
outer loop
vertex -1.000628 0.261831 0.970271
vertex -1.000628 0.579139 0.822273
vertex -0.504805 0.579140 0.822268
endloop
endfacet
facet normal -0.000009 -0.422698 -0.906271
outer loop
vertex -1.992273 0.261828 0.970282
vertex -1.992273 0.579137 0.822285
vertex -1.496450 0.579138 0.822279
endloop
endfacet
facet normal 0.000008 -0.819214 0.573488
outer loop
vertex -1.992273 0.914565 -0.429834
vertex -1.992273 0.713749 -0.716694
vertex -1.496450 0.713750 -0.716700
endloop
endfacet
facet normal 0.000010 -0.573664 0.819091
outer loop
vertex -1.992273 0.713749 -0.716694
vertex -1.992273 0.426955 -0.917555
vertex -1.496450 0.426956 -0.917561
endloop
endfacet
facet normal 0.000012 -0.258875 0.965911
outer loop
vertex -1.992273 0.426955 -0.917555
vertex -1.992273 0.088774 -1.008191
vertex -1.496450 0.088775 -1.008197
endloop
endfacet
facet normal 0.000011 0.087176 0.996193
outer loop
vertex -1.992273 0.088774 -1.008191
vertex -1.992273 -0.260004 -0.977670
vertex -1.496450 -0.260003 -0.977675
endloop
endfacet
facet normal 0.000009 0.422696 0.906272
outer loop
vertex -1.992273 -0.260004 -0.977670
vertex -1.992273 -0.577313 -0.829673
vertex -1.496450 -0.577312 -0.829679
endloop
endfacet
facet normal 0.000006 0.707188 0.707026
outer loop
vertex -1.992273 -0.577313 -0.829673
vertex -1.992273 -0.824879 -0.582051
vertex -1.496450 -0.824878 -0.582056
endloop
endfacet
facet normal 0.000003 0.906344 0.422540
outer loop
vertex -1.992273 -0.824879 -0.582051
vertex -1.992273 -0.972843 -0.264670
vertex -1.496450 -0.972841 -0.264676
endloop
endfacet
facet normal -0.000001 0.996197 0.087135
outer loop
vertex -1.992273 -0.972843 -0.264670
vertex -1.992273 -1.003357 0.084188
vertex -1.496450 -1.003356 0.084182
endloop
endfacet
facet normal -0.000005 0.965941 -0.258763
outer loop
vertex -1.992273 -1.003357 0.084188
vertex -1.992273 -0.912742 0.422446
vertex -1.496450 -0.912740 0.422441
endloop
endfacet
facet normal -0.000008 0.819212 -0.573490
outer loop
vertex -1.992273 -0.912742 0.422446
vertex -1.992273 -0.711926 0.709306
vertex -1.496450 -0.711925 0.709300
endloop
endfacet
facet normal -0.000007 -0.707187 -0.707027
outer loop
vertex -1.992273 0.579137 0.822285
vertex -1.992273 0.826703 0.574663
vertex -1.496450 0.826704 0.574657
endloop
endfacet
facet normal -0.000011 0.573665 -0.819090
outer loop
vertex -1.992273 -0.711926 0.709306
vertex -1.992273 -0.425132 0.910167
vertex -1.496450 -0.425131 0.910162
endloop
endfacet
facet normal -0.000003 -0.909486 -0.415734
outer loop
vertex -1.992273 0.826703 0.574663
vertex -1.992295 0.974486 0.251364
vertex -1.496472 0.974487 0.251358
endloop
endfacet
facet normal -0.000012 0.256572 -0.966525
outer loop
vertex -1.992273 -0.425132 0.910167
vertex -1.992037 -0.084035 1.000714
vertex -1.496214 -0.084034 1.000708
endloop
endfacet
facet normal 0.000001 -0.996018 -0.089148
outer loop
vertex -1.992295 0.974486 0.251364
vertex -1.992273 1.005180 -0.091576
vertex -1.496450 1.005181 -0.091582
endloop
endfacet
facet normal -0.000011 -0.087649 -0.996151
outer loop
vertex -1.992037 -0.084035 1.000714
vertex -1.992273 0.261828 0.970282
vertex -1.496450 0.261829 0.970276
endloop
endfacet
facet normal 0.000005 -0.965940 0.258765
outer loop
vertex -1.992273 1.005180 -0.091576
vertex -1.992273 0.914565 -0.429834
vertex -1.496450 0.914566 -0.429840
endloop
endfacet
facet normal -1.000000 0.000009 -0.000010
outer loop
vertex 1.974310 -0.522856 0.520108
vertex 1.974310 -0.312110 0.667707
vertex 1.974314 -0.293301 0.290442
endloop
endfacet
facet normal -1.000000 0.000010 -0.000007
outer loop
vertex 1.974307 -0.912733 0.422401
vertex 1.974307 -0.711917 0.709260
vertex 1.974310 -0.522856 0.520108
endloop
endfacet
facet normal -1.000000 -0.000008 0.000010
outer loop
vertex 1.974307 0.713758 -0.716740
vertex 1.974307 0.426964 -0.917601
vertex 1.974310 0.314031 -0.675363
endloop
endfacet
facet normal -1.000000 0.000012 -0.000003
outer loop
vertex 1.974307 -1.003348 0.084142
vertex 1.974307 -0.912733 0.422401
vertex 1.974310 -0.670422 0.309314
endloop
endfacet
facet normal -1.000000 -0.000011 0.000007
outer loop
vertex 1.974307 0.914573 -0.429880
vertex 1.974307 0.713758 -0.716740
vertex 1.974310 0.524777 -0.527764
endloop
endfacet
facet normal -1.000000 0.000012 0.000001
outer loop
vertex 1.974307 -0.972834 -0.264716
vertex 1.974307 -1.003348 0.084142
vertex 1.974310 -0.737009 0.060750
endloop
endfacet
facet normal -1.000000 -0.000012 0.000003
outer loop
vertex 1.974307 1.005189 -0.091622
vertex 1.974307 0.914573 -0.429880
vertex 1.974310 0.672343 -0.316970
endloop
endfacet
facet normal -1.000000 0.000011 0.000005
outer loop
vertex 1.974307 -0.824871 -0.582096
vertex 1.974307 -0.972834 -0.264716
vertex 1.974310 -0.714586 -0.195602
endloop
endfacet
facet normal -1.000000 -0.000018 -0.000066
outer loop
vertex 1.974285 0.974494 0.251318
vertex 1.974307 1.005189 -0.091622
vertex 1.974310 0.738930 -0.068407
endloop
endfacet
facet normal -1.000000 0.000009 0.000009
outer loop
vertex 1.974307 -0.577305 -0.829719
vertex 1.974307 -0.824871 -0.582096
vertex 1.974310 -0.605858 -0.428824
endloop
endfacet
facet normal -1.000000 -0.000667 0.000166
outer loop
vertex 1.974543 -0.084027 1.000668
vertex 1.974307 0.261837 0.970236
vertex 1.974310 0.192691 0.711882
endloop
endfacet
facet normal -1.000000 -0.000047 0.000047
outer loop
vertex 1.974307 0.826711 0.574617
vertex 1.974285 0.974494 0.251318
vertex 1.974294 0.716375 0.183597
endloop
endfacet
facet normal -1.000000 0.000006 0.000011
outer loop
vertex 1.974307 -0.259996 -0.977715
vertex 1.974307 -0.577305 -0.829719
vertex 1.974310 -0.423938 -0.610785
endloop
endfacet
facet normal -1.000000 0.000618 0.000276
outer loop
vertex 1.974307 -0.425123 0.910121
vertex 1.974543 -0.084027 1.000668
vertex 1.974484 -0.061461 0.734244
endloop
endfacet
facet normal -1.000000 -0.000009 -0.000009
outer loop
vertex 1.974307 0.579145 0.822239
vertex 1.974307 0.826711 0.574617
vertex 1.974310 0.607779 0.421168
endloop
endfacet
facet normal -1.000000 0.000003 0.000013
outer loop
vertex 1.974307 0.088783 -1.008237
vertex 1.974307 -0.259996 -0.977715
vertex 1.974310 -0.190770 -0.719538
endloop
endfacet
facet normal -1.000000 -0.000005 -0.000011
outer loop
vertex 1.974307 0.261837 0.970236
vertex 1.974307 0.579145 0.822239
vertex 1.974310 0.425859 0.603128
endloop
endfacet
facet normal -1.000000 0.000007 -0.000010
outer loop
vertex 1.974307 -0.711917 0.709260
vertex 1.974307 -0.425123 0.910121
vertex 1.974310 -0.312110 0.667707
endloop
endfacet
facet normal -1.000000 -0.000003 0.000011
outer loop
vertex 1.974310 0.314031 -0.675363
vertex 1.974310 0.065525 -0.741966
vertex 1.974314 -0.106716 -0.406063
endloop
endfacet
facet normal -1.000000 0.000010 -0.000007
outer loop
vertex 1.974310 -0.670422 0.309314
vertex 1.974310 -0.522856 0.520108
vertex 1.974314 -0.293301 0.290442
endloop
endfacet
facet normal -1.000000 -0.000007 0.000010
outer loop
vertex 1.974310 0.524777 -0.527764
vertex 1.974310 0.314031 -0.675363
vertex 1.974314 0.176911 -0.381243
endloop
endfacet
facet normal -1.000000 0.000011 -0.000003
outer loop
vertex 1.974310 -0.737009 0.060750
vertex 1.974310 -0.670422 0.309314
vertex 1.974314 -0.293301 0.290442
endloop
endfacet
facet normal -1.000000 -0.000009 0.000006
outer loop
vertex 1.974310 0.672343 -0.316970
vertex 1.974310 0.524777 -0.527764
vertex 1.974314 0.176911 -0.381243
endloop
endfacet
facet normal -1.000000 0.000013 0.000001
outer loop
vertex 1.974310 -0.714586 -0.195602
vertex 1.974310 -0.737009 0.060750
vertex 1.974314 -0.413625 0.032348
endloop
endfacet
facet normal -1.000000 -0.000013 0.000003
outer loop
vertex 1.974310 0.738930 -0.068407
vertex 1.974310 0.672343 -0.316970
vertex 1.974314 0.378231 -0.179877
endloop
endfacet
facet normal -1.000000 0.000009 0.000005
outer loop
vertex 1.974310 -0.605858 -0.428824
vertex 1.974310 -0.714586 -0.195602
vertex 1.974314 -0.413625 0.032348
endloop
endfacet
facet normal -1.000000 -0.000006 -0.000011
outer loop
vertex 1.974310 0.192691 0.711882
vertex 1.974310 0.425859 0.603128
vertex 1.974314 0.239742 0.337088
endloop
endfacet
facet normal -1.000000 -0.000018 -0.000067
outer loop
vertex 1.974294 0.716375 0.183597
vertex 1.974310 0.738930 -0.068407
vertex 1.974305 0.402971 0.101371
endloop
endfacet
facet normal -1.000000 0.000009 0.000009
outer loop
vertex 1.974310 -0.423938 -0.610785
vertex 1.974310 -0.605858 -0.428824
vertex 1.974314 -0.339936 -0.242723
endloop
endfacet
facet normal -1.000000 -0.000668 0.000166
outer loop
vertex 1.974484 -0.061461 0.734244
vertex 1.974310 0.192691 0.711882
vertex 1.974412 -0.034063 0.410756
endloop
endfacet
facet normal -1.000000 -0.000047 0.000047
outer loop
vertex 1.974310 0.607779 0.421168
vertex 1.974294 0.716375 0.183597
vertex 1.974305 0.402971 0.101371
endloop
endfacet
facet normal -1.000000 0.000004 0.000010
outer loop
vertex 1.974310 -0.190770 -0.719538
vertex 1.974310 -0.423938 -0.610785
vertex 1.974314 -0.339936 -0.242723
endloop
endfacet
facet normal -1.000000 0.000618 0.000275
outer loop
vertex 1.974310 -0.312110 0.667707
vertex 1.974484 -0.061461 0.734244
vertex 1.974412 -0.034063 0.410756
endloop
endfacet
facet normal -1.000000 0.000009 0.000010
outer loop
vertex 1.974310 0.425859 0.603128
vertex 1.974310 0.607779 0.421168
vertex 1.974305 0.402971 0.101371
endloop
endfacet
facet normal -1.000000 0.000001 0.000013
outer loop
vertex 1.974310 0.065525 -0.741966
vertex 1.974310 -0.190770 -0.719538
vertex 1.974314 -0.106716 -0.406063
endloop
endfacet
facet normal 1.000000 -0.000009 0.000003
outer loop
vertex -1.992270 -0.675629 0.311786
vertex -1.992270 -0.742732 0.061298
vertex -1.992266 -0.395212 0.180915
endloop
endfacet
facet normal 1.000000 0.000013 -0.000003
outer loop
vertex -1.992273 0.914565 -0.429834
vertex -1.992273 1.005180 -0.091576
vertex -1.992270 0.744634 -0.068859
endloop
endfacet
facet normal 1.000000 -0.000011 -0.000005
outer loop
vertex -1.992273 -0.972843 -0.264670
vertex -1.992273 -0.824879 -0.582051
vertex -1.992270 -0.610565 -0.432066
endloop
endfacet
facet normal 1.000000 0.000005 0.000011
outer loop
vertex -1.992273 0.579137 0.822285
vertex -1.992273 0.261828 0.970282
vertex -1.992270 0.194166 0.717470
endloop
endfacet
facet normal 1.000000 0.000018 0.000066
outer loop
vertex -1.992273 1.005180 -0.091576
vertex -1.992295 0.974486 0.251364
vertex -1.992286 0.721904 0.185095
endloop
endfacet
facet normal 1.000000 -0.000008 -0.000009
outer loop
vertex -1.992273 -0.824879 -0.582051
vertex -1.992273 -0.577313 -0.829673
vertex -1.992270 -0.427237 -0.615436
endloop
endfacet
facet normal 1.000000 0.000667 -0.000166
outer loop
vertex -1.992273 0.261828 0.970282
vertex -1.992037 -0.084035 1.000714
vertex -1.992095 -0.061954 0.740005
endloop
endfacet
facet normal 1.000000 0.000047 -0.000047
outer loop
vertex -1.992295 0.974486 0.251364
vertex -1.992273 0.826703 0.574663
vertex -1.992270 0.612468 0.424505
endloop
endfacet
facet normal 1.000000 -0.000005 -0.000011
outer loop
vertex -1.992273 -0.577313 -0.829673
vertex -1.992273 -0.260004 -0.977670
vertex -1.992270 -0.192263 -0.725031
endloop
endfacet
facet normal 1.000000 -0.000619 -0.000275
outer loop
vertex -1.992037 -0.084035 1.000714
vertex -1.992273 -0.425132 0.910167
vertex -1.992270 -0.314543 0.672953
endloop
endfacet
facet normal 1.000000 0.000009 0.000009
outer loop
vertex -1.992273 0.826703 0.574663
vertex -1.992273 0.579137 0.822285
vertex -1.992270 0.429139 0.607875
endloop
endfacet
facet normal 1.000000 -0.000001 -0.000012
outer loop
vertex -1.992273 -0.260004 -0.977670
vertex -1.992273 0.088774 -1.008191
vertex -1.992270 0.066015 -0.747633
endloop
endfacet
facet normal 1.000000 -0.000007 0.000010
outer loop
vertex -1.992273 -0.425132 0.910167
vertex -1.992273 -0.711926 0.709306
vertex -1.992270 -0.526920 0.524211
endloop
endfacet
facet normal 1.000000 0.000003 -0.000012
outer loop
vertex -1.992273 0.088774 -1.008191
vertex -1.992273 0.426955 -0.917555
vertex -1.992270 0.316446 -0.680515
endloop
endfacet
facet normal 1.000000 -0.000009 0.000007
outer loop
vertex -1.992273 -0.711926 0.709306
vertex -1.992273 -0.912742 0.422446
vertex -1.992270 -0.675629 0.311786
endloop
endfacet
facet normal 1.000000 0.000006 -0.000010
outer loop
vertex -1.992273 0.426955 -0.917555
vertex -1.992273 0.713749 -0.716694
vertex -1.992270 0.528823 -0.531772
endloop
endfacet
facet normal 1.000000 -0.000012 0.000003
outer loop
vertex -1.992273 -0.912742 0.422446
vertex -1.992273 -1.003357 0.084188
vertex -1.992270 -0.742732 0.061298
endloop
endfacet
facet normal 1.000000 0.000009 -0.000007
outer loop
vertex -1.992273 0.713749 -0.716694
vertex -1.992273 0.914565 -0.429834
vertex -1.992270 0.677531 -0.319347
endloop
endfacet
facet normal 1.000000 0.000009 -0.000007
outer loop
vertex -1.992270 0.528823 -0.531772
vertex -1.992270 0.677531 -0.319347
vertex -1.992266 0.310123 -0.313079
endloop
endfacet
facet normal 1.000000 -0.000009 -0.000001
outer loop
vertex -1.992270 -0.742732 0.061298
vertex -1.992270 -0.720135 -0.197039
vertex -1.992266 -0.357110 -0.254690
endloop
endfacet
facet normal 1.000000 -0.000016 0.000004
outer loop
vertex -1.992270 0.677531 -0.319347
vertex -1.992270 0.744634 -0.068859
vertex -1.992276 0.423193 0.106724
endloop
endfacet
facet normal 1.000000 -0.000011 -0.000005
outer loop
vertex -1.992270 -0.720135 -0.197039
vertex -1.992270 -0.610565 -0.432066
vertex -1.992266 -0.357110 -0.254690
endloop
endfacet
facet normal 1.000000 0.000125 0.000269
outer loop
vertex -1.992270 0.429139 0.607875
vertex -1.992270 0.194166 0.717470
vertex -1.992164 -0.035840 0.431683
endloop
endfacet
facet normal 1.000000 0.000018 0.000065
outer loop
vertex -1.992270 0.744634 -0.068859
vertex -1.992286 0.721904 0.185095
vertex -1.992276 0.423193 0.106724
endloop
endfacet
facet normal 1.000000 -0.000008 -0.000008
outer loop
vertex -1.992270 -0.610565 -0.432066
vertex -1.992270 -0.427237 -0.615436
vertex -1.992266 -0.357110 -0.254690
endloop
endfacet
facet normal 1.000000 0.000669 -0.000167
outer loop
vertex -1.992270 0.194166 0.717470
vertex -1.992095 -0.061954 0.740005
vertex -1.992164 -0.035840 0.431683
endloop
endfacet
facet normal 1.000000 0.000020 -0.000058
outer loop
vertex -1.992286 0.721904 0.185095
vertex -1.992270 0.612468 0.424505
vertex -1.992266 0.251748 0.354306
endloop
endfacet
facet normal 1.000000 -0.000005 -0.000010
outer loop
vertex -1.992270 -0.427237 -0.615436
vertex -1.992270 -0.192263 -0.725031
vertex -1.992266 -0.112150 -0.426252
endloop
endfacet
facet normal 1.000000 -0.000620 -0.000276
outer loop
vertex -1.992095 -0.061954 0.740005
vertex -1.992270 -0.314543 0.672953
vertex -1.992164 -0.035840 0.431683
endloop
endfacet
facet normal 1.000000 0.000008 0.000008
outer loop
vertex -1.992270 0.612468 0.424505
vertex -1.992270 0.429139 0.607875
vertex -1.992266 0.251748 0.354306
endloop
endfacet
facet normal 1.000000 -0.000002 -0.000011
outer loop
vertex -1.992270 -0.192263 -0.725031
vertex -1.992270 0.066015 -0.747633
vertex -1.992266 -0.112150 -0.426252
endloop
endfacet
facet normal 1.000000 -0.000005 0.000008
outer loop
vertex -1.992270 -0.314543 0.672953
vertex -1.992270 -0.526920 0.524211
vertex -1.992266 -0.395212 0.180915
endloop
endfacet
facet normal 1.000000 0.000003 -0.000009
outer loop
vertex -1.992270 0.066015 -0.747633
vertex -1.992270 0.316446 -0.680515
vertex -1.992266 0.310123 -0.313079
endloop
endfacet
facet normal 1.000000 -0.000010 0.000007
outer loop
vertex -1.992270 -0.526920 0.524211
vertex -1.992270 -0.675629 0.311786
vertex -1.992266 -0.395212 0.180915
endloop
endfacet
facet normal 1.000000 0.000005 -0.000009
outer loop
vertex -1.992270 0.316446 -0.680515
vertex -1.992270 0.528823 -0.531772
vertex -1.992266 0.310123 -0.313079
endloop
endfacet
endsolid Exported from Blender-2.82 (sub 7)
