solid Exported from Blender-2.82 (sub 7)
facet normal 0.000000 0.000000 1.000000
outer loop
vertex -2.971597 -0.220161 0.171026
vertex -2.971597 0.220161 0.171026
vertex -4.249053 1.000000 0.171026
endloop
endfacet
facet normal 0.000000 0.000000 1.000000
outer loop
vertex -2.971597 -0.220161 0.171026
vertex -4.249053 1.000000 0.171026
vertex -4.249053 -1.000000 0.171026
endloop
endfacet
facet normal 0.000000 0.000000 -1.000000
outer loop
vertex -2.971597 -0.220161 -0.171026
vertex -4.249053 -1.000000 -0.171026
vertex -4.249053 1.000000 -0.171026
endloop
endfacet
facet normal -0.000000 0.000000 -1.000000
outer loop
vertex -2.971597 -0.220161 -0.171026
vertex -4.249053 1.000000 -0.171026
vertex -2.971597 0.220161 -0.171026
endloop
endfacet
facet normal 0.000000 0.000000 -1.000000
outer loop
vertex -2.544891 -0.220161 -0.171026
vertex 9.765541 -1.000000 -0.171026
vertex -4.249053 -1.000000 -0.171026
endloop
endfacet
facet normal -0.000000 0.000000 -1.000000
outer loop
vertex -2.544891 -0.220161 -0.171026
vertex -4.249053 -1.000000 -0.171026
vertex -2.971597 -0.220161 -0.171026
endloop
endfacet
facet normal 0.000000 0.000000 -1.000000
outer loop
vertex -2.544891 0.220161 -0.171026
vertex 9.765541 1.000000 -0.171026
vertex 9.765541 -1.000000 -0.171026
endloop
endfacet
facet normal 0.000000 0.000000 -1.000000
outer loop
vertex -2.544891 0.220161 -0.171026
vertex 9.765541 -1.000000 -0.171026
vertex -2.544891 -0.220161 -0.171026
endloop
endfacet
facet normal -0.000000 0.000000 -1.000000
outer loop
vertex -2.971597 0.220161 -0.171026
vertex -4.249053 1.000000 -0.171026
vertex 9.765541 1.000000 -0.171026
endloop
endfacet
facet normal 0.000000 0.000000 -1.000000
outer loop
vertex -2.971597 0.220161 -0.171026
vertex 9.765541 1.000000 -0.171026
vertex -2.544891 0.220161 -0.171026
endloop
endfacet
facet normal -0.000000 0.000000 1.000000
outer loop
vertex -2.544891 -0.220161 0.171026
vertex -2.971597 -0.220161 0.171026
vertex -4.249053 -1.000000 0.171026
endloop
endfacet
facet normal 0.000000 0.000000 1.000000
outer loop
vertex -2.544891 -0.220161 0.171026
vertex -4.249053 -1.000000 0.171026
vertex 9.765541 -1.000000 0.171026
endloop
endfacet
facet normal -0.000000 0.000000 1.000000
outer loop
vertex -2.544891 0.220161 0.171026
vertex -2.544891 -0.220161 0.171026
vertex 9.765541 -1.000000 0.171026
endloop
endfacet
facet normal 0.000000 0.000000 1.000000
outer loop
vertex -2.544891 0.220161 0.171026
vertex 9.765541 -1.000000 0.171026
vertex 9.765541 1.000000 0.171026
endloop
endfacet
facet normal 0.000000 0.000000 1.000000
outer loop
vertex -2.971597 0.220161 0.171026
vertex -2.544891 0.220161 0.171026
vertex 9.765541 1.000000 0.171026
endloop
endfacet
facet normal -0.000000 0.000000 1.000000
outer loop
vertex -2.971597 0.220161 0.171026
vertex 9.765541 1.000000 0.171026
vertex -4.249053 1.000000 0.171026
endloop
endfacet
facet normal 0.000000 1.000000 0.000000
outer loop
vertex -2.544891 -0.220161 -0.171026
vertex -2.971597 -0.220161 -0.171026
vertex -2.971597 -0.220161 0.171026
endloop
endfacet
facet normal 0.000000 1.000000 0.000000
outer loop
vertex -2.544891 -0.220161 -0.171026
vertex -2.971597 -0.220161 0.171026
vertex -2.544891 -0.220161 0.171026
endloop
endfacet
facet normal 1.000000 0.000000 0.000000
outer loop
vertex 9.765541 -1.000000 -0.171026
vertex 9.765541 1.000000 -0.171026
vertex 9.765541 1.000000 0.171026
endloop
endfacet
facet normal 1.000000 0.000000 0.000000
outer loop
vertex 9.765541 -1.000000 -0.171026
vertex 9.765541 1.000000 0.171026
vertex 9.765541 -1.000000 0.171026
endloop
endfacet
facet normal -1.000000 0.000000 0.000000
outer loop
vertex -4.249053 1.000000 -0.171026
vertex -4.249053 -1.000000 -0.171026
vertex -4.249053 -1.000000 0.171026
endloop
endfacet
facet normal -1.000000 0.000000 0.000000
outer loop
vertex -4.249053 1.000000 -0.171026
vertex -4.249053 -1.000000 0.171026
vertex -4.249053 1.000000 0.171026
endloop
endfacet
facet normal -1.000000 0.000000 0.000000
outer loop
vertex -2.544891 0.220161 -0.171026
vertex -2.544891 -0.220161 -0.171026
vertex -2.544891 -0.220161 0.171026
endloop
endfacet
facet normal -1.000000 0.000000 0.000000
outer loop
vertex -2.544891 0.220161 -0.171026
vertex -2.544891 -0.220161 0.171026
vertex -2.544891 0.220161 0.171026
endloop
endfacet
facet normal 1.000000 0.000000 0.000000
outer loop
vertex -2.971597 -0.220161 -0.171026
vertex -2.971597 0.220161 -0.171026
vertex -2.971597 0.220161 0.171026
endloop
endfacet
facet normal 1.000000 0.000000 0.000000
outer loop
vertex -2.971597 -0.220161 -0.171026
vertex -2.971597 0.220161 0.171026
vertex -2.971597 -0.220161 0.171026
endloop
endfacet
facet normal 0.000000 1.000000 0.000000
outer loop
vertex 9.765541 1.000000 -0.171026
vertex -4.249053 1.000000 -0.171026
vertex -4.249053 1.000000 0.171026
endloop
endfacet
facet normal 0.000000 1.000000 0.000000
outer loop
vertex 9.765541 1.000000 -0.171026
vertex -4.249053 1.000000 0.171026
vertex 9.765541 1.000000 0.171026
endloop
endfacet
facet normal -0.000000 -1.000000 0.000000
outer loop
vertex -4.249053 -1.000000 -0.171026
vertex 9.765541 -1.000000 -0.171026
vertex 9.765541 -1.000000 0.171026
endloop
endfacet
facet normal -0.000000 -1.000000 0.000000
outer loop
vertex -4.249053 -1.000000 -0.171026
vertex 9.765541 -1.000000 0.171026
vertex -4.249053 -1.000000 0.171026
endloop
endfacet
facet normal -0.000000 -1.000000 0.000000
outer loop
vertex -2.971597 0.220161 -0.171026
vertex -2.544891 0.220161 -0.171026
vertex -2.544891 0.220161 0.171026
endloop
endfacet
facet normal -0.000000 -1.000000 0.000000
outer loop
vertex -2.971597 0.220161 -0.171026
vertex -2.544891 0.220161 0.171026
vertex -2.971597 0.220161 0.171026
endloop
endfacet
endsolid Exported from Blender-2.82 (sub 7)
