solid Exported from Blender-2.82 (sub 7)
facet normal 0.000000 0.000000 1.000000
outer loop
vertex -26.249998 35.000000 4.201966
vertex -35.000000 26.250002 4.201966
vertex -26.249998 26.250002 4.201966
endloop
endfacet
facet normal -1.000000 0.000000 0.000000
outer loop
vertex -35.000000 26.250002 4.201966
vertex -35.000000 35.000000 -4.201966
vertex -35.000000 26.250002 -4.201966
endloop
endfacet
facet normal 0.000000 0.000000 1.000000
outer loop
vertex 17.500002 35.000000 4.201966
vertex 8.750002 43.468342 4.201966
vertex 8.750002 35.000000 4.201966
endloop
endfacet
facet normal 0.000000 0.000000 -1.000000
outer loop
vertex -26.250002 -35.000000 -4.201966
vertex -35.000000 -26.249998 -4.201966
vertex -26.250002 -26.249998 -4.201966
endloop
endfacet
facet normal 0.000000 -1.000000 0.000000
outer loop
vertex -26.250002 -35.000000 4.201966
vertex -35.000000 -35.000000 -4.201966
vertex -26.250002 -35.000000 -4.201966
endloop
endfacet
facet normal 1.000000 0.000000 0.000000
outer loop
vertex 35.000000 -26.250002 4.201966
vertex 35.000000 -35.000000 -4.201966
vertex 35.000000 -26.250002 -4.201966
endloop
endfacet
facet normal 1.000000 0.000000 0.000000
outer loop
vertex 35.000000 8.749998 4.201966
vertex 35.000000 -0.000002 -4.201966
vertex 35.000000 8.749998 -4.201966
endloop
endfacet
facet normal -0.000000 0.000000 -1.000000
outer loop
vertex -26.250000 0.000001 -4.201966
vertex -35.000000 8.750002 -4.201966
vertex -26.250000 8.750001 -4.201966
endloop
endfacet
facet normal -1.000000 0.000000 0.000000
outer loop
vertex -35.000000 -8.749998 4.201966
vertex -35.000000 0.000002 -4.201966
vertex -35.000000 -8.749998 -4.201966
endloop
endfacet
facet normal 0.000000 0.000000 1.000000
outer loop
vertex -26.250000 0.000001 4.201966
vertex -35.000000 -8.749998 4.201966
vertex -26.250000 -8.749999 4.201966
endloop
endfacet
facet normal 0.000000 0.000000 1.000000
outer loop
vertex -26.250000 -17.499998 4.201966
vertex -35.000000 -26.249998 4.201966
vertex -26.250002 -26.249998 4.201966
endloop
endfacet
facet normal -1.000000 0.000000 0.000000
outer loop
vertex -35.000000 -26.249998 4.201966
vertex -35.000000 -17.499998 -4.201966
vertex -35.000000 -26.249998 -4.201966
endloop
endfacet
facet normal 1.000000 0.000000 0.000000
outer loop
vertex 35.000000 -8.750002 4.201966
vertex 35.000000 -17.500002 -4.201966
vertex 35.000000 -8.750002 -4.201966
endloop
endfacet
facet normal -0.000000 0.000000 -1.000000
outer loop
vertex -26.250000 -17.499998 -4.201966
vertex -35.000000 -8.749998 -4.201966
vertex -26.250000 -8.749999 -4.201966
endloop
endfacet
facet normal 0.000000 0.000000 -1.000000
outer loop
vertex -26.250000 17.500002 -4.201966
vertex -35.000000 26.250002 -4.201966
vertex -26.249998 26.250002 -4.201966
endloop
endfacet
facet normal 1.000000 0.000000 0.000000
outer loop
vertex 35.000000 26.249998 4.201966
vertex 35.000000 17.499998 -4.201966
vertex 35.000000 26.249998 -4.201966
endloop
endfacet
facet normal -1.000000 0.000000 0.000000
outer loop
vertex -35.000000 8.750002 4.201966
vertex -35.000000 17.500002 -4.201966
vertex -35.000000 8.750002 -4.201966
endloop
endfacet
facet normal 0.000000 0.000000 1.000000
outer loop
vertex -26.250000 17.500002 4.201966
vertex -35.000000 8.750002 4.201966
vertex -26.250000 8.750001 4.201966
endloop
endfacet
facet normal -1.000000 0.000000 0.000000
outer loop
vertex -35.000000 -35.000000 4.201966
vertex -35.000000 -26.249998 -4.201966
vertex -35.000000 -35.000000 -4.201966
endloop
endfacet
facet normal 0.000000 0.000000 1.000000
outer loop
vertex -26.250002 -26.249998 4.201966
vertex -35.000000 -35.000000 4.201966
vertex -26.250002 -35.000000 4.201966
endloop
endfacet
facet normal 1.000000 0.000000 0.000000
outer loop
vertex 35.000000 -17.500002 4.201966
vertex 35.000000 -26.250002 -4.201966
vertex 35.000000 -17.500002 -4.201966
endloop
endfacet
facet normal 0.000000 0.000000 -1.000000
outer loop
vertex -26.250002 -26.249998 -4.201966
vertex -35.000000 -17.499998 -4.201966
vertex -26.250000 -17.499998 -4.201966
endloop
endfacet
facet normal 0.000000 0.000000 -1.000000
outer loop
vertex -26.250000 -8.749999 -4.201966
vertex -35.000000 0.000002 -4.201966
vertex -26.250000 0.000001 -4.201966
endloop
endfacet
facet normal 1.000000 0.000000 0.000000
outer loop
vertex 35.000000 -0.000002 4.201966
vertex 35.000000 -8.750002 -4.201966
vertex 35.000000 -0.000002 -4.201966
endloop
endfacet
facet normal 0.000000 0.000000 1.000000
outer loop
vertex -26.250000 -8.749999 4.201966
vertex -35.000000 -17.499998 4.201966
vertex -26.250000 -17.499998 4.201966
endloop
endfacet
facet normal -1.000000 0.000000 0.000000
outer loop
vertex -35.000000 -17.499998 4.201966
vertex -35.000000 -8.749998 -4.201966
vertex -35.000000 -17.499998 -4.201966
endloop
endfacet
facet normal -0.000000 0.000000 1.000000
outer loop
vertex -26.250000 8.750001 4.201966
vertex -35.000000 0.000002 4.201966
vertex -26.250000 0.000001 4.201966
endloop
endfacet
facet normal -1.000000 0.000000 0.000000
outer loop
vertex -35.000000 0.000002 4.201966
vertex -35.000000 8.750002 -4.201966
vertex -35.000000 0.000002 -4.201966
endloop
endfacet
facet normal 0.000000 0.000000 -1.000000
outer loop
vertex -26.250000 8.750001 -4.201966
vertex -35.000000 17.500002 -4.201966
vertex -26.250000 17.500002 -4.201966
endloop
endfacet
facet normal 1.000000 0.000000 0.000000
outer loop
vertex 35.000000 17.499998 4.201966
vertex 35.000000 8.749998 -4.201966
vertex 35.000000 17.499998 -4.201966
endloop
endfacet
facet normal 1.000000 0.000000 0.000000
outer loop
vertex 35.000000 35.000000 4.201966
vertex 35.000000 26.249998 -4.201966
vertex 35.000000 35.000000 -4.201966
endloop
endfacet
facet normal 0.000000 0.000000 -1.000000
outer loop
vertex -26.249998 26.250002 -4.201966
vertex -35.000000 35.000000 -4.201966
vertex -26.249998 35.000000 -4.201966
endloop
endfacet
facet normal -1.000000 0.000000 0.000000
outer loop
vertex -35.000000 17.500002 4.201966
vertex -35.000000 26.250002 -4.201966
vertex -35.000000 17.500002 -4.201966
endloop
endfacet
facet normal 0.000000 0.000000 1.000000
outer loop
vertex -26.249998 26.250002 4.201966
vertex -35.000000 17.500002 4.201966
vertex -26.250000 17.500002 4.201966
endloop
endfacet
facet normal 0.000000 0.000000 1.000000
outer loop
vertex 8.750001 26.250000 4.201966
vertex 0.000001 17.500000 4.201966
vertex 8.750001 17.500000 4.201966
endloop
endfacet
facet normal 0.000000 0.000000 -1.000000
outer loop
vertex 8.750001 26.250000 -4.201966
vertex 0.000002 35.000000 -4.201966
vertex 8.750002 35.000000 -4.201966
endloop
endfacet
facet normal 0.000000 0.000000 -1.000000
outer loop
vertex 8.750000 8.750000 -4.201966
vertex 0.000001 17.500000 -4.201966
vertex 8.750001 17.500000 -4.201966
endloop
endfacet
facet normal 0.000000 0.000000 1.000000
outer loop
vertex 8.750000 8.750000 4.201966
vertex 0.000000 0.000000 4.201966
vertex 8.750000 -0.000000 4.201966
endloop
endfacet
facet normal 0.000000 0.000000 1.000000
outer loop
vertex 8.750000 -8.750000 4.201966
vertex -0.000001 -17.500000 4.201966
vertex 8.749999 -17.500000 4.201966
endloop
endfacet
facet normal -0.000000 0.000000 -1.000000
outer loop
vertex 8.750000 -8.750000 -4.201966
vertex 0.000000 0.000000 -4.201966
vertex 8.750000 -0.000000 -4.201966
endloop
endfacet
facet normal 0.000000 0.000000 -1.000000
outer loop
vertex 8.749999 -26.250000 -4.201966
vertex -0.000001 -17.500000 -4.201966
vertex 8.749999 -17.500000 -4.201966
endloop
endfacet
facet normal 0.000000 0.000000 1.000000
outer loop
vertex 8.749999 -26.250000 4.201966
vertex -0.000002 -35.000000 4.201966
vertex 8.749998 -35.000000 4.201966
endloop
endfacet
facet normal 0.000000 0.000000 1.000000
outer loop
vertex 8.750001 17.500000 4.201966
vertex 0.000000 8.750000 4.201966
vertex 8.750000 8.750000 4.201966
endloop
endfacet
facet normal 0.000000 0.000000 -1.000000
outer loop
vertex 8.750001 17.500000 -4.201966
vertex 0.000001 26.250000 -4.201966
vertex 8.750001 26.250000 -4.201966
endloop
endfacet
facet normal 0.000000 0.000000 -1.000000
outer loop
vertex 8.749999 -17.500000 -4.201966
vertex -0.000000 -8.750000 -4.201966
vertex 8.750000 -8.750000 -4.201966
endloop
endfacet
facet normal 0.000000 0.000000 1.000000
outer loop
vertex 8.749999 -17.500000 4.201966
vertex -0.000001 -26.250000 4.201966
vertex 8.749999 -26.250000 4.201966
endloop
endfacet
facet normal 0.000000 0.000000 1.000000
outer loop
vertex 8.750000 -0.000000 4.201966
vertex -0.000000 -8.750000 4.201966
vertex 8.750000 -8.750000 4.201966
endloop
endfacet
facet normal 0.000000 0.000000 -1.000000
outer loop
vertex 8.750000 -0.000000 -4.201966
vertex 0.000000 8.750000 -4.201966
vertex 8.750000 8.750000 -4.201966
endloop
endfacet
facet normal 0.000000 -1.000000 0.000000
outer loop
vertex 8.749998 -35.000000 4.201966
vertex -0.000002 -35.000000 -4.201966
vertex 8.749998 -35.000000 -4.201966
endloop
endfacet
facet normal 0.000000 0.000000 -1.000000
outer loop
vertex 8.749998 -35.000000 -4.201966
vertex -0.000001 -26.250000 -4.201966
vertex 8.749999 -26.250000 -4.201966
endloop
endfacet
facet normal 0.000000 0.000000 -1.000000
outer loop
vertex 17.500002 35.000000 -4.201966
vertex 26.250002 43.468342 -4.201966
vertex 26.250002 35.000000 -4.201966
endloop
endfacet
facet normal 0.000000 0.000000 1.000000
outer loop
vertex 8.750002 35.000000 4.201966
vertex 0.000001 26.250000 4.201966
vertex 8.750001 26.250000 4.201966
endloop
endfacet
facet normal 0.000000 0.000000 1.000000
outer loop
vertex 26.250002 35.000000 4.201966
vertex 17.500002 26.250000 4.201966
vertex 26.250002 26.249998 4.201966
endloop
endfacet
facet normal -0.000000 0.000000 -1.000000
outer loop
vertex 26.249998 -35.000000 -4.201966
vertex 17.499998 -26.250000 -4.201966
vertex 26.249998 -26.250002 -4.201966
endloop
endfacet
facet normal 0.000000 -1.000000 0.000000
outer loop
vertex 26.249998 -35.000000 4.201966
vertex 17.499998 -35.000000 -4.201966
vertex 26.249998 -35.000000 -4.201966
endloop
endfacet
facet normal 0.000000 0.000000 -1.000000
outer loop
vertex 26.250000 -0.000001 -4.201966
vertex 17.500000 8.749999 -4.201966
vertex 26.250000 8.749999 -4.201966
endloop
endfacet
facet normal 0.000000 0.000000 1.000000
outer loop
vertex 26.250000 -0.000001 4.201966
vertex 17.500000 -8.750001 4.201966
vertex 26.250000 -8.750001 4.201966
endloop
endfacet
facet normal 0.000000 0.000000 1.000000
outer loop
vertex 26.250000 -17.500002 4.201966
vertex 17.499998 -26.250000 4.201966
vertex 26.249998 -26.250002 4.201966
endloop
endfacet
facet normal 0.000000 0.000000 -1.000000
outer loop
vertex 26.250000 -17.500002 -4.201966
vertex 17.500000 -8.750001 -4.201966
vertex 26.250000 -8.750001 -4.201966
endloop
endfacet
facet normal -0.000000 0.000000 -1.000000
outer loop
vertex 26.250000 17.499998 -4.201966
vertex 17.500002 26.250000 -4.201966
vertex 26.250002 26.249998 -4.201966
endloop
endfacet
facet normal 0.000000 0.000000 1.000000
outer loop
vertex 26.250000 17.499998 4.201966
vertex 17.500000 8.749999 4.201966
vertex 26.250000 8.749999 4.201966
endloop
endfacet
facet normal 0.000000 0.000000 1.000000
outer loop
vertex 26.249998 -26.250002 4.201966
vertex 17.499998 -35.000000 4.201966
vertex 26.249998 -35.000000 4.201966
endloop
endfacet
facet normal -0.000000 0.000000 -1.000000
outer loop
vertex 26.249998 -26.250002 -4.201966
vertex 17.500000 -17.500000 -4.201966
vertex 26.250000 -17.500002 -4.201966
endloop
endfacet
facet normal -0.000000 0.000000 -1.000000
outer loop
vertex 26.250000 -8.750001 -4.201966
vertex 17.500000 -0.000001 -4.201966
vertex 26.250000 -0.000001 -4.201966
endloop
endfacet
facet normal 0.000000 0.000000 1.000000
outer loop
vertex 26.250000 -8.750001 4.201966
vertex 17.500000 -17.500000 4.201966
vertex 26.250000 -17.500002 4.201966
endloop
endfacet
facet normal 0.000000 0.000000 1.000000
outer loop
vertex 26.250000 8.749999 4.201966
vertex 17.500000 -0.000001 4.201966
vertex 26.250000 -0.000001 4.201966
endloop
endfacet
facet normal -0.000000 0.000000 -1.000000
outer loop
vertex 26.250000 8.749999 -4.201966
vertex 17.500000 17.500000 -4.201966
vertex 26.250000 17.499998 -4.201966
endloop
endfacet
facet normal 0.000000 0.000000 -1.000000
outer loop
vertex 26.250002 26.249998 -4.201966
vertex 17.500002 35.000000 -4.201966
vertex 26.250002 35.000000 -4.201966
endloop
endfacet
facet normal 0.000000 0.000000 1.000000
outer loop
vertex 26.250002 26.249998 4.201966
vertex 17.500000 17.500000 4.201966
vertex 26.250000 17.499998 4.201966
endloop
endfacet
facet normal 0.000000 0.000000 1.000000
outer loop
vertex 26.250002 35.000000 4.201966
vertex 17.500002 43.468342 4.201966
vertex 17.500002 35.000000 4.201966
endloop
endfacet
facet normal 0.000000 0.000000 -1.000000
outer loop
vertex 8.750002 35.000000 -4.201966
vertex 17.500002 43.468342 -4.201966
vertex 17.500002 35.000000 -4.201966
endloop
endfacet
facet normal 0.000000 0.000000 1.000000
outer loop
vertex -8.749999 26.250000 4.201966
vertex -17.500000 17.500000 4.201966
vertex -8.749999 17.500000 4.201966
endloop
endfacet
facet normal 0.000000 0.000000 -1.000000
outer loop
vertex -8.749999 26.250000 -4.201966
vertex -17.499998 35.000000 -4.201966
vertex -8.749998 35.000000 -4.201966
endloop
endfacet
facet normal 0.000000 0.000000 -1.000000
outer loop
vertex -8.750000 8.750000 -4.201966
vertex -17.500000 17.500000 -4.201966
vertex -8.749999 17.500000 -4.201966
endloop
endfacet
facet normal -0.000000 0.000000 1.000000
outer loop
vertex -8.750000 8.750000 4.201966
vertex -17.500000 0.000001 4.201966
vertex -8.750000 0.000000 4.201966
endloop
endfacet
facet normal 0.000000 0.000000 1.000000
outer loop
vertex -8.750000 -8.750000 4.201966
vertex -17.500000 -17.500000 4.201966
vertex -8.750001 -17.500000 4.201966
endloop
endfacet
facet normal 0.000000 0.000000 -1.000000
outer loop
vertex -8.750000 -8.750000 -4.201966
vertex -17.500000 0.000001 -4.201966
vertex -8.750000 0.000000 -4.201966
endloop
endfacet
facet normal 0.000000 0.000000 -1.000000
outer loop
vertex -8.750001 -26.250000 -4.201966
vertex -17.500000 -17.500000 -4.201966
vertex -8.750001 -17.500000 -4.201966
endloop
endfacet
facet normal 0.000000 0.000000 1.000000
outer loop
vertex -8.750001 -26.250000 4.201966
vertex -17.500002 -35.000000 4.201966
vertex -8.750002 -35.000000 4.201966
endloop
endfacet
facet normal 0.000000 0.000000 1.000000
outer loop
vertex -8.749999 17.500000 4.201966
vertex -17.500000 8.750001 4.201966
vertex -8.750000 8.750000 4.201966
endloop
endfacet
facet normal 0.000000 0.000000 -1.000000
outer loop
vertex -8.749999 17.500000 -4.201966
vertex -17.499998 26.250000 -4.201966
vertex -8.749999 26.250000 -4.201966
endloop
endfacet
facet normal -0.000000 0.000000 -1.000000
outer loop
vertex -8.750001 -17.500000 -4.201966
vertex -17.500000 -8.749999 -4.201966
vertex -8.750000 -8.750000 -4.201966
endloop
endfacet
facet normal 0.000000 0.000000 1.000000
outer loop
vertex -8.750001 -17.500000 4.201966
vertex -17.500002 -26.250000 4.201966
vertex -8.750001 -26.250000 4.201966
endloop
endfacet
facet normal 0.000000 0.000000 1.000000
outer loop
vertex -8.750000 0.000000 4.201966
vertex -17.500000 -8.749999 4.201966
vertex -8.750000 -8.750000 4.201966
endloop
endfacet
facet normal -0.000000 0.000000 -1.000000
outer loop
vertex -8.750000 0.000000 -4.201966
vertex -17.500000 8.750001 -4.201966
vertex -8.750000 8.750000 -4.201966
endloop
endfacet
facet normal 0.000000 -1.000000 0.000000
outer loop
vertex -8.750002 -35.000000 4.201966
vertex -17.500002 -35.000000 -4.201966
vertex -8.750002 -35.000000 -4.201966
endloop
endfacet
facet normal 0.000000 0.000000 -1.000000
outer loop
vertex -8.750002 -35.000000 -4.201966
vertex -17.500002 -26.250000 -4.201966
vertex -8.750001 -26.250000 -4.201966
endloop
endfacet
facet normal 0.000000 0.000000 1.000000
outer loop
vertex -8.749998 35.000000 4.201966
vertex -17.499998 26.250000 4.201966
vertex -8.749999 26.250000 4.201966
endloop
endfacet
facet normal 0.000000 0.000000 1.000000
outer loop
vertex 8.750002 35.000000 4.201966
vertex 0.000002 43.468342 4.201966
vertex 0.000002 35.000000 4.201966
endloop
endfacet
facet normal 0.000000 0.000000 1.000000
outer loop
vertex -17.499998 26.250000 4.201966
vertex -26.250000 17.500002 4.201966
vertex -17.500000 17.500000 4.201966
endloop
endfacet
facet normal 0.000000 0.000000 -1.000000
outer loop
vertex -17.499998 26.250000 -4.201966
vertex -26.249998 35.000000 -4.201966
vertex -17.499998 35.000000 -4.201966
endloop
endfacet
facet normal -0.000000 0.000000 -1.000000
outer loop
vertex -17.500000 8.750001 -4.201966
vertex -26.250000 17.500002 -4.201966
vertex -17.500000 17.500000 -4.201966
endloop
endfacet
facet normal 0.000000 0.000000 1.000000
outer loop
vertex -17.500000 8.750001 4.201966
vertex -26.250000 0.000001 4.201966
vertex -17.500000 0.000001 4.201966
endloop
endfacet
facet normal 0.000000 0.000000 1.000000
outer loop
vertex -17.500000 -8.749999 4.201966
vertex -26.250000 -17.499998 4.201966
vertex -17.500000 -17.500000 4.201966
endloop
endfacet
facet normal -0.000000 0.000000 -1.000000
outer loop
vertex -17.500000 -8.749999 -4.201966
vertex -26.250000 0.000001 -4.201966
vertex -17.500000 0.000001 -4.201966
endloop
endfacet
facet normal -0.000000 0.000000 -1.000000
outer loop
vertex -17.500002 -26.250000 -4.201966
vertex -26.250000 -17.499998 -4.201966
vertex -17.500000 -17.500000 -4.201966
endloop
endfacet
facet normal 0.000000 0.000000 1.000000
outer loop
vertex -17.500002 -26.250000 4.201966
vertex -26.250002 -35.000000 4.201966
vertex -17.500002 -35.000000 4.201966
endloop
endfacet
facet normal 0.000000 0.000000 1.000000
outer loop
vertex -17.500000 17.500000 4.201966
vertex -26.250000 8.750001 4.201966
vertex -17.500000 8.750001 4.201966
endloop
endfacet
facet normal -0.000000 0.000000 -1.000000
outer loop
vertex -17.500000 17.500000 -4.201966
vertex -26.249998 26.250002 -4.201966
vertex -17.499998 26.250000 -4.201966
endloop
endfacet
facet normal 0.000000 0.000000 -1.000000
outer loop
vertex -17.500000 -17.500000 -4.201966
vertex -26.250000 -8.749999 -4.201966
vertex -17.500000 -8.749999 -4.201966
endloop
endfacet
facet normal 0.000000 0.000000 1.000000
outer loop
vertex -17.500000 -17.500000 4.201966
vertex -26.250002 -26.249998 4.201966
vertex -17.500002 -26.250000 4.201966
endloop
endfacet
facet normal 0.000000 0.000000 1.000000
outer loop
vertex -17.500000 0.000001 4.201966
vertex -26.250000 -8.749999 4.201966
vertex -17.500000 -8.749999 4.201966
endloop
endfacet
facet normal 0.000000 0.000000 -1.000000
outer loop
vertex -17.500000 0.000001 -4.201966
vertex -26.250000 8.750001 -4.201966
vertex -17.500000 8.750001 -4.201966
endloop
endfacet
facet normal 0.000000 -1.000000 0.000000
outer loop
vertex -17.500002 -35.000000 4.201966
vertex -26.250002 -35.000000 -4.201966
vertex -17.500002 -35.000000 -4.201966
endloop
endfacet
facet normal -0.000000 0.000000 -1.000000
outer loop
vertex -17.500002 -35.000000 -4.201966
vertex -26.250002 -26.249998 -4.201966
vertex -17.500002 -26.250000 -4.201966
endloop
endfacet
facet normal 0.000000 0.000000 1.000000
outer loop
vertex -17.499998 35.000000 4.201966
vertex -26.249998 26.250002 4.201966
vertex -17.499998 26.250000 4.201966
endloop
endfacet
facet normal 0.000000 0.000000 1.000000
outer loop
vertex 0.000002 35.000000 4.201966
vertex -8.749999 26.250000 4.201966
vertex 0.000001 26.250000 4.201966
endloop
endfacet
facet normal 0.000000 0.000000 -1.000000
outer loop
vertex -0.000002 -35.000000 -4.201966
vertex -8.750001 -26.250000 -4.201966
vertex -0.000001 -26.250000 -4.201966
endloop
endfacet
facet normal 0.000000 -1.000000 0.000000
outer loop
vertex -0.000002 -35.000000 4.201966
vertex -8.750002 -35.000000 -4.201966
vertex -0.000002 -35.000000 -4.201966
endloop
endfacet
facet normal 0.000000 0.000000 -1.000000
outer loop
vertex 0.000000 0.000000 -4.201966
vertex -8.750000 8.750000 -4.201966
vertex 0.000000 8.750000 -4.201966
endloop
endfacet
facet normal 0.000000 0.000000 1.000000
outer loop
vertex 0.000000 0.000000 4.201966
vertex -8.750000 -8.750000 4.201966
vertex -0.000000 -8.750000 4.201966
endloop
endfacet
facet normal 0.000000 0.000000 1.000000
outer loop
vertex -0.000001 -17.500000 4.201966
vertex -8.750001 -26.250000 4.201966
vertex -0.000001 -26.250000 4.201966
endloop
endfacet
facet normal 0.000000 0.000000 -1.000000
outer loop
vertex -0.000001 -17.500000 -4.201966
vertex -8.750000 -8.750000 -4.201966
vertex -0.000000 -8.750000 -4.201966
endloop
endfacet
facet normal 0.000000 0.000000 -1.000000
outer loop
vertex 0.000001 17.500000 -4.201966
vertex -8.749999 26.250000 -4.201966
vertex 0.000001 26.250000 -4.201966
endloop
endfacet
facet normal 0.000000 0.000000 1.000000
outer loop
vertex 0.000001 17.500000 4.201966
vertex -8.750000 8.750000 4.201966
vertex 0.000000 8.750000 4.201966
endloop
endfacet
facet normal 0.000000 0.000000 1.000000
outer loop
vertex -0.000001 -26.250000 4.201966
vertex -8.750002 -35.000000 4.201966
vertex -0.000002 -35.000000 4.201966
endloop
endfacet
facet normal 0.000000 0.000000 -1.000000
outer loop
vertex -0.000001 -26.250000 -4.201966
vertex -8.750001 -17.500000 -4.201966
vertex -0.000001 -17.500000 -4.201966
endloop
endfacet
facet normal -0.000000 0.000000 -1.000000
outer loop
vertex -0.000000 -8.750000 -4.201966
vertex -8.750000 0.000000 -4.201966
vertex 0.000000 0.000000 -4.201966
endloop
endfacet
facet normal 0.000000 0.000000 1.000000
outer loop
vertex -0.000000 -8.750000 4.201966
vertex -8.750001 -17.500000 4.201966
vertex -0.000001 -17.500000 4.201966
endloop
endfacet
facet normal 0.000000 0.000000 1.000000
outer loop
vertex 0.000000 8.750000 4.201966
vertex -8.750000 0.000000 4.201966
vertex 0.000000 0.000000 4.201966
endloop
endfacet
facet normal 0.000000 0.000000 -1.000000
outer loop
vertex 0.000000 8.750000 -4.201966
vertex -8.749999 17.500000 -4.201966
vertex 0.000001 17.500000 -4.201966
endloop
endfacet
facet normal 0.000000 0.000000 -1.000000
outer loop
vertex 0.000001 26.250000 -4.201966
vertex -8.749998 35.000000 -4.201966
vertex 0.000002 35.000000 -4.201966
endloop
endfacet
facet normal 0.000000 0.000000 1.000000
outer loop
vertex 0.000001 26.250000 4.201966
vertex -8.749999 17.500000 4.201966
vertex 0.000001 17.500000 4.201966
endloop
endfacet
facet normal 1.000000 0.000000 0.000000
outer loop
vertex 35.000000 35.000000 -4.201966
vertex 35.000000 43.468342 4.201966
vertex 35.000000 35.000000 4.201966
endloop
endfacet
facet normal 0.000000 0.000000 -1.000000
outer loop
vertex 26.250002 35.000000 -4.201966
vertex 35.000000 43.468342 -4.201966
vertex 35.000000 35.000000 -4.201966
endloop
endfacet
facet normal 0.000000 0.000000 1.000000
outer loop
vertex 17.500002 35.000000 4.201966
vertex 8.750001 26.250000 4.201966
vertex 17.500002 26.250000 4.201966
endloop
endfacet
facet normal 0.000000 0.000000 -1.000000
outer loop
vertex 17.499998 -35.000000 -4.201966
vertex 8.749999 -26.250000 -4.201966
vertex 17.499998 -26.250000 -4.201966
endloop
endfacet
facet normal 0.000000 -1.000000 0.000000
outer loop
vertex 17.499998 -35.000000 4.201966
vertex 8.749998 -35.000000 -4.201966
vertex 17.499998 -35.000000 -4.201966
endloop
endfacet
facet normal -0.000000 0.000000 -1.000000
outer loop
vertex 17.500000 -0.000001 -4.201966
vertex 8.750000 8.750000 -4.201966
vertex 17.500000 8.749999 -4.201966
endloop
endfacet
facet normal 0.000000 0.000000 1.000000
outer loop
vertex 17.500000 -0.000001 4.201966
vertex 8.750000 -8.750000 4.201966
vertex 17.500000 -8.750001 4.201966
endloop
endfacet
facet normal 0.000000 0.000000 1.000000
outer loop
vertex 17.500000 -17.500000 4.201966
vertex 8.749999 -26.250000 4.201966
vertex 17.499998 -26.250000 4.201966
endloop
endfacet
facet normal -0.000000 0.000000 -1.000000
outer loop
vertex 17.500000 -17.500000 -4.201966
vertex 8.750000 -8.750000 -4.201966
vertex 17.500000 -8.750001 -4.201966
endloop
endfacet
facet normal 0.000000 0.000000 -1.000000
outer loop
vertex 17.500000 17.500000 -4.201966
vertex 8.750001 26.250000 -4.201966
vertex 17.500002 26.250000 -4.201966
endloop
endfacet
facet normal 0.000000 0.000000 1.000000
outer loop
vertex 17.500000 17.500000 4.201966
vertex 8.750000 8.750000 4.201966
vertex 17.500000 8.749999 4.201966
endloop
endfacet
facet normal 0.000000 0.000000 1.000000
outer loop
vertex 17.499998 -26.250000 4.201966
vertex 8.749998 -35.000000 4.201966
vertex 17.499998 -35.000000 4.201966
endloop
endfacet
facet normal 0.000000 0.000000 -1.000000
outer loop
vertex 17.499998 -26.250000 -4.201966
vertex 8.749999 -17.500000 -4.201966
vertex 17.500000 -17.500000 -4.201966
endloop
endfacet
facet normal 0.000000 0.000000 -1.000000
outer loop
vertex 17.500000 -8.750001 -4.201966
vertex 8.750000 -0.000000 -4.201966
vertex 17.500000 -0.000001 -4.201966
endloop
endfacet
facet normal 0.000000 0.000000 1.000000
outer loop
vertex 17.500000 -8.750001 4.201966
vertex 8.749999 -17.500000 4.201966
vertex 17.500000 -17.500000 4.201966
endloop
endfacet
facet normal -0.000000 0.000000 1.000000
outer loop
vertex 17.500000 8.749999 4.201966
vertex 8.750000 -0.000000 4.201966
vertex 17.500000 -0.000001 4.201966
endloop
endfacet
facet normal 0.000000 0.000000 -1.000000
outer loop
vertex 17.500000 8.749999 -4.201966
vertex 8.750001 17.500000 -4.201966
vertex 17.500000 17.500000 -4.201966
endloop
endfacet
facet normal 0.000000 0.000000 -1.000000
outer loop
vertex 17.500002 26.250000 -4.201966
vertex 8.750002 35.000000 -4.201966
vertex 17.500002 35.000000 -4.201966
endloop
endfacet
facet normal 0.000000 0.000000 1.000000
outer loop
vertex 17.500002 26.250000 4.201966
vertex 8.750001 17.500000 4.201966
vertex 17.500000 17.500000 4.201966
endloop
endfacet
facet normal 0.000000 0.000000 1.000000
outer loop
vertex 35.000000 26.249998 4.201966
vertex 26.250000 17.499998 4.201966
vertex 35.000000 17.499998 4.201966
endloop
endfacet
facet normal 0.000000 0.000000 -1.000000
outer loop
vertex 35.000000 26.249998 -4.201966
vertex 26.250002 35.000000 -4.201966
vertex 35.000000 35.000000 -4.201966
endloop
endfacet
facet normal 0.000000 0.000000 -1.000000
outer loop
vertex 35.000000 8.749998 -4.201966
vertex 26.250000 17.499998 -4.201966
vertex 35.000000 17.499998 -4.201966
endloop
endfacet
facet normal -0.000000 0.000000 1.000000
outer loop
vertex 35.000000 8.749998 4.201966
vertex 26.250000 -0.000001 4.201966
vertex 35.000000 -0.000002 4.201966
endloop
endfacet
facet normal 0.000000 0.000000 1.000000
outer loop
vertex 35.000000 -8.750002 4.201966
vertex 26.250000 -17.500002 4.201966
vertex 35.000000 -17.500002 4.201966
endloop
endfacet
facet normal 0.000000 0.000000 -1.000000
outer loop
vertex 35.000000 -8.750002 -4.201966
vertex 26.250000 -0.000001 -4.201966
vertex 35.000000 -0.000002 -4.201966
endloop
endfacet
facet normal 0.000000 0.000000 -1.000000
outer loop
vertex 35.000000 -26.250002 -4.201966
vertex 26.250000 -17.500002 -4.201966
vertex 35.000000 -17.500002 -4.201966
endloop
endfacet
facet normal 0.000000 0.000000 1.000000
outer loop
vertex 35.000000 -26.250002 4.201966
vertex 26.249998 -35.000000 4.201966
vertex 35.000000 -35.000000 4.201966
endloop
endfacet
facet normal 0.000000 0.000000 1.000000
outer loop
vertex 35.000000 17.499998 4.201966
vertex 26.250000 8.749999 4.201966
vertex 35.000000 8.749998 4.201966
endloop
endfacet
facet normal 0.000000 0.000000 -1.000000
outer loop
vertex 35.000000 17.499998 -4.201966
vertex 26.250002 26.249998 -4.201966
vertex 35.000000 26.249998 -4.201966
endloop
endfacet
facet normal -0.000000 0.000000 -1.000000
outer loop
vertex 35.000000 -17.500002 -4.201966
vertex 26.250000 -8.750001 -4.201966
vertex 35.000000 -8.750002 -4.201966
endloop
endfacet
facet normal 0.000000 0.000000 1.000000
outer loop
vertex 35.000000 -17.500002 4.201966
vertex 26.249998 -26.250002 4.201966
vertex 35.000000 -26.250002 4.201966
endloop
endfacet
facet normal 0.000000 0.000000 1.000000
outer loop
vertex 35.000000 -0.000002 4.201966
vertex 26.250000 -8.750001 4.201966
vertex 35.000000 -8.750002 4.201966
endloop
endfacet
facet normal -0.000000 0.000000 -1.000000
outer loop
vertex 35.000000 -0.000002 -4.201966
vertex 26.250000 8.749999 -4.201966
vertex 35.000000 8.749998 -4.201966
endloop
endfacet
facet normal 0.000000 -1.000000 0.000000
outer loop
vertex 35.000000 -35.000000 4.201966
vertex 26.249998 -35.000000 -4.201966
vertex 35.000000 -35.000000 -4.201966
endloop
endfacet
facet normal 0.000000 0.000000 -1.000000
outer loop
vertex 35.000000 -35.000000 -4.201966
vertex 26.249998 -26.250002 -4.201966
vertex 35.000000 -26.250002 -4.201966
endloop
endfacet
facet normal 0.000000 0.000000 1.000000
outer loop
vertex 35.000000 35.000000 4.201966
vertex 26.250002 26.249998 4.201966
vertex 35.000000 26.249998 4.201966
endloop
endfacet
facet normal 0.000000 0.000000 1.000000
outer loop
vertex 0.000002 35.000000 4.201966
vertex -8.749998 43.468342 4.201966
vertex -8.749998 35.000000 4.201966
endloop
endfacet
facet normal 0.000000 0.000000 1.000000
outer loop
vertex -26.249998 35.000000 4.201966
vertex -35.000000 35.000000 4.201966
vertex -35.000000 26.250002 4.201966
endloop
endfacet
facet normal -1.000000 0.000000 0.000000
outer loop
vertex -35.000000 26.250002 4.201966
vertex -35.000000 35.000000 4.201966
vertex -35.000000 35.000000 -4.201966
endloop
endfacet
facet normal 0.000000 0.000000 1.000000
outer loop
vertex 35.000000 35.000000 4.201966
vertex 26.250002 43.468342 4.201966
vertex 26.250002 35.000000 4.201966
endloop
endfacet
facet normal 0.000000 0.000000 -1.000000
outer loop
vertex -26.250002 -35.000000 -4.201966
vertex -35.000000 -35.000000 -4.201966
vertex -35.000000 -26.249998 -4.201966
endloop
endfacet
facet normal 0.000000 -1.000000 0.000000
outer loop
vertex -26.250002 -35.000000 4.201966
vertex -35.000000 -35.000000 4.201966
vertex -35.000000 -35.000000 -4.201966
endloop
endfacet
facet normal 1.000000 0.000000 0.000000
outer loop
vertex 35.000000 -26.250002 4.201966
vertex 35.000000 -35.000000 4.201966
vertex 35.000000 -35.000000 -4.201966
endloop
endfacet
facet normal 1.000000 0.000000 0.000000
outer loop
vertex 35.000000 8.749998 4.201966
vertex 35.000000 -0.000002 4.201966
vertex 35.000000 -0.000002 -4.201966
endloop
endfacet
facet normal -0.000000 0.000000 -1.000000
outer loop
vertex -26.250000 0.000001 -4.201966
vertex -35.000000 0.000002 -4.201966
vertex -35.000000 8.750002 -4.201966
endloop
endfacet
facet normal -1.000000 0.000000 0.000000
outer loop
vertex -35.000000 -8.749998 4.201966
vertex -35.000000 0.000002 4.201966
vertex -35.000000 0.000002 -4.201966
endloop
endfacet
facet normal 0.000000 0.000000 1.000000
outer loop
vertex -26.250000 0.000001 4.201966
vertex -35.000000 0.000002 4.201966
vertex -35.000000 -8.749998 4.201966
endloop
endfacet
facet normal 0.000000 0.000000 1.000000
outer loop
vertex -26.250000 -17.499998 4.201966
vertex -35.000000 -17.499998 4.201966
vertex -35.000000 -26.249998 4.201966
endloop
endfacet
facet normal -1.000000 0.000000 0.000000
outer loop
vertex -35.000000 -26.249998 4.201966
vertex -35.000000 -17.499998 4.201966
vertex -35.000000 -17.499998 -4.201966
endloop
endfacet
facet normal 1.000000 0.000000 0.000000
outer loop
vertex 35.000000 -8.750002 4.201966
vertex 35.000000 -17.500002 4.201966
vertex 35.000000 -17.500002 -4.201966
endloop
endfacet
facet normal 0.000000 0.000000 -1.000000
outer loop
vertex -26.250000 -17.499998 -4.201966
vertex -35.000000 -17.499998 -4.201966
vertex -35.000000 -8.749998 -4.201966
endloop
endfacet
facet normal 0.000000 0.000000 -1.000000
outer loop
vertex -26.250000 17.500002 -4.201966
vertex -35.000000 17.500002 -4.201966
vertex -35.000000 26.250002 -4.201966
endloop
endfacet
facet normal 1.000000 0.000000 0.000000
outer loop
vertex 35.000000 26.249998 4.201966
vertex 35.000000 17.499998 4.201966
vertex 35.000000 17.499998 -4.201966
endloop
endfacet
facet normal -1.000000 0.000000 0.000000
outer loop
vertex -35.000000 8.750002 4.201966
vertex -35.000000 17.500002 4.201966
vertex -35.000000 17.500002 -4.201966
endloop
endfacet
facet normal 0.000000 0.000000 1.000000
outer loop
vertex -26.250000 17.500002 4.201966
vertex -35.000000 17.500002 4.201966
vertex -35.000000 8.750002 4.201966
endloop
endfacet
facet normal -1.000000 0.000000 0.000000
outer loop
vertex -35.000000 -35.000000 4.201966
vertex -35.000000 -26.249998 4.201966
vertex -35.000000 -26.249998 -4.201966
endloop
endfacet
facet normal 0.000000 0.000000 1.000000
outer loop
vertex -26.250002 -26.249998 4.201966
vertex -35.000000 -26.249998 4.201966
vertex -35.000000 -35.000000 4.201966
endloop
endfacet
facet normal 1.000000 0.000000 0.000000
outer loop
vertex 35.000000 -17.500002 4.201966
vertex 35.000000 -26.250002 4.201966
vertex 35.000000 -26.250002 -4.201966
endloop
endfacet
facet normal 0.000000 0.000000 -1.000000
outer loop
vertex -26.250002 -26.249998 -4.201966
vertex -35.000000 -26.249998 -4.201966
vertex -35.000000 -17.499998 -4.201966
endloop
endfacet
facet normal 0.000000 0.000000 -1.000000
outer loop
vertex -26.250000 -8.749999 -4.201966
vertex -35.000000 -8.749998 -4.201966
vertex -35.000000 0.000002 -4.201966
endloop
endfacet
facet normal 1.000000 0.000000 0.000000
outer loop
vertex 35.000000 -0.000002 4.201966
vertex 35.000000 -8.750002 4.201966
vertex 35.000000 -8.750002 -4.201966
endloop
endfacet
facet normal 0.000000 0.000000 1.000000
outer loop
vertex -26.250000 -8.749999 4.201966
vertex -35.000000 -8.749998 4.201966
vertex -35.000000 -17.499998 4.201966
endloop
endfacet
facet normal -1.000000 0.000000 0.000000
outer loop
vertex -35.000000 -17.499998 4.201966
vertex -35.000000 -8.749998 4.201966
vertex -35.000000 -8.749998 -4.201966
endloop
endfacet
facet normal 0.000000 0.000000 1.000000
outer loop
vertex -26.250000 8.750001 4.201966
vertex -35.000000 8.750002 4.201966
vertex -35.000000 0.000002 4.201966
endloop
endfacet
facet normal -1.000000 0.000000 0.000000
outer loop
vertex -35.000000 0.000002 4.201966
vertex -35.000000 8.750002 4.201966
vertex -35.000000 8.750002 -4.201966
endloop
endfacet
facet normal 0.000000 0.000000 -1.000000
outer loop
vertex -26.250000 8.750001 -4.201966
vertex -35.000000 8.750002 -4.201966
vertex -35.000000 17.500002 -4.201966
endloop
endfacet
facet normal 1.000000 0.000000 0.000000
outer loop
vertex 35.000000 17.499998 4.201966
vertex 35.000000 8.749998 4.201966
vertex 35.000000 8.749998 -4.201966
endloop
endfacet
facet normal 1.000000 0.000000 0.000000
outer loop
vertex 35.000000 35.000000 4.201966
vertex 35.000000 26.249998 4.201966
vertex 35.000000 26.249998 -4.201966
endloop
endfacet
facet normal 0.000000 0.000000 -1.000000
outer loop
vertex -26.249998 26.250002 -4.201966
vertex -35.000000 26.250002 -4.201966
vertex -35.000000 35.000000 -4.201966
endloop
endfacet
facet normal -1.000000 0.000000 0.000000
outer loop
vertex -35.000000 17.500002 4.201966
vertex -35.000000 26.250002 4.201966
vertex -35.000000 26.250002 -4.201966
endloop
endfacet
facet normal 0.000000 0.000000 1.000000
outer loop
vertex -26.249998 26.250002 4.201966
vertex -35.000000 26.250002 4.201966
vertex -35.000000 17.500002 4.201966
endloop
endfacet
facet normal 0.000000 0.000000 1.000000
outer loop
vertex 8.750001 26.250000 4.201966
vertex 0.000001 26.250000 4.201966
vertex 0.000001 17.500000 4.201966
endloop
endfacet
facet normal 0.000000 0.000000 -1.000000
outer loop
vertex 8.750001 26.250000 -4.201966
vertex 0.000001 26.250000 -4.201966
vertex 0.000002 35.000000 -4.201966
endloop
endfacet
facet normal 0.000000 0.000000 -1.000000
outer loop
vertex 8.750000 8.750000 -4.201966
vertex 0.000000 8.750000 -4.201966
vertex 0.000001 17.500000 -4.201966
endloop
endfacet
facet normal 0.000000 0.000000 1.000000
outer loop
vertex 8.750000 8.750000 4.201966
vertex 0.000000 8.750000 4.201966
vertex 0.000000 0.000000 4.201966
endloop
endfacet
facet normal 0.000000 0.000000 1.000000
outer loop
vertex 8.750000 -8.750000 4.201966
vertex -0.000000 -8.750000 4.201966
vertex -0.000001 -17.500000 4.201966
endloop
endfacet
facet normal 0.000000 0.000000 -1.000000
outer loop
vertex 8.750000 -8.750000 -4.201966
vertex -0.000000 -8.750000 -4.201966
vertex 0.000000 0.000000 -4.201966
endloop
endfacet
facet normal 0.000000 0.000000 -1.000000
outer loop
vertex 8.749999 -26.250000 -4.201966
vertex -0.000001 -26.250000 -4.201966
vertex -0.000001 -17.500000 -4.201966
endloop
endfacet
facet normal 0.000000 0.000000 1.000000
outer loop
vertex 8.749999 -26.250000 4.201966
vertex -0.000001 -26.250000 4.201966
vertex -0.000002 -35.000000 4.201966
endloop
endfacet
facet normal 0.000000 0.000000 1.000000
outer loop
vertex 8.750001 17.500000 4.201966
vertex 0.000001 17.500000 4.201966
vertex 0.000000 8.750000 4.201966
endloop
endfacet
facet normal 0.000000 0.000000 -1.000000
outer loop
vertex 8.750001 17.500000 -4.201966
vertex 0.000001 17.500000 -4.201966
vertex 0.000001 26.250000 -4.201966
endloop
endfacet
facet normal 0.000000 0.000000 -1.000000
outer loop
vertex 8.749999 -17.500000 -4.201966
vertex -0.000001 -17.500000 -4.201966
vertex -0.000000 -8.750000 -4.201966
endloop
endfacet
facet normal 0.000000 0.000000 1.000000
outer loop
vertex 8.749999 -17.500000 4.201966
vertex -0.000001 -17.500000 4.201966
vertex -0.000001 -26.250000 4.201966
endloop
endfacet
facet normal 0.000000 0.000000 1.000000
outer loop
vertex 8.750000 -0.000000 4.201966
vertex 0.000000 0.000000 4.201966
vertex -0.000000 -8.750000 4.201966
endloop
endfacet
facet normal 0.000000 0.000000 -1.000000
outer loop
vertex 8.750000 -0.000000 -4.201966
vertex 0.000000 0.000000 -4.201966
vertex 0.000000 8.750000 -4.201966
endloop
endfacet
facet normal 0.000000 -1.000000 0.000000
outer loop
vertex 8.749998 -35.000000 4.201966
vertex -0.000002 -35.000000 4.201966
vertex -0.000002 -35.000000 -4.201966
endloop
endfacet
facet normal 0.000000 0.000000 -1.000000
outer loop
vertex 8.749998 -35.000000 -4.201966
vertex -0.000002 -35.000000 -4.201966
vertex -0.000001 -26.250000 -4.201966
endloop
endfacet
facet normal 0.000000 0.000000 -1.000000
outer loop
vertex -35.000000 35.000000 -4.201966
vertex -26.249998 43.468342 -4.201966
vertex -26.249998 35.000000 -4.201966
endloop
endfacet
facet normal 0.000000 0.000000 1.000000
outer loop
vertex 8.750002 35.000000 4.201966
vertex 0.000002 35.000000 4.201966
vertex 0.000001 26.250000 4.201966
endloop
endfacet
facet normal 0.000000 0.000000 1.000000
outer loop
vertex 26.250002 35.000000 4.201966
vertex 17.500002 35.000000 4.201966
vertex 17.500002 26.250000 4.201966
endloop
endfacet
facet normal 0.000000 0.000000 -1.000000
outer loop
vertex 26.249998 -35.000000 -4.201966
vertex 17.499998 -35.000000 -4.201966
vertex 17.499998 -26.250000 -4.201966
endloop
endfacet
facet normal 0.000000 -1.000000 0.000000
outer loop
vertex 26.249998 -35.000000 4.201966
vertex 17.499998 -35.000000 4.201966
vertex 17.499998 -35.000000 -4.201966
endloop
endfacet
facet normal 0.000000 0.000000 -1.000000
outer loop
vertex 26.250000 -0.000001 -4.201966
vertex 17.500000 -0.000001 -4.201966
vertex 17.500000 8.749999 -4.201966
endloop
endfacet
facet normal 0.000000 0.000000 1.000000
outer loop
vertex 26.250000 -0.000001 4.201966
vertex 17.500000 -0.000001 4.201966
vertex 17.500000 -8.750001 4.201966
endloop
endfacet
facet normal 0.000000 0.000000 1.000000
outer loop
vertex 26.250000 -17.500002 4.201966
vertex 17.500000 -17.500000 4.201966
vertex 17.499998 -26.250000 4.201966
endloop
endfacet
facet normal 0.000000 0.000000 -1.000000
outer loop
vertex 26.250000 -17.500002 -4.201966
vertex 17.500000 -17.500000 -4.201966
vertex 17.500000 -8.750001 -4.201966
endloop
endfacet
facet normal 0.000000 0.000000 -1.000000
outer loop
vertex 26.250000 17.499998 -4.201966
vertex 17.500000 17.500000 -4.201966
vertex 17.500002 26.250000 -4.201966
endloop
endfacet
facet normal 0.000000 0.000000 1.000000
outer loop
vertex 26.250000 17.499998 4.201966
vertex 17.500000 17.500000 4.201966
vertex 17.500000 8.749999 4.201966
endloop
endfacet
facet normal 0.000000 0.000000 1.000000
outer loop
vertex 26.249998 -26.250002 4.201966
vertex 17.499998 -26.250000 4.201966
vertex 17.499998 -35.000000 4.201966
endloop
endfacet
facet normal 0.000000 0.000000 -1.000000
outer loop
vertex 26.249998 -26.250002 -4.201966
vertex 17.499998 -26.250000 -4.201966
vertex 17.500000 -17.500000 -4.201966
endloop
endfacet
facet normal 0.000000 0.000000 -1.000000
outer loop
vertex 26.250000 -8.750001 -4.201966
vertex 17.500000 -8.750001 -4.201966
vertex 17.500000 -0.000001 -4.201966
endloop
endfacet
facet normal 0.000000 0.000000 1.000000
outer loop
vertex 26.250000 -8.750001 4.201966
vertex 17.500000 -8.750001 4.201966
vertex 17.500000 -17.500000 4.201966
endloop
endfacet
facet normal 0.000000 0.000000 1.000000
outer loop
vertex 26.250000 8.749999 4.201966
vertex 17.500000 8.749999 4.201966
vertex 17.500000 -0.000001 4.201966
endloop
endfacet
facet normal 0.000000 0.000000 -1.000000
outer loop
vertex 26.250000 8.749999 -4.201966
vertex 17.500000 8.749999 -4.201966
vertex 17.500000 17.500000 -4.201966
endloop
endfacet
facet normal 0.000000 0.000000 -1.000000
outer loop
vertex 26.250002 26.249998 -4.201966
vertex 17.500002 26.250000 -4.201966
vertex 17.500002 35.000000 -4.201966
endloop
endfacet
facet normal 0.000000 0.000000 1.000000
outer loop
vertex 26.250002 26.249998 4.201966
vertex 17.500002 26.250000 4.201966
vertex 17.500000 17.500000 4.201966
endloop
endfacet
facet normal 0.000000 0.000000 1.000000
outer loop
vertex -8.749998 35.000000 4.201966
vertex -17.499998 43.468342 4.201966
vertex -17.499998 35.000000 4.201966
endloop
endfacet
facet normal 0.000000 0.000000 1.000000
outer loop
vertex -26.249998 35.000000 4.201966
vertex -35.000000 43.468342 4.201966
vertex -35.000000 35.000000 4.201966
endloop
endfacet
facet normal 0.000000 0.000000 1.000000
outer loop
vertex -8.749999 26.250000 4.201966
vertex -17.499998 26.250000 4.201966
vertex -17.500000 17.500000 4.201966
endloop
endfacet
facet normal 0.000000 0.000000 -1.000000
outer loop
vertex -8.749999 26.250000 -4.201966
vertex -17.499998 26.250000 -4.201966
vertex -17.499998 35.000000 -4.201966
endloop
endfacet
facet normal 0.000000 0.000000 -1.000000
outer loop
vertex -8.750000 8.750000 -4.201966
vertex -17.500000 8.750001 -4.201966
vertex -17.500000 17.500000 -4.201966
endloop
endfacet
facet normal 0.000000 0.000000 1.000000
outer loop
vertex -8.750000 8.750000 4.201966
vertex -17.500000 8.750001 4.201966
vertex -17.500000 0.000001 4.201966
endloop
endfacet
facet normal 0.000000 0.000000 1.000000
outer loop
vertex -8.750000 -8.750000 4.201966
vertex -17.500000 -8.749999 4.201966
vertex -17.500000 -17.500000 4.201966
endloop
endfacet
facet normal 0.000000 0.000000 -1.000000
outer loop
vertex -8.750000 -8.750000 -4.201966
vertex -17.500000 -8.749999 -4.201966
vertex -17.500000 0.000001 -4.201966
endloop
endfacet
facet normal 0.000000 0.000000 -1.000000
outer loop
vertex -8.750001 -26.250000 -4.201966
vertex -17.500002 -26.250000 -4.201966
vertex -17.500000 -17.500000 -4.201966
endloop
endfacet
facet normal 0.000000 0.000000 1.000000
outer loop
vertex -8.750001 -26.250000 4.201966
vertex -17.500002 -26.250000 4.201966
vertex -17.500002 -35.000000 4.201966
endloop
endfacet
facet normal 0.000000 0.000000 1.000000
outer loop
vertex -8.749999 17.500000 4.201966
vertex -17.500000 17.500000 4.201966
vertex -17.500000 8.750001 4.201966
endloop
endfacet
facet normal 0.000000 0.000000 -1.000000
outer loop
vertex -8.749999 17.500000 -4.201966
vertex -17.500000 17.500000 -4.201966
vertex -17.499998 26.250000 -4.201966
endloop
endfacet
facet normal 0.000000 0.000000 -1.000000
outer loop
vertex -8.750001 -17.500000 -4.201966
vertex -17.500000 -17.500000 -4.201966
vertex -17.500000 -8.749999 -4.201966
endloop
endfacet
facet normal 0.000000 0.000000 1.000000
outer loop
vertex -8.750001 -17.500000 4.201966
vertex -17.500000 -17.500000 4.201966
vertex -17.500002 -26.250000 4.201966
endloop
endfacet
facet normal 0.000000 0.000000 1.000000
outer loop
vertex -8.750000 0.000000 4.201966
vertex -17.500000 0.000001 4.201966
vertex -17.500000 -8.749999 4.201966
endloop
endfacet
facet normal -0.000000 0.000000 -1.000000
outer loop
vertex -8.750000 0.000000 -4.201966
vertex -17.500000 0.000001 -4.201966
vertex -17.500000 8.750001 -4.201966
endloop
endfacet
facet normal 0.000000 -1.000000 0.000000
outer loop
vertex -8.750002 -35.000000 4.201966
vertex -17.500002 -35.000000 4.201966
vertex -17.500002 -35.000000 -4.201966
endloop
endfacet
facet normal 0.000000 0.000000 -1.000000
outer loop
vertex -8.750002 -35.000000 -4.201966
vertex -17.500002 -35.000000 -4.201966
vertex -17.500002 -26.250000 -4.201966
endloop
endfacet
facet normal 0.000000 0.000000 1.000000
outer loop
vertex -8.749998 35.000000 4.201966
vertex -17.499998 35.000000 4.201966
vertex -17.499998 26.250000 4.201966
endloop
endfacet
facet normal -1.000000 0.000000 0.000000
outer loop
vertex -35.000000 35.000000 4.201966
vertex -35.000000 43.468342 -4.201966
vertex -35.000000 35.000000 -4.201966
endloop
endfacet
facet normal 0.000000 0.000000 1.000000
outer loop
vertex -17.499998 26.250000 4.201966
vertex -26.249998 26.250002 4.201966
vertex -26.250000 17.500002 4.201966
endloop
endfacet
facet normal 0.000000 0.000000 -1.000000
outer loop
vertex -17.499998 26.250000 -4.201966
vertex -26.249998 26.250002 -4.201966
vertex -26.249998 35.000000 -4.201966
endloop
endfacet
facet normal 0.000000 0.000000 -1.000000
outer loop
vertex -17.500000 8.750001 -4.201966
vertex -26.250000 8.750001 -4.201966
vertex -26.250000 17.500002 -4.201966
endloop
endfacet
facet normal 0.000000 0.000000 1.000000
outer loop
vertex -17.500000 8.750001 4.201966
vertex -26.250000 8.750001 4.201966
vertex -26.250000 0.000001 4.201966
endloop
endfacet
facet normal 0.000000 0.000000 1.000000
outer loop
vertex -17.500000 -8.749999 4.201966
vertex -26.250000 -8.749999 4.201966
vertex -26.250000 -17.499998 4.201966
endloop
endfacet
facet normal 0.000000 0.000000 -1.000000
outer loop
vertex -17.500000 -8.749999 -4.201966
vertex -26.250000 -8.749999 -4.201966
vertex -26.250000 0.000001 -4.201966
endloop
endfacet
facet normal 0.000000 0.000000 -1.000000
outer loop
vertex -17.500002 -26.250000 -4.201966
vertex -26.250002 -26.249998 -4.201966
vertex -26.250000 -17.499998 -4.201966
endloop
endfacet
facet normal 0.000000 0.000000 1.000000
outer loop
vertex -17.500002 -26.250000 4.201966
vertex -26.250002 -26.249998 4.201966
vertex -26.250002 -35.000000 4.201966
endloop
endfacet
facet normal 0.000000 0.000000 1.000000
outer loop
vertex -17.500000 17.500000 4.201966
vertex -26.250000 17.500002 4.201966
vertex -26.250000 8.750001 4.201966
endloop
endfacet
facet normal 0.000000 0.000000 -1.000000
outer loop
vertex -17.500000 17.500000 -4.201966
vertex -26.250000 17.500002 -4.201966
vertex -26.249998 26.250002 -4.201966
endloop
endfacet
facet normal 0.000000 0.000000 -1.000000
outer loop
vertex -17.500000 -17.500000 -4.201966
vertex -26.250000 -17.499998 -4.201966
vertex -26.250000 -8.749999 -4.201966
endloop
endfacet
facet normal 0.000000 0.000000 1.000000
outer loop
vertex -17.500000 -17.500000 4.201966
vertex -26.250000 -17.499998 4.201966
vertex -26.250002 -26.249998 4.201966
endloop
endfacet
facet normal 0.000000 0.000000 1.000000
outer loop
vertex -17.500000 0.000001 4.201966
vertex -26.250000 0.000001 4.201966
vertex -26.250000 -8.749999 4.201966
endloop
endfacet
facet normal 0.000000 0.000000 -1.000000
outer loop
vertex -17.500000 0.000001 -4.201966
vertex -26.250000 0.000001 -4.201966
vertex -26.250000 8.750001 -4.201966
endloop
endfacet
facet normal 0.000000 -1.000000 0.000000
outer loop
vertex -17.500002 -35.000000 4.201966
vertex -26.250002 -35.000000 4.201966
vertex -26.250002 -35.000000 -4.201966
endloop
endfacet
facet normal 0.000000 0.000000 -1.000000
outer loop
vertex -17.500002 -35.000000 -4.201966
vertex -26.250002 -35.000000 -4.201966
vertex -26.250002 -26.249998 -4.201966
endloop
endfacet
facet normal 0.000000 0.000000 1.000000
outer loop
vertex -17.499998 35.000000 4.201966
vertex -26.249998 35.000000 4.201966
vertex -26.249998 26.250002 4.201966
endloop
endfacet
facet normal 0.000000 0.000000 1.000000
outer loop
vertex 0.000002 35.000000 4.201966
vertex -8.749998 35.000000 4.201966
vertex -8.749999 26.250000 4.201966
endloop
endfacet
facet normal 0.000000 0.000000 -1.000000
outer loop
vertex -0.000002 -35.000000 -4.201966
vertex -8.750002 -35.000000 -4.201966
vertex -8.750001 -26.250000 -4.201966
endloop
endfacet
facet normal 0.000000 -1.000000 0.000000
outer loop
vertex -0.000002 -35.000000 4.201966
vertex -8.750002 -35.000000 4.201966
vertex -8.750002 -35.000000 -4.201966
endloop
endfacet
facet normal 0.000000 0.000000 -1.000000
outer loop
vertex 0.000000 0.000000 -4.201966
vertex -8.750000 0.000000 -4.201966
vertex -8.750000 8.750000 -4.201966
endloop
endfacet
facet normal 0.000000 0.000000 1.000000
outer loop
vertex 0.000000 0.000000 4.201966
vertex -8.750000 0.000000 4.201966
vertex -8.750000 -8.750000 4.201966
endloop
endfacet
facet normal 0.000000 0.000000 1.000000
outer loop
vertex -0.000001 -17.500000 4.201966
vertex -8.750001 -17.500000 4.201966
vertex -8.750001 -26.250000 4.201966
endloop
endfacet
facet normal 0.000000 0.000000 -1.000000
outer loop
vertex -0.000001 -17.500000 -4.201966
vertex -8.750001 -17.500000 -4.201966
vertex -8.750000 -8.750000 -4.201966
endloop
endfacet
facet normal 0.000000 0.000000 -1.000000
outer loop
vertex 0.000001 17.500000 -4.201966
vertex -8.749999 17.500000 -4.201966
vertex -8.749999 26.250000 -4.201966
endloop
endfacet
facet normal 0.000000 0.000000 1.000000
outer loop
vertex 0.000001 17.500000 4.201966
vertex -8.749999 17.500000 4.201966
vertex -8.750000 8.750000 4.201966
endloop
endfacet
facet normal 0.000000 0.000000 1.000000
outer loop
vertex -0.000001 -26.250000 4.201966
vertex -8.750001 -26.250000 4.201966
vertex -8.750002 -35.000000 4.201966
endloop
endfacet
facet normal 0.000000 0.000000 -1.000000
outer loop
vertex -0.000001 -26.250000 -4.201966
vertex -8.750001 -26.250000 -4.201966
vertex -8.750001 -17.500000 -4.201966
endloop
endfacet
facet normal 0.000000 0.000000 -1.000000
outer loop
vertex -0.000000 -8.750000 -4.201966
vertex -8.750000 -8.750000 -4.201966
vertex -8.750000 0.000000 -4.201966
endloop
endfacet
facet normal 0.000000 0.000000 1.000000
outer loop
vertex -0.000000 -8.750000 4.201966
vertex -8.750000 -8.750000 4.201966
vertex -8.750001 -17.500000 4.201966
endloop
endfacet
facet normal 0.000000 0.000000 1.000000
outer loop
vertex 0.000000 8.750000 4.201966
vertex -8.750000 8.750000 4.201966
vertex -8.750000 0.000000 4.201966
endloop
endfacet
facet normal 0.000000 0.000000 -1.000000
outer loop
vertex 0.000000 8.750000 -4.201966
vertex -8.750000 8.750000 -4.201966
vertex -8.749999 17.500000 -4.201966
endloop
endfacet
facet normal 0.000000 0.000000 -1.000000
outer loop
vertex 0.000001 26.250000 -4.201966
vertex -8.749999 26.250000 -4.201966
vertex -8.749998 35.000000 -4.201966
endloop
endfacet
facet normal 0.000000 0.000000 1.000000
outer loop
vertex 0.000001 26.250000 4.201966
vertex -8.749999 26.250000 4.201966
vertex -8.749999 17.500000 4.201966
endloop
endfacet
facet normal 0.000000 0.000000 -1.000000
outer loop
vertex -26.249998 35.000000 -4.201966
vertex -17.499998 43.468342 -4.201966
vertex -17.499998 35.000000 -4.201966
endloop
endfacet
facet normal 0.000000 0.000000 1.000000
outer loop
vertex -17.499998 35.000000 4.201966
vertex -26.249998 43.468342 4.201966
vertex -26.249998 35.000000 4.201966
endloop
endfacet
facet normal 0.000000 0.000000 1.000000
outer loop
vertex 17.500002 35.000000 4.201966
vertex 8.750002 35.000000 4.201966
vertex 8.750001 26.250000 4.201966
endloop
endfacet
facet normal 0.000000 0.000000 -1.000000
outer loop
vertex 17.499998 -35.000000 -4.201966
vertex 8.749998 -35.000000 -4.201966
vertex 8.749999 -26.250000 -4.201966
endloop
endfacet
facet normal 0.000000 -1.000000 0.000000
outer loop
vertex 17.499998 -35.000000 4.201966
vertex 8.749998 -35.000000 4.201966
vertex 8.749998 -35.000000 -4.201966
endloop
endfacet
facet normal -0.000000 0.000000 -1.000000
outer loop
vertex 17.500000 -0.000001 -4.201966
vertex 8.750000 -0.000000 -4.201966
vertex 8.750000 8.750000 -4.201966
endloop
endfacet
facet normal 0.000000 0.000000 1.000000
outer loop
vertex 17.500000 -0.000001 4.201966
vertex 8.750000 -0.000000 4.201966
vertex 8.750000 -8.750000 4.201966
endloop
endfacet
facet normal 0.000000 0.000000 1.000000
outer loop
vertex 17.500000 -17.500000 4.201966
vertex 8.749999 -17.500000 4.201966
vertex 8.749999 -26.250000 4.201966
endloop
endfacet
facet normal 0.000000 0.000000 -1.000000
outer loop
vertex 17.500000 -17.500000 -4.201966
vertex 8.749999 -17.500000 -4.201966
vertex 8.750000 -8.750000 -4.201966
endloop
endfacet
facet normal 0.000000 0.000000 -1.000000
outer loop
vertex 17.500000 17.500000 -4.201966
vertex 8.750001 17.500000 -4.201966
vertex 8.750001 26.250000 -4.201966
endloop
endfacet
facet normal 0.000000 0.000000 1.000000
outer loop
vertex 17.500000 17.500000 4.201966
vertex 8.750001 17.500000 4.201966
vertex 8.750000 8.750000 4.201966
endloop
endfacet
facet normal 0.000000 0.000000 1.000000
outer loop
vertex 17.499998 -26.250000 4.201966
vertex 8.749999 -26.250000 4.201966
vertex 8.749998 -35.000000 4.201966
endloop
endfacet
facet normal 0.000000 0.000000 -1.000000
outer loop
vertex 17.499998 -26.250000 -4.201966
vertex 8.749999 -26.250000 -4.201966
vertex 8.749999 -17.500000 -4.201966
endloop
endfacet
facet normal 0.000000 0.000000 -1.000000
outer loop
vertex 17.500000 -8.750001 -4.201966
vertex 8.750000 -8.750000 -4.201966
vertex 8.750000 -0.000000 -4.201966
endloop
endfacet
facet normal 0.000000 0.000000 1.000000
outer loop
vertex 17.500000 -8.750001 4.201966
vertex 8.750000 -8.750000 4.201966
vertex 8.749999 -17.500000 4.201966
endloop
endfacet
facet normal 0.000000 0.000000 1.000000
outer loop
vertex 17.500000 8.749999 4.201966
vertex 8.750000 8.750000 4.201966
vertex 8.750000 -0.000000 4.201966
endloop
endfacet
facet normal 0.000000 0.000000 -1.000000
outer loop
vertex 17.500000 8.749999 -4.201966
vertex 8.750000 8.750000 -4.201966
vertex 8.750001 17.500000 -4.201966
endloop
endfacet
facet normal 0.000000 0.000000 -1.000000
outer loop
vertex 17.500002 26.250000 -4.201966
vertex 8.750001 26.250000 -4.201966
vertex 8.750002 35.000000 -4.201966
endloop
endfacet
facet normal 0.000000 0.000000 1.000000
outer loop
vertex 17.500002 26.250000 4.201966
vertex 8.750001 26.250000 4.201966
vertex 8.750001 17.500000 4.201966
endloop
endfacet
facet normal 0.000000 0.000000 1.000000
outer loop
vertex 35.000000 26.249998 4.201966
vertex 26.250002 26.249998 4.201966
vertex 26.250000 17.499998 4.201966
endloop
endfacet
facet normal 0.000000 0.000000 -1.000000
outer loop
vertex 35.000000 26.249998 -4.201966
vertex 26.250002 26.249998 -4.201966
vertex 26.250002 35.000000 -4.201966
endloop
endfacet
facet normal 0.000000 0.000000 -1.000000
outer loop
vertex 35.000000 8.749998 -4.201966
vertex 26.250000 8.749999 -4.201966
vertex 26.250000 17.499998 -4.201966
endloop
endfacet
facet normal 0.000000 0.000000 1.000000
outer loop
vertex 35.000000 8.749998 4.201966
vertex 26.250000 8.749999 4.201966
vertex 26.250000 -0.000001 4.201966
endloop
endfacet
facet normal 0.000000 0.000000 1.000000
outer loop
vertex 35.000000 -8.750002 4.201966
vertex 26.250000 -8.750001 4.201966
vertex 26.250000 -17.500002 4.201966
endloop
endfacet
facet normal 0.000000 0.000000 -1.000000
outer loop
vertex 35.000000 -8.750002 -4.201966
vertex 26.250000 -8.750001 -4.201966
vertex 26.250000 -0.000001 -4.201966
endloop
endfacet
facet normal 0.000000 0.000000 -1.000000
outer loop
vertex 35.000000 -26.250002 -4.201966
vertex 26.249998 -26.250002 -4.201966
vertex 26.250000 -17.500002 -4.201966
endloop
endfacet
facet normal 0.000000 0.000000 1.000000
outer loop
vertex 35.000000 -26.250002 4.201966
vertex 26.249998 -26.250002 4.201966
vertex 26.249998 -35.000000 4.201966
endloop
endfacet
facet normal 0.000000 0.000000 1.000000
outer loop
vertex 35.000000 17.499998 4.201966
vertex 26.250000 17.499998 4.201966
vertex 26.250000 8.749999 4.201966
endloop
endfacet
facet normal 0.000000 0.000000 -1.000000
outer loop
vertex 35.000000 17.499998 -4.201966
vertex 26.250000 17.499998 -4.201966
vertex 26.250002 26.249998 -4.201966
endloop
endfacet
facet normal 0.000000 0.000000 -1.000000
outer loop
vertex 35.000000 -17.500002 -4.201966
vertex 26.250000 -17.500002 -4.201966
vertex 26.250000 -8.750001 -4.201966
endloop
endfacet
facet normal 0.000000 0.000000 1.000000
outer loop
vertex 35.000000 -17.500002 4.201966
vertex 26.250000 -17.500002 4.201966
vertex 26.249998 -26.250002 4.201966
endloop
endfacet
facet normal 0.000000 0.000000 1.000000
outer loop
vertex 35.000000 -0.000002 4.201966
vertex 26.250000 -0.000001 4.201966
vertex 26.250000 -8.750001 4.201966
endloop
endfacet
facet normal -0.000000 0.000000 -1.000000
outer loop
vertex 35.000000 -0.000002 -4.201966
vertex 26.250000 -0.000001 -4.201966
vertex 26.250000 8.749999 -4.201966
endloop
endfacet
facet normal 0.000000 -1.000000 0.000000
outer loop
vertex 35.000000 -35.000000 4.201966
vertex 26.249998 -35.000000 4.201966
vertex 26.249998 -35.000000 -4.201966
endloop
endfacet
facet normal 0.000000 0.000000 -1.000000
outer loop
vertex 35.000000 -35.000000 -4.201966
vertex 26.249998 -35.000000 -4.201966
vertex 26.249998 -26.250002 -4.201966
endloop
endfacet
facet normal 0.000000 0.000000 1.000000
outer loop
vertex 35.000000 35.000000 4.201966
vertex 26.250002 35.000000 4.201966
vertex 26.250002 26.249998 4.201966
endloop
endfacet
facet normal 0.000000 0.000000 -1.000000
outer loop
vertex -8.749998 35.000000 -4.201966
vertex 0.000002 43.468342 -4.201966
vertex 0.000002 35.000000 -4.201966
endloop
endfacet
facet normal 0.000000 1.000000 0.000000
outer loop
vertex 26.250002 43.468342 4.201966
vertex 35.000000 43.468342 -4.201966
vertex 26.250002 43.468342 -4.201966
endloop
endfacet
facet normal 0.000000 1.000000 0.000000
outer loop
vertex -8.749998 43.468342 4.201966
vertex 0.000002 43.468342 -4.201966
vertex -8.749998 43.468342 -4.201966
endloop
endfacet
facet normal 0.000000 1.000000 0.000000
outer loop
vertex 8.750002 43.468342 4.201966
vertex 17.500002 43.468342 -4.201966
vertex 8.750002 43.468342 -4.201966
endloop
endfacet
facet normal 0.000000 1.000000 0.000000
outer loop
vertex -26.249998 43.468342 4.201966
vertex -17.499998 43.468342 -4.201966
vertex -26.249998 43.468342 -4.201966
endloop
endfacet
facet normal 0.000000 1.000000 0.000000
outer loop
vertex -35.000000 43.468342 4.201966
vertex -26.249998 43.468342 -4.201966
vertex -35.000000 43.468342 -4.201966
endloop
endfacet
facet normal 0.000000 1.000000 0.000000
outer loop
vertex -17.499998 43.468342 4.201966
vertex -8.749998 43.468342 -4.201966
vertex -17.499998 43.468342 -4.201966
endloop
endfacet
facet normal 0.000000 1.000000 0.000000
outer loop
vertex 0.000002 43.468342 4.201966
vertex 8.750002 43.468342 -4.201966
vertex 0.000002 43.468342 -4.201966
endloop
endfacet
facet normal 0.000000 1.000000 0.000000
outer loop
vertex 17.500002 43.468342 4.201966
vertex 26.250002 43.468342 -4.201966
vertex 17.500002 43.468342 -4.201966
endloop
endfacet
facet normal 0.000000 1.000000 0.000000
outer loop
vertex 26.250002 43.468342 4.201966
vertex 35.000000 43.468342 4.201966
vertex 35.000000 43.468342 -4.201966
endloop
endfacet
facet normal 0.000000 1.000000 0.000000
outer loop
vertex -8.749998 43.468342 4.201966
vertex 0.000002 43.468342 4.201966
vertex 0.000002 43.468342 -4.201966
endloop
endfacet
facet normal 0.000000 1.000000 0.000000
outer loop
vertex 8.750002 43.468342 4.201966
vertex 17.500002 43.468342 4.201966
vertex 17.500002 43.468342 -4.201966
endloop
endfacet
facet normal 0.000000 1.000000 0.000000
outer loop
vertex -26.249998 43.468342 4.201966
vertex -17.499998 43.468342 4.201966
vertex -17.499998 43.468342 -4.201966
endloop
endfacet
facet normal 0.000000 1.000000 0.000000
outer loop
vertex -35.000000 43.468342 4.201966
vertex -26.249998 43.468342 4.201966
vertex -26.249998 43.468342 -4.201966
endloop
endfacet
facet normal 0.000000 1.000000 0.000000
outer loop
vertex -17.499998 43.468342 4.201966
vertex -8.749998 43.468342 4.201966
vertex -8.749998 43.468342 -4.201966
endloop
endfacet
facet normal 0.000000 1.000000 0.000000
outer loop
vertex 0.000002 43.468342 4.201966
vertex 8.750002 43.468342 4.201966
vertex 8.750002 43.468342 -4.201966
endloop
endfacet
facet normal 0.000000 1.000000 0.000000
outer loop
vertex 17.500002 43.468342 4.201966
vertex 26.250002 43.468342 4.201966
vertex 26.250002 43.468342 -4.201966
endloop
endfacet
facet normal 0.000000 0.000000 -1.000000
outer loop
vertex -17.499998 35.000000 -4.201966
vertex -8.749998 43.468342 -4.201966
vertex -8.749998 35.000000 -4.201966
endloop
endfacet
facet normal 0.000000 0.000000 -1.000000
outer loop
vertex 0.000002 35.000000 -4.201966
vertex 8.750002 43.468342 -4.201966
vertex 8.750002 35.000000 -4.201966
endloop
endfacet
facet normal 0.000000 0.000000 1.000000
outer loop
vertex 17.500002 35.000000 4.201966
vertex 17.500002 43.468342 4.201966
vertex 8.750002 43.468342 4.201966
endloop
endfacet
facet normal 0.000000 0.000000 -1.000000
outer loop
vertex 17.500002 35.000000 -4.201966
vertex 17.500002 43.468342 -4.201966
vertex 26.250002 43.468342 -4.201966
endloop
endfacet
facet normal 0.000000 0.000000 1.000000
outer loop
vertex 26.250002 35.000000 4.201966
vertex 26.250002 43.468342 4.201966
vertex 17.500002 43.468342 4.201966
endloop
endfacet
facet normal 0.000000 0.000000 -1.000000
outer loop
vertex 8.750002 35.000000 -4.201966
vertex 8.750002 43.468342 -4.201966
vertex 17.500002 43.468342 -4.201966
endloop
endfacet
facet normal 0.000000 0.000000 1.000000
outer loop
vertex 8.750002 35.000000 4.201966
vertex 8.750002 43.468342 4.201966
vertex 0.000002 43.468342 4.201966
endloop
endfacet
facet normal 1.000000 0.000000 0.000000
outer loop
vertex 35.000000 35.000000 -4.201966
vertex 35.000000 43.468342 -4.201966
vertex 35.000000 43.468342 4.201966
endloop
endfacet
facet normal 0.000000 0.000000 -1.000000
outer loop
vertex 26.250002 35.000000 -4.201966
vertex 26.250002 43.468342 -4.201966
vertex 35.000000 43.468342 -4.201966
endloop
endfacet
facet normal 0.000000 0.000000 1.000000
outer loop
vertex 0.000002 35.000000 4.201966
vertex 0.000002 43.468342 4.201966
vertex -8.749998 43.468342 4.201966
endloop
endfacet
facet normal 0.000000 0.000000 1.000000
outer loop
vertex 35.000000 35.000000 4.201966
vertex 35.000000 43.468342 4.201966
vertex 26.250002 43.468342 4.201966
endloop
endfacet
facet normal 0.000000 0.000000 -1.000000
outer loop
vertex -35.000000 35.000000 -4.201966
vertex -35.000000 43.468342 -4.201966
vertex -26.249998 43.468342 -4.201966
endloop
endfacet
facet normal 0.000000 0.000000 1.000000
outer loop
vertex -8.749998 35.000000 4.201966
vertex -8.749998 43.468342 4.201966
vertex -17.499998 43.468342 4.201966
endloop
endfacet
facet normal 0.000000 0.000000 1.000000
outer loop
vertex -26.249998 35.000000 4.201966
vertex -26.249998 43.468342 4.201966
vertex -35.000000 43.468342 4.201966
endloop
endfacet
facet normal -1.000000 0.000000 0.000000
outer loop
vertex -35.000000 35.000000 4.201966
vertex -35.000000 43.468342 4.201966
vertex -35.000000 43.468342 -4.201966
endloop
endfacet
facet normal 0.000000 0.000000 -1.000000
outer loop
vertex -26.249998 35.000000 -4.201966
vertex -26.249998 43.468342 -4.201966
vertex -17.499998 43.468342 -4.201966
endloop
endfacet
facet normal 0.000000 0.000000 1.000000
outer loop
vertex -17.499998 35.000000 4.201966
vertex -17.499998 43.468342 4.201966
vertex -26.249998 43.468342 4.201966
endloop
endfacet
facet normal 0.000000 0.000000 -1.000000
outer loop
vertex -8.749998 35.000000 -4.201966
vertex -8.749998 43.468342 -4.201966
vertex 0.000002 43.468342 -4.201966
endloop
endfacet
facet normal 0.000000 0.000000 -1.000000
outer loop
vertex -17.499998 35.000000 -4.201966
vertex -17.499998 43.468342 -4.201966
vertex -8.749998 43.468342 -4.201966
endloop
endfacet
facet normal 0.000000 0.000000 -1.000000
outer loop
vertex 0.000002 35.000000 -4.201966
vertex 0.000002 43.468342 -4.201966
vertex 8.750002 43.468342 -4.201966
endloop
endfacet
endsolid Exported from Blender-2.82 (sub 7)
