solid Exported from Blender-2.82 (sub 7)
facet normal 0.000000 0.000000 1.000000
outer loop
vertex -35.000000 -26.250000 4.201966
vertex -26.250000 -35.000000 4.201966
vertex -26.250000 -26.250000 4.201966
endloop
endfacet
facet normal 0.000000 -1.000000 0.000000
outer loop
vertex -26.250000 -35.000000 4.201966
vertex -35.000000 -35.000000 -4.201966
vertex -26.250000 -35.000000 -4.201966
endloop
endfacet
facet normal -1.000000 0.000000 0.000000
outer loop
vertex -35.000000 26.250000 4.201966
vertex -35.000000 35.000000 -4.201966
vertex -35.000000 26.250000 -4.201966
endloop
endfacet
facet normal 0.000000 0.000000 -1.000000
outer loop
vertex 35.000000 -26.250000 -4.201966
vertex 26.250000 -35.000000 -4.201966
vertex 26.250000 -26.250000 -4.201966
endloop
endfacet
facet normal 1.000000 0.000000 0.000000
outer loop
vertex 35.000000 -26.250000 4.201966
vertex 35.000000 -35.000000 -4.201966
vertex 35.000000 -26.250000 -4.201966
endloop
endfacet
facet normal 0.000000 1.000000 0.000000
outer loop
vertex 26.250000 35.000000 4.201966
vertex 35.000000 35.000000 -4.201966
vertex 26.250000 35.000000 -4.201966
endloop
endfacet
facet normal 0.000000 1.000000 0.000000
outer loop
vertex -8.750000 35.000000 4.201966
vertex 0.000000 35.000000 -4.201966
vertex -8.750000 35.000000 -4.201966
endloop
endfacet
facet normal 0.000000 0.000000 -1.000000
outer loop
vertex 0.000000 -26.250000 -4.201966
vertex -8.750000 -35.000000 -4.201966
vertex -8.750000 -26.250000 -4.201966
endloop
endfacet
facet normal 0.000000 -1.000000 0.000000
outer loop
vertex 8.750000 -35.000000 4.201966
vertex 0.000000 -35.000000 -4.201966
vertex 8.750000 -35.000000 -4.201966
endloop
endfacet
facet normal 0.000000 0.000000 1.000000
outer loop
vertex 0.000000 -26.250000 4.201966
vertex 8.750000 -35.000000 4.201966
vertex 8.750000 -26.250000 4.201966
endloop
endfacet
facet normal 0.000000 0.000000 1.000000
outer loop
vertex 17.500000 -26.250000 4.201966
vertex 26.250000 -35.000000 4.201966
vertex 26.250000 -26.250000 4.201966
endloop
endfacet
facet normal 0.000000 -1.000000 0.000000
outer loop
vertex 26.250000 -35.000000 4.201966
vertex 17.500000 -35.000000 -4.201966
vertex 26.250000 -35.000000 -4.201966
endloop
endfacet
facet normal 0.000000 1.000000 0.000000
outer loop
vertex 8.750000 35.000000 4.201966
vertex 17.500000 35.000000 -4.201966
vertex 8.750000 35.000000 -4.201966
endloop
endfacet
facet normal 0.000000 0.000000 -1.000000
outer loop
vertex 17.500000 -26.250000 -4.201966
vertex 8.750000 -35.000000 -4.201966
vertex 8.750000 -26.250000 -4.201966
endloop
endfacet
facet normal 0.000000 0.000000 -1.000000
outer loop
vertex -17.500000 -26.250000 -4.201966
vertex -26.250000 -35.000000 -4.201966
vertex -26.250000 -26.250000 -4.201966
endloop
endfacet
facet normal 0.000000 1.000000 0.000000
outer loop
vertex -26.250000 35.000000 4.201966
vertex -17.500000 35.000000 -4.201966
vertex -26.250000 35.000000 -4.201966
endloop
endfacet
facet normal 0.000000 -1.000000 0.000000
outer loop
vertex -8.750000 -35.000000 4.201966
vertex -17.500000 -35.000000 -4.201966
vertex -8.750000 -35.000000 -4.201966
endloop
endfacet
facet normal 0.000000 0.000000 1.000000
outer loop
vertex -17.500000 -26.250000 4.201966
vertex -8.750000 -35.000000 4.201966
vertex -8.750000 -26.250000 4.201966
endloop
endfacet
facet normal 0.000000 -1.000000 0.000000
outer loop
vertex 35.000000 -35.000000 4.201966
vertex 26.250000 -35.000000 -4.201966
vertex 35.000000 -35.000000 -4.201966
endloop
endfacet
facet normal 0.000000 0.000000 1.000000
outer loop
vertex 26.250000 -26.250000 4.201966
vertex 35.000000 -35.000000 4.201966
vertex 35.000000 -26.250000 4.201966
endloop
endfacet
facet normal 0.000000 1.000000 0.000000
outer loop
vertex 17.500000 35.000000 4.201966
vertex 26.250000 35.000000 -4.201966
vertex 17.500000 35.000000 -4.201966
endloop
endfacet
facet normal 0.000000 0.000000 -1.000000
outer loop
vertex 26.250000 -26.250000 -4.201966
vertex 17.500000 -35.000000 -4.201966
vertex 17.500000 -26.250000 -4.201966
endloop
endfacet
facet normal 0.000000 0.000000 -1.000000
outer loop
vertex 8.750000 -26.250000 -4.201966
vertex 0.000000 -35.000000 -4.201966
vertex 0.000000 -26.250000 -4.201966
endloop
endfacet
facet normal 0.000000 1.000000 0.000000
outer loop
vertex 0.000000 35.000000 4.201966
vertex 8.750000 35.000000 -4.201966
vertex 0.000000 35.000000 -4.201966
endloop
endfacet
facet normal 0.000000 0.000000 1.000000
outer loop
vertex 8.750000 -26.250000 4.201966
vertex 17.500000 -35.000000 4.201966
vertex 17.500000 -26.250000 4.201966
endloop
endfacet
facet normal 0.000000 -1.000000 0.000000
outer loop
vertex 17.500000 -35.000000 4.201966
vertex 8.750000 -35.000000 -4.201966
vertex 17.500000 -35.000000 -4.201966
endloop
endfacet
facet normal 0.000000 0.000000 1.000000
outer loop
vertex -8.750000 -26.250000 4.201966
vertex 0.000000 -35.000000 4.201966
vertex 0.000000 -26.250000 4.201966
endloop
endfacet
facet normal 0.000000 -1.000000 0.000000
outer loop
vertex 0.000000 -35.000000 4.201966
vertex -8.750000 -35.000000 -4.201966
vertex 0.000000 -35.000000 -4.201966
endloop
endfacet
facet normal 0.000000 0.000000 -1.000000
outer loop
vertex -8.750000 -26.250000 -4.201966
vertex -17.500000 -35.000000 -4.201966
vertex -17.500000 -26.250000 -4.201966
endloop
endfacet
facet normal 0.000000 1.000000 0.000000
outer loop
vertex -17.500000 35.000000 4.201966
vertex -8.750000 35.000000 -4.201966
vertex -17.500000 35.000000 -4.201966
endloop
endfacet
facet normal 0.000000 1.000000 0.000000
outer loop
vertex -35.000000 35.000000 4.201966
vertex -26.250000 35.000000 -4.201966
vertex -35.000000 35.000000 -4.201966
endloop
endfacet
facet normal 0.000000 0.000000 -1.000000
outer loop
vertex -26.250000 -26.250000 -4.201966
vertex -35.000000 -35.000000 -4.201966
vertex -35.000000 -26.250000 -4.201966
endloop
endfacet
facet normal 0.000000 -1.000000 0.000000
outer loop
vertex -17.500000 -35.000000 4.201966
vertex -26.250000 -35.000000 -4.201966
vertex -17.500000 -35.000000 -4.201966
endloop
endfacet
facet normal 0.000000 0.000000 1.000000
outer loop
vertex -26.250000 -26.250000 4.201966
vertex -17.500000 -35.000000 4.201966
vertex -17.500000 -26.250000 4.201966
endloop
endfacet
facet normal 0.000000 0.000000 1.000000
outer loop
vertex -26.250000 8.750000 4.201966
vertex -17.500000 0.000000 4.201966
vertex -17.500000 8.750000 4.201966
endloop
endfacet
facet normal 0.000000 0.000000 -1.000000
outer loop
vertex -26.250000 8.750000 -4.201966
vertex -35.000000 0.000000 -4.201966
vertex -35.000000 8.750000 -4.201966
endloop
endfacet
facet normal 0.000000 0.000000 -1.000000
outer loop
vertex -8.750000 8.750000 -4.201966
vertex -17.500000 0.000000 -4.201966
vertex -17.500000 8.750000 -4.201966
endloop
endfacet
facet normal 0.000000 0.000000 1.000000
outer loop
vertex -8.750000 8.750000 4.201966
vertex 0.000000 0.000000 4.201966
vertex 0.000000 8.750000 4.201966
endloop
endfacet
facet normal 0.000000 0.000000 1.000000
outer loop
vertex 8.750000 8.750000 4.201966
vertex 17.500000 0.000000 4.201966
vertex 17.500000 8.750000 4.201966
endloop
endfacet
facet normal 0.000000 0.000000 -1.000000
outer loop
vertex 8.750000 8.750000 -4.201966
vertex 0.000000 0.000000 -4.201966
vertex 0.000000 8.750000 -4.201966
endloop
endfacet
facet normal 0.000000 0.000000 -1.000000
outer loop
vertex 26.250000 8.750000 -4.201966
vertex 17.500000 0.000000 -4.201966
vertex 17.500000 8.750000 -4.201966
endloop
endfacet
facet normal 0.000000 0.000000 1.000000
outer loop
vertex 26.250000 8.750000 4.201966
vertex 35.000000 0.000000 4.201966
vertex 35.000000 8.750000 4.201966
endloop
endfacet
facet normal 0.000000 0.000000 1.000000
outer loop
vertex -17.500000 8.750000 4.201966
vertex -8.750000 0.000000 4.201966
vertex -8.750000 8.750000 4.201966
endloop
endfacet
facet normal 0.000000 0.000000 -1.000000
outer loop
vertex -17.500000 8.750000 -4.201966
vertex -26.250000 0.000000 -4.201966
vertex -26.250000 8.750000 -4.201966
endloop
endfacet
facet normal 0.000000 0.000000 -1.000000
outer loop
vertex 17.500000 8.750000 -4.201966
vertex 8.750000 0.000000 -4.201966
vertex 8.750000 8.750000 -4.201966
endloop
endfacet
facet normal 0.000000 0.000000 1.000000
outer loop
vertex 17.500000 8.750000 4.201966
vertex 26.250000 0.000000 4.201966
vertex 26.250000 8.750000 4.201966
endloop
endfacet
facet normal 0.000000 0.000000 1.000000
outer loop
vertex 0.000000 8.750000 4.201966
vertex 8.750000 0.000000 4.201966
vertex 8.750000 8.750000 4.201966
endloop
endfacet
facet normal 0.000000 0.000000 -1.000000
outer loop
vertex 0.000000 8.750000 -4.201966
vertex -8.750000 0.000000 -4.201966
vertex -8.750000 8.750000 -4.201966
endloop
endfacet
facet normal 1.000000 0.000000 0.000000
outer loop
vertex 35.000000 8.750000 4.201966
vertex 35.000000 0.000000 -4.201966
vertex 35.000000 8.750000 -4.201966
endloop
endfacet
facet normal 0.000000 0.000000 -1.000000
outer loop
vertex 35.000000 8.750000 -4.201966
vertex 26.250000 0.000000 -4.201966
vertex 26.250000 8.750000 -4.201966
endloop
endfacet
facet normal -1.000000 0.000000 0.000000
outer loop
vertex -35.000000 -8.750000 4.201966
vertex -35.000000 0.000000 -4.201966
vertex -35.000000 -8.750000 -4.201966
endloop
endfacet
facet normal 0.000000 0.000000 1.000000
outer loop
vertex -35.000000 8.750000 4.201966
vertex -26.250000 0.000000 4.201966
vertex -26.250000 8.750000 4.201966
endloop
endfacet
facet normal 0.000000 0.000000 1.000000
outer loop
vertex -35.000000 26.250000 4.201966
vertex -26.250000 17.500000 4.201966
vertex -26.250000 26.250000 4.201966
endloop
endfacet
facet normal 0.000000 0.000000 -1.000000
outer loop
vertex 35.000000 26.250000 -4.201966
vertex 26.250000 17.500000 -4.201966
vertex 26.250000 26.250000 -4.201966
endloop
endfacet
facet normal 1.000000 0.000000 0.000000
outer loop
vertex 35.000000 26.250000 4.201966
vertex 35.000000 17.500000 -4.201966
vertex 35.000000 26.250000 -4.201966
endloop
endfacet
facet normal 0.000000 0.000000 -1.000000
outer loop
vertex 0.000000 26.250000 -4.201966
vertex -8.750000 17.500000 -4.201966
vertex -8.750000 26.250000 -4.201966
endloop
endfacet
facet normal 0.000000 0.000000 1.000000
outer loop
vertex 0.000000 26.250000 4.201966
vertex 8.750000 17.500000 4.201966
vertex 8.750000 26.250000 4.201966
endloop
endfacet
facet normal 0.000000 0.000000 1.000000
outer loop
vertex 17.500000 26.250000 4.201966
vertex 26.250000 17.500000 4.201966
vertex 26.250000 26.250000 4.201966
endloop
endfacet
facet normal 0.000000 0.000000 -1.000000
outer loop
vertex 17.500000 26.250000 -4.201966
vertex 8.750000 17.500000 -4.201966
vertex 8.750000 26.250000 -4.201966
endloop
endfacet
facet normal 0.000000 0.000000 -1.000000
outer loop
vertex -17.500000 26.250000 -4.201966
vertex -26.250000 17.500000 -4.201966
vertex -26.250000 26.250000 -4.201966
endloop
endfacet
facet normal 0.000000 0.000000 1.000000
outer loop
vertex -17.500000 26.250000 4.201966
vertex -8.750000 17.500000 4.201966
vertex -8.750000 26.250000 4.201966
endloop
endfacet
facet normal 0.000000 0.000000 1.000000
outer loop
vertex 26.250000 26.250000 4.201966
vertex 35.000000 17.500000 4.201966
vertex 35.000000 26.250000 4.201966
endloop
endfacet
facet normal 0.000000 0.000000 -1.000000
outer loop
vertex 26.250000 26.250000 -4.201966
vertex 17.500000 17.500000 -4.201966
vertex 17.500000 26.250000 -4.201966
endloop
endfacet
facet normal 0.000000 0.000000 -1.000000
outer loop
vertex 8.750000 26.250000 -4.201966
vertex 0.000000 17.500000 -4.201966
vertex 0.000000 26.250000 -4.201966
endloop
endfacet
facet normal 0.000000 0.000000 1.000000
outer loop
vertex 8.750000 26.250000 4.201966
vertex 17.500000 17.500000 4.201966
vertex 17.500000 26.250000 4.201966
endloop
endfacet
facet normal 0.000000 0.000000 1.000000
outer loop
vertex -8.750000 26.250000 4.201966
vertex 0.000000 17.500000 4.201966
vertex 0.000000 26.250000 4.201966
endloop
endfacet
facet normal 0.000000 0.000000 -1.000000
outer loop
vertex -8.750000 26.250000 -4.201966
vertex -17.500000 17.500000 -4.201966
vertex -17.500000 26.250000 -4.201966
endloop
endfacet
facet normal 0.000000 0.000000 -1.000000
outer loop
vertex -26.250000 26.250000 -4.201966
vertex -35.000000 17.500000 -4.201966
vertex -35.000000 26.250000 -4.201966
endloop
endfacet
facet normal 0.000000 0.000000 1.000000
outer loop
vertex -26.250000 26.250000 4.201966
vertex -17.500000 17.500000 4.201966
vertex -17.500000 26.250000 4.201966
endloop
endfacet
facet normal -1.000000 0.000000 0.000000
outer loop
vertex -35.000000 8.750000 4.201966
vertex -35.000000 17.500000 -4.201966
vertex -35.000000 8.750000 -4.201966
endloop
endfacet
facet normal -1.000000 0.000000 0.000000
outer loop
vertex -35.000000 -26.250000 4.201966
vertex -35.000000 -17.500000 -4.201966
vertex -35.000000 -26.250000 -4.201966
endloop
endfacet
facet normal 0.000000 0.000000 1.000000
outer loop
vertex -26.250000 -8.750000 4.201966
vertex -17.500000 -17.500000 4.201966
vertex -17.500000 -8.750000 4.201966
endloop
endfacet
facet normal 0.000000 0.000000 -1.000000
outer loop
vertex -26.250000 -8.750000 -4.201966
vertex -35.000000 -17.500000 -4.201966
vertex -35.000000 -8.750000 -4.201966
endloop
endfacet
facet normal 0.000000 0.000000 -1.000000
outer loop
vertex -8.750000 -8.750000 -4.201966
vertex -17.500000 -17.500000 -4.201966
vertex -17.500000 -8.750000 -4.201966
endloop
endfacet
facet normal 0.000000 0.000000 1.000000
outer loop
vertex -8.750000 -8.750000 4.201966
vertex 0.000000 -17.500000 4.201966
vertex 0.000000 -8.750000 4.201966
endloop
endfacet
facet normal 0.000000 0.000000 1.000000
outer loop
vertex 8.750000 -8.750000 4.201966
vertex 17.500000 -17.500000 4.201966
vertex 17.500000 -8.750000 4.201966
endloop
endfacet
facet normal 0.000000 0.000000 -1.000000
outer loop
vertex 8.750000 -8.750000 -4.201966
vertex 0.000000 -17.500000 -4.201966
vertex 0.000000 -8.750000 -4.201966
endloop
endfacet
facet normal 0.000000 0.000000 -1.000000
outer loop
vertex 26.250000 -8.750000 -4.201966
vertex 17.500000 -17.500000 -4.201966
vertex 17.500000 -8.750000 -4.201966
endloop
endfacet
facet normal 0.000000 0.000000 1.000000
outer loop
vertex 26.250000 -8.750000 4.201966
vertex 35.000000 -17.500000 4.201966
vertex 35.000000 -8.750000 4.201966
endloop
endfacet
facet normal 0.000000 0.000000 1.000000
outer loop
vertex -17.500000 -8.750000 4.201966
vertex -8.750000 -17.500000 4.201966
vertex -8.750000 -8.750000 4.201966
endloop
endfacet
facet normal 0.000000 0.000000 -1.000000
outer loop
vertex -17.500000 -8.750000 -4.201966
vertex -26.250000 -17.500000 -4.201966
vertex -26.250000 -8.750000 -4.201966
endloop
endfacet
facet normal 0.000000 0.000000 -1.000000
outer loop
vertex 17.500000 -8.750000 -4.201966
vertex 8.750000 -17.500000 -4.201966
vertex 8.750000 -8.750000 -4.201966
endloop
endfacet
facet normal 0.000000 0.000000 1.000000
outer loop
vertex 17.500000 -8.750000 4.201966
vertex 26.250000 -17.500000 4.201966
vertex 26.250000 -8.750000 4.201966
endloop
endfacet
facet normal 0.000000 0.000000 1.000000
outer loop
vertex 0.000000 -8.750000 4.201966
vertex 8.750000 -17.500000 4.201966
vertex 8.750000 -8.750000 4.201966
endloop
endfacet
facet normal 0.000000 0.000000 -1.000000
outer loop
vertex 0.000000 -8.750000 -4.201966
vertex -8.750000 -17.500000 -4.201966
vertex -8.750000 -8.750000 -4.201966
endloop
endfacet
facet normal 1.000000 0.000000 0.000000
outer loop
vertex 35.000000 -8.750000 4.201966
vertex 35.000000 -17.500000 -4.201966
vertex 35.000000 -8.750000 -4.201966
endloop
endfacet
facet normal 0.000000 0.000000 -1.000000
outer loop
vertex 35.000000 -8.750000 -4.201966
vertex 26.250000 -17.500000 -4.201966
vertex 26.250000 -8.750000 -4.201966
endloop
endfacet
facet normal 0.000000 0.000000 1.000000
outer loop
vertex -35.000000 -8.750000 4.201966
vertex -26.250000 -17.500000 4.201966
vertex -26.250000 -8.750000 4.201966
endloop
endfacet
facet normal -1.000000 0.000000 0.000000
outer loop
vertex -35.000000 -35.000000 4.201966
vertex -35.000000 -26.250000 -4.201966
vertex -35.000000 -35.000000 -4.201966
endloop
endfacet
facet normal 0.000000 0.000000 1.000000
outer loop
vertex -26.250000 -17.500000 4.201966
vertex -17.500000 -26.250000 4.201966
vertex -17.500000 -17.500000 4.201966
endloop
endfacet
facet normal 0.000000 0.000000 -1.000000
outer loop
vertex -26.250000 -17.500000 -4.201966
vertex -35.000000 -26.250000 -4.201966
vertex -35.000000 -17.500000 -4.201966
endloop
endfacet
facet normal 0.000000 0.000000 -1.000000
outer loop
vertex -8.750000 -17.500000 -4.201966
vertex -17.500000 -26.250000 -4.201966
vertex -17.500000 -17.500000 -4.201966
endloop
endfacet
facet normal 0.000000 0.000000 1.000000
outer loop
vertex -8.750000 -17.500000 4.201966
vertex 0.000000 -26.250000 4.201966
vertex 0.000000 -17.500000 4.201966
endloop
endfacet
facet normal 0.000000 0.000000 1.000000
outer loop
vertex 8.750000 -17.500000 4.201966
vertex 17.500000 -26.250000 4.201966
vertex 17.500000 -17.500000 4.201966
endloop
endfacet
facet normal 0.000000 0.000000 -1.000000
outer loop
vertex 8.750000 -17.500000 -4.201966
vertex 0.000000 -26.250000 -4.201966
vertex 0.000000 -17.500000 -4.201966
endloop
endfacet
facet normal 0.000000 0.000000 -1.000000
outer loop
vertex 26.250000 -17.500000 -4.201966
vertex 17.500000 -26.250000 -4.201966
vertex 17.500000 -17.500000 -4.201966
endloop
endfacet
facet normal 0.000000 0.000000 1.000000
outer loop
vertex 26.250000 -17.500000 4.201966
vertex 35.000000 -26.250000 4.201966
vertex 35.000000 -17.500000 4.201966
endloop
endfacet
facet normal 0.000000 0.000000 1.000000
outer loop
vertex -17.500000 -17.500000 4.201966
vertex -8.750000 -26.250000 4.201966
vertex -8.750000 -17.500000 4.201966
endloop
endfacet
facet normal 0.000000 0.000000 -1.000000
outer loop
vertex -17.500000 -17.500000 -4.201966
vertex -26.250000 -26.250000 -4.201966
vertex -26.250000 -17.500000 -4.201966
endloop
endfacet
facet normal 0.000000 0.000000 -1.000000
outer loop
vertex 17.500000 -17.500000 -4.201966
vertex 8.750000 -26.250000 -4.201966
vertex 8.750000 -17.500000 -4.201966
endloop
endfacet
facet normal 0.000000 0.000000 1.000000
outer loop
vertex 17.500000 -17.500000 4.201966
vertex 26.250000 -26.250000 4.201966
vertex 26.250000 -17.500000 4.201966
endloop
endfacet
facet normal 0.000000 0.000000 1.000000
outer loop
vertex 0.000000 -17.500000 4.201966
vertex 8.750000 -26.250000 4.201966
vertex 8.750000 -17.500000 4.201966
endloop
endfacet
facet normal 0.000000 0.000000 -1.000000
outer loop
vertex 0.000000 -17.500000 -4.201966
vertex -8.750000 -26.250000 -4.201966
vertex -8.750000 -17.500000 -4.201966
endloop
endfacet
facet normal 1.000000 0.000000 0.000000
outer loop
vertex 35.000000 -17.500000 4.201966
vertex 35.000000 -26.250000 -4.201966
vertex 35.000000 -17.500000 -4.201966
endloop
endfacet
facet normal 0.000000 0.000000 -1.000000
outer loop
vertex 35.000000 -17.500000 -4.201966
vertex 26.250000 -26.250000 -4.201966
vertex 26.250000 -17.500000 -4.201966
endloop
endfacet
facet normal 0.000000 0.000000 1.000000
outer loop
vertex -35.000000 -17.500000 4.201966
vertex -26.250000 -26.250000 4.201966
vertex -26.250000 -17.500000 4.201966
endloop
endfacet
facet normal 0.000000 0.000000 1.000000
outer loop
vertex -35.000000 0.000000 4.201966
vertex -26.250000 -8.750000 4.201966
vertex -26.250000 0.000000 4.201966
endloop
endfacet
facet normal 0.000000 0.000000 -1.000000
outer loop
vertex 35.000000 0.000000 -4.201966
vertex 26.250000 -8.750000 -4.201966
vertex 26.250000 0.000000 -4.201966
endloop
endfacet
facet normal 1.000000 0.000000 0.000000
outer loop
vertex 35.000000 0.000000 4.201966
vertex 35.000000 -8.750000 -4.201966
vertex 35.000000 0.000000 -4.201966
endloop
endfacet
facet normal 0.000000 0.000000 -1.000000
outer loop
vertex 0.000000 0.000000 -4.201966
vertex -8.750000 -8.750000 -4.201966
vertex -8.750000 0.000000 -4.201966
endloop
endfacet
facet normal 0.000000 0.000000 1.000000
outer loop
vertex 0.000000 0.000000 4.201966
vertex 8.750000 -8.750000 4.201966
vertex 8.750000 0.000000 4.201966
endloop
endfacet
facet normal 0.000000 0.000000 1.000000
outer loop
vertex 17.500000 0.000000 4.201966
vertex 26.250000 -8.750000 4.201966
vertex 26.250000 0.000000 4.201966
endloop
endfacet
facet normal 0.000000 0.000000 -1.000000
outer loop
vertex 17.500000 0.000000 -4.201966
vertex 8.750000 -8.750000 -4.201966
vertex 8.750000 0.000000 -4.201966
endloop
endfacet
facet normal 0.000000 0.000000 -1.000000
outer loop
vertex -17.500000 0.000000 -4.201966
vertex -26.250000 -8.750000 -4.201966
vertex -26.250000 0.000000 -4.201966
endloop
endfacet
facet normal 0.000000 0.000000 1.000000
outer loop
vertex -17.500000 0.000000 4.201966
vertex -8.750000 -8.750000 4.201966
vertex -8.750000 0.000000 4.201966
endloop
endfacet
facet normal 0.000000 0.000000 1.000000
outer loop
vertex 26.250000 0.000000 4.201966
vertex 35.000000 -8.750000 4.201966
vertex 35.000000 0.000000 4.201966
endloop
endfacet
facet normal 0.000000 0.000000 -1.000000
outer loop
vertex 26.250000 0.000000 -4.201966
vertex 17.500000 -8.750000 -4.201966
vertex 17.500000 0.000000 -4.201966
endloop
endfacet
facet normal 0.000000 0.000000 -1.000000
outer loop
vertex 8.750000 0.000000 -4.201966
vertex 0.000000 -8.750000 -4.201966
vertex 0.000000 0.000000 -4.201966
endloop
endfacet
facet normal 0.000000 0.000000 1.000000
outer loop
vertex 8.750000 0.000000 4.201966
vertex 17.500000 -8.750000 4.201966
vertex 17.500000 0.000000 4.201966
endloop
endfacet
facet normal 0.000000 0.000000 1.000000
outer loop
vertex -8.750000 0.000000 4.201966
vertex 0.000000 -8.750000 4.201966
vertex 0.000000 0.000000 4.201966
endloop
endfacet
facet normal 0.000000 0.000000 -1.000000
outer loop
vertex -8.750000 0.000000 -4.201966
vertex -17.500000 -8.750000 -4.201966
vertex -17.500000 0.000000 -4.201966
endloop
endfacet
facet normal 0.000000 0.000000 -1.000000
outer loop
vertex -26.250000 0.000000 -4.201966
vertex -35.000000 -8.750000 -4.201966
vertex -35.000000 0.000000 -4.201966
endloop
endfacet
facet normal 0.000000 0.000000 1.000000
outer loop
vertex -26.250000 0.000000 4.201966
vertex -17.500000 -8.750000 4.201966
vertex -17.500000 0.000000 4.201966
endloop
endfacet
facet normal -1.000000 0.000000 0.000000
outer loop
vertex -35.000000 -17.500000 4.201966
vertex -35.000000 -8.750000 -4.201966
vertex -35.000000 -17.500000 -4.201966
endloop
endfacet
facet normal -1.000000 0.000000 0.000000
outer loop
vertex -35.000000 0.000000 4.201966
vertex -35.000000 8.750000 -4.201966
vertex -35.000000 0.000000 -4.201966
endloop
endfacet
facet normal 0.000000 0.000000 1.000000
outer loop
vertex -35.000000 17.500000 4.201966
vertex -26.250000 8.750000 4.201966
vertex -26.250000 17.500000 4.201966
endloop
endfacet
facet normal 0.000000 0.000000 -1.000000
outer loop
vertex 35.000000 17.500000 -4.201966
vertex 26.250000 8.750000 -4.201966
vertex 26.250000 17.500000 -4.201966
endloop
endfacet
facet normal 1.000000 0.000000 0.000000
outer loop
vertex 35.000000 17.500000 4.201966
vertex 35.000000 8.750000 -4.201966
vertex 35.000000 17.500000 -4.201966
endloop
endfacet
facet normal 0.000000 0.000000 -1.000000
outer loop
vertex 0.000000 17.500000 -4.201966
vertex -8.750000 8.750000 -4.201966
vertex -8.750000 17.500000 -4.201966
endloop
endfacet
facet normal 0.000000 0.000000 1.000000
outer loop
vertex 0.000000 17.500000 4.201966
vertex 8.750000 8.750000 4.201966
vertex 8.750000 17.500000 4.201966
endloop
endfacet
facet normal 0.000000 0.000000 1.000000
outer loop
vertex 17.500000 17.500000 4.201966
vertex 26.250000 8.750000 4.201966
vertex 26.250000 17.500000 4.201966
endloop
endfacet
facet normal 0.000000 0.000000 -1.000000
outer loop
vertex 17.500000 17.500000 -4.201966
vertex 8.750000 8.750000 -4.201966
vertex 8.750000 17.500000 -4.201966
endloop
endfacet
facet normal 0.000000 0.000000 -1.000000
outer loop
vertex -17.500000 17.500000 -4.201966
vertex -26.250000 8.750000 -4.201966
vertex -26.250000 17.500000 -4.201966
endloop
endfacet
facet normal 0.000000 0.000000 1.000000
outer loop
vertex -17.500000 17.500000 4.201966
vertex -8.750000 8.750000 4.201966
vertex -8.750000 17.500000 4.201966
endloop
endfacet
facet normal 0.000000 0.000000 1.000000
outer loop
vertex 26.250000 17.500000 4.201966
vertex 35.000000 8.750000 4.201966
vertex 35.000000 17.500000 4.201966
endloop
endfacet
facet normal 0.000000 0.000000 -1.000000
outer loop
vertex 26.250000 17.500000 -4.201966
vertex 17.500000 8.750000 -4.201966
vertex 17.500000 17.500000 -4.201966
endloop
endfacet
facet normal 0.000000 0.000000 -1.000000
outer loop
vertex 8.750000 17.500000 -4.201966
vertex 0.000000 8.750000 -4.201966
vertex 0.000000 17.500000 -4.201966
endloop
endfacet
facet normal 0.000000 0.000000 1.000000
outer loop
vertex 8.750000 17.500000 4.201966
vertex 17.500000 8.750000 4.201966
vertex 17.500000 17.500000 4.201966
endloop
endfacet
facet normal 0.000000 0.000000 1.000000
outer loop
vertex -8.750000 17.500000 4.201966
vertex 0.000000 8.750000 4.201966
vertex 0.000000 17.500000 4.201966
endloop
endfacet
facet normal 0.000000 0.000000 -1.000000
outer loop
vertex -8.750000 17.500000 -4.201966
vertex -17.500000 8.750000 -4.201966
vertex -17.500000 17.500000 -4.201966
endloop
endfacet
facet normal 0.000000 0.000000 -1.000000
outer loop
vertex -26.250000 17.500000 -4.201966
vertex -35.000000 8.750000 -4.201966
vertex -35.000000 17.500000 -4.201966
endloop
endfacet
facet normal 0.000000 0.000000 1.000000
outer loop
vertex -26.250000 17.500000 4.201966
vertex -17.500000 8.750000 4.201966
vertex -17.500000 17.500000 4.201966
endloop
endfacet
facet normal 0.000000 0.000000 1.000000
outer loop
vertex -26.250000 35.000000 4.201966
vertex -17.500000 26.250000 4.201966
vertex -17.500000 35.000000 4.201966
endloop
endfacet
facet normal 0.000000 0.000000 -1.000000
outer loop
vertex -26.250000 35.000000 -4.201966
vertex -35.000000 26.250000 -4.201966
vertex -35.000000 35.000000 -4.201966
endloop
endfacet
facet normal 0.000000 0.000000 -1.000000
outer loop
vertex -8.750000 35.000000 -4.201966
vertex -17.500000 26.250000 -4.201966
vertex -17.500000 35.000000 -4.201966
endloop
endfacet
facet normal 0.000000 0.000000 1.000000
outer loop
vertex -8.750000 35.000000 4.201966
vertex 0.000000 26.250000 4.201966
vertex 0.000000 35.000000 4.201966
endloop
endfacet
facet normal 0.000000 0.000000 1.000000
outer loop
vertex 8.750000 35.000000 4.201966
vertex 17.500000 26.250000 4.201966
vertex 17.500000 35.000000 4.201966
endloop
endfacet
facet normal 0.000000 0.000000 -1.000000
outer loop
vertex 8.750000 35.000000 -4.201966
vertex 0.000000 26.250000 -4.201966
vertex 0.000000 35.000000 -4.201966
endloop
endfacet
facet normal 0.000000 0.000000 -1.000000
outer loop
vertex 26.250000 35.000000 -4.201966
vertex 17.500000 26.250000 -4.201966
vertex 17.500000 35.000000 -4.201966
endloop
endfacet
facet normal 0.000000 0.000000 1.000000
outer loop
vertex 26.250000 35.000000 4.201966
vertex 35.000000 26.250000 4.201966
vertex 35.000000 35.000000 4.201966
endloop
endfacet
facet normal 0.000000 0.000000 1.000000
outer loop
vertex -17.500000 35.000000 4.201966
vertex -8.750000 26.250000 4.201966
vertex -8.750000 35.000000 4.201966
endloop
endfacet
facet normal 0.000000 0.000000 -1.000000
outer loop
vertex -17.500000 35.000000 -4.201966
vertex -26.250000 26.250000 -4.201966
vertex -26.250000 35.000000 -4.201966
endloop
endfacet
facet normal 0.000000 0.000000 -1.000000
outer loop
vertex 17.500000 35.000000 -4.201966
vertex 8.750000 26.250000 -4.201966
vertex 8.750000 35.000000 -4.201966
endloop
endfacet
facet normal 0.000000 0.000000 1.000000
outer loop
vertex 17.500000 35.000000 4.201966
vertex 26.250000 26.250000 4.201966
vertex 26.250000 35.000000 4.201966
endloop
endfacet
facet normal 0.000000 0.000000 1.000000
outer loop
vertex 0.000000 35.000000 4.201966
vertex 8.750000 26.250000 4.201966
vertex 8.750000 35.000000 4.201966
endloop
endfacet
facet normal 0.000000 0.000000 -1.000000
outer loop
vertex 0.000000 35.000000 -4.201966
vertex -8.750000 26.250000 -4.201966
vertex -8.750000 35.000000 -4.201966
endloop
endfacet
facet normal 1.000000 0.000000 0.000000
outer loop
vertex 35.000000 35.000000 4.201966
vertex 35.000000 26.250000 -4.201966
vertex 35.000000 35.000000 -4.201966
endloop
endfacet
facet normal 0.000000 0.000000 -1.000000
outer loop
vertex 35.000000 35.000000 -4.201966
vertex 26.250000 26.250000 -4.201966
vertex 26.250000 35.000000 -4.201966
endloop
endfacet
facet normal 0.000000 0.000000 1.000000
outer loop
vertex -35.000000 35.000000 4.201966
vertex -26.250000 26.250000 4.201966
vertex -26.250000 35.000000 4.201966
endloop
endfacet
facet normal -1.000000 0.000000 0.000000
outer loop
vertex -35.000000 17.500000 4.201966
vertex -35.000000 26.250000 -4.201966
vertex -35.000000 17.500000 -4.201966
endloop
endfacet
facet normal 0.000000 0.000000 1.000000
outer loop
vertex -35.000000 -26.250000 4.201966
vertex -35.000000 -35.000000 4.201966
vertex -26.250000 -35.000000 4.201966
endloop
endfacet
facet normal 0.000000 -1.000000 0.000000
outer loop
vertex -26.250000 -35.000000 4.201966
vertex -35.000000 -35.000000 4.201966
vertex -35.000000 -35.000000 -4.201966
endloop
endfacet
facet normal -1.000000 0.000000 0.000000
outer loop
vertex -35.000000 26.250000 4.201966
vertex -35.000000 35.000000 4.201966
vertex -35.000000 35.000000 -4.201966
endloop
endfacet
facet normal 0.000000 0.000000 -1.000000
outer loop
vertex 35.000000 -26.250000 -4.201966
vertex 35.000000 -35.000000 -4.201966
vertex 26.250000 -35.000000 -4.201966
endloop
endfacet
facet normal 1.000000 0.000000 0.000000
outer loop
vertex 35.000000 -26.250000 4.201966
vertex 35.000000 -35.000000 4.201966
vertex 35.000000 -35.000000 -4.201966
endloop
endfacet
facet normal 0.000000 1.000000 0.000000
outer loop
vertex 26.250000 35.000000 4.201966
vertex 35.000000 35.000000 4.201966
vertex 35.000000 35.000000 -4.201966
endloop
endfacet
facet normal 0.000000 1.000000 0.000000
outer loop
vertex -8.750000 35.000000 4.201966
vertex 0.000000 35.000000 4.201966
vertex 0.000000 35.000000 -4.201966
endloop
endfacet
facet normal 0.000000 0.000000 -1.000000
outer loop
vertex 0.000000 -26.250000 -4.201966
vertex 0.000000 -35.000000 -4.201966
vertex -8.750000 -35.000000 -4.201966
endloop
endfacet
facet normal 0.000000 -1.000000 0.000000
outer loop
vertex 8.750000 -35.000000 4.201966
vertex 0.000000 -35.000000 4.201966
vertex 0.000000 -35.000000 -4.201966
endloop
endfacet
facet normal 0.000000 0.000000 1.000000
outer loop
vertex 0.000000 -26.250000 4.201966
vertex 0.000000 -35.000000 4.201966
vertex 8.750000 -35.000000 4.201966
endloop
endfacet
facet normal 0.000000 0.000000 1.000000
outer loop
vertex 17.500000 -26.250000 4.201966
vertex 17.500000 -35.000000 4.201966
vertex 26.250000 -35.000000 4.201966
endloop
endfacet
facet normal 0.000000 -1.000000 0.000000
outer loop
vertex 26.250000 -35.000000 4.201966
vertex 17.500000 -35.000000 4.201966
vertex 17.500000 -35.000000 -4.201966
endloop
endfacet
facet normal 0.000000 1.000000 0.000000
outer loop
vertex 8.750000 35.000000 4.201966
vertex 17.500000 35.000000 4.201966
vertex 17.500000 35.000000 -4.201966
endloop
endfacet
facet normal 0.000000 0.000000 -1.000000
outer loop
vertex 17.500000 -26.250000 -4.201966
vertex 17.500000 -35.000000 -4.201966
vertex 8.750000 -35.000000 -4.201966
endloop
endfacet
facet normal 0.000000 0.000000 -1.000000
outer loop
vertex -17.500000 -26.250000 -4.201966
vertex -17.500000 -35.000000 -4.201966
vertex -26.250000 -35.000000 -4.201966
endloop
endfacet
facet normal 0.000000 1.000000 0.000000
outer loop
vertex -26.250000 35.000000 4.201966
vertex -17.500000 35.000000 4.201966
vertex -17.500000 35.000000 -4.201966
endloop
endfacet
facet normal 0.000000 -1.000000 0.000000
outer loop
vertex -8.750000 -35.000000 4.201966
vertex -17.500000 -35.000000 4.201966
vertex -17.500000 -35.000000 -4.201966
endloop
endfacet
facet normal 0.000000 0.000000 1.000000
outer loop
vertex -17.500000 -26.250000 4.201966
vertex -17.500000 -35.000000 4.201966
vertex -8.750000 -35.000000 4.201966
endloop
endfacet
facet normal 0.000000 -1.000000 0.000000
outer loop
vertex 35.000000 -35.000000 4.201966
vertex 26.250000 -35.000000 4.201966
vertex 26.250000 -35.000000 -4.201966
endloop
endfacet
facet normal 0.000000 0.000000 1.000000
outer loop
vertex 26.250000 -26.250000 4.201966
vertex 26.250000 -35.000000 4.201966
vertex 35.000000 -35.000000 4.201966
endloop
endfacet
facet normal 0.000000 1.000000 0.000000
outer loop
vertex 17.500000 35.000000 4.201966
vertex 26.250000 35.000000 4.201966
vertex 26.250000 35.000000 -4.201966
endloop
endfacet
facet normal 0.000000 0.000000 -1.000000
outer loop
vertex 26.250000 -26.250000 -4.201966
vertex 26.250000 -35.000000 -4.201966
vertex 17.500000 -35.000000 -4.201966
endloop
endfacet
facet normal 0.000000 0.000000 -1.000000
outer loop
vertex 8.750000 -26.250000 -4.201966
vertex 8.750000 -35.000000 -4.201966
vertex 0.000000 -35.000000 -4.201966
endloop
endfacet
facet normal 0.000000 1.000000 0.000000
outer loop
vertex 0.000000 35.000000 4.201966
vertex 8.750000 35.000000 4.201966
vertex 8.750000 35.000000 -4.201966
endloop
endfacet
facet normal 0.000000 0.000000 1.000000
outer loop
vertex 8.750000 -26.250000 4.201966
vertex 8.750000 -35.000000 4.201966
vertex 17.500000 -35.000000 4.201966
endloop
endfacet
facet normal 0.000000 -1.000000 0.000000
outer loop
vertex 17.500000 -35.000000 4.201966
vertex 8.750000 -35.000000 4.201966
vertex 8.750000 -35.000000 -4.201966
endloop
endfacet
facet normal 0.000000 0.000000 1.000000
outer loop
vertex -8.750000 -26.250000 4.201966
vertex -8.750000 -35.000000 4.201966
vertex 0.000000 -35.000000 4.201966
endloop
endfacet
facet normal 0.000000 -1.000000 0.000000
outer loop
vertex 0.000000 -35.000000 4.201966
vertex -8.750000 -35.000000 4.201966
vertex -8.750000 -35.000000 -4.201966
endloop
endfacet
facet normal 0.000000 0.000000 -1.000000
outer loop
vertex -8.750000 -26.250000 -4.201966
vertex -8.750000 -35.000000 -4.201966
vertex -17.500000 -35.000000 -4.201966
endloop
endfacet
facet normal 0.000000 1.000000 0.000000
outer loop
vertex -17.500000 35.000000 4.201966
vertex -8.750000 35.000000 4.201966
vertex -8.750000 35.000000 -4.201966
endloop
endfacet
facet normal 0.000000 1.000000 0.000000
outer loop
vertex -35.000000 35.000000 4.201966
vertex -26.250000 35.000000 4.201966
vertex -26.250000 35.000000 -4.201966
endloop
endfacet
facet normal 0.000000 0.000000 -1.000000
outer loop
vertex -26.250000 -26.250000 -4.201966
vertex -26.250000 -35.000000 -4.201966
vertex -35.000000 -35.000000 -4.201966
endloop
endfacet
facet normal 0.000000 -1.000000 0.000000
outer loop
vertex -17.500000 -35.000000 4.201966
vertex -26.250000 -35.000000 4.201966
vertex -26.250000 -35.000000 -4.201966
endloop
endfacet
facet normal 0.000000 0.000000 1.000000
outer loop
vertex -26.250000 -26.250000 4.201966
vertex -26.250000 -35.000000 4.201966
vertex -17.500000 -35.000000 4.201966
endloop
endfacet
facet normal 0.000000 0.000000 1.000000
outer loop
vertex -26.250000 8.750000 4.201966
vertex -26.250000 0.000000 4.201966
vertex -17.500000 0.000000 4.201966
endloop
endfacet
facet normal 0.000000 0.000000 -1.000000
outer loop
vertex -26.250000 8.750000 -4.201966
vertex -26.250000 0.000000 -4.201966
vertex -35.000000 0.000000 -4.201966
endloop
endfacet
facet normal 0.000000 0.000000 -1.000000
outer loop
vertex -8.750000 8.750000 -4.201966
vertex -8.750000 0.000000 -4.201966
vertex -17.500000 0.000000 -4.201966
endloop
endfacet
facet normal 0.000000 0.000000 1.000000
outer loop
vertex -8.750000 8.750000 4.201966
vertex -8.750000 0.000000 4.201966
vertex 0.000000 0.000000 4.201966
endloop
endfacet
facet normal 0.000000 0.000000 1.000000
outer loop
vertex 8.750000 8.750000 4.201966
vertex 8.750000 0.000000 4.201966
vertex 17.500000 0.000000 4.201966
endloop
endfacet
facet normal 0.000000 0.000000 -1.000000
outer loop
vertex 8.750000 8.750000 -4.201966
vertex 8.750000 0.000000 -4.201966
vertex 0.000000 0.000000 -4.201966
endloop
endfacet
facet normal 0.000000 0.000000 -1.000000
outer loop
vertex 26.250000 8.750000 -4.201966
vertex 26.250000 0.000000 -4.201966
vertex 17.500000 0.000000 -4.201966
endloop
endfacet
facet normal 0.000000 0.000000 1.000000
outer loop
vertex 26.250000 8.750000 4.201966
vertex 26.250000 0.000000 4.201966
vertex 35.000000 0.000000 4.201966
endloop
endfacet
facet normal 0.000000 0.000000 1.000000
outer loop
vertex -17.500000 8.750000 4.201966
vertex -17.500000 0.000000 4.201966
vertex -8.750000 0.000000 4.201966
endloop
endfacet
facet normal 0.000000 0.000000 -1.000000
outer loop
vertex -17.500000 8.750000 -4.201966
vertex -17.500000 0.000000 -4.201966
vertex -26.250000 0.000000 -4.201966
endloop
endfacet
facet normal 0.000000 0.000000 -1.000000
outer loop
vertex 17.500000 8.750000 -4.201966
vertex 17.500000 0.000000 -4.201966
vertex 8.750000 0.000000 -4.201966
endloop
endfacet
facet normal 0.000000 0.000000 1.000000
outer loop
vertex 17.500000 8.750000 4.201966
vertex 17.500000 0.000000 4.201966
vertex 26.250000 0.000000 4.201966
endloop
endfacet
facet normal 0.000000 0.000000 1.000000
outer loop
vertex 0.000000 8.750000 4.201966
vertex 0.000000 0.000000 4.201966
vertex 8.750000 0.000000 4.201966
endloop
endfacet
facet normal 0.000000 0.000000 -1.000000
outer loop
vertex 0.000000 8.750000 -4.201966
vertex 0.000000 0.000000 -4.201966
vertex -8.750000 0.000000 -4.201966
endloop
endfacet
facet normal 1.000000 0.000000 0.000000
outer loop
vertex 35.000000 8.750000 4.201966
vertex 35.000000 0.000000 4.201966
vertex 35.000000 0.000000 -4.201966
endloop
endfacet
facet normal 0.000000 0.000000 -1.000000
outer loop
vertex 35.000000 8.750000 -4.201966
vertex 35.000000 0.000000 -4.201966
vertex 26.250000 0.000000 -4.201966
endloop
endfacet
facet normal -1.000000 0.000000 0.000000
outer loop
vertex -35.000000 -8.750000 4.201966
vertex -35.000000 0.000000 4.201966
vertex -35.000000 0.000000 -4.201966
endloop
endfacet
facet normal 0.000000 0.000000 1.000000
outer loop
vertex -35.000000 8.750000 4.201966
vertex -35.000000 0.000000 4.201966
vertex -26.250000 0.000000 4.201966
endloop
endfacet
facet normal 0.000000 0.000000 1.000000
outer loop
vertex -35.000000 26.250000 4.201966
vertex -35.000000 17.500000 4.201966
vertex -26.250000 17.500000 4.201966
endloop
endfacet
facet normal 0.000000 0.000000 -1.000000
outer loop
vertex 35.000000 26.250000 -4.201966
vertex 35.000000 17.500000 -4.201966
vertex 26.250000 17.500000 -4.201966
endloop
endfacet
facet normal 1.000000 0.000000 0.000000
outer loop
vertex 35.000000 26.250000 4.201966
vertex 35.000000 17.500000 4.201966
vertex 35.000000 17.500000 -4.201966
endloop
endfacet
facet normal 0.000000 0.000000 -1.000000
outer loop
vertex 0.000000 26.250000 -4.201966
vertex 0.000000 17.500000 -4.201966
vertex -8.750000 17.500000 -4.201966
endloop
endfacet
facet normal 0.000000 0.000000 1.000000
outer loop
vertex 0.000000 26.250000 4.201966
vertex 0.000000 17.500000 4.201966
vertex 8.750000 17.500000 4.201966
endloop
endfacet
facet normal 0.000000 0.000000 1.000000
outer loop
vertex 17.500000 26.250000 4.201966
vertex 17.500000 17.500000 4.201966
vertex 26.250000 17.500000 4.201966
endloop
endfacet
facet normal 0.000000 0.000000 -1.000000
outer loop
vertex 17.500000 26.250000 -4.201966
vertex 17.500000 17.500000 -4.201966
vertex 8.750000 17.500000 -4.201966
endloop
endfacet
facet normal 0.000000 0.000000 -1.000000
outer loop
vertex -17.500000 26.250000 -4.201966
vertex -17.500000 17.500000 -4.201966
vertex -26.250000 17.500000 -4.201966
endloop
endfacet
facet normal 0.000000 0.000000 1.000000
outer loop
vertex -17.500000 26.250000 4.201966
vertex -17.500000 17.500000 4.201966
vertex -8.750000 17.500000 4.201966
endloop
endfacet
facet normal 0.000000 0.000000 1.000000
outer loop
vertex 26.250000 26.250000 4.201966
vertex 26.250000 17.500000 4.201966
vertex 35.000000 17.500000 4.201966
endloop
endfacet
facet normal 0.000000 0.000000 -1.000000
outer loop
vertex 26.250000 26.250000 -4.201966
vertex 26.250000 17.500000 -4.201966
vertex 17.500000 17.500000 -4.201966
endloop
endfacet
facet normal 0.000000 0.000000 -1.000000
outer loop
vertex 8.750000 26.250000 -4.201966
vertex 8.750000 17.500000 -4.201966
vertex 0.000000 17.500000 -4.201966
endloop
endfacet
facet normal 0.000000 0.000000 1.000000
outer loop
vertex 8.750000 26.250000 4.201966
vertex 8.750000 17.500000 4.201966
vertex 17.500000 17.500000 4.201966
endloop
endfacet
facet normal 0.000000 0.000000 1.000000
outer loop
vertex -8.750000 26.250000 4.201966
vertex -8.750000 17.500000 4.201966
vertex 0.000000 17.500000 4.201966
endloop
endfacet
facet normal 0.000000 0.000000 -1.000000
outer loop
vertex -8.750000 26.250000 -4.201966
vertex -8.750000 17.500000 -4.201966
vertex -17.500000 17.500000 -4.201966
endloop
endfacet
facet normal 0.000000 0.000000 -1.000000
outer loop
vertex -26.250000 26.250000 -4.201966
vertex -26.250000 17.500000 -4.201966
vertex -35.000000 17.500000 -4.201966
endloop
endfacet
facet normal 0.000000 0.000000 1.000000
outer loop
vertex -26.250000 26.250000 4.201966
vertex -26.250000 17.500000 4.201966
vertex -17.500000 17.500000 4.201966
endloop
endfacet
facet normal -1.000000 0.000000 0.000000
outer loop
vertex -35.000000 8.750000 4.201966
vertex -35.000000 17.500000 4.201966
vertex -35.000000 17.500000 -4.201966
endloop
endfacet
facet normal -1.000000 0.000000 0.000000
outer loop
vertex -35.000000 -26.250000 4.201966
vertex -35.000000 -17.500000 4.201966
vertex -35.000000 -17.500000 -4.201966
endloop
endfacet
facet normal 0.000000 0.000000 1.000000
outer loop
vertex -26.250000 -8.750000 4.201966
vertex -26.250000 -17.500000 4.201966
vertex -17.500000 -17.500000 4.201966
endloop
endfacet
facet normal 0.000000 0.000000 -1.000000
outer loop
vertex -26.250000 -8.750000 -4.201966
vertex -26.250000 -17.500000 -4.201966
vertex -35.000000 -17.500000 -4.201966
endloop
endfacet
facet normal 0.000000 0.000000 -1.000000
outer loop
vertex -8.750000 -8.750000 -4.201966
vertex -8.750000 -17.500000 -4.201966
vertex -17.500000 -17.500000 -4.201966
endloop
endfacet
facet normal 0.000000 0.000000 1.000000
outer loop
vertex -8.750000 -8.750000 4.201966
vertex -8.750000 -17.500000 4.201966
vertex 0.000000 -17.500000 4.201966
endloop
endfacet
facet normal 0.000000 0.000000 1.000000
outer loop
vertex 8.750000 -8.750000 4.201966
vertex 8.750000 -17.500000 4.201966
vertex 17.500000 -17.500000 4.201966
endloop
endfacet
facet normal 0.000000 0.000000 -1.000000
outer loop
vertex 8.750000 -8.750000 -4.201966
vertex 8.750000 -17.500000 -4.201966
vertex 0.000000 -17.500000 -4.201966
endloop
endfacet
facet normal 0.000000 0.000000 -1.000000
outer loop
vertex 26.250000 -8.750000 -4.201966
vertex 26.250000 -17.500000 -4.201966
vertex 17.500000 -17.500000 -4.201966
endloop
endfacet
facet normal 0.000000 0.000000 1.000000
outer loop
vertex 26.250000 -8.750000 4.201966
vertex 26.250000 -17.500000 4.201966
vertex 35.000000 -17.500000 4.201966
endloop
endfacet
facet normal 0.000000 0.000000 1.000000
outer loop
vertex -17.500000 -8.750000 4.201966
vertex -17.500000 -17.500000 4.201966
vertex -8.750000 -17.500000 4.201966
endloop
endfacet
facet normal 0.000000 0.000000 -1.000000
outer loop
vertex -17.500000 -8.750000 -4.201966
vertex -17.500000 -17.500000 -4.201966
vertex -26.250000 -17.500000 -4.201966
endloop
endfacet
facet normal 0.000000 0.000000 -1.000000
outer loop
vertex 17.500000 -8.750000 -4.201966
vertex 17.500000 -17.500000 -4.201966
vertex 8.750000 -17.500000 -4.201966
endloop
endfacet
facet normal 0.000000 0.000000 1.000000
outer loop
vertex 17.500000 -8.750000 4.201966
vertex 17.500000 -17.500000 4.201966
vertex 26.250000 -17.500000 4.201966
endloop
endfacet
facet normal 0.000000 0.000000 1.000000
outer loop
vertex 0.000000 -8.750000 4.201966
vertex 0.000000 -17.500000 4.201966
vertex 8.750000 -17.500000 4.201966
endloop
endfacet
facet normal 0.000000 0.000000 -1.000000
outer loop
vertex 0.000000 -8.750000 -4.201966
vertex 0.000000 -17.500000 -4.201966
vertex -8.750000 -17.500000 -4.201966
endloop
endfacet
facet normal 1.000000 0.000000 0.000000
outer loop
vertex 35.000000 -8.750000 4.201966
vertex 35.000000 -17.500000 4.201966
vertex 35.000000 -17.500000 -4.201966
endloop
endfacet
facet normal 0.000000 0.000000 -1.000000
outer loop
vertex 35.000000 -8.750000 -4.201966
vertex 35.000000 -17.500000 -4.201966
vertex 26.250000 -17.500000 -4.201966
endloop
endfacet
facet normal 0.000000 0.000000 1.000000
outer loop
vertex -35.000000 -8.750000 4.201966
vertex -35.000000 -17.500000 4.201966
vertex -26.250000 -17.500000 4.201966
endloop
endfacet
facet normal -1.000000 0.000000 0.000000
outer loop
vertex -35.000000 -35.000000 4.201966
vertex -35.000000 -26.250000 4.201966
vertex -35.000000 -26.250000 -4.201966
endloop
endfacet
facet normal 0.000000 0.000000 1.000000
outer loop
vertex -26.250000 -17.500000 4.201966
vertex -26.250000 -26.250000 4.201966
vertex -17.500000 -26.250000 4.201966
endloop
endfacet
facet normal 0.000000 0.000000 -1.000000
outer loop
vertex -26.250000 -17.500000 -4.201966
vertex -26.250000 -26.250000 -4.201966
vertex -35.000000 -26.250000 -4.201966
endloop
endfacet
facet normal 0.000000 0.000000 -1.000000
outer loop
vertex -8.750000 -17.500000 -4.201966
vertex -8.750000 -26.250000 -4.201966
vertex -17.500000 -26.250000 -4.201966
endloop
endfacet
facet normal 0.000000 0.000000 1.000000
outer loop
vertex -8.750000 -17.500000 4.201966
vertex -8.750000 -26.250000 4.201966
vertex 0.000000 -26.250000 4.201966
endloop
endfacet
facet normal 0.000000 0.000000 1.000000
outer loop
vertex 8.750000 -17.500000 4.201966
vertex 8.750000 -26.250000 4.201966
vertex 17.500000 -26.250000 4.201966
endloop
endfacet
facet normal 0.000000 0.000000 -1.000000
outer loop
vertex 8.750000 -17.500000 -4.201966
vertex 8.750000 -26.250000 -4.201966
vertex 0.000000 -26.250000 -4.201966
endloop
endfacet
facet normal 0.000000 0.000000 -1.000000
outer loop
vertex 26.250000 -17.500000 -4.201966
vertex 26.250000 -26.250000 -4.201966
vertex 17.500000 -26.250000 -4.201966
endloop
endfacet
facet normal 0.000000 0.000000 1.000000
outer loop
vertex 26.250000 -17.500000 4.201966
vertex 26.250000 -26.250000 4.201966
vertex 35.000000 -26.250000 4.201966
endloop
endfacet
facet normal 0.000000 0.000000 1.000000
outer loop
vertex -17.500000 -17.500000 4.201966
vertex -17.500000 -26.250000 4.201966
vertex -8.750000 -26.250000 4.201966
endloop
endfacet
facet normal 0.000000 0.000000 -1.000000
outer loop
vertex -17.500000 -17.500000 -4.201966
vertex -17.500000 -26.250000 -4.201966
vertex -26.250000 -26.250000 -4.201966
endloop
endfacet
facet normal 0.000000 0.000000 -1.000000
outer loop
vertex 17.500000 -17.500000 -4.201966
vertex 17.500000 -26.250000 -4.201966
vertex 8.750000 -26.250000 -4.201966
endloop
endfacet
facet normal 0.000000 0.000000 1.000000
outer loop
vertex 17.500000 -17.500000 4.201966
vertex 17.500000 -26.250000 4.201966
vertex 26.250000 -26.250000 4.201966
endloop
endfacet
facet normal 0.000000 0.000000 1.000000
outer loop
vertex 0.000000 -17.500000 4.201966
vertex 0.000000 -26.250000 4.201966
vertex 8.750000 -26.250000 4.201966
endloop
endfacet
facet normal 0.000000 0.000000 -1.000000
outer loop
vertex 0.000000 -17.500000 -4.201966
vertex 0.000000 -26.250000 -4.201966
vertex -8.750000 -26.250000 -4.201966
endloop
endfacet
facet normal 1.000000 0.000000 0.000000
outer loop
vertex 35.000000 -17.500000 4.201966
vertex 35.000000 -26.250000 4.201966
vertex 35.000000 -26.250000 -4.201966
endloop
endfacet
facet normal 0.000000 0.000000 -1.000000
outer loop
vertex 35.000000 -17.500000 -4.201966
vertex 35.000000 -26.250000 -4.201966
vertex 26.250000 -26.250000 -4.201966
endloop
endfacet
facet normal 0.000000 0.000000 1.000000
outer loop
vertex -35.000000 -17.500000 4.201966
vertex -35.000000 -26.250000 4.201966
vertex -26.250000 -26.250000 4.201966
endloop
endfacet
facet normal 0.000000 0.000000 1.000000
outer loop
vertex -35.000000 0.000000 4.201966
vertex -35.000000 -8.750000 4.201966
vertex -26.250000 -8.750000 4.201966
endloop
endfacet
facet normal 0.000000 0.000000 -1.000000
outer loop
vertex 35.000000 0.000000 -4.201966
vertex 35.000000 -8.750000 -4.201966
vertex 26.250000 -8.750000 -4.201966
endloop
endfacet
facet normal 1.000000 0.000000 0.000000
outer loop
vertex 35.000000 0.000000 4.201966
vertex 35.000000 -8.750000 4.201966
vertex 35.000000 -8.750000 -4.201966
endloop
endfacet
facet normal 0.000000 0.000000 -1.000000
outer loop
vertex 0.000000 0.000000 -4.201966
vertex 0.000000 -8.750000 -4.201966
vertex -8.750000 -8.750000 -4.201966
endloop
endfacet
facet normal 0.000000 0.000000 1.000000
outer loop
vertex 0.000000 0.000000 4.201966
vertex 0.000000 -8.750000 4.201966
vertex 8.750000 -8.750000 4.201966
endloop
endfacet
facet normal 0.000000 0.000000 1.000000
outer loop
vertex 17.500000 0.000000 4.201966
vertex 17.500000 -8.750000 4.201966
vertex 26.250000 -8.750000 4.201966
endloop
endfacet
facet normal 0.000000 0.000000 -1.000000
outer loop
vertex 17.500000 0.000000 -4.201966
vertex 17.500000 -8.750000 -4.201966
vertex 8.750000 -8.750000 -4.201966
endloop
endfacet
facet normal 0.000000 0.000000 -1.000000
outer loop
vertex -17.500000 0.000000 -4.201966
vertex -17.500000 -8.750000 -4.201966
vertex -26.250000 -8.750000 -4.201966
endloop
endfacet
facet normal 0.000000 0.000000 1.000000
outer loop
vertex -17.500000 0.000000 4.201966
vertex -17.500000 -8.750000 4.201966
vertex -8.750000 -8.750000 4.201966
endloop
endfacet
facet normal 0.000000 0.000000 1.000000
outer loop
vertex 26.250000 0.000000 4.201966
vertex 26.250000 -8.750000 4.201966
vertex 35.000000 -8.750000 4.201966
endloop
endfacet
facet normal 0.000000 0.000000 -1.000000
outer loop
vertex 26.250000 0.000000 -4.201966
vertex 26.250000 -8.750000 -4.201966
vertex 17.500000 -8.750000 -4.201966
endloop
endfacet
facet normal 0.000000 0.000000 -1.000000
outer loop
vertex 8.750000 0.000000 -4.201966
vertex 8.750000 -8.750000 -4.201966
vertex 0.000000 -8.750000 -4.201966
endloop
endfacet
facet normal 0.000000 0.000000 1.000000
outer loop
vertex 8.750000 0.000000 4.201966
vertex 8.750000 -8.750000 4.201966
vertex 17.500000 -8.750000 4.201966
endloop
endfacet
facet normal 0.000000 0.000000 1.000000
outer loop
vertex -8.750000 0.000000 4.201966
vertex -8.750000 -8.750000 4.201966
vertex 0.000000 -8.750000 4.201966
endloop
endfacet
facet normal 0.000000 0.000000 -1.000000
outer loop
vertex -8.750000 0.000000 -4.201966
vertex -8.750000 -8.750000 -4.201966
vertex -17.500000 -8.750000 -4.201966
endloop
endfacet
facet normal 0.000000 0.000000 -1.000000
outer loop
vertex -26.250000 0.000000 -4.201966
vertex -26.250000 -8.750000 -4.201966
vertex -35.000000 -8.750000 -4.201966
endloop
endfacet
facet normal 0.000000 0.000000 1.000000
outer loop
vertex -26.250000 0.000000 4.201966
vertex -26.250000 -8.750000 4.201966
vertex -17.500000 -8.750000 4.201966
endloop
endfacet
facet normal -1.000000 0.000000 0.000000
outer loop
vertex -35.000000 -17.500000 4.201966
vertex -35.000000 -8.750000 4.201966
vertex -35.000000 -8.750000 -4.201966
endloop
endfacet
facet normal -1.000000 0.000000 0.000000
outer loop
vertex -35.000000 0.000000 4.201966
vertex -35.000000 8.750000 4.201966
vertex -35.000000 8.750000 -4.201966
endloop
endfacet
facet normal 0.000000 0.000000 1.000000
outer loop
vertex -35.000000 17.500000 4.201966
vertex -35.000000 8.750000 4.201966
vertex -26.250000 8.750000 4.201966
endloop
endfacet
facet normal 0.000000 0.000000 -1.000000
outer loop
vertex 35.000000 17.500000 -4.201966
vertex 35.000000 8.750000 -4.201966
vertex 26.250000 8.750000 -4.201966
endloop
endfacet
facet normal 1.000000 0.000000 0.000000
outer loop
vertex 35.000000 17.500000 4.201966
vertex 35.000000 8.750000 4.201966
vertex 35.000000 8.750000 -4.201966
endloop
endfacet
facet normal 0.000000 0.000000 -1.000000
outer loop
vertex 0.000000 17.500000 -4.201966
vertex 0.000000 8.750000 -4.201966
vertex -8.750000 8.750000 -4.201966
endloop
endfacet
facet normal 0.000000 0.000000 1.000000
outer loop
vertex 0.000000 17.500000 4.201966
vertex 0.000000 8.750000 4.201966
vertex 8.750000 8.750000 4.201966
endloop
endfacet
facet normal 0.000000 0.000000 1.000000
outer loop
vertex 17.500000 17.500000 4.201966
vertex 17.500000 8.750000 4.201966
vertex 26.250000 8.750000 4.201966
endloop
endfacet
facet normal 0.000000 0.000000 -1.000000
outer loop
vertex 17.500000 17.500000 -4.201966
vertex 17.500000 8.750000 -4.201966
vertex 8.750000 8.750000 -4.201966
endloop
endfacet
facet normal 0.000000 0.000000 -1.000000
outer loop
vertex -17.500000 17.500000 -4.201966
vertex -17.500000 8.750000 -4.201966
vertex -26.250000 8.750000 -4.201966
endloop
endfacet
facet normal 0.000000 0.000000 1.000000
outer loop
vertex -17.500000 17.500000 4.201966
vertex -17.500000 8.750000 4.201966
vertex -8.750000 8.750000 4.201966
endloop
endfacet
facet normal 0.000000 0.000000 1.000000
outer loop
vertex 26.250000 17.500000 4.201966
vertex 26.250000 8.750000 4.201966
vertex 35.000000 8.750000 4.201966
endloop
endfacet
facet normal 0.000000 0.000000 -1.000000
outer loop
vertex 26.250000 17.500000 -4.201966
vertex 26.250000 8.750000 -4.201966
vertex 17.500000 8.750000 -4.201966
endloop
endfacet
facet normal 0.000000 0.000000 -1.000000
outer loop
vertex 8.750000 17.500000 -4.201966
vertex 8.750000 8.750000 -4.201966
vertex 0.000000 8.750000 -4.201966
endloop
endfacet
facet normal 0.000000 0.000000 1.000000
outer loop
vertex 8.750000 17.500000 4.201966
vertex 8.750000 8.750000 4.201966
vertex 17.500000 8.750000 4.201966
endloop
endfacet
facet normal 0.000000 0.000000 1.000000
outer loop
vertex -8.750000 17.500000 4.201966
vertex -8.750000 8.750000 4.201966
vertex 0.000000 8.750000 4.201966
endloop
endfacet
facet normal 0.000000 0.000000 -1.000000
outer loop
vertex -8.750000 17.500000 -4.201966
vertex -8.750000 8.750000 -4.201966
vertex -17.500000 8.750000 -4.201966
endloop
endfacet
facet normal 0.000000 0.000000 -1.000000
outer loop
vertex -26.250000 17.500000 -4.201966
vertex -26.250000 8.750000 -4.201966
vertex -35.000000 8.750000 -4.201966
endloop
endfacet
facet normal 0.000000 0.000000 1.000000
outer loop
vertex -26.250000 17.500000 4.201966
vertex -26.250000 8.750000 4.201966
vertex -17.500000 8.750000 4.201966
endloop
endfacet
facet normal 0.000000 0.000000 1.000000
outer loop
vertex -26.250000 35.000000 4.201966
vertex -26.250000 26.250000 4.201966
vertex -17.500000 26.250000 4.201966
endloop
endfacet
facet normal 0.000000 0.000000 -1.000000
outer loop
vertex -26.250000 35.000000 -4.201966
vertex -26.250000 26.250000 -4.201966
vertex -35.000000 26.250000 -4.201966
endloop
endfacet
facet normal 0.000000 0.000000 -1.000000
outer loop
vertex -8.750000 35.000000 -4.201966
vertex -8.750000 26.250000 -4.201966
vertex -17.500000 26.250000 -4.201966
endloop
endfacet
facet normal 0.000000 0.000000 1.000000
outer loop
vertex -8.750000 35.000000 4.201966
vertex -8.750000 26.250000 4.201966
vertex 0.000000 26.250000 4.201966
endloop
endfacet
facet normal 0.000000 0.000000 1.000000
outer loop
vertex 8.750000 35.000000 4.201966
vertex 8.750000 26.250000 4.201966
vertex 17.500000 26.250000 4.201966
endloop
endfacet
facet normal 0.000000 0.000000 -1.000000
outer loop
vertex 8.750000 35.000000 -4.201966
vertex 8.750000 26.250000 -4.201966
vertex 0.000000 26.250000 -4.201966
endloop
endfacet
facet normal 0.000000 0.000000 -1.000000
outer loop
vertex 26.250000 35.000000 -4.201966
vertex 26.250000 26.250000 -4.201966
vertex 17.500000 26.250000 -4.201966
endloop
endfacet
facet normal 0.000000 0.000000 1.000000
outer loop
vertex 26.250000 35.000000 4.201966
vertex 26.250000 26.250000 4.201966
vertex 35.000000 26.250000 4.201966
endloop
endfacet
facet normal 0.000000 0.000000 1.000000
outer loop
vertex -17.500000 35.000000 4.201966
vertex -17.500000 26.250000 4.201966
vertex -8.750000 26.250000 4.201966
endloop
endfacet
facet normal 0.000000 0.000000 -1.000000
outer loop
vertex -17.500000 35.000000 -4.201966
vertex -17.500000 26.250000 -4.201966
vertex -26.250000 26.250000 -4.201966
endloop
endfacet
facet normal 0.000000 0.000000 -1.000000
outer loop
vertex 17.500000 35.000000 -4.201966
vertex 17.500000 26.250000 -4.201966
vertex 8.750000 26.250000 -4.201966
endloop
endfacet
facet normal 0.000000 0.000000 1.000000
outer loop
vertex 17.500000 35.000000 4.201966
vertex 17.500000 26.250000 4.201966
vertex 26.250000 26.250000 4.201966
endloop
endfacet
facet normal 0.000000 0.000000 1.000000
outer loop
vertex 0.000000 35.000000 4.201966
vertex 0.000000 26.250000 4.201966
vertex 8.750000 26.250000 4.201966
endloop
endfacet
facet normal 0.000000 0.000000 -1.000000
outer loop
vertex 0.000000 35.000000 -4.201966
vertex 0.000000 26.250000 -4.201966
vertex -8.750000 26.250000 -4.201966
endloop
endfacet
facet normal 1.000000 0.000000 0.000000
outer loop
vertex 35.000000 35.000000 4.201966
vertex 35.000000 26.250000 4.201966
vertex 35.000000 26.250000 -4.201966
endloop
endfacet
facet normal 0.000000 0.000000 -1.000000
outer loop
vertex 35.000000 35.000000 -4.201966
vertex 35.000000 26.250000 -4.201966
vertex 26.250000 26.250000 -4.201966
endloop
endfacet
facet normal 0.000000 0.000000 1.000000
outer loop
vertex -35.000000 35.000000 4.201966
vertex -35.000000 26.250000 4.201966
vertex -26.250000 26.250000 4.201966
endloop
endfacet
facet normal -1.000000 0.000000 0.000000
outer loop
vertex -35.000000 17.500000 4.201966
vertex -35.000000 26.250000 4.201966
vertex -35.000000 26.250000 -4.201966
endloop
endfacet
endsolid Exported from Blender-2.82 (sub 7)
