solid Exported from Blender-2.79 (sub 0)
facet normal 0.952248 -0.015115 -0.304950
outer loop
vertex -1.705830 2.553159 -1.052640
vertex -0.299870 0.545215 3.437186
vertex -1.747891 -2.335218 -0.941679
endloop
endfacet
facet normal -0.758723 -0.651402 -0.003802
outer loop
vertex -0.299870 0.545215 3.437186
vertex -0.414945 0.699413 -0.017217
vertex -0.004850 0.214957 1.146975
endloop
endfacet
facet normal -0.708006 0.680358 -0.189314
outer loop
vertex -0.414945 -0.535748 -0.017217
vertex -0.299870 0.545215 3.437186
vertex -0.004850 0.214957 1.146975
endloop
endfacet
facet normal -0.569899 0.000000 0.821715
outer loop
vertex -0.414945 0.699413 -0.017217
vertex -1.747891 -2.335218 -0.941679
vertex -0.414945 -0.535748 -0.017217
endloop
endfacet
facet normal -0.254054 0.844483 -0.471492
outer loop
vertex 4.072006 -0.178082 -0.214002
vertex -1.747891 -2.335218 -0.941679
vertex -0.299870 0.545215 3.437186
endloop
endfacet
facet normal 0.161055 -0.542774 0.824292
outer loop
vertex -1.747891 -2.335218 -0.941679
vertex 1.311271 0.093661 0.059952
vertex -0.414945 -0.535748 -0.017217
endloop
endfacet
facet normal -0.604977 0.023272 0.795903
outer loop
vertex -0.414945 0.699413 -0.017217
vertex -1.705830 2.553159 -1.052640
vertex -1.747891 -2.335218 -0.941679
endloop
endfacet
facet normal 0.029810 -0.988773 0.146425
outer loop
vertex 1.311271 0.093661 0.059952
vertex -0.299870 0.545215 3.437186
vertex -0.004850 0.214957 1.146975
endloop
endfacet
facet normal -0.377497 -0.883622 -0.276964
outer loop
vertex -0.299870 0.545215 3.437186
vertex -1.705830 2.553159 -1.052640
vertex 4.072006 -0.178082 -0.214002
endloop
endfacet
facet normal -0.745480 0.642787 -0.176309
outer loop
vertex -0.414945 -0.535748 -0.017217
vertex -1.747891 -2.335218 -0.941679
vertex -0.299870 0.545215 3.437186
endloop
endfacet
facet normal 0.162020 0.564793 0.809171
outer loop
vertex 1.311271 0.093661 0.059952
vertex -1.705830 2.553159 -1.052640
vertex -0.414945 0.699413 -0.017217
endloop
endfacet
facet normal -0.821120 -0.570752 0.001876
outer loop
vertex -0.299870 0.545215 3.437186
vertex -1.705830 2.553159 -1.052640
vertex -0.414945 0.699413 -0.017217
endloop
endfacet
facet normal -0.132652 0.023633 0.990881
outer loop
vertex -1.747891 -2.335218 -0.941679
vertex 4.072006 -0.178082 -0.214002
vertex -1.705830 2.553159 -1.052640
endloop
endfacet
facet normal -0.088677 -0.991957 0.090326
outer loop
vertex 1.311271 0.093661 0.059952
vertex 4.072006 -0.178082 -0.214002
vertex -0.299870 0.545215 3.437186
endloop
endfacet
facet normal 0.135638 0.541663 0.829580
outer loop
vertex 1.311271 0.093661 0.059952
vertex 4.072006 -0.178082 -0.214002
vertex -1.705830 2.553159 -1.052640
endloop
endfacet
facet normal 0.047018 -0.430857 0.901194
outer loop
vertex -1.747891 -2.335218 -0.941679
vertex 4.072006 -0.178082 -0.214002
vertex 1.311271 0.093661 0.059952
endloop
endfacet
facet normal -0.307912 -0.911990 -0.271043
outer loop
vertex -0.004850 0.214957 1.146975
vertex -0.414945 0.699413 -0.017217
vertex 1.311271 0.093661 0.059952
endloop
endfacet
facet normal -0.289199 0.847685 -0.444739
outer loop
vertex -0.414945 -0.535748 -0.017217
vertex -0.004850 0.214957 1.146975
vertex 1.311271 0.093661 0.059952
endloop
endfacet
facet normal 0.943193 0.000000 -0.332246
outer loop
vertex -0.414945 0.699413 -0.017217
vertex -0.004850 0.214957 1.146975
vertex -0.414945 -0.535748 -0.017217
endloop
endfacet
facet normal -0.044660 0.000000 0.999002
outer loop
vertex -0.414945 0.699413 -0.017217
vertex -0.414945 -0.535748 -0.017217
vertex 1.311271 0.093661 0.059952
endloop
endfacet
endsolid Exported from Blender-2.79 (sub 0)
