solid Exported from Blender-2.79 (sub 0)
facet normal 0.310154 0.929765 -0.198345
outer loop
vertex 1.784426 1.687727 0.176576
vertex 1.226825 1.740657 -0.447232
vertex 1.216110 1.870943 0.146743
endloop
endfacet
facet normal 0.018525 -0.814038 -0.580517
outer loop
vertex 1.315678 -0.801832 -1.287336
vertex 0.726281 -1.102252 -0.884875
vertex 0.723328 -0.745835 -1.384761
endloop
endfacet
facet normal -0.185844 -0.553884 0.811587
outer loop
vertex 1.278092 -0.515558 1.306279
vertex 0.703700 -0.985614 0.853951
vertex 1.296050 -1.041611 0.951375
endloop
endfacet
facet normal 0.220105 0.551756 -0.804437
outer loop
vertex 1.810780 1.309519 -0.982771
vertex 1.265006 0.969518 -1.365306
vertex 1.242464 1.492735 -1.012604
endloop
endfacet
facet normal -0.117823 0.362273 0.924595
outer loop
vertex 1.227092 1.276075 1.203267
vertex 0.650465 0.744909 1.337907
vertex 1.242814 0.688912 1.435332
endloop
endfacet
facet normal 0.185357 0.396183 -0.899267
outer loop
vertex 1.265006 0.969518 -1.365306
vertex 0.694655 0.448733 -1.712305
vertex 0.672656 1.025515 -1.462731
endloop
endfacet
facet normal 0.302155 0.876057 -0.375802
outer loop
vertex 1.795141 1.557440 -0.417399
vertex 1.242464 1.492735 -1.012604
vertex 1.226825 1.740657 -0.447232
endloop
endfacet
facet normal 0.175161 0.396599 -0.901126
outer loop
vertex 1.833322 0.786302 -1.335473
vertex 1.287004 0.392736 -1.614881
vertex 1.265006 0.969518 -1.365306
endloop
endfacet
facet normal -0.219819 -0.550741 0.805210
outer loop
vertex 1.846408 -0.698775 1.336112
vertex 1.296050 -1.041611 0.951375
vertex 1.864366 -1.224828 0.981208
endloop
endfacet
facet normal 0.119534 -0.351209 -0.928635
outer loop
vertex 1.303007 -0.220154 -1.508958
vertex 0.723328 -0.745835 -1.384761
vertex 0.710658 -0.164157 -1.606382
endloop
endfacet
facet normal -0.226254 -0.793746 -0.564603
outer loop
vertex 1.883994 -0.985049 -1.257503
vertex 1.318630 -1.158250 -0.787450
vertex 1.315678 -0.801832 -1.287336
endloop
endfacet
facet normal 0.007957 0.184701 0.982763
outer loop
vertex 1.811130 0.505695 1.465164
vertex 1.259619 0.067761 1.551935
vertex 1.827936 -0.115456 1.581768
endloop
endfacet
facet normal 0.126244 0.969438 -0.210365
outer loop
vertex 1.226825 1.740657 -0.447232
vertex 0.623760 1.926940 0.049318
vertex 1.216110 1.870943 0.146743
endloop
endfacet
facet normal 0.150459 0.906916 -0.393530
outer loop
vertex 1.242464 1.492735 -1.012604
vertex 0.634476 1.796654 -0.544657
vertex 1.226825 1.740657 -0.447232
endloop
endfacet
facet normal -0.148916 -0.912537 0.380920
outer loop
vertex 1.308641 -1.283972 0.375693
vertex 0.703700 -0.985614 0.853951
vertex 0.716292 -1.227975 0.278269
endloop
endfacet
facet normal -0.263636 -0.881540 -0.391642
outer loop
vertex 1.886947 -1.341466 -0.757617
vertex 1.318570 -1.406218 -0.229262
vertex 1.318630 -1.158250 -0.787450
endloop
endfacet
facet normal -0.066014 -0.356516 -0.931954
outer loop
vertex 1.871323 -0.403370 -1.479125
vertex 1.315678 -0.801832 -1.287336
vertex 1.303007 -0.220154 -1.508958
endloop
endfacet
facet normal -0.143190 0.178854 0.973400
outer loop
vertex 1.242814 0.688912 1.435332
vertex 0.667270 0.123758 1.454510
vertex 1.259619 0.067761 1.551935
endloop
endfacet
facet normal 0.144880 -0.164830 -0.975623
outer loop
vertex 1.287004 0.392736 -1.614881
vertex 0.710658 -0.164157 -1.606382
vertex 0.694655 0.448733 -1.712305
endloop
endfacet
facet normal -0.172298 -0.386947 0.905862
outer loop
vertex 1.827936 -0.115456 1.581768
vertex 1.278092 -0.515558 1.306279
vertex 1.846408 -0.698775 1.336112
endloop
endfacet
facet normal 0.185830 0.554718 -0.811021
outer loop
vertex 1.242464 1.492735 -1.012604
vertex 0.672656 1.025515 -1.462731
vertex 0.650115 1.548732 -1.110029
endloop
endfacet
facet normal -0.017478 0.817261 0.576003
outer loop
vertex 1.219553 1.629689 0.701314
vertex 0.634743 1.332072 1.105842
vertex 1.227092 1.276075 1.203267
endloop
endfacet
facet normal 0.227823 0.797618 0.558481
outer loop
vertex 1.787870 1.446472 0.731147
vertex 1.227092 1.276075 1.203267
vertex 1.795409 1.092858 1.233100
endloop
endfacet
facet normal -0.310337 -0.932769 0.183395
outer loop
vertex 1.876958 -1.467189 0.405526
vertex 1.318570 -1.406218 -0.229262
vertex 1.886886 -1.589435 -0.199429
endloop
endfacet
facet normal 0.070064 0.368282 0.927071
outer loop
vertex 1.795409 1.092858 1.233100
vertex 1.242814 0.688912 1.435332
vertex 1.811130 0.505695 1.465164
endloop
endfacet
facet normal -0.123987 -0.973018 0.194586
outer loop
vertex 1.318570 -1.406218 -0.229262
vertex 0.716292 -1.227975 0.278269
vertex 0.726221 -1.350221 -0.326687
endloop
endfacet
facet normal -0.303030 -0.880671 0.364133
outer loop
vertex 1.864366 -1.224828 0.981208
vertex 1.308641 -1.283972 0.375693
vertex 1.876958 -1.467189 0.405526
endloop
endfacet
facet normal 0.265120 0.884775 0.383257
outer loop
vertex 1.784426 1.687727 0.176576
vertex 1.219553 1.629689 0.701314
vertex 1.787870 1.446472 0.731147
endloop
endfacet
facet normal -0.185138 -0.386386 0.903565
outer loop
vertex 1.259619 0.067761 1.551935
vertex 0.685742 -0.459561 1.208854
vertex 1.278092 -0.515558 1.306279
endloop
endfacet
facet normal 0.021093 0.916831 0.398717
outer loop
vertex 1.216110 1.870943 0.146743
vertex 0.627204 1.685686 0.603889
vertex 1.219553 1.629689 0.701314
endloop
endfacet
facet normal -0.019616 -0.913705 -0.405905
outer loop
vertex 1.318630 -1.158250 -0.787450
vertex 0.726221 -1.350221 -0.326687
vertex 0.726281 -1.102252 -0.884875
endloop
endfacet
facet normal -0.003203 -0.170381 -0.985373
outer loop
vertex 1.855320 0.209520 -1.585048
vertex 1.303007 -0.220154 -1.508958
vertex 1.287004 0.392736 -1.614881
endloop
endfacet
facet normal 0.147885 -0.164678 -0.975198
outer loop
vertex 0.694655 0.448733 -1.712305
vertex -0.060389 -0.078882 -1.737708
vertex -0.076392 0.534008 -1.843632
endloop
endfacet
facet normal -0.145961 0.178707 0.973016
outer loop
vertex 0.650465 0.744909 1.337907
vertex -0.103776 0.209033 1.323184
vertex 0.667270 0.123758 1.454510
endloop
endfacet
facet normal 0.008837 -0.814172 -0.580556
outer loop
vertex 0.723328 -0.745835 -1.384761
vertex -0.044765 -1.016978 -1.016201
vertex -0.047718 -0.660560 -1.516087
endloop
endfacet
facet normal -0.165326 -0.910258 0.379602
outer loop
vertex 0.716292 -1.227975 0.278269
vertex -0.067346 -0.900339 0.722625
vertex -0.054754 -1.142701 0.146943
endloop
endfacet
facet normal -0.196211 -0.385848 0.901456
outer loop
vertex 0.667270 0.123758 1.454510
vertex -0.085304 -0.374286 1.077528
vertex 0.685742 -0.459561 1.208854
endloop
endfacet
facet normal -0.031908 -0.913415 -0.405777
outer loop
vertex 0.726281 -1.102252 -0.884875
vertex -0.044826 -1.264946 -0.458013
vertex -0.044765 -1.016978 -1.016201
endloop
endfacet
facet normal -0.007696 0.817430 0.575976
outer loop
vertex 0.627204 1.685686 0.603889
vertex -0.136304 1.417346 0.974516
vertex 0.634743 1.332072 1.105842
endloop
endfacet
facet normal -0.140405 -0.970923 0.193893
outer loop
vertex 0.726221 -1.350221 -0.326687
vertex -0.054754 -1.142701 0.146943
vertex -0.044826 -1.264946 -0.458013
endloop
endfacet
facet normal 0.166835 0.904671 -0.392093
outer loop
vertex 0.650115 1.548732 -1.110029
vertex -0.136571 1.881929 -0.675983
vertex 0.634476 1.796654 -0.544657
endloop
endfacet
facet normal 0.198959 0.553666 -0.808622
outer loop
vertex 0.650115 1.548732 -1.110029
vertex -0.098390 1.110790 -1.594057
vertex -0.120932 1.634007 -1.241355
endloop
endfacet
facet normal -0.198964 -0.552752 0.809246
outer loop
vertex 0.685742 -0.459561 1.208854
vertex -0.067346 -0.900339 0.722625
vertex 0.703700 -0.985614 0.853951
endloop
endfacet
facet normal 0.033491 0.916549 0.398518
outer loop
vertex 0.623760 1.926940 0.049318
vertex -0.143842 1.770960 0.472563
vertex 0.627204 1.685686 0.603889
endloop
endfacet
facet normal -0.117416 0.362300 0.924636
outer loop
vertex 0.634743 1.332072 1.105842
vertex -0.120582 0.830184 1.206581
vertex 0.650465 0.744909 1.337907
endloop
endfacet
facet normal 0.142682 0.967320 -0.209604
outer loop
vertex 0.634476 1.796654 -0.544657
vertex -0.147286 2.012215 -0.082008
vertex 0.623760 1.926940 0.049318
endloop
endfacet
facet normal 0.196557 0.395677 -0.897109
outer loop
vertex 0.672656 1.025515 -1.462731
vertex -0.076392 0.534008 -1.843632
vertex -0.098390 1.110790 -1.594057
endloop
endfacet
facet normal 0.119327 -0.351223 -0.928657
outer loop
vertex 0.710658 -0.164157 -1.606382
vertex -0.047718 -0.660560 -1.516087
vertex -0.060389 -0.078882 -1.737708
endloop
endfacet
facet normal -0.220587 0.353395 0.909095
outer loop
vertex -0.120582 0.830184 1.206581
vertex -0.859502 1.282946 0.851282
vertex -0.843781 0.695783 1.083346
endloop
endfacet
facet normal 0.037062 0.559675 -0.827883
outer loop
vertex -0.098390 1.110790 -1.594057
vertex -0.844131 1.499606 -1.364590
vertex -0.120932 1.634007 -1.241355
endloop
endfacet
facet normal 0.081632 0.398415 -0.913566
outer loop
vertex -0.076392 0.534008 -1.843632
vertex -0.821589 0.976389 -1.717292
vertex -0.098390 1.110790 -1.594057
endloop
endfacet
facet normal -0.143007 0.966196 -0.214512
outer loop
vertex -0.136571 1.881929 -0.675983
vertex -0.870485 1.877814 -0.205243
vertex -0.147286 2.012215 -0.082008
endloop
endfacet
facet normal -0.231996 0.891441 0.389244
outer loop
vertex -0.147286 2.012215 -0.082008
vertex -0.867041 1.636559 0.349328
vertex -0.143842 1.770960 0.472563
endloop
endfacet
facet normal 0.194957 -0.162088 -0.967326
outer loop
vertex -0.060389 -0.078882 -1.737708
vertex -0.799591 0.399607 -1.966866
vertex -0.076392 0.534008 -1.843632
endloop
endfacet
facet normal -0.197015 0.175731 0.964522
outer loop
vertex -0.103776 0.209033 1.323184
vertex -0.843781 0.695783 1.083346
vertex -0.826975 0.074632 1.199950
endloop
endfacet
facet normal 0.219404 -0.343185 -0.913283
outer loop
vertex -0.047718 -0.660560 -1.516087
vertex -0.783588 -0.213283 -1.860943
vertex -0.060389 -0.078882 -1.737708
endloop
endfacet
facet normal -0.084032 -0.389008 0.917394
outer loop
vertex -0.085304 -0.374286 1.077528
vertex -0.826975 0.074632 1.199950
vertex -0.808503 -0.508687 0.954293
endloop
endfacet
facet normal 0.104111 -0.915828 0.387839
outer loop
vertex -0.054754 -1.142701 0.146943
vertex -0.790545 -1.034740 0.599390
vertex -0.777953 -1.277102 0.023708
endloop
endfacet
facet normal 0.232468 -0.888854 -0.394837
outer loop
vertex -0.044765 -1.016978 -1.016201
vertex -0.768025 -1.399347 -0.581248
vertex -0.767964 -1.151379 -1.139436
endloop
endfacet
facet normal -0.100659 0.910139 -0.401890
outer loop
vertex -0.120932 1.634007 -1.241355
vertex -0.859770 1.747528 -0.799217
vertex -0.136571 1.881929 -0.675983
endloop
endfacet
facet normal 0.146331 -0.969168 0.198245
outer loop
vertex -0.044826 -1.264946 -0.458013
vertex -0.777953 -1.277102 0.023708
vertex -0.768025 -1.399347 -0.581248
endloop
endfacet
facet normal 0.242793 -0.789187 -0.564123
outer loop
vertex -0.047718 -0.660560 -1.516087
vertex -0.767964 -1.151379 -1.139436
vertex -0.770917 -0.794961 -1.639322
endloop
endfacet
facet normal -0.037037 -0.559760 0.827827
outer loop
vertex -0.067346 -0.900339 0.722625
vertex -0.808503 -0.508687 0.954293
vertex -0.790545 -1.034740 0.599390
endloop
endfacet
facet normal -0.242684 0.791350 0.561132
outer loop
vertex -0.143842 1.770960 0.472563
vertex -0.859502 1.282946 0.851282
vertex -0.136304 1.417346 0.974516
endloop
endfacet
facet normal -0.190558 0.897087 -0.398652
outer loop
vertex -0.844131 1.499606 -1.364590
vertex -1.483786 1.567981 -0.904970
vertex -0.859770 1.747528 -0.799217
endloop
endfacet
facet normal 0.240316 -0.950690 0.196054
outer loop
vertex -0.768025 -1.399347 -0.581248
vertex -1.401970 -1.456649 -0.082044
vertex -1.392041 -1.578895 -0.687000
endloop
endfacet
facet normal 0.315614 -0.771730 -0.552106
outer loop
vertex -0.767964 -1.151379 -1.139436
vertex -1.394933 -0.974508 -1.745073
vertex -0.770917 -0.794961 -1.639322
endloop
endfacet
facet normal 0.020237 -0.558686 0.829132
outer loop
vertex -0.790545 -1.034740 0.599390
vertex -1.432519 -0.688235 0.848541
vertex -1.414561 -1.214288 0.493638
endloop
endfacet
facet normal -0.315694 0.773464 0.549628
outer loop
vertex -0.859502 1.282946 0.851282
vertex -1.491057 1.457012 0.243576
vertex -1.483519 1.103398 0.745530
endloop
endfacet
facet normal -0.253464 0.349683 0.901930
outer loop
vertex -0.843781 0.695783 1.083346
vertex -1.483519 1.103398 0.745530
vertex -1.467797 0.516236 0.977594
endloop
endfacet
facet normal -0.020063 0.558255 -0.829427
outer loop
vertex -0.821589 0.976389 -1.717292
vertex -1.468147 1.320059 -1.470342
vertex -0.844131 1.499606 -1.364590
endloop
endfacet
facet normal 0.040764 0.398098 -0.916437
outer loop
vertex -0.799591 0.399607 -1.966866
vertex -1.445605 0.796842 -1.823044
vertex -0.821589 0.976389 -1.717292
endloop
endfacet
facet normal -0.264764 0.940909 -0.211162
outer loop
vertex -0.859770 1.747528 -0.799217
vertex -1.435953 1.698190 -0.296616
vertex -0.870485 1.877814 -0.205243
endloop
endfacet
facet normal -0.313816 0.878503 0.360211
outer loop
vertex -0.867041 1.636559 0.349328
vertex -1.435953 1.698190 -0.296616
vertex -1.491057 1.457012 0.243576
endloop
endfacet
facet normal 0.209809 -0.161188 -0.964364
outer loop
vertex -0.783588 -0.213283 -1.860943
vertex -1.423607 0.220060 -2.072618
vertex -0.799591 0.399607 -1.966866
endloop
endfacet
facet normal -0.213168 0.174684 0.961272
outer loop
vertex -0.826975 0.074632 1.199950
vertex -1.467797 0.516236 0.977594
vertex -1.450991 -0.104915 1.094198
endloop
endfacet
facet normal 0.251363 -0.339820 -0.906278
outer loop
vertex -0.770917 -0.794961 -1.639322
vertex -1.407604 -0.392830 -1.966695
vertex -0.783588 -0.213283 -1.860943
endloop
endfacet
facet normal -0.044042 -0.388929 0.920214
outer loop
vertex -0.808503 -0.508687 0.954293
vertex -1.450991 -0.104915 1.094198
vertex -1.432519 -0.688235 0.848541
endloop
endfacet
facet normal 0.194566 -0.902511 0.384211
outer loop
vertex -0.777953 -1.277102 0.023708
vertex -1.414561 -1.214288 0.493638
vertex -1.401970 -1.456649 -0.082044
endloop
endfacet
facet normal 0.314876 -0.867408 -0.385301
outer loop
vertex -0.767964 -1.151379 -1.139436
vertex -1.392041 -1.578895 -0.687000
vertex -1.391980 -1.330926 -1.245188
endloop
endfacet
facet normal -0.121707 0.179946 0.976118
outer loop
vertex -1.467797 0.516236 0.977594
vertex -2.286242 -0.013329 0.973171
vertex -1.450991 -0.104915 1.094198
endloop
endfacet
facet normal 0.096218 -0.352555 -0.930831
outer loop
vertex -1.407604 -0.392830 -1.966695
vertex -2.230184 -0.882923 -1.866100
vertex -2.242855 -0.301244 -2.087722
endloop
endfacet
facet normal -0.173647 -0.386891 0.905628
outer loop
vertex -1.450991 -0.104915 1.094198
vertex -2.267769 -0.596649 0.727515
vertex -1.432519 -0.688235 0.848541
endloop
endfacet
facet normal -0.155094 -0.911709 0.380436
outer loop
vertex -1.401970 -1.456649 -0.082044
vertex -2.249812 -1.122702 0.372611
vertex -2.237220 -1.365063 -0.203071
endloop
endfacet
facet normal -0.041346 -0.913098 -0.405638
outer loop
vertex -1.391980 -1.330926 -1.245188
vertex -2.227292 -1.487309 -0.808026
vertex -2.227231 -1.239340 -1.366214
endloop
endfacet
facet normal 0.156309 0.906143 -0.393030
outer loop
vertex -1.468147 1.320059 -1.470342
vertex -2.319036 1.659567 -1.025996
vertex -1.483786 1.567981 -0.904970
endloop
endfacet
facet normal -0.134677 -0.971685 0.194142
outer loop
vertex -1.392041 -1.578895 -0.687000
vertex -2.237220 -1.365063 -0.203071
vertex -2.227292 -1.487309 -0.808026
endloop
endfacet
facet normal -0.005165 -0.814233 -0.580516
outer loop
vertex -1.394933 -0.974508 -1.745073
vertex -2.227231 -1.239340 -1.366214
vertex -2.230184 -0.882923 -1.866100
endloop
endfacet
facet normal -0.178574 -0.554468 0.812820
outer loop
vertex -1.432519 -0.688235 0.848541
vertex -2.249812 -1.122702 0.372611
vertex -1.414561 -1.214288 0.493638
endloop
endfacet
facet normal 0.006206 0.817537 0.575842
outer loop
vertex -1.491057 1.457012 0.243576
vertex -2.318769 1.194984 0.624503
vertex -1.483519 1.103398 0.745530
endloop
endfacet
facet normal -0.094394 0.363735 0.926707
outer loop
vertex -1.483519 1.103398 0.745530
vertex -2.303047 0.607822 0.856568
vertex -1.467797 0.516236 0.977594
endloop
endfacet
facet normal 0.178583 0.555255 -0.812281
outer loop
vertex -1.468147 1.320059 -1.470342
vertex -2.280856 0.888428 -1.944071
vertex -2.303398 1.411645 -1.591368
endloop
endfacet
facet normal 0.174092 0.396639 -0.901315
outer loop
vertex -1.445605 0.796842 -1.823044
vertex -2.258858 0.311646 -2.193645
vertex -2.280856 0.888428 -1.944071
endloop
endfacet
facet normal 0.132113 0.967105 -0.217382
outer loop
vertex -1.483786 1.567981 -0.904970
vertex -2.329752 1.789853 -0.432021
vertex -1.435953 1.698190 -0.296616
endloop
endfacet
facet normal 0.040354 0.910842 0.410777
outer loop
vertex -1.435953 1.698190 -0.296616
vertex -2.326308 1.548598 0.122550
vertex -1.491057 1.457012 0.243576
endloop
endfacet
facet normal 0.123578 -0.165861 -0.978376
outer loop
vertex -1.423607 0.220060 -2.072618
vertex -2.242855 -0.301244 -2.087722
vertex -2.258858 0.311646 -2.193645
endloop
endfacet
facet normal 0.310154 0.929765 -0.198346
outer loop
vertex 1.784426 1.687727 0.176576
vertex 1.795141 1.557440 -0.417399
vertex 1.226825 1.740657 -0.447232
endloop
endfacet
facet normal 0.018525 -0.814037 -0.580517
outer loop
vertex 1.315678 -0.801832 -1.287336
vertex 1.318630 -1.158250 -0.787450
vertex 0.726281 -1.102252 -0.884875
endloop
endfacet
facet normal -0.185844 -0.553884 0.811588
outer loop
vertex 1.278092 -0.515558 1.306279
vertex 0.685742 -0.459561 1.208854
vertex 0.703700 -0.985614 0.853951
endloop
endfacet
facet normal 0.220106 0.551757 -0.804437
outer loop
vertex 1.810780 1.309519 -0.982771
vertex 1.833322 0.786302 -1.335473
vertex 1.265006 0.969518 -1.365306
endloop
endfacet
facet normal -0.117823 0.362273 0.924595
outer loop
vertex 1.227092 1.276075 1.203267
vertex 0.634743 1.332072 1.105842
vertex 0.650465 0.744909 1.337907
endloop
endfacet
facet normal 0.185356 0.396184 -0.899267
outer loop
vertex 1.265006 0.969518 -1.365306
vertex 1.287004 0.392736 -1.614881
vertex 0.694655 0.448733 -1.712305
endloop
endfacet
facet normal 0.302155 0.876056 -0.375803
outer loop
vertex 1.795141 1.557440 -0.417399
vertex 1.810780 1.309519 -0.982771
vertex 1.242464 1.492735 -1.012604
endloop
endfacet
facet normal 0.175160 0.396599 -0.901126
outer loop
vertex 1.833322 0.786302 -1.335473
vertex 1.855320 0.209520 -1.585048
vertex 1.287004 0.392736 -1.614881
endloop
endfacet
facet normal -0.219819 -0.550742 0.805210
outer loop
vertex 1.846408 -0.698775 1.336112
vertex 1.278092 -0.515558 1.306279
vertex 1.296050 -1.041611 0.951375
endloop
endfacet
facet normal 0.119534 -0.351210 -0.928635
outer loop
vertex 1.303007 -0.220154 -1.508958
vertex 1.315678 -0.801832 -1.287336
vertex 0.723328 -0.745835 -1.384761
endloop
endfacet
facet normal -0.226254 -0.793746 -0.564603
outer loop
vertex 1.883994 -0.985049 -1.257503
vertex 1.886947 -1.341466 -0.757617
vertex 1.318630 -1.158250 -0.787450
endloop
endfacet
facet normal 0.007957 0.184701 0.982763
outer loop
vertex 1.811130 0.505695 1.465164
vertex 1.242814 0.688912 1.435332
vertex 1.259619 0.067761 1.551935
endloop
endfacet
facet normal 0.126244 0.969437 -0.210366
outer loop
vertex 1.226825 1.740657 -0.447232
vertex 0.634476 1.796654 -0.544657
vertex 0.623760 1.926940 0.049318
endloop
endfacet
facet normal 0.150459 0.906916 -0.393530
outer loop
vertex 1.242464 1.492735 -1.012604
vertex 0.650115 1.548732 -1.110029
vertex 0.634476 1.796654 -0.544657
endloop
endfacet
facet normal -0.148916 -0.912537 0.380919
outer loop
vertex 1.308641 -1.283972 0.375693
vertex 1.296050 -1.041611 0.951375
vertex 0.703700 -0.985614 0.853951
endloop
endfacet
facet normal -0.263636 -0.881540 -0.391642
outer loop
vertex 1.886947 -1.341466 -0.757617
vertex 1.886886 -1.589435 -0.199429
vertex 1.318570 -1.406218 -0.229262
endloop
endfacet
facet normal -0.066014 -0.356516 -0.931954
outer loop
vertex 1.871323 -0.403370 -1.479125
vertex 1.883994 -0.985049 -1.257503
vertex 1.315678 -0.801832 -1.287336
endloop
endfacet
facet normal -0.143190 0.178854 0.973400
outer loop
vertex 1.242814 0.688912 1.435332
vertex 0.650465 0.744909 1.337907
vertex 0.667270 0.123758 1.454510
endloop
endfacet
facet normal 0.144881 -0.164830 -0.975623
outer loop
vertex 1.287004 0.392736 -1.614881
vertex 1.303007 -0.220154 -1.508958
vertex 0.710658 -0.164157 -1.606382
endloop
endfacet
facet normal -0.172298 -0.386947 0.905862
outer loop
vertex 1.827936 -0.115456 1.581768
vertex 1.259619 0.067761 1.551935
vertex 1.278092 -0.515558 1.306279
endloop
endfacet
facet normal 0.185830 0.554718 -0.811021
outer loop
vertex 1.242464 1.492735 -1.012604
vertex 1.265006 0.969518 -1.365306
vertex 0.672656 1.025515 -1.462731
endloop
endfacet
facet normal -0.017478 0.817261 0.576003
outer loop
vertex 1.219553 1.629689 0.701314
vertex 0.627204 1.685686 0.603889
vertex 0.634743 1.332072 1.105842
endloop
endfacet
facet normal 0.227824 0.797618 0.558481
outer loop
vertex 1.787870 1.446472 0.731147
vertex 1.219553 1.629689 0.701314
vertex 1.227092 1.276075 1.203267
endloop
endfacet
facet normal -0.310338 -0.932768 0.183395
outer loop
vertex 1.876958 -1.467189 0.405526
vertex 1.308641 -1.283972 0.375693
vertex 1.318570 -1.406218 -0.229262
endloop
endfacet
facet normal 0.070063 0.368282 0.927070
outer loop
vertex 1.795409 1.092858 1.233100
vertex 1.227092 1.276075 1.203267
vertex 1.242814 0.688912 1.435332
endloop
endfacet
facet normal -0.123987 -0.973017 0.194587
outer loop
vertex 1.318570 -1.406218 -0.229262
vertex 1.308641 -1.283972 0.375693
vertex 0.716292 -1.227975 0.278269
endloop
endfacet
facet normal -0.303030 -0.880670 0.364133
outer loop
vertex 1.864366 -1.224828 0.981208
vertex 1.296050 -1.041611 0.951375
vertex 1.308641 -1.283972 0.375693
endloop
endfacet
facet normal 0.265120 0.884775 0.383256
outer loop
vertex 1.784426 1.687727 0.176576
vertex 1.216110 1.870943 0.146743
vertex 1.219553 1.629689 0.701314
endloop
endfacet
facet normal -0.185138 -0.386386 0.903565
outer loop
vertex 1.259619 0.067761 1.551935
vertex 0.667270 0.123758 1.454510
vertex 0.685742 -0.459561 1.208854
endloop
endfacet
facet normal 0.021093 0.916831 0.398717
outer loop
vertex 1.216110 1.870943 0.146743
vertex 0.623760 1.926940 0.049318
vertex 0.627204 1.685686 0.603889
endloop
endfacet
facet normal -0.019616 -0.913705 -0.405905
outer loop
vertex 1.318630 -1.158250 -0.787450
vertex 1.318570 -1.406218 -0.229262
vertex 0.726221 -1.350221 -0.326687
endloop
endfacet
facet normal -0.003203 -0.170381 -0.985373
outer loop
vertex 1.855320 0.209520 -1.585048
vertex 1.871323 -0.403370 -1.479125
vertex 1.303007 -0.220154 -1.508958
endloop
endfacet
facet normal 0.147885 -0.164678 -0.975198
outer loop
vertex 0.694655 0.448733 -1.712305
vertex 0.710658 -0.164157 -1.606382
vertex -0.060389 -0.078882 -1.737708
endloop
endfacet
facet normal -0.145961 0.178707 0.973015
outer loop
vertex 0.650465 0.744909 1.337907
vertex -0.120582 0.830184 1.206581
vertex -0.103776 0.209033 1.323184
endloop
endfacet
facet normal 0.008837 -0.814173 -0.580556
outer loop
vertex 0.723328 -0.745835 -1.384761
vertex 0.726281 -1.102252 -0.884875
vertex -0.044765 -1.016978 -1.016201
endloop
endfacet
facet normal -0.165326 -0.910258 0.379601
outer loop
vertex 0.716292 -1.227975 0.278269
vertex 0.703700 -0.985614 0.853951
vertex -0.067346 -0.900339 0.722625
endloop
endfacet
facet normal -0.196211 -0.385848 0.901456
outer loop
vertex 0.667270 0.123758 1.454510
vertex -0.103776 0.209033 1.323184
vertex -0.085304 -0.374286 1.077528
endloop
endfacet
facet normal -0.031908 -0.913415 -0.405777
outer loop
vertex 0.726281 -1.102252 -0.884875
vertex 0.726221 -1.350221 -0.326687
vertex -0.044826 -1.264946 -0.458013
endloop
endfacet
facet normal -0.007696 0.817430 0.575976
outer loop
vertex 0.627204 1.685686 0.603889
vertex -0.143842 1.770960 0.472563
vertex -0.136304 1.417346 0.974516
endloop
endfacet
facet normal -0.140405 -0.970923 0.193894
outer loop
vertex 0.726221 -1.350221 -0.326687
vertex 0.716292 -1.227975 0.278269
vertex -0.054754 -1.142701 0.146943
endloop
endfacet
facet normal 0.166835 0.904671 -0.392093
outer loop
vertex 0.650115 1.548732 -1.110029
vertex -0.120932 1.634007 -1.241355
vertex -0.136571 1.881929 -0.675983
endloop
endfacet
facet normal 0.198959 0.553666 -0.808622
outer loop
vertex 0.650115 1.548732 -1.110029
vertex 0.672656 1.025515 -1.462731
vertex -0.098390 1.110790 -1.594057
endloop
endfacet
facet normal -0.198964 -0.552752 0.809246
outer loop
vertex 0.685742 -0.459561 1.208854
vertex -0.085304 -0.374286 1.077528
vertex -0.067346 -0.900339 0.722625
endloop
endfacet
facet normal 0.033491 0.916549 0.398518
outer loop
vertex 0.623760 1.926940 0.049318
vertex -0.147286 2.012215 -0.082008
vertex -0.143842 1.770960 0.472563
endloop
endfacet
facet normal -0.117417 0.362300 0.924636
outer loop
vertex 0.634743 1.332072 1.105842
vertex -0.136304 1.417346 0.974516
vertex -0.120582 0.830184 1.206581
endloop
endfacet
facet normal 0.142682 0.967320 -0.209605
outer loop
vertex 0.634476 1.796654 -0.544657
vertex -0.136571 1.881929 -0.675983
vertex -0.147286 2.012215 -0.082008
endloop
endfacet
facet normal 0.196558 0.395676 -0.897109
outer loop
vertex 0.672656 1.025515 -1.462731
vertex 0.694655 0.448733 -1.712305
vertex -0.076392 0.534008 -1.843632
endloop
endfacet
facet normal 0.119326 -0.351222 -0.928657
outer loop
vertex 0.710658 -0.164157 -1.606382
vertex 0.723328 -0.745835 -1.384761
vertex -0.047718 -0.660560 -1.516087
endloop
endfacet
facet normal -0.220588 0.353395 0.909095
outer loop
vertex -0.120582 0.830184 1.206581
vertex -0.136304 1.417346 0.974516
vertex -0.859502 1.282946 0.851282
endloop
endfacet
facet normal 0.037062 0.559675 -0.827883
outer loop
vertex -0.098390 1.110790 -1.594057
vertex -0.821589 0.976389 -1.717292
vertex -0.844131 1.499606 -1.364590
endloop
endfacet
facet normal 0.081632 0.398414 -0.913566
outer loop
vertex -0.076392 0.534008 -1.843632
vertex -0.799591 0.399607 -1.966866
vertex -0.821589 0.976389 -1.717292
endloop
endfacet
facet normal -0.143007 0.966196 -0.214512
outer loop
vertex -0.136571 1.881929 -0.675983
vertex -0.859770 1.747528 -0.799217
vertex -0.870485 1.877814 -0.205243
endloop
endfacet
facet normal -0.231996 0.891441 0.389244
outer loop
vertex -0.147286 2.012215 -0.082008
vertex -0.870485 1.877814 -0.205243
vertex -0.867041 1.636559 0.349328
endloop
endfacet
facet normal 0.194958 -0.162088 -0.967326
outer loop
vertex -0.060389 -0.078882 -1.737708
vertex -0.783588 -0.213283 -1.860943
vertex -0.799591 0.399607 -1.966866
endloop
endfacet
facet normal -0.197015 0.175731 0.964522
outer loop
vertex -0.103776 0.209033 1.323184
vertex -0.120582 0.830184 1.206581
vertex -0.843781 0.695783 1.083346
endloop
endfacet
facet normal 0.219404 -0.343185 -0.913283
outer loop
vertex -0.047718 -0.660560 -1.516087
vertex -0.770917 -0.794961 -1.639322
vertex -0.783588 -0.213283 -1.860943
endloop
endfacet
facet normal -0.084032 -0.389008 0.917394
outer loop
vertex -0.085304 -0.374286 1.077528
vertex -0.103776 0.209033 1.323184
vertex -0.826975 0.074632 1.199950
endloop
endfacet
facet normal 0.104111 -0.915828 0.387840
outer loop
vertex -0.054754 -1.142701 0.146943
vertex -0.067346 -0.900339 0.722625
vertex -0.790545 -1.034740 0.599390
endloop
endfacet
facet normal 0.232468 -0.888854 -0.394838
outer loop
vertex -0.044765 -1.016978 -1.016201
vertex -0.044826 -1.264946 -0.458013
vertex -0.768025 -1.399347 -0.581248
endloop
endfacet
facet normal -0.100659 0.910139 -0.401890
outer loop
vertex -0.120932 1.634007 -1.241355
vertex -0.844131 1.499606 -1.364590
vertex -0.859770 1.747528 -0.799217
endloop
endfacet
facet normal 0.146331 -0.969168 0.198245
outer loop
vertex -0.044826 -1.264946 -0.458013
vertex -0.054754 -1.142701 0.146943
vertex -0.777953 -1.277102 0.023708
endloop
endfacet
facet normal 0.242793 -0.789187 -0.564124
outer loop
vertex -0.047718 -0.660560 -1.516087
vertex -0.044765 -1.016978 -1.016201
vertex -0.767964 -1.151379 -1.139436
endloop
endfacet
facet normal -0.037037 -0.559760 0.827827
outer loop
vertex -0.067346 -0.900339 0.722625
vertex -0.085304 -0.374286 1.077528
vertex -0.808503 -0.508687 0.954293
endloop
endfacet
facet normal -0.242685 0.791350 0.561132
outer loop
vertex -0.143842 1.770960 0.472563
vertex -0.867041 1.636559 0.349328
vertex -0.859502 1.282946 0.851282
endloop
endfacet
facet normal -0.190558 0.897086 -0.398653
outer loop
vertex -0.844131 1.499606 -1.364590
vertex -1.468147 1.320059 -1.470342
vertex -1.483786 1.567981 -0.904970
endloop
endfacet
facet normal 0.240316 -0.950690 0.196054
outer loop
vertex -0.768025 -1.399347 -0.581248
vertex -0.777953 -1.277102 0.023708
vertex -1.401970 -1.456649 -0.082044
endloop
endfacet
facet normal 0.315614 -0.771729 -0.552107
outer loop
vertex -0.767964 -1.151379 -1.139436
vertex -1.391980 -1.330926 -1.245188
vertex -1.394933 -0.974508 -1.745073
endloop
endfacet
facet normal 0.020238 -0.558686 0.829133
outer loop
vertex -0.790545 -1.034740 0.599390
vertex -0.808503 -0.508687 0.954293
vertex -1.432519 -0.688235 0.848541
endloop
endfacet
facet normal -0.315694 0.773464 0.549628
outer loop
vertex -0.859502 1.282946 0.851282
vertex -0.867041 1.636559 0.349328
vertex -1.491057 1.457012 0.243576
endloop
endfacet
facet normal -0.253464 0.349683 0.901930
outer loop
vertex -0.843781 0.695783 1.083346
vertex -0.859502 1.282946 0.851282
vertex -1.483519 1.103398 0.745530
endloop
endfacet
facet normal -0.020063 0.558255 -0.829427
outer loop
vertex -0.821589 0.976389 -1.717292
vertex -1.445605 0.796842 -1.823044
vertex -1.468147 1.320059 -1.470342
endloop
endfacet
facet normal 0.040765 0.398098 -0.916437
outer loop
vertex -0.799591 0.399607 -1.966866
vertex -1.423607 0.220060 -2.072618
vertex -1.445605 0.796842 -1.823044
endloop
endfacet
facet normal -0.242707 0.952344 -0.184753
outer loop
vertex -0.859770 1.747528 -0.799217
vertex -1.483786 1.567981 -0.904970
vertex -1.435953 1.698190 -0.296616
endloop
endfacet
facet normal -0.335205 0.863172 0.377587
outer loop
vertex -0.867041 1.636559 0.349328
vertex -0.870485 1.877814 -0.205243
vertex -1.435953 1.698190 -0.296616
endloop
endfacet
facet normal 0.209810 -0.161189 -0.964364
outer loop
vertex -0.783588 -0.213283 -1.860943
vertex -1.407604 -0.392830 -1.966695
vertex -1.423607 0.220060 -2.072618
endloop
endfacet
facet normal -0.213169 0.174684 0.961272
outer loop
vertex -0.826975 0.074632 1.199950
vertex -0.843781 0.695783 1.083346
vertex -1.467797 0.516236 0.977594
endloop
endfacet
facet normal 0.251363 -0.339820 -0.906278
outer loop
vertex -0.770917 -0.794961 -1.639322
vertex -1.394933 -0.974508 -1.745073
vertex -1.407604 -0.392830 -1.966695
endloop
endfacet
facet normal -0.044042 -0.388930 0.920214
outer loop
vertex -0.808503 -0.508687 0.954293
vertex -0.826975 0.074632 1.199950
vertex -1.450991 -0.104915 1.094198
endloop
endfacet
facet normal 0.194566 -0.902511 0.384212
outer loop
vertex -0.777953 -1.277102 0.023708
vertex -0.790545 -1.034740 0.599390
vertex -1.414561 -1.214288 0.493638
endloop
endfacet
facet normal 0.314875 -0.867408 -0.385301
outer loop
vertex -0.767964 -1.151379 -1.139436
vertex -0.768025 -1.399347 -0.581248
vertex -1.392041 -1.578895 -0.687000
endloop
endfacet
facet normal -0.121707 0.179946 0.976118
outer loop
vertex -1.467797 0.516236 0.977594
vertex -2.303047 0.607822 0.856568
vertex -2.286242 -0.013329 0.973171
endloop
endfacet
facet normal 0.096218 -0.352555 -0.930831
outer loop
vertex -1.407604 -0.392830 -1.966695
vertex -1.394933 -0.974508 -1.745073
vertex -2.230184 -0.882923 -1.866100
endloop
endfacet
facet normal -0.173647 -0.386891 0.905628
outer loop
vertex -1.450991 -0.104915 1.094198
vertex -2.286242 -0.013329 0.973171
vertex -2.267769 -0.596649 0.727515
endloop
endfacet
facet normal -0.155094 -0.911710 0.380436
outer loop
vertex -1.401970 -1.456649 -0.082044
vertex -1.414561 -1.214288 0.493638
vertex -2.249812 -1.122702 0.372611
endloop
endfacet
facet normal -0.041346 -0.913098 -0.405638
outer loop
vertex -1.391980 -1.330926 -1.245188
vertex -1.392041 -1.578895 -0.687000
vertex -2.227292 -1.487309 -0.808026
endloop
endfacet
facet normal 0.156309 0.906143 -0.393030
outer loop
vertex -1.468147 1.320059 -1.470342
vertex -2.303398 1.411645 -1.591368
vertex -2.319036 1.659567 -1.025996
endloop
endfacet
facet normal -0.134677 -0.971685 0.194142
outer loop
vertex -1.392041 -1.578895 -0.687000
vertex -1.401970 -1.456649 -0.082044
vertex -2.237220 -1.365063 -0.203071
endloop
endfacet
facet normal -0.005166 -0.814232 -0.580516
outer loop
vertex -1.394933 -0.974508 -1.745073
vertex -1.391980 -1.330926 -1.245188
vertex -2.227231 -1.239340 -1.366214
endloop
endfacet
facet normal -0.178575 -0.554467 0.812821
outer loop
vertex -1.432519 -0.688235 0.848541
vertex -2.267769 -0.596649 0.727515
vertex -2.249812 -1.122702 0.372611
endloop
endfacet
facet normal 0.006205 0.817538 0.575842
outer loop
vertex -1.491057 1.457012 0.243576
vertex -2.326308 1.548598 0.122550
vertex -2.318769 1.194984 0.624503
endloop
endfacet
facet normal -0.094394 0.363735 0.926707
outer loop
vertex -1.483519 1.103398 0.745530
vertex -2.318769 1.194984 0.624503
vertex -2.303047 0.607822 0.856568
endloop
endfacet
facet normal 0.178583 0.555255 -0.812281
outer loop
vertex -1.468147 1.320059 -1.470342
vertex -1.445605 0.796842 -1.823044
vertex -2.280856 0.888428 -1.944071
endloop
endfacet
facet normal 0.174091 0.396640 -0.901315
outer loop
vertex -1.445605 0.796842 -1.823044
vertex -1.423607 0.220060 -2.072618
vertex -2.258858 0.311646 -2.193645
endloop
endfacet
facet normal 0.136571 0.968139 -0.209893
outer loop
vertex -1.483786 1.567981 -0.904970
vertex -2.319036 1.659567 -1.025996
vertex -2.329752 1.789853 -0.432021
endloop
endfacet
facet normal 0.033623 0.916545 0.398515
outer loop
vertex -1.435953 1.698190 -0.296616
vertex -2.329752 1.789853 -0.432021
vertex -2.326308 1.548598 0.122550
endloop
endfacet
facet normal 0.123579 -0.165862 -0.978375
outer loop
vertex -1.423607 0.220060 -2.072618
vertex -1.407604 -0.392830 -1.966695
vertex -2.242855 -0.301244 -2.087722
endloop
endfacet
endsolid Exported from Blender-2.79 (sub 0)
