# Blender v2.79 (sub 0) OBJ File: 'pipe.blend'
# www.blender.org
mtllib test.mtl
o Cube_Cube.001
v 0.007698 -0.060899 0.045793
v -0.403196 0.256848 -0.365100
v -0.403196 0.256848 0.456687
v 0.418591 0.256848 -0.365100
v 0.418591 0.256848 0.456687
v 0.418591 1.033831 0.456687
v 0.418591 1.033831 -0.365100
v -0.403196 1.033831 0.456687
v 0.007698 1.384148 0.045793
v -0.403196 1.033831 -0.365100
vt 0.053001 0.818737
vt 0.263688 1.000000
vt 0.000000 1.000000
vt 0.263688 0.637474
vt 0.000000 0.637474
vt 0.166666 0.000000
vt 0.333333 0.140172
vt 0.000000 0.140172
vt 0.666667 0.994603
vt 0.333333 0.994603
vt 0.333333 0.651842
vt 1.000000 0.460578
vt 0.666667 0.460578
vt 0.666667 0.238199
vt 0.333333 0.482933
vt 0.166666 0.637474
vt 0.000000 0.482933
vt 0.666667 0.497302
vt 0.333333 0.497302
vt 0.333333 0.154540
vt 1.000000 0.238199
vt 0.500000 0.000000
vt 0.666667 0.154540
vt 0.833333 0.000000
vt 0.500000 0.497302
vt 0.666667 0.651842
vn 0.6117 0.7911 0.0000
vn 0.0000 0.7911 0.6117
vn -0.6117 0.7911 0.0000
vn 0.0000 0.7911 -0.6117
vn -1.0000 0.0000 0.0000
vn 0.0000 -0.0000 1.0000
vn 0.0000 -0.7610 -0.6488
vn 1.0000 -0.0000 0.0000
vn 0.0000 0.0000 -1.0000
vn 0.6488 -0.7610 0.0000
vn 0.0000 -0.7610 0.6488
vn -0.6488 -0.7610 0.0000
usemtl None
s 1
f 1/1/1 2/2/1 3/3/1
f 1/1/2 4/4/2 2/2/2
f 1/1/3 5/5/3 4/4/3
f 1/6/4 3/7/4 5/8/4
f 4/9/5 5/10/5 6/11/5
f 2/12/6 4/13/6 7/14/6
f 8/15/7 9/16/7 6/17/7
f 3/18/8 2/19/8 10/20/8
f 5/8/9 3/7/9 8/15/9
f 2/12/6 7/14/6 10/21/6
f 10/20/10 9/22/10 8/23/10
f 7/14/11 9/24/11 10/21/11
f 6/11/12 9/25/12 7/26/12
f 4/9/5 6/11/5 7/26/5
f 3/18/8 10/20/8 8/23/8
f 5/8/9 8/15/9 6/17/9
