<?xml version="1.0" encoding="UTF-8" standalone="no"?>
<svg
   xmlns:dc="http://purl.org/dc/elements/1.1/"
   xmlns:cc="http://creativecommons.org/ns#"
   xmlns:rdf="http://www.w3.org/1999/02/22-rdf-syntax-ns#"
   xmlns:svg="http://www.w3.org/2000/svg"
   xmlns="http://www.w3.org/2000/svg"
   viewBox="0 0 460 460"
   height="460"
   width="460"
   xml:space="preserve"
   id="svg2"
   version="1.1"><metadata
     id="metadata8"><rdf:RDF><cc:Work
         rdf:about=""><dc:format>image/svg+xml</dc:format><dc:type
           rdf:resource="http://purl.org/dc/dcmitype/StillImage" /><dc:title></dc:title></cc:Work></rdf:RDF></metadata><defs
     id="defs6" /><g
     transform="matrix(1.3333333,0,0,1.3333333,0,1.15e-5)"
     id="g10"><g
       id="g12"><path
         id="path14"
         style="fill:#00c8c8;fill-opacity:1;fill-rule:nonzero;stroke:none"
         d="M 169.16,182.461 267.852,105.031 218.801,15.277 94.328,56.582 95.242,19.867 20.891,107.191 121.871,115.148 103.094,86.824 204.98,74.855 Z" /><path
         id="path16"
         style="fill:#ff9f00;fill-opacity:1;fill-rule:nonzero;stroke:none"
         d="m 151.68,153.137 -109.492,38.441 12.632,134.328 157.633,-13.722 81.332,-79.633 23.965,33.086 8.684,-127.614 -130.789,55.872 43.121,8.183 -46.375,68.914 -81.426,-11.785 -16.074,-51.965 z" /><g
         id="g18"><path
           id="path20"
           style="fill:none;stroke:#ffffff;stroke-width:6.67842484;stroke-linecap:butt;stroke-linejoin:miter;stroke-miterlimit:4;stroke-dasharray:none;stroke-opacity:1"
           d="m 28.633,219.543 13.062,-64.734 h 7.938 L 33.18,226.418 H 23.508 L 7.055,154.809 h 8.312 l 13.063,64.734 z" /></g><text
         id="text24"
         style="font-variant:normal;font-weight:normal;font-size:96.76120758px;font-family:'VL Gothic';-inkscape-font-specification:VL-Gothic-Regular;writing-mode:lr-tb;fill:#000000;fill-opacity:1;fill-rule:nonzero;stroke:none"
         transform="translate(4.148688,226.41608)"><tspan
           id="tspan22"
           y="0"
           x="0">V</tspan></text>
<g
         id="g26"><path
           id="path28"
           style="fill:none;stroke:#ffffff;stroke-width:6.67842484;stroke-linecap:butt;stroke-linejoin:miter;stroke-miterlimit:4;stroke-dasharray:none;stroke-opacity:1"
           d="m 61.387,162.996 c 3.32,-5.457 8.429,-8.187 15.328,-8.187 6.906,0 12.019,2.73 15.344,8.187 3.32,5.449 4.984,14.82 4.984,28.109 0,13.282 -1.664,22.653 -4.984,28.11 -3.325,5.449 -8.438,8.172 -15.344,8.172 -6.899,0 -12.008,-2.723 -15.328,-8.172 -3.325,-5.457 -4.985,-14.828 -4.985,-28.11 0,-13.289 1.66,-22.66 4.985,-28.109 z m 8.453,54.953 c 1.75,1.649 4.039,2.469 6.875,2.469 2.844,0 5.133,-0.82 6.875,-2.469 1.738,-1.644 3.125,-4.66 4.156,-9.047 1.031,-4.382 1.547,-10.316 1.547,-17.797 0,-7.488 -0.516,-13.425 -1.547,-17.812 -1.031,-4.383 -2.418,-7.398 -4.156,-9.047 -1.742,-1.644 -4.031,-2.469 -6.875,-2.469 -2.836,0 -5.125,0.825 -6.875,2.469 -1.742,1.649 -3.125,4.664 -4.156,9.047 -1.032,4.387 -1.547,10.324 -1.547,17.812 0,7.481 0.515,13.415 1.547,17.797 1.031,4.387 2.414,7.403 4.156,9.047 z" /></g><text
         id="text32"
         style="font-variant:normal;font-weight:normal;font-size:96.76120758px;font-family:'VL Gothic';-inkscape-font-specification:VL-Gothic-Regular;writing-mode:lr-tb;fill:#000000;fill-opacity:1;fill-rule:nonzero;stroke:none"
         transform="translate(52.529293,226.41608)"><tspan
           id="tspan30"
           y="0"
           x="0">O</tspan></text>
<g
         id="g34"><path
           id="path36"
           style="fill:none;stroke:#ffffff;stroke-width:6.67842484;stroke-linecap:butt;stroke-linejoin:miter;stroke-miterlimit:4;stroke-dasharray:none;stroke-opacity:1"
           d="m 136.707,174.168 c 0,-8.383 -4.773,-12.578 -14.312,-12.578 -2.649,0 -4.907,0.258 -6.782,0.765 v 26.329 h 5.813 c 5.613,0 9.562,-1.079 11.844,-3.235 2.289,-2.164 3.437,-5.926 3.437,-11.281 z m -21.094,21.281 v 30.969 h -7.922 v -70.156 c 5.032,-0.969 10.188,-1.453 15.469,-1.453 7.227,0 12.582,1.601 16.063,4.796 3.488,3.188 5.234,8.043 5.234,14.563 0,9.219 -3.516,15.445 -10.547,18.672 v 0.187 c 2,0.969 4.129,5.2 6.391,12.688 l 6.094,20.703 h -8.329 l -5.703,-20.906 c -1.105,-4.125 -2.433,-6.832 -3.984,-8.125 -1.543,-1.289 -4.184,-1.938 -7.922,-1.938 z" /></g><text
         id="text40"
         style="font-variant:normal;font-weight:normal;font-size:96.76120758px;font-family:'VL Gothic';-inkscape-font-specification:VL-Gothic-Regular;writing-mode:lr-tb;fill:#000000;fill-opacity:1;fill-rule:nonzero;stroke:none"
         transform="translate(100.9099,226.41608)"><tspan
           id="tspan38"
           y="0"
           x="0">R</tspan></text>
<g
         id="g42"><path
           id="path44"
           style="fill:none;stroke:#ffffff;stroke-width:6.67842484;stroke-linecap:butt;stroke-linejoin:miter;stroke-miterlimit:4;stroke-dasharray:none;stroke-opacity:1"
           d="m 169.508,226.418 v -64.734 h -14.891 v -6.875 h 37.735 v 6.875 h -14.907 v 64.734 z" /></g><text
         id="text48"
         style="font-variant:normal;font-weight:normal;font-size:96.76120758px;font-family:'VL Gothic';-inkscape-font-specification:VL-Gothic-Regular;writing-mode:lr-tb;fill:#000000;fill-opacity:1;fill-rule:nonzero;stroke:none"
         transform="translate(149.2905,226.41608)"><tspan
           id="tspan46"
           y="0"
           x="0">T</tspan></text>
<g
         id="g50"><path
           id="path52"
           style="fill:none;stroke:#ffffff;stroke-width:6.67842484;stroke-linecap:butt;stroke-linejoin:miter;stroke-miterlimit:4;stroke-dasharray:none;stroke-opacity:1"
           d="m 213.344,161.871 v 22.359 h 24 v 6.875 h -24 v 28.25 h 24.968 v 7.063 h -32.906 v -71.609 h 32.906 v 7.062 z" /></g><text
         id="text56"
         style="font-variant:normal;font-weight:normal;font-size:96.76120758px;font-family:'VL Gothic';-inkscape-font-specification:VL-Gothic-Regular;writing-mode:lr-tb;fill:#000000;fill-opacity:1;fill-rule:nonzero;stroke:none"
         transform="translate(197.67111,226.41608)"><tspan
           id="tspan54"
           y="0"
           x="0">E</tspan></text>
<g
         id="g58"><path
           id="path60"
           style="fill:none;stroke:#ffffff;stroke-width:6.67842484;stroke-linecap:butt;stroke-linejoin:miter;stroke-miterlimit:4;stroke-dasharray:none;stroke-opacity:1"
           d="m 270.332,183.262 h 0.203 l 10.828,-28.453 h 8.032 l -14.313,34.843 14.516,36.766 h -8.719 l -10.734,-29.906 h -0.188 l -10.844,29.906 h -8.218 l 14.515,-36.766 -14.328,-34.843 h 8.516 z" /></g><text
         id="text64"
         style="font-variant:normal;font-weight:normal;font-size:96.76120758px;font-family:'VL Gothic';-inkscape-font-specification:VL-Gothic-Regular;writing-mode:lr-tb;fill:#000000;fill-opacity:1;fill-rule:nonzero;stroke:none"
         transform="translate(246.05171,226.41608)"><tspan
           id="tspan62"
           y="0"
           x="0">X</tspan></text>
<g
         id="g66"><path
           id="path68"
           style="fill:none;stroke:#ffffff;stroke-width:6.67842484;stroke-linecap:butt;stroke-linejoin:miter;stroke-miterlimit:4;stroke-dasharray:none;stroke-opacity:1"
           d="m 318.715,189.652 h 0.203 l 12.766,-34.843 h 8.234 l -17.328,43.156 v 28.453 h -7.938 V 197.965 L 297.34,154.809 h 8.703 z" /></g><text
         id="text72"
         style="font-variant:normal;font-weight:normal;font-size:96.76120758px;font-family:'VL Gothic';-inkscape-font-specification:VL-Gothic-Regular;writing-mode:lr-tb;fill:#000000;fill-opacity:1;fill-rule:nonzero;stroke:none"
         transform="translate(294.43232,226.41608)"><tspan
           id="tspan70"
           y="0"
           x="0">Y</tspan></text>
</g></g></svg>