solid Exported from Blender-2.81 (sub 16)
facet normal 0.000000 0.000000 1.000000
outer loop
vertex -4.018169 4.018169 4.018169
vertex -2.009084 2.009084 4.018169
vertex -2.009084 4.018169 4.018169
endloop
endfacet
facet normal 0.000000 -1.000000 0.000000
outer loop
vertex 4.018169 -4.018169 4.018169
vertex 2.009084 -4.018169 2.009084
vertex 4.018169 -4.018169 2.009084
endloop
endfacet
facet normal -1.000000 0.000000 0.000000
outer loop
vertex -4.018169 -4.018169 4.018169
vertex -4.018169 -2.009084 2.009084
vertex -4.018169 -4.018169 2.009084
endloop
endfacet
facet normal 0.000000 0.000000 -1.000000
outer loop
vertex 4.018169 4.018169 -4.018169
vertex 2.009084 2.009084 -4.018169
vertex 2.009084 4.018169 -4.018169
endloop
endfacet
facet normal 1.000000 0.000000 0.000000
outer loop
vertex 4.018169 4.018169 4.018169
vertex 4.018169 2.009084 2.009084
vertex 4.018169 4.018169 2.009084
endloop
endfacet
facet normal 0.000000 1.000000 0.000000
outer loop
vertex -4.018169 4.018169 4.018169
vertex -2.009084 4.018169 2.009084
vertex -4.018169 4.018169 2.009084
endloop
endfacet
facet normal 0.000000 0.000000 1.000000
outer loop
vertex -4.018169 4.018169 4.018169
vertex -4.018169 2.009084 4.018169
vertex -2.009084 2.009084 4.018169
endloop
endfacet
facet normal 0.000000 -1.000000 0.000000
outer loop
vertex 4.018169 -4.018169 4.018169
vertex 2.009084 -4.018169 4.018169
vertex 2.009084 -4.018169 2.009084
endloop
endfacet
facet normal -1.000000 0.000000 0.000000
outer loop
vertex -4.018169 -4.018169 4.018169
vertex -4.018169 -2.009084 4.018169
vertex -4.018169 -2.009084 2.009084
endloop
endfacet
facet normal 0.000000 0.000000 -1.000000
outer loop
vertex 4.018169 4.018169 -4.018169
vertex 4.018169 2.009084 -4.018169
vertex 2.009084 2.009084 -4.018169
endloop
endfacet
facet normal 1.000000 0.000000 0.000000
outer loop
vertex 4.018169 4.018169 4.018169
vertex 4.018169 2.009084 4.018169
vertex 4.018169 2.009084 2.009084
endloop
endfacet
facet normal 0.000000 1.000000 0.000000
outer loop
vertex -4.018169 4.018169 4.018169
vertex -2.009084 4.018169 4.018169
vertex -2.009084 4.018169 2.009084
endloop
endfacet
facet normal 0.000000 1.000000 0.000000
outer loop
vertex 0.000000 4.018169 0.000000
vertex 2.009084 4.018169 0.000000
vertex 2.009084 4.018169 -2.009084
endloop
endfacet
facet normal 0.000000 1.000000 0.000000
outer loop
vertex 0.000000 4.018169 0.000000
vertex 0.000000 4.018169 2.009084
vertex 2.009084 4.018169 0.000000
endloop
endfacet
facet normal 0.000000 1.000000 0.000000
outer loop
vertex 0.000000 4.018169 4.018169
vertex 2.009084 4.018169 4.018169
vertex 2.009084 4.018169 2.009084
endloop
endfacet
facet normal 1.000000 0.000000 0.000000
outer loop
vertex 4.018169 0.000000 0.000000
vertex 4.018169 -2.009084 0.000000
vertex 4.018169 -2.009084 -2.009084
endloop
endfacet
facet normal 1.000000 0.000000 0.000000
outer loop
vertex 4.018169 0.000000 0.000000
vertex 4.018169 0.000000 2.009084
vertex 4.018169 -2.009084 0.000000
endloop
endfacet
facet normal 1.000000 0.000000 0.000000
outer loop
vertex 4.018169 0.000000 4.018169
vertex 4.018169 -2.009084 4.018169
vertex 4.018169 -2.009084 2.009084
endloop
endfacet
facet normal 0.000000 0.000000 -1.000000
outer loop
vertex 0.000000 0.000000 -4.018169
vertex 0.000000 -2.009084 -4.018169
vertex -2.009084 -2.009084 -4.018169
endloop
endfacet
facet normal 0.000000 0.000000 -1.000000
outer loop
vertex 0.000000 0.000000 -4.018169
vertex 2.009084 0.000000 -4.018169
vertex 0.000000 -2.009084 -4.018169
endloop
endfacet
facet normal 0.000000 0.000000 -1.000000
outer loop
vertex 4.018169 0.000000 -4.018169
vertex 4.018169 -2.009084 -4.018169
vertex 2.009084 -2.009084 -4.018169
endloop
endfacet
facet normal -1.000000 0.000000 0.000000
outer loop
vertex -4.018169 0.000000 0.000000
vertex -4.018169 2.009084 0.000000
vertex -4.018169 2.009084 -2.009084
endloop
endfacet
facet normal -1.000000 0.000000 0.000000
outer loop
vertex -4.018169 0.000000 0.000000
vertex -4.018169 0.000000 2.009084
vertex -4.018169 2.009084 0.000000
endloop
endfacet
facet normal -1.000000 0.000000 0.000000
outer loop
vertex -4.018169 0.000000 4.018169
vertex -4.018169 2.009084 4.018169
vertex -4.018169 2.009084 2.009084
endloop
endfacet
facet normal 0.000000 -1.000000 0.000000
outer loop
vertex 0.000000 -4.018169 0.000000
vertex -2.009084 -4.018169 0.000000
vertex -2.009084 -4.018169 -2.009084
endloop
endfacet
facet normal 0.000000 -1.000000 0.000000
outer loop
vertex 0.000000 -4.018169 0.000000
vertex 0.000000 -4.018169 2.009084
vertex -2.009084 -4.018169 0.000000
endloop
endfacet
facet normal 0.000000 -1.000000 0.000000
outer loop
vertex 0.000000 -4.018169 4.018169
vertex -2.009084 -4.018169 4.018169
vertex -2.009084 -4.018169 2.009084
endloop
endfacet
facet normal 0.000000 0.000000 1.000000
outer loop
vertex 0.000000 0.000000 4.018169
vertex 0.000000 -2.009084 4.018169
vertex 2.009084 -2.009084 4.018169
endloop
endfacet
facet normal 0.000000 0.000000 1.000000
outer loop
vertex 0.000000 0.000000 4.018169
vertex -2.009084 0.000000 4.018169
vertex 0.000000 -2.009084 4.018169
endloop
endfacet
facet normal 0.000000 0.000000 1.000000
outer loop
vertex -4.018169 0.000000 4.018169
vertex -4.018169 -2.009084 4.018169
vertex -2.009084 -2.009084 4.018169
endloop
endfacet
facet normal 0.000000 1.000000 0.000000
outer loop
vertex -4.018169 4.018169 0.000000
vertex -2.009084 4.018169 -2.009084
vertex -4.018169 4.018169 -2.009084
endloop
endfacet
facet normal 0.000000 1.000000 0.000000
outer loop
vertex -4.018169 4.018169 0.000000
vertex -2.009084 4.018169 0.000000
vertex -2.009084 4.018169 -2.009084
endloop
endfacet
facet normal 0.000000 1.000000 0.000000
outer loop
vertex 0.000000 4.018169 0.000000
vertex 2.009084 4.018169 -2.009084
vertex 0.000000 4.018169 -2.009084
endloop
endfacet
facet normal 1.000000 0.000000 0.000000
outer loop
vertex 4.018169 4.018169 0.000000
vertex 4.018169 2.009084 -2.009084
vertex 4.018169 4.018169 -2.009084
endloop
endfacet
facet normal 1.000000 0.000000 0.000000
outer loop
vertex 4.018169 4.018169 0.000000
vertex 4.018169 2.009084 0.000000
vertex 4.018169 2.009084 -2.009084
endloop
endfacet
facet normal 1.000000 0.000000 0.000000
outer loop
vertex 4.018169 0.000000 0.000000
vertex 4.018169 -2.009084 -2.009084
vertex 4.018169 0.000000 -2.009084
endloop
endfacet
facet normal 0.000000 0.000000 -1.000000
outer loop
vertex 0.000000 4.018169 -4.018169
vertex -2.009084 2.009084 -4.018169
vertex -2.009084 4.018169 -4.018169
endloop
endfacet
facet normal 0.000000 0.000000 -1.000000
outer loop
vertex 0.000000 4.018169 -4.018169
vertex 0.000000 2.009084 -4.018169
vertex -2.009084 2.009084 -4.018169
endloop
endfacet
facet normal 0.000000 0.000000 -1.000000
outer loop
vertex 0.000000 0.000000 -4.018169
vertex -2.009084 -2.009084 -4.018169
vertex -2.009084 0.000000 -4.018169
endloop
endfacet
facet normal -1.000000 0.000000 0.000000
outer loop
vertex -4.018169 -4.018169 0.000000
vertex -4.018169 -2.009084 -2.009084
vertex -4.018169 -4.018169 -2.009084
endloop
endfacet
facet normal -1.000000 0.000000 0.000000
outer loop
vertex -4.018169 -4.018169 0.000000
vertex -4.018169 -2.009084 0.000000
vertex -4.018169 -2.009084 -2.009084
endloop
endfacet
facet normal -1.000000 0.000000 0.000000
outer loop
vertex -4.018169 0.000000 0.000000
vertex -4.018169 2.009084 -2.009084
vertex -4.018169 0.000000 -2.009084
endloop
endfacet
facet normal 0.000000 -1.000000 0.000000
outer loop
vertex 4.018169 -4.018169 0.000000
vertex 2.009084 -4.018169 -2.009084
vertex 4.018169 -4.018169 -2.009084
endloop
endfacet
facet normal 0.000000 -1.000000 0.000000
outer loop
vertex 4.018169 -4.018169 0.000000
vertex 2.009084 -4.018169 0.000000
vertex 2.009084 -4.018169 -2.009084
endloop
endfacet
facet normal 0.000000 -1.000000 0.000000
outer loop
vertex 0.000000 -4.018169 0.000000
vertex -2.009084 -4.018169 -2.009084
vertex 0.000000 -4.018169 -2.009084
endloop
endfacet
facet normal 0.000000 0.000000 1.000000
outer loop
vertex 0.000000 4.018169 4.018169
vertex 2.009084 2.009084 4.018169
vertex 2.009084 4.018169 4.018169
endloop
endfacet
facet normal 0.000000 0.000000 1.000000
outer loop
vertex 0.000000 4.018169 4.018169
vertex 0.000000 2.009084 4.018169
vertex 2.009084 2.009084 4.018169
endloop
endfacet
facet normal 0.000000 0.000000 1.000000
outer loop
vertex 0.000000 0.000000 4.018169
vertex 2.009084 -2.009084 4.018169
vertex 2.009084 0.000000 4.018169
endloop
endfacet
facet normal 0.000000 0.000000 1.000000
outer loop
vertex 2.009084 0.000000 4.018169
vertex 4.018169 -2.009084 4.018169
vertex 4.018169 0.000000 4.018169
endloop
endfacet
facet normal 0.000000 0.000000 1.000000
outer loop
vertex 2.009084 0.000000 4.018169
vertex 2.009084 -2.009084 4.018169
vertex 4.018169 -2.009084 4.018169
endloop
endfacet
facet normal 0.000000 0.000000 1.000000
outer loop
vertex 2.009084 -2.009084 4.018169
vertex 4.018169 -4.018169 4.018169
vertex 4.018169 -2.009084 4.018169
endloop
endfacet
facet normal 0.000000 0.000000 1.000000
outer loop
vertex 2.009084 2.009084 4.018169
vertex 2.009084 0.000000 4.018169
vertex 4.018169 0.000000 4.018169
endloop
endfacet
facet normal 0.000000 0.000000 1.000000
outer loop
vertex 2.009084 2.009084 4.018169
vertex 0.000000 2.009084 4.018169
vertex 2.009084 0.000000 4.018169
endloop
endfacet
facet normal 0.000000 0.000000 1.000000
outer loop
vertex 0.000000 2.009084 4.018169
vertex 0.000000 0.000000 4.018169
vertex 2.009084 0.000000 4.018169
endloop
endfacet
facet normal 0.000000 0.000000 1.000000
outer loop
vertex 2.009084 4.018169 4.018169
vertex 4.018169 2.009084 4.018169
vertex 4.018169 4.018169 4.018169
endloop
endfacet
facet normal 0.000000 0.000000 1.000000
outer loop
vertex 2.009084 4.018169 4.018169
vertex 2.009084 2.009084 4.018169
vertex 4.018169 2.009084 4.018169
endloop
endfacet
facet normal 0.000000 0.000000 1.000000
outer loop
vertex 2.009084 2.009084 4.018169
vertex 4.018169 0.000000 4.018169
vertex 4.018169 2.009084 4.018169
endloop
endfacet
facet normal 0.000000 -1.000000 0.000000
outer loop
vertex 0.000000 -4.018169 -2.009084
vertex -2.009084 -4.018169 -4.018169
vertex 0.000000 -4.018169 -4.018169
endloop
endfacet
facet normal 0.000000 -1.000000 0.000000
outer loop
vertex 0.000000 -4.018169 -2.009084
vertex -2.009084 -4.018169 -2.009084
vertex -2.009084 -4.018169 -4.018169
endloop
endfacet
facet normal 0.000000 -1.000000 0.000000
outer loop
vertex -2.009084 -4.018169 -2.009084
vertex -4.018169 -4.018169 -4.018169
vertex -2.009084 -4.018169 -4.018169
endloop
endfacet
facet normal 0.000000 -1.000000 0.000000
outer loop
vertex 2.009084 -4.018169 -2.009084
vertex 0.000000 -4.018169 -2.009084
vertex 0.000000 -4.018169 -4.018169
endloop
endfacet
facet normal 0.000000 -1.000000 0.000000
outer loop
vertex 2.009084 -4.018169 -2.009084
vertex 2.009084 -4.018169 0.000000
vertex 0.000000 -4.018169 -2.009084
endloop
endfacet
facet normal 0.000000 -1.000000 0.000000
outer loop
vertex 2.009084 -4.018169 0.000000
vertex 0.000000 -4.018169 0.000000
vertex 0.000000 -4.018169 -2.009084
endloop
endfacet
facet normal 0.000000 -1.000000 0.000000
outer loop
vertex 4.018169 -4.018169 -2.009084
vertex 2.009084 -4.018169 -4.018169
vertex 4.018169 -4.018169 -4.018169
endloop
endfacet
facet normal 0.000000 -1.000000 0.000000
outer loop
vertex 4.018169 -4.018169 -2.009084
vertex 2.009084 -4.018169 -2.009084
vertex 2.009084 -4.018169 -4.018169
endloop
endfacet
facet normal 0.000000 -1.000000 0.000000
outer loop
vertex 2.009084 -4.018169 -2.009084
vertex 0.000000 -4.018169 -4.018169
vertex 2.009084 -4.018169 -4.018169
endloop
endfacet
facet normal -1.000000 0.000000 0.000000
outer loop
vertex -4.018169 0.000000 -2.009084
vertex -4.018169 2.009084 -4.018169
vertex -4.018169 0.000000 -4.018169
endloop
endfacet
facet normal -1.000000 0.000000 0.000000
outer loop
vertex -4.018169 0.000000 -2.009084
vertex -4.018169 2.009084 -2.009084
vertex -4.018169 2.009084 -4.018169
endloop
endfacet
facet normal -1.000000 0.000000 0.000000
outer loop
vertex -4.018169 2.009084 -2.009084
vertex -4.018169 4.018169 -4.018169
vertex -4.018169 2.009084 -4.018169
endloop
endfacet
facet normal -1.000000 0.000000 0.000000
outer loop
vertex -4.018169 -2.009084 -2.009084
vertex -4.018169 0.000000 -2.009084
vertex -4.018169 0.000000 -4.018169
endloop
endfacet
facet normal -1.000000 0.000000 0.000000
outer loop
vertex -4.018169 -2.009084 -2.009084
vertex -4.018169 -2.009084 0.000000
vertex -4.018169 0.000000 -2.009084
endloop
endfacet
facet normal -1.000000 0.000000 0.000000
outer loop
vertex -4.018169 -2.009084 0.000000
vertex -4.018169 0.000000 0.000000
vertex -4.018169 0.000000 -2.009084
endloop
endfacet
facet normal -1.000000 0.000000 0.000000
outer loop
vertex -4.018169 -4.018169 -2.009084
vertex -4.018169 -2.009084 -4.018169
vertex -4.018169 -4.018169 -4.018169
endloop
endfacet
facet normal -1.000000 0.000000 0.000000
outer loop
vertex -4.018169 -4.018169 -2.009084
vertex -4.018169 -2.009084 -2.009084
vertex -4.018169 -2.009084 -4.018169
endloop
endfacet
facet normal -1.000000 0.000000 0.000000
outer loop
vertex -4.018169 -2.009084 -2.009084
vertex -4.018169 0.000000 -4.018169
vertex -4.018169 -2.009084 -4.018169
endloop
endfacet
facet normal 0.000000 0.000000 -1.000000
outer loop
vertex -2.009084 0.000000 -4.018169
vertex -4.018169 -2.009084 -4.018169
vertex -4.018169 0.000000 -4.018169
endloop
endfacet
facet normal 0.000000 0.000000 -1.000000
outer loop
vertex -2.009084 0.000000 -4.018169
vertex -2.009084 -2.009084 -4.018169
vertex -4.018169 -2.009084 -4.018169
endloop
endfacet
facet normal 0.000000 0.000000 -1.000000
outer loop
vertex -2.009084 -2.009084 -4.018169
vertex -4.018169 -4.018169 -4.018169
vertex -4.018169 -2.009084 -4.018169
endloop
endfacet
facet normal 0.000000 0.000000 -1.000000
outer loop
vertex -2.009084 2.009084 -4.018169
vertex -2.009084 0.000000 -4.018169
vertex -4.018169 0.000000 -4.018169
endloop
endfacet
facet normal 0.000000 0.000000 -1.000000
outer loop
vertex -2.009084 2.009084 -4.018169
vertex 0.000000 2.009084 -4.018169
vertex -2.009084 0.000000 -4.018169
endloop
endfacet
facet normal 0.000000 0.000000 -1.000000
outer loop
vertex 0.000000 2.009084 -4.018169
vertex 0.000000 0.000000 -4.018169
vertex -2.009084 0.000000 -4.018169
endloop
endfacet
facet normal 0.000000 0.000000 -1.000000
outer loop
vertex -2.009084 4.018169 -4.018169
vertex -4.018169 2.009084 -4.018169
vertex -4.018169 4.018169 -4.018169
endloop
endfacet
facet normal 0.000000 0.000000 -1.000000
outer loop
vertex -2.009084 4.018169 -4.018169
vertex -2.009084 2.009084 -4.018169
vertex -4.018169 2.009084 -4.018169
endloop
endfacet
facet normal 0.000000 0.000000 -1.000000
outer loop
vertex -2.009084 2.009084 -4.018169
vertex -4.018169 0.000000 -4.018169
vertex -4.018169 2.009084 -4.018169
endloop
endfacet
facet normal 1.000000 0.000000 0.000000
outer loop
vertex 4.018169 0.000000 -2.009084
vertex 4.018169 -2.009084 -4.018169
vertex 4.018169 0.000000 -4.018169
endloop
endfacet
facet normal 1.000000 0.000000 0.000000
outer loop
vertex 4.018169 0.000000 -2.009084
vertex 4.018169 -2.009084 -2.009084
vertex 4.018169 -2.009084 -4.018169
endloop
endfacet
facet normal 1.000000 0.000000 0.000000
outer loop
vertex 4.018169 -2.009084 -2.009084
vertex 4.018169 -4.018169 -4.018169
vertex 4.018169 -2.009084 -4.018169
endloop
endfacet
facet normal 1.000000 0.000000 0.000000
outer loop
vertex 4.018169 2.009084 -2.009084
vertex 4.018169 0.000000 -2.009084
vertex 4.018169 0.000000 -4.018169
endloop
endfacet
facet normal 1.000000 0.000000 0.000000
outer loop
vertex 4.018169 2.009084 -2.009084
vertex 4.018169 2.009084 0.000000
vertex 4.018169 0.000000 -2.009084
endloop
endfacet
facet normal 1.000000 0.000000 0.000000
outer loop
vertex 4.018169 2.009084 0.000000
vertex 4.018169 0.000000 0.000000
vertex 4.018169 0.000000 -2.009084
endloop
endfacet
facet normal 1.000000 0.000000 0.000000
outer loop
vertex 4.018169 4.018169 -2.009084
vertex 4.018169 2.009084 -4.018169
vertex 4.018169 4.018169 -4.018169
endloop
endfacet
facet normal 1.000000 0.000000 0.000000
outer loop
vertex 4.018169 4.018169 -2.009084
vertex 4.018169 2.009084 -2.009084
vertex 4.018169 2.009084 -4.018169
endloop
endfacet
facet normal 1.000000 0.000000 0.000000
outer loop
vertex 4.018169 2.009084 -2.009084
vertex 4.018169 0.000000 -4.018169
vertex 4.018169 2.009084 -4.018169
endloop
endfacet
facet normal 0.000000 1.000000 0.000000
outer loop
vertex 0.000000 4.018169 -2.009084
vertex 2.009084 4.018169 -4.018169
vertex 0.000000 4.018169 -4.018169
endloop
endfacet
facet normal 0.000000 1.000000 0.000000
outer loop
vertex 0.000000 4.018169 -2.009084
vertex 2.009084 4.018169 -2.009084
vertex 2.009084 4.018169 -4.018169
endloop
endfacet
facet normal 0.000000 1.000000 0.000000
outer loop
vertex 2.009084 4.018169 -2.009084
vertex 4.018169 4.018169 -4.018169
vertex 2.009084 4.018169 -4.018169
endloop
endfacet
facet normal 0.000000 1.000000 0.000000
outer loop
vertex -2.009084 4.018169 -2.009084
vertex 0.000000 4.018169 -2.009084
vertex 0.000000 4.018169 -4.018169
endloop
endfacet
facet normal 0.000000 1.000000 0.000000
outer loop
vertex -2.009084 4.018169 -2.009084
vertex -2.009084 4.018169 0.000000
vertex 0.000000 4.018169 -2.009084
endloop
endfacet
facet normal 0.000000 1.000000 0.000000
outer loop
vertex -2.009084 4.018169 0.000000
vertex 0.000000 4.018169 0.000000
vertex 0.000000 4.018169 -2.009084
endloop
endfacet
facet normal 0.000000 1.000000 0.000000
outer loop
vertex -4.018169 4.018169 -2.009084
vertex -2.009084 4.018169 -4.018169
vertex -4.018169 4.018169 -4.018169
endloop
endfacet
facet normal 0.000000 1.000000 0.000000
outer loop
vertex -4.018169 4.018169 -2.009084
vertex -2.009084 4.018169 -2.009084
vertex -2.009084 4.018169 -4.018169
endloop
endfacet
facet normal 0.000000 1.000000 0.000000
outer loop
vertex -2.009084 4.018169 -2.009084
vertex 0.000000 4.018169 -4.018169
vertex -2.009084 4.018169 -4.018169
endloop
endfacet
facet normal 0.000000 0.000000 1.000000
outer loop
vertex -2.009084 -2.009084 4.018169
vertex -2.009084 -4.018169 4.018169
vertex 0.000000 -4.018169 4.018169
endloop
endfacet
facet normal 0.000000 0.000000 1.000000
outer loop
vertex -2.009084 -2.009084 4.018169
vertex -4.018169 -2.009084 4.018169
vertex -2.009084 -4.018169 4.018169
endloop
endfacet
facet normal 0.000000 0.000000 1.000000
outer loop
vertex -4.018169 -2.009084 4.018169
vertex -4.018169 -4.018169 4.018169
vertex -2.009084 -4.018169 4.018169
endloop
endfacet
facet normal 0.000000 0.000000 1.000000
outer loop
vertex 0.000000 -2.009084 4.018169
vertex -2.009084 -2.009084 4.018169
vertex 0.000000 -4.018169 4.018169
endloop
endfacet
facet normal 0.000000 0.000000 1.000000
outer loop
vertex 0.000000 -2.009084 4.018169
vertex -2.009084 0.000000 4.018169
vertex -2.009084 -2.009084 4.018169
endloop
endfacet
facet normal 0.000000 0.000000 1.000000
outer loop
vertex -2.009084 0.000000 4.018169
vertex -4.018169 0.000000 4.018169
vertex -2.009084 -2.009084 4.018169
endloop
endfacet
facet normal 0.000000 0.000000 1.000000
outer loop
vertex 2.009084 -2.009084 4.018169
vertex 2.009084 -4.018169 4.018169
vertex 4.018169 -4.018169 4.018169
endloop
endfacet
facet normal 0.000000 0.000000 1.000000
outer loop
vertex 2.009084 -2.009084 4.018169
vertex 0.000000 -2.009084 4.018169
vertex 2.009084 -4.018169 4.018169
endloop
endfacet
facet normal 0.000000 0.000000 1.000000
outer loop
vertex 0.000000 -2.009084 4.018169
vertex 0.000000 -4.018169 4.018169
vertex 2.009084 -4.018169 4.018169
endloop
endfacet
facet normal 0.000000 -1.000000 0.000000
outer loop
vertex -2.009084 -4.018169 2.009084
vertex -4.018169 -4.018169 2.009084
vertex -4.018169 -4.018169 0.000000
endloop
endfacet
facet normal 0.000000 -1.000000 0.000000
outer loop
vertex -2.009084 -4.018169 2.009084
vertex -2.009084 -4.018169 4.018169
vertex -4.018169 -4.018169 2.009084
endloop
endfacet
facet normal 0.000000 -1.000000 0.000000
outer loop
vertex -2.009084 -4.018169 4.018169
vertex -4.018169 -4.018169 4.018169
vertex -4.018169 -4.018169 2.009084
endloop
endfacet
facet normal 0.000000 -1.000000 0.000000
outer loop
vertex -2.009084 -4.018169 0.000000
vertex -2.009084 -4.018169 2.009084
vertex -4.018169 -4.018169 0.000000
endloop
endfacet
facet normal 0.000000 -1.000000 0.000000
outer loop
vertex -2.009084 -4.018169 0.000000
vertex 0.000000 -4.018169 2.009084
vertex -2.009084 -4.018169 2.009084
endloop
endfacet
facet normal 0.000000 -1.000000 0.000000
outer loop
vertex 0.000000 -4.018169 2.009084
vertex 0.000000 -4.018169 4.018169
vertex -2.009084 -4.018169 2.009084
endloop
endfacet
facet normal 0.000000 -1.000000 0.000000
outer loop
vertex -2.009084 -4.018169 -2.009084
vertex -4.018169 -4.018169 -2.009084
vertex -4.018169 -4.018169 -4.018169
endloop
endfacet
facet normal 0.000000 -1.000000 0.000000
outer loop
vertex -2.009084 -4.018169 -2.009084
vertex -2.009084 -4.018169 0.000000
vertex -4.018169 -4.018169 -2.009084
endloop
endfacet
facet normal 0.000000 -1.000000 0.000000
outer loop
vertex -2.009084 -4.018169 0.000000
vertex -4.018169 -4.018169 0.000000
vertex -4.018169 -4.018169 -2.009084
endloop
endfacet
facet normal -1.000000 0.000000 0.000000
outer loop
vertex -4.018169 2.009084 2.009084
vertex -4.018169 4.018169 2.009084
vertex -4.018169 4.018169 0.000000
endloop
endfacet
facet normal -1.000000 0.000000 0.000000
outer loop
vertex -4.018169 2.009084 2.009084
vertex -4.018169 2.009084 4.018169
vertex -4.018169 4.018169 2.009084
endloop
endfacet
facet normal -1.000000 0.000000 0.000000
outer loop
vertex -4.018169 2.009084 4.018169
vertex -4.018169 4.018169 4.018169
vertex -4.018169 4.018169 2.009084
endloop
endfacet
facet normal -1.000000 0.000000 0.000000
outer loop
vertex -4.018169 2.009084 0.000000
vertex -4.018169 2.009084 2.009084
vertex -4.018169 4.018169 0.000000
endloop
endfacet
facet normal -1.000000 0.000000 0.000000
outer loop
vertex -4.018169 2.009084 0.000000
vertex -4.018169 0.000000 2.009084
vertex -4.018169 2.009084 2.009084
endloop
endfacet
facet normal -1.000000 0.000000 0.000000
outer loop
vertex -4.018169 0.000000 2.009084
vertex -4.018169 0.000000 4.018169
vertex -4.018169 2.009084 2.009084
endloop
endfacet
facet normal -1.000000 0.000000 0.000000
outer loop
vertex -4.018169 2.009084 -2.009084
vertex -4.018169 4.018169 -2.009084
vertex -4.018169 4.018169 -4.018169
endloop
endfacet
facet normal -1.000000 0.000000 0.000000
outer loop
vertex -4.018169 2.009084 -2.009084
vertex -4.018169 2.009084 0.000000
vertex -4.018169 4.018169 -2.009084
endloop
endfacet
facet normal -1.000000 0.000000 0.000000
outer loop
vertex -4.018169 2.009084 0.000000
vertex -4.018169 4.018169 0.000000
vertex -4.018169 4.018169 -2.009084
endloop
endfacet
facet normal 0.000000 0.000000 -1.000000
outer loop
vertex 2.009084 -2.009084 -4.018169
vertex 2.009084 -4.018169 -4.018169
vertex 0.000000 -4.018169 -4.018169
endloop
endfacet
facet normal 0.000000 0.000000 -1.000000
outer loop
vertex 2.009084 -2.009084 -4.018169
vertex 4.018169 -2.009084 -4.018169
vertex 2.009084 -4.018169 -4.018169
endloop
endfacet
facet normal 0.000000 0.000000 -1.000000
outer loop
vertex 4.018169 -2.009084 -4.018169
vertex 4.018169 -4.018169 -4.018169
vertex 2.009084 -4.018169 -4.018169
endloop
endfacet
facet normal 0.000000 0.000000 -1.000000
outer loop
vertex 0.000000 -2.009084 -4.018169
vertex 2.009084 -2.009084 -4.018169
vertex 0.000000 -4.018169 -4.018169
endloop
endfacet
facet normal 0.000000 0.000000 -1.000000
outer loop
vertex 0.000000 -2.009084 -4.018169
vertex 2.009084 0.000000 -4.018169
vertex 2.009084 -2.009084 -4.018169
endloop
endfacet
facet normal 0.000000 0.000000 -1.000000
outer loop
vertex 2.009084 0.000000 -4.018169
vertex 4.018169 0.000000 -4.018169
vertex 2.009084 -2.009084 -4.018169
endloop
endfacet
facet normal 0.000000 0.000000 -1.000000
outer loop
vertex -2.009084 -2.009084 -4.018169
vertex -2.009084 -4.018169 -4.018169
vertex -4.018169 -4.018169 -4.018169
endloop
endfacet
facet normal 0.000000 0.000000 -1.000000
outer loop
vertex -2.009084 -2.009084 -4.018169
vertex 0.000000 -2.009084 -4.018169
vertex -2.009084 -4.018169 -4.018169
endloop
endfacet
facet normal 0.000000 0.000000 -1.000000
outer loop
vertex 0.000000 -2.009084 -4.018169
vertex 0.000000 -4.018169 -4.018169
vertex -2.009084 -4.018169 -4.018169
endloop
endfacet
facet normal 1.000000 0.000000 0.000000
outer loop
vertex 4.018169 -2.009084 2.009084
vertex 4.018169 -4.018169 2.009084
vertex 4.018169 -4.018169 0.000000
endloop
endfacet
facet normal 1.000000 0.000000 0.000000
outer loop
vertex 4.018169 -2.009084 2.009084
vertex 4.018169 -2.009084 4.018169
vertex 4.018169 -4.018169 2.009084
endloop
endfacet
facet normal 1.000000 0.000000 0.000000
outer loop
vertex 4.018169 -2.009084 4.018169
vertex 4.018169 -4.018169 4.018169
vertex 4.018169 -4.018169 2.009084
endloop
endfacet
facet normal 1.000000 0.000000 0.000000
outer loop
vertex 4.018169 -2.009084 0.000000
vertex 4.018169 -2.009084 2.009084
vertex 4.018169 -4.018169 0.000000
endloop
endfacet
facet normal 1.000000 0.000000 0.000000
outer loop
vertex 4.018169 -2.009084 0.000000
vertex 4.018169 0.000000 2.009084
vertex 4.018169 -2.009084 2.009084
endloop
endfacet
facet normal 1.000000 0.000000 0.000000
outer loop
vertex 4.018169 0.000000 2.009084
vertex 4.018169 0.000000 4.018169
vertex 4.018169 -2.009084 2.009084
endloop
endfacet
facet normal 1.000000 0.000000 0.000000
outer loop
vertex 4.018169 -2.009084 -2.009084
vertex 4.018169 -4.018169 -2.009084
vertex 4.018169 -4.018169 -4.018169
endloop
endfacet
facet normal 1.000000 0.000000 0.000000
outer loop
vertex 4.018169 -2.009084 -2.009084
vertex 4.018169 -2.009084 0.000000
vertex 4.018169 -4.018169 -2.009084
endloop
endfacet
facet normal 1.000000 0.000000 0.000000
outer loop
vertex 4.018169 -2.009084 0.000000
vertex 4.018169 -4.018169 0.000000
vertex 4.018169 -4.018169 -2.009084
endloop
endfacet
facet normal 0.000000 1.000000 0.000000
outer loop
vertex 2.009084 4.018169 2.009084
vertex 4.018169 4.018169 2.009084
vertex 4.018169 4.018169 0.000000
endloop
endfacet
facet normal 0.000000 1.000000 0.000000
outer loop
vertex 2.009084 4.018169 2.009084
vertex 2.009084 4.018169 4.018169
vertex 4.018169 4.018169 2.009084
endloop
endfacet
facet normal 0.000000 1.000000 0.000000
outer loop
vertex 2.009084 4.018169 4.018169
vertex 4.018169 4.018169 4.018169
vertex 4.018169 4.018169 2.009084
endloop
endfacet
facet normal 0.000000 1.000000 0.000000
outer loop
vertex 2.009084 4.018169 0.000000
vertex 2.009084 4.018169 2.009084
vertex 4.018169 4.018169 0.000000
endloop
endfacet
facet normal 0.000000 1.000000 0.000000
outer loop
vertex 2.009084 4.018169 0.000000
vertex 0.000000 4.018169 2.009084
vertex 2.009084 4.018169 2.009084
endloop
endfacet
facet normal 0.000000 1.000000 0.000000
outer loop
vertex 0.000000 4.018169 2.009084
vertex 0.000000 4.018169 4.018169
vertex 2.009084 4.018169 2.009084
endloop
endfacet
facet normal 0.000000 1.000000 0.000000
outer loop
vertex 2.009084 4.018169 -2.009084
vertex 4.018169 4.018169 -2.009084
vertex 4.018169 4.018169 -4.018169
endloop
endfacet
facet normal 0.000000 1.000000 0.000000
outer loop
vertex 2.009084 4.018169 -2.009084
vertex 2.009084 4.018169 0.000000
vertex 4.018169 4.018169 -2.009084
endloop
endfacet
facet normal 0.000000 1.000000 0.000000
outer loop
vertex 2.009084 4.018169 0.000000
vertex 4.018169 4.018169 0.000000
vertex 4.018169 4.018169 -2.009084
endloop
endfacet
facet normal 0.000000 1.000000 0.000000
outer loop
vertex -2.009084 4.018169 2.009084
vertex 0.000000 4.018169 2.009084
vertex 0.000000 4.018169 0.000000
endloop
endfacet
facet normal 0.000000 1.000000 0.000000
outer loop
vertex -2.009084 4.018169 2.009084
vertex -2.009084 4.018169 4.018169
vertex 0.000000 4.018169 2.009084
endloop
endfacet
facet normal 0.000000 1.000000 0.000000
outer loop
vertex -2.009084 4.018169 4.018169
vertex 0.000000 4.018169 4.018169
vertex 0.000000 4.018169 2.009084
endloop
endfacet
facet normal 1.000000 0.000000 0.000000
outer loop
vertex 4.018169 2.009084 2.009084
vertex 4.018169 0.000000 2.009084
vertex 4.018169 0.000000 0.000000
endloop
endfacet
facet normal 1.000000 0.000000 0.000000
outer loop
vertex 4.018169 2.009084 2.009084
vertex 4.018169 2.009084 4.018169
vertex 4.018169 0.000000 2.009084
endloop
endfacet
facet normal 1.000000 0.000000 0.000000
outer loop
vertex 4.018169 2.009084 4.018169
vertex 4.018169 0.000000 4.018169
vertex 4.018169 0.000000 2.009084
endloop
endfacet
facet normal 0.000000 0.000000 -1.000000
outer loop
vertex 2.009084 2.009084 -4.018169
vertex 2.009084 0.000000 -4.018169
vertex 0.000000 0.000000 -4.018169
endloop
endfacet
facet normal 0.000000 0.000000 -1.000000
outer loop
vertex 2.009084 2.009084 -4.018169
vertex 4.018169 2.009084 -4.018169
vertex 2.009084 0.000000 -4.018169
endloop
endfacet
facet normal 0.000000 0.000000 -1.000000
outer loop
vertex 4.018169 2.009084 -4.018169
vertex 4.018169 0.000000 -4.018169
vertex 2.009084 0.000000 -4.018169
endloop
endfacet
facet normal -1.000000 0.000000 0.000000
outer loop
vertex -4.018169 -2.009084 2.009084
vertex -4.018169 0.000000 2.009084
vertex -4.018169 0.000000 0.000000
endloop
endfacet
facet normal -1.000000 0.000000 0.000000
outer loop
vertex -4.018169 -2.009084 2.009084
vertex -4.018169 -2.009084 4.018169
vertex -4.018169 0.000000 2.009084
endloop
endfacet
facet normal -1.000000 0.000000 0.000000
outer loop
vertex -4.018169 -2.009084 4.018169
vertex -4.018169 0.000000 4.018169
vertex -4.018169 0.000000 2.009084
endloop
endfacet
facet normal 0.000000 -1.000000 0.000000
outer loop
vertex 2.009084 -4.018169 2.009084
vertex 0.000000 -4.018169 2.009084
vertex 0.000000 -4.018169 0.000000
endloop
endfacet
facet normal 0.000000 -1.000000 0.000000
outer loop
vertex 2.009084 -4.018169 2.009084
vertex 2.009084 -4.018169 4.018169
vertex 0.000000 -4.018169 2.009084
endloop
endfacet
facet normal 0.000000 -1.000000 0.000000
outer loop
vertex 2.009084 -4.018169 4.018169
vertex 0.000000 -4.018169 4.018169
vertex 0.000000 -4.018169 2.009084
endloop
endfacet
facet normal 0.000000 0.000000 1.000000
outer loop
vertex -2.009084 2.009084 4.018169
vertex -2.009084 0.000000 4.018169
vertex 0.000000 0.000000 4.018169
endloop
endfacet
facet normal 0.000000 0.000000 1.000000
outer loop
vertex -2.009084 2.009084 4.018169
vertex -4.018169 2.009084 4.018169
vertex -2.009084 0.000000 4.018169
endloop
endfacet
facet normal 0.000000 0.000000 1.000000
outer loop
vertex -4.018169 2.009084 4.018169
vertex -4.018169 0.000000 4.018169
vertex -2.009084 0.000000 4.018169
endloop
endfacet
facet normal 0.000000 1.000000 0.000000
outer loop
vertex -4.018169 4.018169 2.009084
vertex -2.009084 4.018169 0.000000
vertex -4.018169 4.018169 0.000000
endloop
endfacet
facet normal 0.000000 1.000000 0.000000
outer loop
vertex -4.018169 4.018169 2.009084
vertex -2.009084 4.018169 2.009084
vertex -2.009084 4.018169 0.000000
endloop
endfacet
facet normal 0.000000 1.000000 0.000000
outer loop
vertex -2.009084 4.018169 2.009084
vertex 0.000000 4.018169 0.000000
vertex -2.009084 4.018169 0.000000
endloop
endfacet
facet normal 1.000000 0.000000 0.000000
outer loop
vertex 4.018169 4.018169 2.009084
vertex 4.018169 2.009084 0.000000
vertex 4.018169 4.018169 0.000000
endloop
endfacet
facet normal 1.000000 0.000000 0.000000
outer loop
vertex 4.018169 4.018169 2.009084
vertex 4.018169 2.009084 2.009084
vertex 4.018169 2.009084 0.000000
endloop
endfacet
facet normal 1.000000 0.000000 0.000000
outer loop
vertex 4.018169 2.009084 2.009084
vertex 4.018169 0.000000 0.000000
vertex 4.018169 2.009084 0.000000
endloop
endfacet
facet normal 0.000000 0.000000 -1.000000
outer loop
vertex 2.009084 4.018169 -4.018169
vertex 0.000000 2.009084 -4.018169
vertex 0.000000 4.018169 -4.018169
endloop
endfacet
facet normal 0.000000 0.000000 -1.000000
outer loop
vertex 2.009084 4.018169 -4.018169
vertex 2.009084 2.009084 -4.018169
vertex 0.000000 2.009084 -4.018169
endloop
endfacet
facet normal 0.000000 0.000000 -1.000000
outer loop
vertex 2.009084 2.009084 -4.018169
vertex 0.000000 0.000000 -4.018169
vertex 0.000000 2.009084 -4.018169
endloop
endfacet
facet normal -1.000000 0.000000 0.000000
outer loop
vertex -4.018169 -4.018169 2.009084
vertex -4.018169 -2.009084 0.000000
vertex -4.018169 -4.018169 0.000000
endloop
endfacet
facet normal -1.000000 0.000000 0.000000
outer loop
vertex -4.018169 -4.018169 2.009084
vertex -4.018169 -2.009084 2.009084
vertex -4.018169 -2.009084 0.000000
endloop
endfacet
facet normal -1.000000 0.000000 0.000000
outer loop
vertex -4.018169 -2.009084 2.009084
vertex -4.018169 0.000000 0.000000
vertex -4.018169 -2.009084 0.000000
endloop
endfacet
facet normal 0.000000 -1.000000 0.000000
outer loop
vertex 4.018169 -4.018169 2.009084
vertex 2.009084 -4.018169 0.000000
vertex 4.018169 -4.018169 0.000000
endloop
endfacet
facet normal 0.000000 -1.000000 0.000000
outer loop
vertex 4.018169 -4.018169 2.009084
vertex 2.009084 -4.018169 2.009084
vertex 2.009084 -4.018169 0.000000
endloop
endfacet
facet normal 0.000000 -1.000000 0.000000
outer loop
vertex 2.009084 -4.018169 2.009084
vertex 0.000000 -4.018169 0.000000
vertex 2.009084 -4.018169 0.000000
endloop
endfacet
facet normal 0.000000 0.000000 1.000000
outer loop
vertex -2.009084 4.018169 4.018169
vertex 0.000000 2.009084 4.018169
vertex 0.000000 4.018169 4.018169
endloop
endfacet
facet normal 0.000000 0.000000 1.000000
outer loop
vertex -2.009084 4.018169 4.018169
vertex -2.009084 2.009084 4.018169
vertex 0.000000 2.009084 4.018169
endloop
endfacet
facet normal 0.000000 0.000000 1.000000
outer loop
vertex -2.009084 2.009084 4.018169
vertex 0.000000 0.000000 4.018169
vertex 0.000000 2.009084 4.018169
endloop
endfacet
endsolid Exported from Blender-2.81 (sub 16)
