solid Exported from Blender-2.81 (sub 16)
facet normal 0.000013 0.004095 0.999992
outer loop
vertex 5.366501 -20.779871 2.008134
vertex 5.363989 -15.580644 1.986845
vertex 0.164718 -15.583155 1.986924
endloop
endfacet
facet normal 0.000013 0.004094 0.999992
outer loop
vertex -15.440631 0.007000 1.923291
vertex -15.443144 5.206228 1.902004
vertex -20.642416 5.203717 1.902082
endloop
endfacet
facet normal 0.000013 0.004095 0.999992
outer loop
vertex -15.430586 -20.789917 2.008451
vertex -15.433098 -15.590688 1.987160
vertex -20.632368 -15.593200 1.987240
endloop
endfacet
facet normal 0.000013 0.004095 0.999992
outer loop
vertex 5.356454 0.017045 1.922977
vertex 5.353942 5.216273 1.901687
vertex 0.154671 5.213762 1.901767
endloop
endfacet
facet normal 0.000013 0.004095 0.999992
outer loop
vertex 15.754997 0.022068 1.922818
vertex 15.752487 5.221297 1.901529
vertex 10.553214 5.218785 1.901609
endloop
endfacet
facet normal 0.000013 0.004095 0.999992
outer loop
vertex 15.749972 10.420526 1.880240
vertex 15.747463 15.619755 1.858951
vertex 10.548192 15.617245 1.859030
endloop
endfacet
facet normal 0.000013 0.004095 0.999992
outer loop
vertex 5.351431 10.415504 1.880398
vertex 5.348919 15.614732 1.859109
vertex 0.149648 15.612221 1.859188
endloop
endfacet
facet normal 0.000013 0.004095 0.999992
outer loop
vertex -5.032042 -20.784895 2.008292
vertex -5.034553 -15.585665 1.987002
vertex -10.233827 -15.588178 1.987082
endloop
endfacet
facet normal 0.000013 0.004095 0.999992
outer loop
vertex -5.037065 -10.386436 1.965713
vertex -5.039577 -5.187207 1.944423
vertex -10.238849 -5.189718 1.944502
endloop
endfacet
facet normal 0.000013 0.004095 0.999992
outer loop
vertex -15.435610 -10.391458 1.965871
vertex -15.438120 -5.192231 1.944582
vertex -20.637392 -5.194741 1.944660
endloop
endfacet
facet normal 0.000013 0.004095 0.999992
outer loop
vertex -5.042089 0.012023 1.923134
vertex -5.044601 5.211250 1.901845
vertex -10.243870 5.208740 1.901924
endloop
endfacet
facet normal 0.000013 0.004095 0.999992
outer loop
vertex -5.047112 10.410480 1.880556
vertex -5.049624 15.609707 1.859267
vertex -10.248895 15.607196 1.859346
endloop
endfacet
facet normal 0.000013 0.004095 0.999992
outer loop
vertex -15.445657 10.405457 1.880714
vertex -15.448166 15.604684 1.859424
vertex -20.647436 15.602175 1.859504
endloop
endfacet
facet normal 0.000013 0.004095 0.999992
outer loop
vertex 15.765043 -20.774847 2.007976
vertex 15.762533 -15.575619 1.986687
vertex 10.563261 -15.578131 1.986766
endloop
endfacet
facet normal 0.000013 0.004095 0.999992
outer loop
vertex 15.760019 -10.376389 1.965397
vertex 15.757506 -5.177161 1.944107
vertex 10.558237 -5.179674 1.944186
endloop
endfacet
facet normal 0.000013 0.004095 0.999992
outer loop
vertex 5.361477 -10.381413 1.965555
vertex 5.358966 -5.182184 1.944265
vertex 0.159694 -5.184695 1.944345
endloop
endfacet
facet normal 0.000013 0.004095 0.999992
outer loop
vertex 10.560750 -10.378901 1.965477
vertex 10.558237 -5.179674 1.944186
vertex 5.358966 -5.182184 1.944265
endloop
endfacet
facet normal 0.000013 0.004095 0.999992
outer loop
vertex 10.558237 -5.179674 1.944186
vertex 10.555726 0.019557 1.922898
vertex 5.356454 0.017045 1.922977
endloop
endfacet
facet normal 0.000013 0.004095 0.999992
outer loop
vertex 5.358966 -5.182184 1.944265
vertex 5.356454 0.017045 1.922977
vertex 0.157183 0.014534 1.923055
endloop
endfacet
facet normal 0.000013 0.004095 0.999992
outer loop
vertex 20.959291 -10.373878 1.965319
vertex 20.956778 -5.174650 1.944029
vertex 15.757506 -5.177161 1.944107
endloop
endfacet
facet normal 0.000013 0.004095 0.999992
outer loop
vertex 20.956778 -5.174650 1.944029
vertex 20.954269 0.024580 1.922738
vertex 15.754997 0.022068 1.922818
endloop
endfacet
facet normal 0.000013 0.004095 0.999992
outer loop
vertex 15.757506 -5.177161 1.944107
vertex 15.754997 0.022068 1.922818
vertex 10.555726 0.019557 1.922898
endloop
endfacet
facet normal 0.000013 0.004095 0.999992
outer loop
vertex 20.964314 -20.772335 2.007897
vertex 20.961803 -15.573108 1.986607
vertex 15.762533 -15.575619 1.986687
endloop
endfacet
facet normal 0.000013 0.004094 0.999992
outer loop
vertex 20.961803 -15.573108 1.986607
vertex 20.959291 -10.373878 1.965319
vertex 15.760019 -10.376389 1.965397
endloop
endfacet
facet normal 0.000013 0.004095 0.999992
outer loop
vertex 15.762533 -15.575619 1.986687
vertex 15.760019 -10.376389 1.965397
vertex 10.560750 -10.378901 1.965477
endloop
endfacet
facet normal 0.000013 0.004094 0.999992
outer loop
vertex -10.246386 10.407969 1.880634
vertex -10.248895 15.607196 1.859346
vertex -15.448166 15.604684 1.859424
endloop
endfacet
facet normal 0.000013 0.004095 0.999992
outer loop
vertex -10.248895 15.607196 1.859346
vertex -10.251408 20.806427 1.838057
vertex -15.450681 20.803915 1.838137
endloop
endfacet
facet normal 0.000013 0.004094 0.999992
outer loop
vertex -15.448166 15.604684 1.859424
vertex -15.450681 20.803915 1.838137
vertex -20.649950 20.801403 1.838215
endloop
endfacet
facet normal 0.000013 0.004095 0.999992
outer loop
vertex 0.152159 10.412990 1.880477
vertex 0.149648 15.612221 1.859188
vertex -5.049624 15.609707 1.859267
endloop
endfacet
facet normal 0.000013 0.004094 0.999992
outer loop
vertex 0.149648 15.612221 1.859188
vertex 0.147136 20.811449 1.837900
vertex -5.052136 20.808939 1.837979
endloop
endfacet
facet normal 0.000013 0.004094 0.999992
outer loop
vertex -5.049624 15.609707 1.859267
vertex -5.052136 20.808939 1.837979
vertex -10.251408 20.806427 1.838057
endloop
endfacet
facet normal 0.000013 0.004095 0.999992
outer loop
vertex 0.157183 0.014534 1.923055
vertex 0.154671 5.213762 1.901767
vertex -5.044601 5.211250 1.901845
endloop
endfacet
facet normal 0.000013 0.004095 0.999992
outer loop
vertex 0.154671 5.213762 1.901767
vertex 0.152159 10.412990 1.880477
vertex -5.047112 10.410480 1.880556
endloop
endfacet
facet normal 0.000013 0.004095 0.999992
outer loop
vertex -5.044601 5.211250 1.901845
vertex -5.047112 10.410480 1.880556
vertex -10.246386 10.407969 1.880634
endloop
endfacet
facet normal 0.000013 0.004095 0.999992
outer loop
vertex -10.236336 -10.388945 1.965792
vertex -10.238849 -5.189718 1.944502
vertex -15.438120 -5.192231 1.944582
endloop
endfacet
facet normal 0.000013 0.004095 0.999992
outer loop
vertex -10.238849 -5.189718 1.944502
vertex -10.241361 0.009512 1.923213
vertex -15.440631 0.007000 1.923291
endloop
endfacet
facet normal 0.000013 0.004095 0.999992
outer loop
vertex -15.438120 -5.192231 1.944582
vertex -15.440631 0.007000 1.923291
vertex -20.639900 0.004488 1.923371
endloop
endfacet
facet normal 0.000013 0.004095 0.999992
outer loop
vertex 0.162206 -10.383922 1.965634
vertex 0.159694 -5.184695 1.944345
vertex -5.039577 -5.187207 1.944423
endloop
endfacet
facet normal 0.000013 0.004095 0.999992
outer loop
vertex 0.159694 -5.184695 1.944345
vertex 0.157183 0.014534 1.923055
vertex -5.042089 0.012023 1.923134
endloop
endfacet
facet normal 0.000013 0.004095 0.999992
outer loop
vertex -5.039577 -5.187207 1.944423
vertex -5.042089 0.012023 1.923134
vertex -10.241361 0.009512 1.923213
endloop
endfacet
facet normal 0.000013 0.004095 0.999992
outer loop
vertex 0.167230 -20.782381 2.008213
vertex 0.164718 -15.583155 1.986924
vertex -5.034553 -15.585665 1.987002
endloop
endfacet
facet normal 0.000013 0.004095 0.999992
outer loop
vertex 0.164718 -15.583155 1.986924
vertex 0.162206 -10.383922 1.965634
vertex -5.037065 -10.386436 1.965713
endloop
endfacet
facet normal 0.000013 0.004095 0.999992
outer loop
vertex -5.034553 -15.585665 1.987002
vertex -5.037065 -10.386436 1.965713
vertex -10.236336 -10.388945 1.965792
endloop
endfacet
facet normal 0.000013 0.004094 0.999992
outer loop
vertex 10.550702 10.418015 1.880318
vertex 10.548192 15.617245 1.859030
vertex 5.348919 15.614732 1.859109
endloop
endfacet
facet normal 0.000013 0.004095 0.999992
outer loop
vertex 10.548192 15.617245 1.859030
vertex 10.545678 20.816473 1.837741
vertex 5.346407 20.813961 1.837820
endloop
endfacet
facet normal 0.000013 0.004095 0.999992
outer loop
vertex 5.348919 15.614732 1.859109
vertex 5.346407 20.813961 1.837820
vertex 0.147136 20.811449 1.837900
endloop
endfacet
facet normal 0.000013 0.004094 0.999992
outer loop
vertex 20.949245 10.423038 1.880160
vertex 20.946733 15.622266 1.858873
vertex 15.747463 15.619755 1.858951
endloop
endfacet
facet normal 0.000013 0.004094 0.999992
outer loop
vertex 20.946733 15.622266 1.858873
vertex 20.944221 20.821495 1.837585
vertex 15.744950 20.818983 1.837663
endloop
endfacet
facet normal 0.000013 0.004094 0.999992
outer loop
vertex 15.747463 15.619755 1.858951
vertex 15.744950 20.818983 1.837663
vertex 10.545678 20.816473 1.837741
endloop
endfacet
facet normal 0.000013 0.004094 0.999992
outer loop
vertex 20.954269 0.024580 1.922738
vertex 20.951757 5.223807 1.901451
vertex 15.752487 5.221297 1.901529
endloop
endfacet
facet normal 0.000013 0.004095 0.999992
outer loop
vertex 20.951757 5.223807 1.901451
vertex 20.949245 10.423038 1.880160
vertex 15.749972 10.420526 1.880240
endloop
endfacet
facet normal 0.000013 0.004095 0.999992
outer loop
vertex 15.752487 5.221297 1.901529
vertex 15.749972 10.420526 1.880240
vertex 10.550702 10.418015 1.880318
endloop
endfacet
facet normal 0.000013 0.004095 0.999992
outer loop
vertex 10.555726 0.019557 1.922898
vertex 10.553214 5.218785 1.901609
vertex 5.353942 5.216273 1.901687
endloop
endfacet
facet normal 0.000013 0.004095 0.999992
outer loop
vertex 10.553214 5.218785 1.901609
vertex 10.550702 10.418015 1.880318
vertex 5.351431 10.415504 1.880398
endloop
endfacet
facet normal 0.000013 0.004095 0.999992
outer loop
vertex 5.353942 5.216273 1.901687
vertex 5.351431 10.415504 1.880398
vertex 0.152159 10.412990 1.880477
endloop
endfacet
facet normal 0.000013 0.004095 0.999992
outer loop
vertex -10.231313 -20.787405 2.008371
vertex -10.233827 -15.588178 1.987082
vertex -15.433098 -15.590688 1.987160
endloop
endfacet
facet normal 0.000013 0.004095 0.999992
outer loop
vertex -10.233827 -15.588178 1.987082
vertex -10.236336 -10.388945 1.965792
vertex -15.435610 -10.391458 1.965871
endloop
endfacet
facet normal 0.000013 0.004095 0.999992
outer loop
vertex -15.433098 -15.590688 1.987160
vertex -15.435610 -10.391458 1.965871
vertex -20.634882 -10.393970 1.965951
endloop
endfacet
facet normal 0.000013 0.004095 0.999992
outer loop
vertex -10.241361 0.009512 1.923213
vertex -10.243870 5.208740 1.901924
vertex -15.443144 5.206228 1.902004
endloop
endfacet
facet normal 0.000013 0.004095 0.999992
outer loop
vertex -10.243870 5.208740 1.901924
vertex -10.246386 10.407969 1.880634
vertex -15.445657 10.405457 1.880714
endloop
endfacet
facet normal 0.000013 0.004095 0.999992
outer loop
vertex -15.443144 5.206228 1.902004
vertex -15.445657 10.405457 1.880714
vertex -20.644926 10.402947 1.880792
endloop
endfacet
facet normal 0.000013 0.004095 0.999992
outer loop
vertex 10.565772 -20.777361 2.008055
vertex 10.563261 -15.578131 1.986766
vertex 5.363989 -15.580644 1.986845
endloop
endfacet
facet normal 0.000013 0.004095 0.999992
outer loop
vertex 10.563261 -15.578131 1.986766
vertex 10.560750 -10.378901 1.965477
vertex 5.361477 -10.381413 1.965555
endloop
endfacet
facet normal 0.000013 0.004095 0.999992
outer loop
vertex 5.363989 -15.580644 1.986845
vertex 5.361477 -10.381413 1.965555
vertex 0.162206 -10.383922 1.965634
endloop
endfacet
facet normal -0.000013 -0.004095 -0.999992
outer loop
vertex 0.164644 -15.606203 -3.642035
vertex 5.363915 -15.603691 -3.642114
vertex 5.366427 -20.802927 -3.620825
endloop
endfacet
facet normal -0.000013 -0.004095 -0.999992
outer loop
vertex -20.642488 5.180668 -3.726877
vertex -15.443215 5.183179 -3.726955
vertex -15.440706 -0.016049 -3.705666
endloop
endfacet
facet normal -0.000013 -0.004095 -0.999992
outer loop
vertex -20.632442 -15.616248 -3.641718
vertex -15.433172 -15.613737 -3.641798
vertex -15.430661 -20.812965 -3.620509
endloop
endfacet
facet normal -0.000013 -0.004095 -0.999992
outer loop
vertex 0.154597 5.190713 -3.727192
vertex 5.353868 5.193225 -3.727271
vertex 5.356380 -0.006003 -3.705982
endloop
endfacet
facet normal -0.000013 -0.004095 -0.999992
outer loop
vertex 10.553141 5.195736 -3.727350
vertex 15.752411 5.198248 -3.727429
vertex 15.754919 -0.000981 -3.706140
endloop
endfacet
facet normal -0.000013 -0.004095 -0.999992
outer loop
vertex 10.548118 15.594193 -3.769929
vertex 15.747387 15.596704 -3.770008
vertex 15.749902 10.397476 -3.748718
endloop
endfacet
facet normal -0.000013 -0.004095 -0.999992
outer loop
vertex 0.149573 15.589170 -3.769771
vertex 5.348845 15.591680 -3.769850
vertex 5.351356 10.392454 -3.748561
endloop
endfacet
facet normal -0.000013 -0.004094 -0.999992
outer loop
vertex -10.233899 -15.611225 -3.641876
vertex -5.034628 -15.608714 -3.641955
vertex -5.032116 -20.807949 -3.620667
endloop
endfacet
facet normal -0.000013 -0.004095 -0.999992
outer loop
vertex -10.238921 -5.212767 -3.684456
vertex -5.039651 -5.210255 -3.684536
vertex -5.037139 -10.409485 -3.663245
endloop
endfacet
facet normal -0.000013 -0.004095 -0.999992
outer loop
vertex -20.637466 -5.217790 -3.684299
vertex -15.438196 -5.215280 -3.684377
vertex -15.435681 -10.414506 -3.663087
endloop
endfacet
facet normal -0.000013 -0.004095 -0.999992
outer loop
vertex -10.243946 5.185691 -3.727035
vertex -5.044675 5.188202 -3.727113
vertex -5.042163 -0.011026 -3.705823
endloop
endfacet
facet normal -0.000013 -0.004095 -0.999992
outer loop
vertex -10.248969 15.584146 -3.769613
vertex -5.049697 15.586657 -3.769692
vertex -5.047186 10.387431 -3.748403
endloop
endfacet
facet normal -0.000013 -0.004095 -0.999992
outer loop
vertex -20.647512 15.579123 -3.769455
vertex -15.448242 15.581635 -3.769535
vertex -15.445728 10.382409 -3.748244
endloop
endfacet
facet normal -0.000013 -0.004094 -0.999992
outer loop
vertex 10.563187 -15.601180 -3.642193
vertex 15.762457 -15.598671 -3.642272
vertex 15.764970 -20.797901 -3.620984
endloop
endfacet
facet normal -0.000013 -0.004095 -0.999992
outer loop
vertex 10.558164 -5.202722 -3.684772
vertex 15.757434 -5.200210 -3.684850
vertex 15.759950 -10.399438 -3.663561
endloop
endfacet
facet normal -0.000013 -0.004095 -0.999992
outer loop
vertex 0.159620 -5.207744 -3.684614
vertex 5.358891 -5.205233 -3.684693
vertex 5.361403 -10.404461 -3.663403
endloop
endfacet
facet normal -0.000013 -0.004095 -0.999992
outer loop
vertex 5.358891 -5.205233 -3.684693
vertex 10.558164 -5.202722 -3.684772
vertex 10.560677 -10.401948 -3.663482
endloop
endfacet
facet normal -0.000013 -0.004094 -0.999992
outer loop
vertex 5.356380 -0.006003 -3.705982
vertex 10.555653 -0.003492 -3.706060
vertex 10.558164 -5.202722 -3.684772
endloop
endfacet
facet normal -0.000013 -0.004095 -0.999992
outer loop
vertex 0.157108 -0.008515 -3.705903
vertex 5.356380 -0.006003 -3.705982
vertex 5.358891 -5.205233 -3.684693
endloop
endfacet
facet normal -0.000013 -0.004095 -0.999992
outer loop
vertex 15.757434 -5.200210 -3.684850
vertex 20.956707 -5.197700 -3.684930
vertex 20.959217 -10.396928 -3.663640
endloop
endfacet
facet normal -0.000013 -0.004094 -0.999992
outer loop
vertex 15.754919 -0.000981 -3.706140
vertex 20.954191 0.001531 -3.706218
vertex 20.956707 -5.197700 -3.684930
endloop
endfacet
facet normal -0.000013 -0.004095 -0.999992
outer loop
vertex 10.555653 -0.003492 -3.706060
vertex 15.754919 -0.000981 -3.706140
vertex 15.757434 -5.200210 -3.684850
endloop
endfacet
facet normal -0.000013 -0.004094 -0.999992
outer loop
vertex 15.762457 -15.598671 -3.642272
vertex 20.961727 -15.596157 -3.642349
vertex 20.964239 -20.795385 -3.621062
endloop
endfacet
facet normal -0.000013 -0.004095 -0.999992
outer loop
vertex 15.759950 -10.399438 -3.663561
vertex 20.959217 -10.396928 -3.663640
vertex 20.961727 -15.596157 -3.642349
endloop
endfacet
facet normal -0.000013 -0.004095 -0.999992
outer loop
vertex 10.560677 -10.401948 -3.663482
vertex 15.759950 -10.399438 -3.663561
vertex 15.762457 -15.598671 -3.642272
endloop
endfacet
facet normal -0.000013 -0.004095 -0.999992
outer loop
vertex -15.448242 15.581635 -3.769535
vertex -10.248969 15.584146 -3.769613
vertex -10.246457 10.384919 -3.748324
endloop
endfacet
facet normal -0.000013 -0.004095 -0.999992
outer loop
vertex -15.450752 20.780865 -3.790823
vertex -10.251481 20.783381 -3.790902
vertex -10.248969 15.584146 -3.769613
endloop
endfacet
facet normal -0.000013 -0.004094 -0.999992
outer loop
vertex -20.650023 20.778355 -3.790743
vertex -15.450752 20.780865 -3.790823
vertex -15.448242 15.581635 -3.769535
endloop
endfacet
facet normal -0.000013 -0.004095 -0.999992
outer loop
vertex -5.049697 15.586657 -3.769692
vertex 0.149573 15.589170 -3.769771
vertex 0.152085 10.389943 -3.748482
endloop
endfacet
facet normal -0.000013 -0.004094 -0.999992
outer loop
vertex -5.052209 20.785889 -3.790981
vertex 0.147062 20.788401 -3.791059
vertex 0.149573 15.589170 -3.769771
endloop
endfacet
facet normal -0.000013 -0.004095 -0.999992
outer loop
vertex -10.251481 20.783381 -3.790902
vertex -5.052209 20.785889 -3.790981
vertex -5.049697 15.586657 -3.769692
endloop
endfacet
facet normal -0.000013 -0.004095 -0.999992
outer loop
vertex -5.044675 5.188202 -3.727113
vertex 0.154597 5.190713 -3.727192
vertex 0.157108 -0.008515 -3.705903
endloop
endfacet
facet normal -0.000013 -0.004095 -0.999992
outer loop
vertex -5.047186 10.387431 -3.748403
vertex 0.152085 10.389943 -3.748482
vertex 0.154597 5.190713 -3.727192
endloop
endfacet
facet normal -0.000013 -0.004095 -0.999992
outer loop
vertex -10.246457 10.384919 -3.748324
vertex -5.047186 10.387431 -3.748403
vertex -5.044675 5.188202 -3.727113
endloop
endfacet
facet normal -0.000013 -0.004095 -0.999992
outer loop
vertex -15.438196 -5.215280 -3.684377
vertex -10.238921 -5.212767 -3.684456
vertex -10.236410 -10.411995 -3.663167
endloop
endfacet
facet normal -0.000013 -0.004095 -0.999992
outer loop
vertex -15.440706 -0.016049 -3.705666
vertex -10.241434 -0.013537 -3.705745
vertex -10.238921 -5.212767 -3.684456
endloop
endfacet
facet normal -0.000013 -0.004095 -0.999992
outer loop
vertex -20.639978 -0.018560 -3.705586
vertex -15.440706 -0.016049 -3.705666
vertex -15.438196 -5.215280 -3.684377
endloop
endfacet
facet normal -0.000013 -0.004095 -0.999992
outer loop
vertex -5.039651 -5.210255 -3.684536
vertex 0.159620 -5.207744 -3.684614
vertex 0.162132 -10.406971 -3.663324
endloop
endfacet
facet normal -0.000013 -0.004095 -0.999992
outer loop
vertex -5.042163 -0.011026 -3.705823
vertex 0.157108 -0.008515 -3.705903
vertex 0.159620 -5.207744 -3.684614
endloop
endfacet
facet normal -0.000013 -0.004094 -0.999992
outer loop
vertex -10.241434 -0.013537 -3.705745
vertex -5.042163 -0.011026 -3.705823
vertex -5.039651 -5.210255 -3.684536
endloop
endfacet
facet normal -0.000013 -0.004095 -0.999992
outer loop
vertex -5.034628 -15.608714 -3.641955
vertex 0.164644 -15.606203 -3.642035
vertex 0.167155 -20.805431 -3.620746
endloop
endfacet
facet normal -0.000013 -0.004095 -0.999992
outer loop
vertex -5.037139 -10.409485 -3.663245
vertex 0.162132 -10.406971 -3.663324
vertex 0.164644 -15.606203 -3.642035
endloop
endfacet
facet normal -0.000013 -0.004095 -0.999992
outer loop
vertex -10.236410 -10.411995 -3.663167
vertex -5.037139 -10.409485 -3.663245
vertex -5.034628 -15.608714 -3.641955
endloop
endfacet
facet normal -0.000013 -0.004095 -0.999992
outer loop
vertex 5.348845 15.591680 -3.769850
vertex 10.548118 15.594193 -3.769929
vertex 10.550628 10.394964 -3.748640
endloop
endfacet
facet normal -0.000013 -0.004095 -0.999992
outer loop
vertex 5.346333 20.790915 -3.791138
vertex 10.545604 20.793423 -3.791217
vertex 10.548118 15.594193 -3.769929
endloop
endfacet
facet normal -0.000013 -0.004095 -0.999992
outer loop
vertex 0.147062 20.788401 -3.791059
vertex 5.346333 20.790915 -3.791138
vertex 5.348845 15.591680 -3.769850
endloop
endfacet
facet normal -0.000013 -0.004095 -0.999992
outer loop
vertex 15.747387 15.596704 -3.770008
vertex 20.946659 15.599219 -3.770087
vertex 20.949173 10.399988 -3.748798
endloop
endfacet
facet normal -0.000013 -0.004095 -0.999992
outer loop
vertex 15.744878 20.795935 -3.791296
vertex 20.944149 20.798447 -3.791375
vertex 20.946659 15.599219 -3.770087
endloop
endfacet
facet normal -0.000013 -0.004095 -0.999992
outer loop
vertex 10.545604 20.793423 -3.791217
vertex 15.744878 20.795935 -3.791296
vertex 15.747387 15.596704 -3.770008
endloop
endfacet
facet normal -0.000013 -0.004095 -0.999992
outer loop
vertex 15.752411 5.198248 -3.727429
vertex 20.951683 5.200759 -3.727508
vertex 20.954191 0.001531 -3.706218
endloop
endfacet
facet normal -0.000013 -0.004095 -0.999992
outer loop
vertex 15.749902 10.397476 -3.748718
vertex 20.949173 10.399988 -3.748798
vertex 20.951683 5.200759 -3.727508
endloop
endfacet
facet normal -0.000013 -0.004095 -0.999992
outer loop
vertex 10.550628 10.394964 -3.748640
vertex 15.749902 10.397476 -3.748718
vertex 15.752411 5.198248 -3.727429
endloop
endfacet
facet normal -0.000013 -0.004095 -0.999992
outer loop
vertex 5.353868 5.193225 -3.727271
vertex 10.553141 5.195736 -3.727350
vertex 10.555653 -0.003492 -3.706060
endloop
endfacet
facet normal -0.000013 -0.004095 -0.999992
outer loop
vertex 5.351356 10.392454 -3.748561
vertex 10.550628 10.394964 -3.748640
vertex 10.553141 5.195736 -3.727350
endloop
endfacet
facet normal -0.000013 -0.004095 -0.999992
outer loop
vertex 0.152085 10.389943 -3.748482
vertex 5.351356 10.392454 -3.748561
vertex 5.353868 5.193225 -3.727271
endloop
endfacet
facet normal -0.000013 -0.004094 -0.999992
outer loop
vertex -15.433172 -15.613737 -3.641798
vertex -10.233899 -15.611225 -3.641876
vertex -10.231387 -20.810455 -3.620589
endloop
endfacet
facet normal -0.000013 -0.004095 -0.999992
outer loop
vertex -15.435681 -10.414506 -3.663087
vertex -10.236410 -10.411995 -3.663167
vertex -10.233899 -15.611225 -3.641876
endloop
endfacet
facet normal -0.000013 -0.004095 -0.999992
outer loop
vertex -20.634954 -10.417018 -3.663009
vertex -15.435681 -10.414506 -3.663087
vertex -15.433172 -15.613737 -3.641798
endloop
endfacet
facet normal -0.000013 -0.004095 -0.999992
outer loop
vertex -15.443215 5.183179 -3.726955
vertex -10.243946 5.185691 -3.727035
vertex -10.241434 -0.013537 -3.705745
endloop
endfacet
facet normal -0.000013 -0.004095 -0.999992
outer loop
vertex -15.445728 10.382409 -3.748244
vertex -10.246457 10.384919 -3.748324
vertex -10.243946 5.185691 -3.727035
endloop
endfacet
facet normal -0.000013 -0.004095 -0.999992
outer loop
vertex -20.645000 10.379897 -3.748165
vertex -15.445728 10.382409 -3.748244
vertex -15.443215 5.183179 -3.726955
endloop
endfacet
facet normal -0.000013 -0.004095 -0.999992
outer loop
vertex 5.363915 -15.603691 -3.642114
vertex 10.563187 -15.601180 -3.642193
vertex 10.565699 -20.800409 -3.620904
endloop
endfacet
facet normal -0.000013 -0.004095 -0.999992
outer loop
vertex 5.361403 -10.404461 -3.663403
vertex 10.560677 -10.401948 -3.663482
vertex 10.563187 -15.601180 -3.642193
endloop
endfacet
facet normal -0.000013 -0.004095 -0.999992
outer loop
vertex 0.162132 -10.406971 -3.663324
vertex 5.361403 -10.404461 -3.663403
vertex 5.363915 -15.603691 -3.642114
endloop
endfacet
facet normal -1.000000 -0.000483 0.000016
outer loop
vertex -20.639900 0.004488 1.923371
vertex -20.639978 -0.018560 -3.705586
vertex -20.637466 -5.217790 -3.684299
endloop
endfacet
facet normal -1.000000 -0.000483 0.000015
outer loop
vertex -20.637392 -5.194741 1.944660
vertex -20.637466 -5.217790 -3.684299
vertex -20.634954 -10.417018 -3.663009
endloop
endfacet
facet normal 1.000000 0.000483 -0.000015
outer loop
vertex 20.961803 -15.573108 1.986607
vertex 20.964314 -20.772335 2.007897
vertex 20.964239 -20.795385 -3.621062
endloop
endfacet
facet normal 1.000000 0.000482 -0.000016
outer loop
vertex 20.959291 -10.373878 1.965319
vertex 20.961803 -15.573108 1.986607
vertex 20.961727 -15.596157 -3.642349
endloop
endfacet
facet normal -1.000000 -0.000483 0.000015
outer loop
vertex -20.634882 -10.393970 1.965951
vertex -20.634954 -10.417018 -3.663009
vertex -20.632442 -15.616248 -3.641718
endloop
endfacet
facet normal -1.000000 -0.000483 0.000015
outer loop
vertex -20.632368 -15.593200 1.987240
vertex -20.632442 -15.616248 -3.641718
vertex -20.629932 -20.815477 -3.620430
endloop
endfacet
facet normal -1.000000 -0.000483 0.000015
outer loop
vertex -20.649950 20.801403 1.838215
vertex -20.650023 20.778355 -3.790743
vertex -20.647512 15.579123 -3.769455
endloop
endfacet
facet normal -1.000000 -0.000483 0.000016
outer loop
vertex -20.647436 15.602175 1.859504
vertex -20.647512 15.579123 -3.769455
vertex -20.645000 10.379897 -3.748165
endloop
endfacet
facet normal 1.000000 0.000484 -0.000015
outer loop
vertex 20.956778 -5.174650 1.944029
vertex 20.959291 -10.373878 1.965319
vertex 20.959217 -10.396928 -3.663640
endloop
endfacet
facet normal 1.000000 0.000482 -0.000015
outer loop
vertex 20.954269 0.024580 1.922738
vertex 20.956778 -5.174650 1.944029
vertex 20.956707 -5.197700 -3.684930
endloop
endfacet
facet normal -1.000000 -0.000483 0.000015
outer loop
vertex -20.644926 10.402947 1.880792
vertex -20.645000 10.379897 -3.748165
vertex -20.642488 5.180668 -3.726877
endloop
endfacet
facet normal -1.000000 -0.000482 0.000015
outer loop
vertex -20.642416 5.203717 1.902082
vertex -20.642488 5.180668 -3.726877
vertex -20.639978 -0.018560 -3.705586
endloop
endfacet
facet normal 1.000000 0.000483 -0.000016
outer loop
vertex 20.951757 5.223807 1.901451
vertex 20.954269 0.024580 1.922738
vertex 20.954191 0.001531 -3.706218
endloop
endfacet
facet normal 1.000000 0.000483 -0.000015
outer loop
vertex 20.949245 10.423038 1.880160
vertex 20.951757 5.223807 1.901451
vertex 20.951683 5.200759 -3.727508
endloop
endfacet
facet normal 1.000000 0.000483 -0.000015
outer loop
vertex 20.946733 15.622266 1.858873
vertex 20.949245 10.423038 1.880160
vertex 20.949173 10.399988 -3.748798
endloop
endfacet
facet normal 1.000000 0.000484 -0.000015
outer loop
vertex 20.944221 20.821495 1.837585
vertex 20.946733 15.622266 1.858873
vertex 20.946659 15.599219 -3.770087
endloop
endfacet
facet normal -0.000483 0.999992 -0.004094
outer loop
vertex -5.052136 20.808939 1.837979
vertex 0.147136 20.811449 1.837900
vertex 0.147062 20.788401 -3.791059
endloop
endfacet
facet normal -0.000483 0.999991 -0.004095
outer loop
vertex -10.251408 20.806427 1.838057
vertex -5.052136 20.808939 1.837979
vertex -5.052209 20.785889 -3.790981
endloop
endfacet
facet normal -0.000483 0.999992 -0.004094
outer loop
vertex -15.450681 20.803915 1.838137
vertex -10.251408 20.806427 1.838057
vertex -10.251481 20.783381 -3.790902
endloop
endfacet
facet normal -0.000483 0.999992 -0.004095
outer loop
vertex -20.649950 20.801403 1.838215
vertex -15.450681 20.803915 1.838137
vertex -15.450752 20.780865 -3.790823
endloop
endfacet
facet normal 0.000483 -0.999991 0.004096
outer loop
vertex 5.366501 -20.779871 2.008134
vertex 0.167230 -20.782381 2.008213
vertex 0.167155 -20.805431 -3.620746
endloop
endfacet
facet normal 0.000483 -0.999992 0.004096
outer loop
vertex 10.565772 -20.777361 2.008055
vertex 5.366501 -20.779871 2.008134
vertex 5.366427 -20.802927 -3.620825
endloop
endfacet
facet normal 0.000483 -0.999991 0.004094
outer loop
vertex -15.430586 -20.789917 2.008451
vertex -20.629858 -20.792427 2.008529
vertex -20.629932 -20.815477 -3.620430
endloop
endfacet
facet normal 0.000483 -0.999992 0.004095
outer loop
vertex -10.231313 -20.787405 2.008371
vertex -15.430586 -20.789917 2.008451
vertex -15.430661 -20.812965 -3.620509
endloop
endfacet
facet normal 0.000484 -0.999992 0.004095
outer loop
vertex 15.765043 -20.774847 2.007976
vertex 10.565772 -20.777361 2.008055
vertex 10.565699 -20.800409 -3.620904
endloop
endfacet
facet normal 0.000483 -0.999991 0.004096
outer loop
vertex 20.964314 -20.772335 2.007897
vertex 15.765043 -20.774847 2.007976
vertex 15.764970 -20.797901 -3.620984
endloop
endfacet
facet normal -0.000483 0.999991 -0.004094
outer loop
vertex 15.744950 20.818983 1.837663
vertex 20.944221 20.821495 1.837585
vertex 20.944149 20.798447 -3.791375
endloop
endfacet
facet normal -0.000483 0.999991 -0.004094
outer loop
vertex 10.545678 20.816473 1.837741
vertex 15.744950 20.818983 1.837663
vertex 15.744878 20.795935 -3.791296
endloop
endfacet
facet normal 0.000483 -0.999991 0.004095
outer loop
vertex -5.032042 -20.784895 2.008292
vertex -10.231313 -20.787405 2.008371
vertex -10.231387 -20.810455 -3.620589
endloop
endfacet
facet normal 0.000484 -0.999991 0.004096
outer loop
vertex 0.167230 -20.782381 2.008213
vertex -5.032042 -20.784895 2.008292
vertex -5.032116 -20.807949 -3.620667
endloop
endfacet
facet normal -0.000483 0.999991 -0.004095
outer loop
vertex 5.346407 20.813961 1.837820
vertex 10.545678 20.816473 1.837741
vertex 10.545604 20.793423 -3.791217
endloop
endfacet
facet normal -0.000483 0.999992 -0.004095
outer loop
vertex 0.147136 20.811449 1.837900
vertex 5.346407 20.813961 1.837820
vertex 5.346333 20.790915 -3.791138
endloop
endfacet
facet normal 0.000013 0.004095 0.999992
outer loop
vertex 5.366501 -20.779871 2.008134
vertex 0.164718 -15.583155 1.986924
vertex 0.167230 -20.782381 2.008213
endloop
endfacet
facet normal 0.000013 0.004095 0.999992
outer loop
vertex -15.440631 0.007000 1.923291
vertex -20.642416 5.203717 1.902082
vertex -20.639900 0.004488 1.923371
endloop
endfacet
facet normal 0.000013 0.004095 0.999992
outer loop
vertex -15.430586 -20.789917 2.008451
vertex -20.632368 -15.593200 1.987240
vertex -20.629858 -20.792427 2.008529
endloop
endfacet
facet normal 0.000013 0.004095 0.999992
outer loop
vertex 5.356454 0.017045 1.922977
vertex 0.154671 5.213762 1.901767
vertex 0.157183 0.014534 1.923055
endloop
endfacet
facet normal 0.000013 0.004095 0.999992
outer loop
vertex 15.754997 0.022068 1.922818
vertex 10.553214 5.218785 1.901609
vertex 10.555726 0.019557 1.922898
endloop
endfacet
facet normal 0.000013 0.004094 0.999992
outer loop
vertex 15.749972 10.420526 1.880240
vertex 10.548192 15.617245 1.859030
vertex 10.550702 10.418015 1.880318
endloop
endfacet
facet normal 0.000013 0.004095 0.999992
outer loop
vertex 5.351431 10.415504 1.880398
vertex 0.149648 15.612221 1.859188
vertex 0.152159 10.412990 1.880477
endloop
endfacet
facet normal 0.000013 0.004095 0.999992
outer loop
vertex -5.032042 -20.784895 2.008292
vertex -10.233827 -15.588178 1.987082
vertex -10.231313 -20.787405 2.008371
endloop
endfacet
facet normal 0.000013 0.004095 0.999992
outer loop
vertex -5.037065 -10.386436 1.965713
vertex -10.238849 -5.189718 1.944502
vertex -10.236336 -10.388945 1.965792
endloop
endfacet
facet normal 0.000013 0.004095 0.999992
outer loop
vertex -15.435610 -10.391458 1.965871
vertex -20.637392 -5.194741 1.944660
vertex -20.634882 -10.393970 1.965951
endloop
endfacet
facet normal 0.000013 0.004095 0.999992
outer loop
vertex -5.042089 0.012023 1.923134
vertex -10.243870 5.208740 1.901924
vertex -10.241361 0.009512 1.923213
endloop
endfacet
facet normal 0.000013 0.004094 0.999992
outer loop
vertex -5.047112 10.410480 1.880556
vertex -10.248895 15.607196 1.859346
vertex -10.246386 10.407969 1.880634
endloop
endfacet
facet normal 0.000013 0.004094 0.999992
outer loop
vertex -15.445657 10.405457 1.880714
vertex -20.647436 15.602175 1.859504
vertex -20.644926 10.402947 1.880792
endloop
endfacet
facet normal 0.000013 0.004095 0.999992
outer loop
vertex 15.765043 -20.774847 2.007976
vertex 10.563261 -15.578131 1.986766
vertex 10.565772 -20.777361 2.008055
endloop
endfacet
facet normal 0.000013 0.004095 0.999992
outer loop
vertex 15.760019 -10.376389 1.965397
vertex 10.558237 -5.179674 1.944186
vertex 10.560750 -10.378901 1.965477
endloop
endfacet
facet normal 0.000013 0.004095 0.999992
outer loop
vertex 5.361477 -10.381413 1.965555
vertex 0.159694 -5.184695 1.944345
vertex 0.162206 -10.383922 1.965634
endloop
endfacet
facet normal 0.000013 0.004095 0.999992
outer loop
vertex 10.560750 -10.378901 1.965477
vertex 5.358966 -5.182184 1.944265
vertex 5.361477 -10.381413 1.965555
endloop
endfacet
facet normal 0.000013 0.004095 0.999992
outer loop
vertex 10.558237 -5.179674 1.944186
vertex 5.356454 0.017045 1.922977
vertex 5.358966 -5.182184 1.944265
endloop
endfacet
facet normal 0.000013 0.004095 0.999992
outer loop
vertex 5.358966 -5.182184 1.944265
vertex 0.157183 0.014534 1.923055
vertex 0.159694 -5.184695 1.944345
endloop
endfacet
facet normal 0.000013 0.004095 0.999992
outer loop
vertex 20.959291 -10.373878 1.965319
vertex 15.757506 -5.177161 1.944107
vertex 15.760019 -10.376389 1.965397
endloop
endfacet
facet normal 0.000013 0.004095 0.999992
outer loop
vertex 20.956778 -5.174650 1.944029
vertex 15.754997 0.022068 1.922818
vertex 15.757506 -5.177161 1.944107
endloop
endfacet
facet normal 0.000013 0.004095 0.999992
outer loop
vertex 15.757506 -5.177161 1.944107
vertex 10.555726 0.019557 1.922898
vertex 10.558237 -5.179674 1.944186
endloop
endfacet
facet normal 0.000013 0.004095 0.999992
outer loop
vertex 20.964314 -20.772335 2.007897
vertex 15.762533 -15.575619 1.986687
vertex 15.765043 -20.774847 2.007976
endloop
endfacet
facet normal 0.000013 0.004095 0.999992
outer loop
vertex 20.961803 -15.573108 1.986607
vertex 15.760019 -10.376389 1.965397
vertex 15.762533 -15.575619 1.986687
endloop
endfacet
facet normal 0.000013 0.004095 0.999992
outer loop
vertex 15.762533 -15.575619 1.986687
vertex 10.560750 -10.378901 1.965477
vertex 10.563261 -15.578131 1.986766
endloop
endfacet
facet normal 0.000013 0.004095 0.999992
outer loop
vertex -10.246386 10.407969 1.880634
vertex -15.448166 15.604684 1.859424
vertex -15.445657 10.405457 1.880714
endloop
endfacet
facet normal 0.000013 0.004094 0.999992
outer loop
vertex -10.248895 15.607196 1.859346
vertex -15.450681 20.803915 1.838137
vertex -15.448166 15.604684 1.859424
endloop
endfacet
facet normal 0.000013 0.004095 0.999992
outer loop
vertex -15.448166 15.604684 1.859424
vertex -20.649950 20.801403 1.838215
vertex -20.647436 15.602175 1.859504
endloop
endfacet
facet normal 0.000013 0.004095 0.999992
outer loop
vertex 0.152159 10.412990 1.880477
vertex -5.049624 15.609707 1.859267
vertex -5.047112 10.410480 1.880556
endloop
endfacet
facet normal 0.000013 0.004094 0.999992
outer loop
vertex 0.149648 15.612221 1.859188
vertex -5.052136 20.808939 1.837979
vertex -5.049624 15.609707 1.859267
endloop
endfacet
facet normal 0.000013 0.004095 0.999992
outer loop
vertex -5.049624 15.609707 1.859267
vertex -10.251408 20.806427 1.838057
vertex -10.248895 15.607196 1.859346
endloop
endfacet
facet normal 0.000013 0.004095 0.999992
outer loop
vertex 0.157183 0.014534 1.923055
vertex -5.044601 5.211250 1.901845
vertex -5.042089 0.012023 1.923134
endloop
endfacet
facet normal 0.000013 0.004095 0.999992
outer loop
vertex 0.154671 5.213762 1.901767
vertex -5.047112 10.410480 1.880556
vertex -5.044601 5.211250 1.901845
endloop
endfacet
facet normal 0.000013 0.004095 0.999992
outer loop
vertex -5.044601 5.211250 1.901845
vertex -10.246386 10.407969 1.880634
vertex -10.243870 5.208740 1.901924
endloop
endfacet
facet normal 0.000013 0.004095 0.999992
outer loop
vertex -10.236336 -10.388945 1.965792
vertex -15.438120 -5.192231 1.944582
vertex -15.435610 -10.391458 1.965871
endloop
endfacet
facet normal 0.000013 0.004095 0.999992
outer loop
vertex -10.238849 -5.189718 1.944502
vertex -15.440631 0.007000 1.923291
vertex -15.438120 -5.192231 1.944582
endloop
endfacet
facet normal 0.000013 0.004095 0.999992
outer loop
vertex -15.438120 -5.192231 1.944582
vertex -20.639900 0.004488 1.923371
vertex -20.637392 -5.194741 1.944660
endloop
endfacet
facet normal 0.000013 0.004095 0.999992
outer loop
vertex 0.162206 -10.383922 1.965634
vertex -5.039577 -5.187207 1.944423
vertex -5.037065 -10.386436 1.965713
endloop
endfacet
facet normal 0.000013 0.004095 0.999992
outer loop
vertex 0.159694 -5.184695 1.944345
vertex -5.042089 0.012023 1.923134
vertex -5.039577 -5.187207 1.944423
endloop
endfacet
facet normal 0.000013 0.004095 0.999992
outer loop
vertex -5.039577 -5.187207 1.944423
vertex -10.241361 0.009512 1.923213
vertex -10.238849 -5.189718 1.944502
endloop
endfacet
facet normal 0.000013 0.004095 0.999992
outer loop
vertex 0.167230 -20.782381 2.008213
vertex -5.034553 -15.585665 1.987002
vertex -5.032042 -20.784895 2.008292
endloop
endfacet
facet normal 0.000013 0.004095 0.999992
outer loop
vertex 0.164718 -15.583155 1.986924
vertex -5.037065 -10.386436 1.965713
vertex -5.034553 -15.585665 1.987002
endloop
endfacet
facet normal 0.000013 0.004095 0.999992
outer loop
vertex -5.034553 -15.585665 1.987002
vertex -10.236336 -10.388945 1.965792
vertex -10.233827 -15.588178 1.987082
endloop
endfacet
facet normal 0.000013 0.004095 0.999992
outer loop
vertex 10.550702 10.418015 1.880318
vertex 5.348919 15.614732 1.859109
vertex 5.351431 10.415504 1.880398
endloop
endfacet
facet normal 0.000013 0.004095 0.999992
outer loop
vertex 10.548192 15.617245 1.859030
vertex 5.346407 20.813961 1.837820
vertex 5.348919 15.614732 1.859109
endloop
endfacet
facet normal 0.000013 0.004094 0.999992
outer loop
vertex 5.348919 15.614732 1.859109
vertex 0.147136 20.811449 1.837900
vertex 0.149648 15.612221 1.859188
endloop
endfacet
facet normal 0.000013 0.004095 0.999992
outer loop
vertex 20.949245 10.423038 1.880160
vertex 15.747463 15.619755 1.858951
vertex 15.749972 10.420526 1.880240
endloop
endfacet
facet normal 0.000013 0.004094 0.999992
outer loop
vertex 20.946733 15.622266 1.858873
vertex 15.744950 20.818983 1.837663
vertex 15.747463 15.619755 1.858951
endloop
endfacet
facet normal 0.000013 0.004095 0.999992
outer loop
vertex 15.747463 15.619755 1.858951
vertex 10.545678 20.816473 1.837741
vertex 10.548192 15.617245 1.859030
endloop
endfacet
facet normal 0.000013 0.004095 0.999992
outer loop
vertex 20.954269 0.024580 1.922738
vertex 15.752487 5.221297 1.901529
vertex 15.754997 0.022068 1.922818
endloop
endfacet
facet normal 0.000013 0.004095 0.999992
outer loop
vertex 20.951757 5.223807 1.901451
vertex 15.749972 10.420526 1.880240
vertex 15.752487 5.221297 1.901529
endloop
endfacet
facet normal 0.000013 0.004095 0.999992
outer loop
vertex 15.752487 5.221297 1.901529
vertex 10.550702 10.418015 1.880318
vertex 10.553214 5.218785 1.901609
endloop
endfacet
facet normal 0.000013 0.004095 0.999992
outer loop
vertex 10.555726 0.019557 1.922898
vertex 5.353942 5.216273 1.901687
vertex 5.356454 0.017045 1.922977
endloop
endfacet
facet normal 0.000013 0.004095 0.999992
outer loop
vertex 10.553214 5.218785 1.901609
vertex 5.351431 10.415504 1.880398
vertex 5.353942 5.216273 1.901687
endloop
endfacet
facet normal 0.000013 0.004095 0.999992
outer loop
vertex 5.353942 5.216273 1.901687
vertex 0.152159 10.412990 1.880477
vertex 0.154671 5.213762 1.901767
endloop
endfacet
facet normal 0.000013 0.004095 0.999992
outer loop
vertex -10.231313 -20.787405 2.008371
vertex -15.433098 -15.590688 1.987160
vertex -15.430586 -20.789917 2.008451
endloop
endfacet
facet normal 0.000013 0.004095 0.999992
outer loop
vertex -10.233827 -15.588178 1.987082
vertex -15.435610 -10.391458 1.965871
vertex -15.433098 -15.590688 1.987160
endloop
endfacet
facet normal 0.000013 0.004095 0.999992
outer loop
vertex -15.433098 -15.590688 1.987160
vertex -20.634882 -10.393970 1.965951
vertex -20.632368 -15.593200 1.987240
endloop
endfacet
facet normal 0.000013 0.004094 0.999992
outer loop
vertex -10.241361 0.009512 1.923213
vertex -15.443144 5.206228 1.902004
vertex -15.440631 0.007000 1.923291
endloop
endfacet
facet normal 0.000013 0.004095 0.999992
outer loop
vertex -10.243870 5.208740 1.901924
vertex -15.445657 10.405457 1.880714
vertex -15.443144 5.206228 1.902004
endloop
endfacet
facet normal 0.000013 0.004095 0.999992
outer loop
vertex -15.443144 5.206228 1.902004
vertex -20.644926 10.402947 1.880792
vertex -20.642416 5.203717 1.902082
endloop
endfacet
facet normal 0.000013 0.004095 0.999992
outer loop
vertex 10.565772 -20.777361 2.008055
vertex 5.363989 -15.580644 1.986845
vertex 5.366501 -20.779871 2.008134
endloop
endfacet
facet normal 0.000013 0.004095 0.999992
outer loop
vertex 10.563261 -15.578131 1.986766
vertex 5.361477 -10.381413 1.965555
vertex 5.363989 -15.580644 1.986845
endloop
endfacet
facet normal 0.000013 0.004095 0.999992
outer loop
vertex 5.363989 -15.580644 1.986845
vertex 0.162206 -10.383922 1.965634
vertex 0.164718 -15.583155 1.986924
endloop
endfacet
facet normal -0.000013 -0.004094 -0.999992
outer loop
vertex 0.164644 -15.606203 -3.642035
vertex 5.366427 -20.802927 -3.620825
vertex 0.167155 -20.805431 -3.620746
endloop
endfacet
facet normal -0.000013 -0.004095 -0.999992
outer loop
vertex -20.642488 5.180668 -3.726877
vertex -15.440706 -0.016049 -3.705666
vertex -20.639978 -0.018560 -3.705586
endloop
endfacet
facet normal -0.000013 -0.004094 -0.999992
outer loop
vertex -20.632442 -15.616248 -3.641718
vertex -15.430661 -20.812965 -3.620509
vertex -20.629932 -20.815477 -3.620430
endloop
endfacet
facet normal -0.000013 -0.004095 -0.999992
outer loop
vertex 0.154597 5.190713 -3.727192
vertex 5.356380 -0.006003 -3.705982
vertex 0.157108 -0.008515 -3.705903
endloop
endfacet
facet normal -0.000013 -0.004095 -0.999992
outer loop
vertex 10.553141 5.195736 -3.727350
vertex 15.754919 -0.000981 -3.706140
vertex 10.555653 -0.003492 -3.706060
endloop
endfacet
facet normal -0.000013 -0.004095 -0.999992
outer loop
vertex 10.548118 15.594193 -3.769929
vertex 15.749902 10.397476 -3.748718
vertex 10.550628 10.394964 -3.748640
endloop
endfacet
facet normal -0.000013 -0.004095 -0.999992
outer loop
vertex 0.149573 15.589170 -3.769771
vertex 5.351356 10.392454 -3.748561
vertex 0.152085 10.389943 -3.748482
endloop
endfacet
facet normal -0.000013 -0.004094 -0.999992
outer loop
vertex -10.233899 -15.611225 -3.641876
vertex -5.032116 -20.807949 -3.620667
vertex -10.231387 -20.810455 -3.620589
endloop
endfacet
facet normal -0.000013 -0.004095 -0.999992
outer loop
vertex -10.238921 -5.212767 -3.684456
vertex -5.037139 -10.409485 -3.663245
vertex -10.236410 -10.411995 -3.663167
endloop
endfacet
facet normal -0.000013 -0.004095 -0.999992
outer loop
vertex -20.637466 -5.217790 -3.684299
vertex -15.435681 -10.414506 -3.663087
vertex -20.634954 -10.417018 -3.663009
endloop
endfacet
facet normal -0.000013 -0.004095 -0.999992
outer loop
vertex -10.243946 5.185691 -3.727035
vertex -5.042163 -0.011026 -3.705823
vertex -10.241434 -0.013537 -3.705745
endloop
endfacet
facet normal -0.000013 -0.004095 -0.999992
outer loop
vertex -10.248969 15.584146 -3.769613
vertex -5.047186 10.387431 -3.748403
vertex -10.246457 10.384919 -3.748324
endloop
endfacet
facet normal -0.000013 -0.004095 -0.999992
outer loop
vertex -20.647512 15.579123 -3.769455
vertex -15.445728 10.382409 -3.748244
vertex -20.645000 10.379897 -3.748165
endloop
endfacet
facet normal -0.000013 -0.004095 -0.999992
outer loop
vertex 10.563187 -15.601180 -3.642193
vertex 15.764970 -20.797901 -3.620984
vertex 10.565699 -20.800409 -3.620904
endloop
endfacet
facet normal -0.000013 -0.004095 -0.999992
outer loop
vertex 10.558164 -5.202722 -3.684772
vertex 15.759950 -10.399438 -3.663561
vertex 10.560677 -10.401948 -3.663482
endloop
endfacet
facet normal -0.000013 -0.004095 -0.999992
outer loop
vertex 0.159620 -5.207744 -3.684614
vertex 5.361403 -10.404461 -3.663403
vertex 0.162132 -10.406971 -3.663324
endloop
endfacet
facet normal -0.000013 -0.004095 -0.999992
outer loop
vertex 5.358891 -5.205233 -3.684693
vertex 10.560677 -10.401948 -3.663482
vertex 5.361403 -10.404461 -3.663403
endloop
endfacet
facet normal -0.000013 -0.004095 -0.999992
outer loop
vertex 5.356380 -0.006003 -3.705982
vertex 10.558164 -5.202722 -3.684772
vertex 5.358891 -5.205233 -3.684693
endloop
endfacet
facet normal -0.000013 -0.004095 -0.999992
outer loop
vertex 0.157108 -0.008515 -3.705903
vertex 5.358891 -5.205233 -3.684693
vertex 0.159620 -5.207744 -3.684614
endloop
endfacet
facet normal -0.000013 -0.004095 -0.999992
outer loop
vertex 15.757434 -5.200210 -3.684850
vertex 20.959217 -10.396928 -3.663640
vertex 15.759950 -10.399438 -3.663561
endloop
endfacet
facet normal -0.000013 -0.004095 -0.999992
outer loop
vertex 15.754919 -0.000981 -3.706140
vertex 20.956707 -5.197700 -3.684930
vertex 15.757434 -5.200210 -3.684850
endloop
endfacet
facet normal -0.000013 -0.004094 -0.999992
outer loop
vertex 10.555653 -0.003492 -3.706060
vertex 15.757434 -5.200210 -3.684850
vertex 10.558164 -5.202722 -3.684772
endloop
endfacet
facet normal -0.000013 -0.004094 -0.999992
outer loop
vertex 15.762457 -15.598671 -3.642272
vertex 20.964239 -20.795385 -3.621062
vertex 15.764970 -20.797901 -3.620984
endloop
endfacet
facet normal -0.000013 -0.004095 -0.999992
outer loop
vertex 15.759950 -10.399438 -3.663561
vertex 20.961727 -15.596157 -3.642349
vertex 15.762457 -15.598671 -3.642272
endloop
endfacet
facet normal -0.000013 -0.004095 -0.999992
outer loop
vertex 10.560677 -10.401948 -3.663482
vertex 15.762457 -15.598671 -3.642272
vertex 10.563187 -15.601180 -3.642193
endloop
endfacet
facet normal -0.000013 -0.004095 -0.999992
outer loop
vertex -15.448242 15.581635 -3.769535
vertex -10.246457 10.384919 -3.748324
vertex -15.445728 10.382409 -3.748244
endloop
endfacet
facet normal -0.000013 -0.004094 -0.999992
outer loop
vertex -15.450752 20.780865 -3.790823
vertex -10.248969 15.584146 -3.769613
vertex -15.448242 15.581635 -3.769535
endloop
endfacet
facet normal -0.000013 -0.004094 -0.999992
outer loop
vertex -20.650023 20.778355 -3.790743
vertex -15.448242 15.581635 -3.769535
vertex -20.647512 15.579123 -3.769455
endloop
endfacet
facet normal -0.000013 -0.004095 -0.999992
outer loop
vertex -5.049697 15.586657 -3.769692
vertex 0.152085 10.389943 -3.748482
vertex -5.047186 10.387431 -3.748403
endloop
endfacet
facet normal -0.000013 -0.004095 -0.999992
outer loop
vertex -5.052209 20.785889 -3.790981
vertex 0.149573 15.589170 -3.769771
vertex -5.049697 15.586657 -3.769692
endloop
endfacet
facet normal -0.000013 -0.004095 -0.999992
outer loop
vertex -10.251481 20.783381 -3.790902
vertex -5.049697 15.586657 -3.769692
vertex -10.248969 15.584146 -3.769613
endloop
endfacet
facet normal -0.000014 -0.004095 -0.999992
outer loop
vertex -5.044675 5.188202 -3.727113
vertex 0.157108 -0.008515 -3.705903
vertex -5.042163 -0.011026 -3.705823
endloop
endfacet
facet normal -0.000013 -0.004095 -0.999992
outer loop
vertex -5.047186 10.387431 -3.748403
vertex 0.154597 5.190713 -3.727192
vertex -5.044675 5.188202 -3.727113
endloop
endfacet
facet normal -0.000013 -0.004095 -0.999992
outer loop
vertex -10.246457 10.384919 -3.748324
vertex -5.044675 5.188202 -3.727113
vertex -10.243946 5.185691 -3.727035
endloop
endfacet
facet normal -0.000013 -0.004095 -0.999992
outer loop
vertex -15.438196 -5.215280 -3.684377
vertex -10.236410 -10.411995 -3.663167
vertex -15.435681 -10.414506 -3.663087
endloop
endfacet
facet normal -0.000013 -0.004095 -0.999992
outer loop
vertex -15.440706 -0.016049 -3.705666
vertex -10.238921 -5.212767 -3.684456
vertex -15.438196 -5.215280 -3.684377
endloop
endfacet
facet normal -0.000013 -0.004094 -0.999992
outer loop
vertex -20.639978 -0.018560 -3.705586
vertex -15.438196 -5.215280 -3.684377
vertex -20.637466 -5.217790 -3.684299
endloop
endfacet
facet normal -0.000013 -0.004095 -0.999992
outer loop
vertex -5.039651 -5.210255 -3.684536
vertex 0.162132 -10.406971 -3.663324
vertex -5.037139 -10.409485 -3.663245
endloop
endfacet
facet normal -0.000013 -0.004094 -0.999992
outer loop
vertex -5.042163 -0.011026 -3.705823
vertex 0.159620 -5.207744 -3.684614
vertex -5.039651 -5.210255 -3.684536
endloop
endfacet
facet normal -0.000013 -0.004095 -0.999992
outer loop
vertex -10.241434 -0.013537 -3.705745
vertex -5.039651 -5.210255 -3.684536
vertex -10.238921 -5.212767 -3.684456
endloop
endfacet
facet normal -0.000013 -0.004094 -0.999992
outer loop
vertex -5.034628 -15.608714 -3.641955
vertex 0.167155 -20.805431 -3.620746
vertex -5.032116 -20.807949 -3.620667
endloop
endfacet
facet normal -0.000013 -0.004095 -0.999992
outer loop
vertex -5.037139 -10.409485 -3.663245
vertex 0.164644 -15.606203 -3.642035
vertex -5.034628 -15.608714 -3.641955
endloop
endfacet
facet normal -0.000013 -0.004095 -0.999992
outer loop
vertex -10.236410 -10.411995 -3.663167
vertex -5.034628 -15.608714 -3.641955
vertex -10.233899 -15.611225 -3.641876
endloop
endfacet
facet normal -0.000013 -0.004095 -0.999992
outer loop
vertex 5.348845 15.591680 -3.769850
vertex 10.550628 10.394964 -3.748640
vertex 5.351356 10.392454 -3.748561
endloop
endfacet
facet normal -0.000013 -0.004095 -0.999992
outer loop
vertex 5.346333 20.790915 -3.791138
vertex 10.548118 15.594193 -3.769929
vertex 5.348845 15.591680 -3.769850
endloop
endfacet
facet normal -0.000013 -0.004094 -0.999992
outer loop
vertex 0.147062 20.788401 -3.791059
vertex 5.348845 15.591680 -3.769850
vertex 0.149573 15.589170 -3.769771
endloop
endfacet
facet normal -0.000014 -0.004095 -0.999992
outer loop
vertex 15.747387 15.596704 -3.770008
vertex 20.949173 10.399988 -3.748798
vertex 15.749902 10.397476 -3.748718
endloop
endfacet
facet normal -0.000013 -0.004095 -0.999992
outer loop
vertex 15.744878 20.795935 -3.791296
vertex 20.946659 15.599219 -3.770087
vertex 15.747387 15.596704 -3.770008
endloop
endfacet
facet normal -0.000013 -0.004095 -0.999992
outer loop
vertex 10.545604 20.793423 -3.791217
vertex 15.747387 15.596704 -3.770008
vertex 10.548118 15.594193 -3.769929
endloop
endfacet
facet normal -0.000013 -0.004095 -0.999992
outer loop
vertex 15.752411 5.198248 -3.727429
vertex 20.954191 0.001531 -3.706218
vertex 15.754919 -0.000981 -3.706140
endloop
endfacet
facet normal -0.000013 -0.004095 -0.999992
outer loop
vertex 15.749902 10.397476 -3.748718
vertex 20.951683 5.200759 -3.727508
vertex 15.752411 5.198248 -3.727429
endloop
endfacet
facet normal -0.000013 -0.004095 -0.999992
outer loop
vertex 10.550628 10.394964 -3.748640
vertex 15.752411 5.198248 -3.727429
vertex 10.553141 5.195736 -3.727350
endloop
endfacet
facet normal -0.000013 -0.004095 -0.999992
outer loop
vertex 5.353868 5.193225 -3.727271
vertex 10.555653 -0.003492 -3.706060
vertex 5.356380 -0.006003 -3.705982
endloop
endfacet
facet normal -0.000013 -0.004095 -0.999992
outer loop
vertex 5.351356 10.392454 -3.748561
vertex 10.553141 5.195736 -3.727350
vertex 5.353868 5.193225 -3.727271
endloop
endfacet
facet normal -0.000013 -0.004095 -0.999992
outer loop
vertex 0.152085 10.389943 -3.748482
vertex 5.353868 5.193225 -3.727271
vertex 0.154597 5.190713 -3.727192
endloop
endfacet
facet normal -0.000013 -0.004095 -0.999992
outer loop
vertex -15.433172 -15.613737 -3.641798
vertex -10.231387 -20.810455 -3.620589
vertex -15.430661 -20.812965 -3.620509
endloop
endfacet
facet normal -0.000013 -0.004095 -0.999992
outer loop
vertex -15.435681 -10.414506 -3.663087
vertex -10.233899 -15.611225 -3.641876
vertex -15.433172 -15.613737 -3.641798
endloop
endfacet
facet normal -0.000013 -0.004095 -0.999992
outer loop
vertex -20.634954 -10.417018 -3.663009
vertex -15.433172 -15.613737 -3.641798
vertex -20.632442 -15.616248 -3.641718
endloop
endfacet
facet normal -0.000013 -0.004095 -0.999992
outer loop
vertex -15.443215 5.183179 -3.726955
vertex -10.241434 -0.013537 -3.705745
vertex -15.440706 -0.016049 -3.705666
endloop
endfacet
facet normal -0.000013 -0.004095 -0.999992
outer loop
vertex -15.445728 10.382409 -3.748244
vertex -10.243946 5.185691 -3.727035
vertex -15.443215 5.183179 -3.726955
endloop
endfacet
facet normal -0.000013 -0.004094 -0.999992
outer loop
vertex -20.645000 10.379897 -3.748165
vertex -15.443215 5.183179 -3.726955
vertex -20.642488 5.180668 -3.726877
endloop
endfacet
facet normal -0.000013 -0.004095 -0.999992
outer loop
vertex 5.363915 -15.603691 -3.642114
vertex 10.565699 -20.800409 -3.620904
vertex 5.366427 -20.802927 -3.620825
endloop
endfacet
facet normal -0.000013 -0.004095 -0.999992
outer loop
vertex 5.361403 -10.404461 -3.663403
vertex 10.563187 -15.601180 -3.642193
vertex 5.363915 -15.603691 -3.642114
endloop
endfacet
facet normal -0.000013 -0.004095 -0.999992
outer loop
vertex 0.162132 -10.406971 -3.663324
vertex 5.363915 -15.603691 -3.642114
vertex 0.164644 -15.606203 -3.642035
endloop
endfacet
facet normal -1.000000 -0.000483 0.000015
outer loop
vertex -20.639900 0.004488 1.923371
vertex -20.637466 -5.217790 -3.684299
vertex -20.637392 -5.194741 1.944660
endloop
endfacet
facet normal -1.000000 -0.000482 0.000015
outer loop
vertex -20.637392 -5.194741 1.944660
vertex -20.634954 -10.417018 -3.663009
vertex -20.634882 -10.393970 1.965951
endloop
endfacet
facet normal 1.000000 0.000483 -0.000016
outer loop
vertex 20.961803 -15.573108 1.986607
vertex 20.964239 -20.795385 -3.621062
vertex 20.961727 -15.596157 -3.642349
endloop
endfacet
facet normal 1.000000 0.000483 -0.000015
outer loop
vertex 20.959291 -10.373878 1.965319
vertex 20.961727 -15.596157 -3.642349
vertex 20.959217 -10.396928 -3.663640
endloop
endfacet
facet normal -1.000000 -0.000484 0.000015
outer loop
vertex -20.634882 -10.393970 1.965951
vertex -20.632442 -15.616248 -3.641718
vertex -20.632368 -15.593200 1.987240
endloop
endfacet
facet normal -1.000000 -0.000483 0.000015
outer loop
vertex -20.632368 -15.593200 1.987240
vertex -20.629932 -20.815477 -3.620430
vertex -20.629858 -20.792427 2.008529
endloop
endfacet
facet normal -1.000000 -0.000484 0.000016
outer loop
vertex -20.649950 20.801403 1.838215
vertex -20.647512 15.579123 -3.769455
vertex -20.647436 15.602175 1.859504
endloop
endfacet
facet normal -1.000000 -0.000482 0.000015
outer loop
vertex -20.647436 15.602175 1.859504
vertex -20.645000 10.379897 -3.748165
vertex -20.644926 10.402947 1.880792
endloop
endfacet
facet normal 1.000000 0.000483 -0.000015
outer loop
vertex 20.956778 -5.174650 1.944029
vertex 20.959217 -10.396928 -3.663640
vertex 20.956707 -5.197700 -3.684930
endloop
endfacet
facet normal 1.000000 0.000483 -0.000016
outer loop
vertex 20.954269 0.024580 1.922738
vertex 20.956707 -5.197700 -3.684930
vertex 20.954191 0.001531 -3.706218
endloop
endfacet
facet normal -1.000000 -0.000483 0.000015
outer loop
vertex -20.644926 10.402947 1.880792
vertex -20.642488 5.180668 -3.726877
vertex -20.642416 5.203717 1.902082
endloop
endfacet
facet normal -1.000000 -0.000484 0.000016
outer loop
vertex -20.642416 5.203717 1.902082
vertex -20.639978 -0.018560 -3.705586
vertex -20.639900 0.004488 1.923371
endloop
endfacet
facet normal 1.000000 0.000482 -0.000015
outer loop
vertex 20.951757 5.223807 1.901451
vertex 20.954191 0.001531 -3.706218
vertex 20.951683 5.200759 -3.727508
endloop
endfacet
facet normal 1.000000 0.000484 -0.000015
outer loop
vertex 20.949245 10.423038 1.880160
vertex 20.951683 5.200759 -3.727508
vertex 20.949173 10.399988 -3.748798
endloop
endfacet
facet normal 1.000000 0.000483 -0.000015
outer loop
vertex 20.946733 15.622266 1.858873
vertex 20.949173 10.399988 -3.748798
vertex 20.946659 15.599219 -3.770087
endloop
endfacet
facet normal 1.000000 0.000483 -0.000015
outer loop
vertex 20.944221 20.821495 1.837585
vertex 20.946659 15.599219 -3.770087
vertex 20.944149 20.798447 -3.791375
endloop
endfacet
facet normal -0.000483 0.999992 -0.004095
outer loop
vertex -5.052136 20.808939 1.837979
vertex 0.147062 20.788401 -3.791059
vertex -5.052209 20.785889 -3.790981
endloop
endfacet
facet normal -0.000482 0.999992 -0.004094
outer loop
vertex -10.251408 20.806427 1.838057
vertex -5.052209 20.785889 -3.790981
vertex -10.251481 20.783381 -3.790902
endloop
endfacet
facet normal -0.000484 0.999992 -0.004095
outer loop
vertex -15.450681 20.803915 1.838137
vertex -10.251481 20.783381 -3.790902
vertex -15.450752 20.780865 -3.790823
endloop
endfacet
facet normal -0.000483 0.999992 -0.004095
outer loop
vertex -20.649950 20.801403 1.838215
vertex -15.450752 20.780865 -3.790823
vertex -20.650023 20.778355 -3.790743
endloop
endfacet
facet normal 0.000482 -0.999992 0.004096
outer loop
vertex 5.366501 -20.779871 2.008134
vertex 0.167155 -20.805431 -3.620746
vertex 5.366427 -20.802927 -3.620825
endloop
endfacet
facet normal 0.000484 -0.999992 0.004094
outer loop
vertex 10.565772 -20.777361 2.008055
vertex 5.366427 -20.802927 -3.620825
vertex 10.565699 -20.800409 -3.620904
endloop
endfacet
facet normal 0.000483 -0.999991 0.004095
outer loop
vertex -15.430586 -20.789917 2.008451
vertex -20.629932 -20.815477 -3.620430
vertex -15.430661 -20.812965 -3.620509
endloop
endfacet
facet normal 0.000483 -0.999991 0.004095
outer loop
vertex -10.231313 -20.787405 2.008371
vertex -15.430661 -20.812965 -3.620509
vertex -10.231387 -20.810455 -3.620589
endloop
endfacet
facet normal 0.000482 -0.999992 0.004096
outer loop
vertex 15.765043 -20.774847 2.007976
vertex 10.565699 -20.800409 -3.620904
vertex 15.764970 -20.797901 -3.620984
endloop
endfacet
facet normal 0.000484 -0.999992 0.004095
outer loop
vertex 20.964314 -20.772335 2.007897
vertex 15.764970 -20.797901 -3.620984
vertex 20.964239 -20.795385 -3.621062
endloop
endfacet
facet normal -0.000483 0.999992 -0.004095
outer loop
vertex 15.744950 20.818983 1.837663
vertex 20.944149 20.798447 -3.791375
vertex 15.744878 20.795935 -3.791296
endloop
endfacet
facet normal -0.000483 0.999991 -0.004095
outer loop
vertex 10.545678 20.816473 1.837741
vertex 15.744878 20.795935 -3.791296
vertex 10.545604 20.793423 -3.791217
endloop
endfacet
facet normal 0.000482 -0.999991 0.004095
outer loop
vertex -5.032042 -20.784895 2.008292
vertex -10.231387 -20.810455 -3.620589
vertex -5.032116 -20.807949 -3.620667
endloop
endfacet
facet normal 0.000484 -0.999991 0.004094
outer loop
vertex 0.167230 -20.782381 2.008213
vertex -5.032116 -20.807949 -3.620667
vertex 0.167155 -20.805431 -3.620746
endloop
endfacet
facet normal -0.000482 0.999992 -0.004094
outer loop
vertex 5.346407 20.813961 1.837820
vertex 10.545604 20.793423 -3.791217
vertex 5.346333 20.790915 -3.791138
endloop
endfacet
facet normal -0.000484 0.999992 -0.004095
outer loop
vertex 0.147136 20.811449 1.837900
vertex 5.346333 20.790915 -3.791138
vertex 0.147062 20.788401 -3.791059
endloop
endfacet
endsolid Exported from Blender-2.81 (sub 16)
