solid Exported from Blender-2.81 (sub 16)
facet normal 0.643167 0.567269 -0.514337
outer loop
vertex -0.107734 -0.719576 1.498509
vertex -2.057002 0.028250 -0.114218
vertex -1.459858 1.245833 1.975386
endloop
endfacet
facet normal 0.654803 0.087945 -0.750666
outer loop
vertex -2.057002 0.028250 -0.114218
vertex -0.107734 -0.719576 1.498509
vertex -1.734500 -2.241137 -0.098774
endloop
endfacet
facet normal 0.359524 -0.478958 0.800838
outer loop
vertex -0.142292 -0.806105 -1.472802
vertex -0.019786 1.781328 0.019669
vertex -2.057002 0.028250 -0.114218
endloop
endfacet
facet normal -0.366807 -0.451733 0.813259
outer loop
vertex -0.019786 1.781328 0.019669
vertex -0.142292 -0.806105 -1.472802
vertex 2.187869 -0.286447 -0.133173
endloop
endfacet
facet normal -0.464166 -0.438688 -0.769482
outer loop
vertex -0.107734 -0.719576 1.498509
vertex -0.019786 1.781328 0.019669
vertex 2.187869 -0.286447 -0.133173
endloop
endfacet
facet normal -0.203253 0.978777 -0.026139
outer loop
vertex -0.142292 -0.806105 -1.472802
vertex -0.107734 -0.719576 1.498509
vertex 2.187869 -0.286447 -0.133173
endloop
endfacet
facet normal 0.602348 0.090996 0.793030
outer loop
vertex -0.142292 -0.806105 -1.472802
vertex -2.057002 0.028250 -0.114218
vertex -1.734500 -2.241137 -0.098774
endloop
endfacet
facet normal -0.675879 0.736887 -0.013598
outer loop
vertex -0.107734 -0.719576 1.498509
vertex -0.142292 -0.806105 -1.472802
vertex -1.734500 -2.241137 -0.098774
endloop
endfacet
facet normal -0.710679 -0.339400 -0.616233
outer loop
vertex -0.019786 1.781328 0.019669
vertex -0.107734 -0.719576 1.498509
vertex -1.459858 1.245833 1.975386
endloop
endfacet
facet normal 0.621145 -0.741251 0.254412
outer loop
vertex -2.057002 0.028250 -0.114218
vertex -0.019786 1.781328 0.019669
vertex -1.459858 1.245833 1.975386
endloop
endfacet
endsolid Exported from Blender-2.81 (sub 16)
